%TF.GenerationSoftware,KiCad,Pcbnew,9.0.3-9.0.3-0~ubuntu22.04.1*%
%TF.CreationDate,2025-09-08T21:59:57-03:00*%
%TF.ProjectId,control,636f6e74-726f-46c2-9e6b-696361645f70,rev?*%
%TF.SameCoordinates,Original*%
%TF.FileFunction,Soldermask,Bot*%
%TF.FilePolarity,Negative*%
%FSLAX46Y46*%
G04 Gerber Fmt 4.6, Leading zero omitted, Abs format (unit mm)*
G04 Created by KiCad (PCBNEW 9.0.3-9.0.3-0~ubuntu22.04.1) date 2025-09-08 21:59:57*
%MOMM*%
%LPD*%
G01*
G04 APERTURE LIST*
G04 Aperture macros list*
%AMRoundRect*
0 Rectangle with rounded corners*
0 $1 Rounding radius*
0 $2 $3 $4 $5 $6 $7 $8 $9 X,Y pos of 4 corners*
0 Add a 4 corners polygon primitive as box body*
4,1,4,$2,$3,$4,$5,$6,$7,$8,$9,$2,$3,0*
0 Add four circle primitives for the rounded corners*
1,1,$1+$1,$2,$3*
1,1,$1+$1,$4,$5*
1,1,$1+$1,$6,$7*
1,1,$1+$1,$8,$9*
0 Add four rect primitives between the rounded corners*
20,1,$1+$1,$2,$3,$4,$5,0*
20,1,$1+$1,$4,$5,$6,$7,0*
20,1,$1+$1,$6,$7,$8,$9,0*
20,1,$1+$1,$8,$9,$2,$3,0*%
G04 Aperture macros list end*
%ADD10C,2.000000*%
%ADD11R,1.700000X1.700000*%
%ADD12C,1.700000*%
%ADD13C,3.500000*%
%ADD14R,1.905000X2.000000*%
%ADD15O,1.905000X2.000000*%
%ADD16R,3.000000X3.000000*%
%ADD17C,3.000000*%
%ADD18C,1.600000*%
%ADD19R,1.800000X1.800000*%
%ADD20C,1.800000*%
%ADD21C,1.400000*%
%ADD22RoundRect,0.250000X0.550000X0.550000X-0.550000X0.550000X-0.550000X-0.550000X0.550000X-0.550000X0*%
%ADD23RoundRect,0.250000X0.550000X-0.550000X0.550000X0.550000X-0.550000X0.550000X-0.550000X-0.550000X0*%
%ADD24C,1.704000*%
%ADD25C,1.500000*%
%ADD26RoundRect,0.250000X-0.550000X-0.550000X0.550000X-0.550000X0.550000X0.550000X-0.550000X0.550000X0*%
%ADD27C,3.204000*%
%ADD28C,2.004000*%
G04 APERTURE END LIST*
D10*
%TO.C,SW3*%
X130100000Y-150250000D03*
X136600000Y-150250000D03*
X130100000Y-154750000D03*
X136600000Y-154750000D03*
%TD*%
%TO.C,SW11*%
X79350000Y-99500000D03*
X85850000Y-99500000D03*
X79350000Y-104000000D03*
X85850000Y-104000000D03*
%TD*%
D11*
%TO.C,U10*%
X215220000Y-147150000D03*
D12*
X217760000Y-147150000D03*
X220300000Y-147150000D03*
%TD*%
D13*
%TO.C,U9*%
X78100000Y-80780000D03*
D14*
X80640000Y-64120000D03*
D15*
X78100000Y-64120000D03*
X75560000Y-64120000D03*
%TD*%
D16*
%TO.C,U1*%
X209580000Y-42500000D03*
D17*
X204500000Y-42500000D03*
%TD*%
D10*
%TO.C,SW8*%
X66300000Y-89400000D03*
X72800000Y-89400000D03*
X66300000Y-93900000D03*
X72800000Y-93900000D03*
%TD*%
D18*
%TO.C,RV1*%
X207420000Y-82600000D03*
X212500000Y-82600000D03*
X217580000Y-82600000D03*
%TD*%
D19*
%TO.C,D1*%
X192320000Y-62150000D03*
D20*
X192320000Y-59610000D03*
%TD*%
D21*
%TO.C,R2*%
X200050000Y-72030000D03*
X200050000Y-66950000D03*
%TD*%
D10*
%TO.C,SW4*%
X144850000Y-150250000D03*
X151350000Y-150250000D03*
X144850000Y-154750000D03*
X151350000Y-154750000D03*
%TD*%
D22*
%TO.C,C2*%
X72100000Y-64150000D03*
D18*
X70100000Y-64150000D03*
%TD*%
D10*
%TO.C,SW5*%
X159350000Y-150250000D03*
X165850000Y-150250000D03*
X159350000Y-154750000D03*
X165850000Y-154750000D03*
%TD*%
D18*
%TO.C,U13*%
X102100000Y-89050000D03*
X104640000Y-89050000D03*
X107180000Y-89050000D03*
X109720000Y-89050000D03*
X112260000Y-89050000D03*
X114800000Y-89050000D03*
X117340000Y-89050000D03*
X119880000Y-89050000D03*
X122420000Y-89050000D03*
X124960000Y-89050000D03*
X127500000Y-89050000D03*
X130040000Y-89050000D03*
X132580000Y-89050000D03*
X135120000Y-89050000D03*
X137660000Y-89050000D03*
X140200000Y-89050000D03*
%TD*%
D22*
%TO.C,C4*%
X139400000Y-80500000D03*
D18*
X137400000Y-80500000D03*
%TD*%
D11*
%TO.C,U7*%
X130300000Y-42710000D03*
D12*
X130300000Y-45250000D03*
X130300000Y-47790000D03*
%TD*%
D10*
%TO.C,SW7*%
X193450000Y-97550000D03*
X199950000Y-97550000D03*
X193450000Y-102050000D03*
X199950000Y-102050000D03*
%TD*%
D21*
%TO.C,R4*%
X206350000Y-72030000D03*
X206350000Y-66950000D03*
%TD*%
D23*
%TO.C,U12*%
X176740000Y-157550000D03*
D18*
X179280000Y-157550000D03*
X181820000Y-157550000D03*
X184360000Y-157550000D03*
X186900000Y-157550000D03*
X189440000Y-157550000D03*
X191980000Y-157550000D03*
X194520000Y-157550000D03*
X197060000Y-157550000D03*
X199600000Y-157550000D03*
X202140000Y-157550000D03*
X204680000Y-157550000D03*
X207220000Y-157550000D03*
X209760000Y-157550000D03*
X209760000Y-149930000D03*
X207220000Y-149930000D03*
X204680000Y-149930000D03*
X202140000Y-149930000D03*
X199600000Y-149930000D03*
X197060000Y-149930000D03*
X194520000Y-149930000D03*
X191980000Y-149930000D03*
X189440000Y-149930000D03*
X186900000Y-149930000D03*
X184360000Y-149930000D03*
X181820000Y-149930000D03*
X179280000Y-149930000D03*
X176740000Y-149930000D03*
%TD*%
D19*
%TO.C,D5*%
X214200000Y-62150000D03*
D20*
X214200000Y-59610000D03*
%TD*%
D21*
%TO.C,R3*%
X203200000Y-72030000D03*
X203200000Y-66950000D03*
%TD*%
D24*
%TO.C,U3*%
X200350000Y-122028620D03*
X200350000Y-132028620D03*
X213050000Y-122028620D03*
X213050000Y-132028620D03*
D20*
X197950000Y-129628620D03*
X209150000Y-135828620D03*
X197950000Y-124628620D03*
D25*
X203450000Y-116828620D03*
D20*
X204150000Y-135828620D03*
D25*
X209850000Y-116828620D03*
D20*
X206650000Y-135828620D03*
X197950000Y-127128620D03*
D25*
X203450000Y-121328620D03*
X209850000Y-121328620D03*
%TD*%
D10*
%TO.C,SW9*%
X66300000Y-99550000D03*
X72800000Y-99550000D03*
X66300000Y-104050000D03*
X72800000Y-104050000D03*
%TD*%
D26*
%TO.C,C3*%
X139000000Y-72900000D03*
D18*
X141000000Y-72900000D03*
%TD*%
D27*
%TO.C,SW1*%
X196200000Y-42300000D03*
X191700000Y-42300000D03*
X187200000Y-42300000D03*
%TD*%
D26*
%TO.C,C1*%
X84100000Y-64120000D03*
D18*
X86100000Y-64120000D03*
%TD*%
%TO.C,U6*%
X78260000Y-55150000D03*
X80800000Y-55150000D03*
X70640000Y-55150000D03*
X83340000Y-55150000D03*
X85880000Y-55150000D03*
X88420000Y-55150000D03*
X90960000Y-55150000D03*
X68100000Y-55150000D03*
X75720000Y-55150000D03*
X73180000Y-55150000D03*
%TD*%
D19*
%TO.C,D2*%
X197790000Y-62150000D03*
D20*
X197790000Y-59610000D03*
%TD*%
D21*
%TO.C,R1*%
X196900000Y-72030000D03*
X196900000Y-66950000D03*
%TD*%
D18*
%TO.C,U8*%
X116880000Y-42050000D03*
X114340000Y-42050000D03*
X111800000Y-42050000D03*
X109260000Y-42050000D03*
X106720000Y-42050000D03*
X104180000Y-42050000D03*
X116860000Y-54850000D03*
X114320000Y-54850000D03*
X111780000Y-54850000D03*
X109240000Y-54850000D03*
X106700000Y-54850000D03*
X104160000Y-54850000D03*
%TD*%
D10*
%TO.C,SW2*%
X115350000Y-150250000D03*
X121850000Y-150250000D03*
X115350000Y-154750000D03*
X121850000Y-154750000D03*
%TD*%
D18*
%TO.C,U5*%
X137900000Y-46090000D03*
X137900000Y-43550000D03*
X140440000Y-46090000D03*
X140440000Y-43550000D03*
X142980000Y-46090000D03*
X142980000Y-43550000D03*
X145520000Y-46090000D03*
X145520000Y-43550000D03*
%TD*%
D19*
%TO.C,D4*%
X208730000Y-62150000D03*
D20*
X208730000Y-59610000D03*
%TD*%
D10*
%TO.C,SW6*%
X193350000Y-86300000D03*
X199850000Y-86300000D03*
X193350000Y-90800000D03*
X199850000Y-90800000D03*
%TD*%
%TO.C,SW10*%
X79350000Y-89350000D03*
X85850000Y-89350000D03*
X79350000Y-93850000D03*
X85850000Y-93850000D03*
%TD*%
D18*
%TO.C,U2*%
X181300000Y-76490000D03*
X181300000Y-73950000D03*
X181300000Y-71410000D03*
X181300000Y-68870000D03*
X181300000Y-66330000D03*
X181300000Y-63790000D03*
X181300000Y-61250000D03*
X181300000Y-58710000D03*
X181300000Y-56170000D03*
X181300000Y-53630000D03*
X181300000Y-51090000D03*
X181300000Y-48550000D03*
X181300000Y-46010000D03*
X181300000Y-43470000D03*
X181300000Y-40930000D03*
X155900000Y-76490000D03*
X155900000Y-73950000D03*
X155900000Y-71410000D03*
X155900000Y-68870000D03*
X155900000Y-66330000D03*
X155900000Y-63790000D03*
X155900000Y-61250000D03*
X155900000Y-58710000D03*
X155900000Y-56170000D03*
X155900000Y-53630000D03*
X155900000Y-51090000D03*
X155900000Y-48550000D03*
X155900000Y-46010000D03*
X155900000Y-43470000D03*
X155900000Y-40930000D03*
%TD*%
D21*
%TO.C,R5*%
X209500000Y-72030000D03*
X209500000Y-66950000D03*
%TD*%
D19*
%TO.C,D3*%
X203260000Y-62150000D03*
D20*
X203260000Y-59610000D03*
%TD*%
D24*
%TO.C,U4*%
X69380000Y-122079839D03*
X69380000Y-132079839D03*
X82080000Y-122079839D03*
X82080000Y-132079839D03*
D28*
X66980000Y-129679839D03*
X78180000Y-135879839D03*
X66980000Y-124679839D03*
D24*
X72480000Y-116879839D03*
D28*
X73180000Y-135879839D03*
D24*
X78880000Y-116879839D03*
D28*
X75680000Y-135879839D03*
X66980000Y-127179839D03*
D24*
X72480000Y-121379839D03*
X78880000Y-121379839D03*
%TD*%
D18*
%TO.C,U11*%
X92900000Y-76280000D03*
X92900000Y-73740000D03*
X92900000Y-71200000D03*
X92900000Y-68660000D03*
X92920000Y-82500000D03*
X95460000Y-82500000D03*
X98000000Y-82500000D03*
X100540000Y-82500000D03*
X103080000Y-82500000D03*
X105620000Y-82500000D03*
X108160000Y-82500000D03*
X110700000Y-82500000D03*
X113240000Y-82500000D03*
X115780000Y-82500000D03*
X118320000Y-82500000D03*
X120860000Y-82500000D03*
X123400000Y-82500000D03*
X125940000Y-82500000D03*
X128480000Y-82500000D03*
X131020000Y-82500000D03*
%TD*%
M02*
