M48
; DRILL file {KiCad 9.0.3-9.0.3-0~ubuntu22.04.1} date 2025-09-08T22:00:41-0300
; FORMAT={-:-/ absolute / metric / decimal}
; #@! TF.CreationDate,2025-09-08T22:00:41-03:00
; #@! TF.GenerationSoftware,Kicad,Pcbnew,9.0.3-9.0.3-0~ubuntu22.04.1
; #@! TF.FileFunction,Plated,1,2,PTH
FMAT,2
METRIC
; #@! TA.AperFunction,Plated,PTH,ViaDrill
T1C0.300
; #@! TA.AperFunction,Plated,PTH,ComponentDrill
T2C0.700
; #@! TA.AperFunction,Plated,PTH,ComponentDrill
T3C0.800
; #@! TA.AperFunction,Plated,PTH,ComponentDrill
T4C0.900
; #@! TA.AperFunction,Plated,PTH,ComponentDrill
T5C1.000
; #@! TA.AperFunction,Plated,PTH,ComponentDrill
T6C1.100
; #@! TA.AperFunction,Plated,PTH,ComponentDrill
T7C1.200
; #@! TA.AperFunction,Plated,PTH,ComponentDrill
T8C1.520
; #@! TA.AperFunction,Plated,PTH,ComponentDrill
T9C2.200
%
G90
G05
T1
X88.063Y-113.195
X88.431Y-112.484
X88.589Y-111.7
X88.6Y-110.9
X102.703Y-127.848
X103.359Y-127.389
X104.24Y-127.26
X105.1Y-127.2
X146.9Y-50.25
X167.1Y-85.1
X177.7Y-119.7
X178.56Y-119.76
X179.346Y-119.974
X180.132Y-120.122
X181.3Y-120.9
X193.7Y-104.5
X193.7Y-105.3
X193.7Y-106.1
X193.7Y-106.9
X193.9Y-108.3
T2
X196.9Y-66.95
X196.9Y-72.03
X200.05Y-66.95
X200.05Y-72.03
X203.2Y-66.95
X203.2Y-72.03
X206.35Y-66.95
X206.35Y-72.03
X209.5Y-66.95
X209.5Y-72.03
T3
X68.1Y-55.15
X70.1Y-64.15
X70.64Y-55.15
X72.1Y-64.15
X73.18Y-55.15
X75.72Y-55.15
X78.26Y-55.15
X80.8Y-55.15
X83.34Y-55.15
X84.1Y-64.12
X85.88Y-55.15
X86.1Y-64.12
X88.42Y-55.15
X90.96Y-55.15
X92.9Y-68.66
X92.9Y-71.2
X92.9Y-73.74
X92.9Y-76.28
X92.92Y-82.5
X95.46Y-82.5
X98.0Y-82.5
X100.54Y-82.5
X102.1Y-89.05
X103.08Y-82.5
X104.16Y-54.85
X104.18Y-42.05
X104.64Y-89.05
X105.62Y-82.5
X106.7Y-54.85
X106.72Y-42.05
X107.18Y-89.05
X108.16Y-82.5
X109.24Y-54.85
X109.26Y-42.05
X109.72Y-89.05
X110.7Y-82.5
X111.78Y-54.85
X111.8Y-42.05
X112.26Y-89.05
X113.24Y-82.5
X114.32Y-54.85
X114.34Y-42.05
X114.8Y-89.05
X115.78Y-82.5
X116.86Y-54.85
X116.88Y-42.05
X117.34Y-89.05
X118.32Y-82.5
X119.88Y-89.05
X120.86Y-82.5
X122.42Y-89.05
X123.4Y-82.5
X124.96Y-89.05
X125.94Y-82.5
X127.5Y-89.05
X128.48Y-82.5
X130.04Y-89.05
X131.02Y-82.5
X132.58Y-89.05
X135.12Y-89.05
X137.4Y-80.5
X137.66Y-89.05
X137.9Y-43.55
X137.9Y-46.09
X139.0Y-72.9
X139.4Y-80.5
X140.2Y-89.05
X140.44Y-43.55
X140.44Y-46.09
X141.0Y-72.9
X142.98Y-43.55
X142.98Y-46.09
X145.52Y-43.55
X145.52Y-46.09
X176.74Y-149.93
X176.74Y-157.55
X179.28Y-149.93
X179.28Y-157.55
X181.82Y-149.93
X181.82Y-157.55
X184.36Y-149.93
X184.36Y-157.55
X186.9Y-149.93
X186.9Y-157.55
X189.44Y-149.93
X189.44Y-157.55
X191.98Y-149.93
X191.98Y-157.55
X194.52Y-149.93
X194.52Y-157.55
X197.06Y-149.93
X197.06Y-157.55
X199.6Y-149.93
X199.6Y-157.55
X202.14Y-149.93
X202.14Y-157.55
X204.68Y-149.93
X204.68Y-157.55
X207.22Y-149.93
X207.22Y-157.55
X207.42Y-82.6
X209.76Y-149.93
X209.76Y-157.55
X212.5Y-82.6
X217.58Y-82.6
T4
X155.9Y-40.93
X155.9Y-43.47
X155.9Y-46.01
X155.9Y-48.55
X155.9Y-51.09
X155.9Y-53.63
X155.9Y-56.17
X155.9Y-58.71
X155.9Y-61.25
X155.9Y-63.79
X155.9Y-66.33
X155.9Y-68.87
X155.9Y-71.41
X155.9Y-73.95
X155.9Y-76.49
X181.3Y-40.93
X181.3Y-43.47
X181.3Y-46.01
X181.3Y-48.55
X181.3Y-51.09
X181.3Y-53.63
X181.3Y-56.17
X181.3Y-58.71
X181.3Y-61.25
X181.3Y-63.79
X181.3Y-66.33
X181.3Y-68.87
X181.3Y-71.41
X181.3Y-73.95
X181.3Y-76.49
X192.32Y-59.61
X192.32Y-62.15
X197.79Y-59.61
X197.79Y-62.15
X203.26Y-59.61
X203.26Y-62.15
X208.73Y-59.61
X208.73Y-62.15
X214.2Y-59.61
X214.2Y-62.15
T5
X72.48Y-116.88
X72.48Y-121.38
X78.88Y-116.88
X78.88Y-121.38
X130.3Y-42.71
X130.3Y-45.25
X130.3Y-47.79
X203.45Y-116.829
X203.45Y-121.329
X209.85Y-116.829
X209.85Y-121.329
X215.22Y-147.15
X217.76Y-147.15
X220.3Y-147.15
T6
X66.3Y-89.4
X66.3Y-93.9
X66.3Y-99.55
X66.3Y-104.05
X72.8Y-89.4
X72.8Y-93.9
X72.8Y-99.55
X72.8Y-104.05
X75.56Y-64.12
X78.1Y-64.12
X79.35Y-89.35
X79.35Y-93.85
X79.35Y-99.5
X79.35Y-104.0
X80.64Y-64.12
X85.85Y-89.35
X85.85Y-93.85
X85.85Y-99.5
X85.85Y-104.0
X115.35Y-150.25
X115.35Y-154.75
X121.85Y-150.25
X121.85Y-154.75
X130.1Y-150.25
X130.1Y-154.75
X136.6Y-150.25
X136.6Y-154.75
X144.85Y-150.25
X144.85Y-154.75
X151.35Y-150.25
X151.35Y-154.75
X159.35Y-150.25
X159.35Y-154.75
X165.85Y-150.25
X165.85Y-154.75
X193.35Y-86.3
X193.35Y-90.8
X193.45Y-97.55
X193.45Y-102.05
X199.85Y-86.3
X199.85Y-90.8
X199.95Y-97.55
X199.95Y-102.05
T7
X66.98Y-124.68
X66.98Y-127.18
X66.98Y-129.68
X73.18Y-135.88
X75.68Y-135.88
X78.18Y-135.88
X197.95Y-124.629
X197.95Y-127.129
X197.95Y-129.629
X204.15Y-135.829
X206.65Y-135.829
X209.15Y-135.829
T8
X204.5Y-42.5
X209.58Y-42.5
T9
X187.2Y-42.3
X191.7Y-42.3
X196.2Y-42.3
M30
