%TF.GenerationSoftware,KiCad,Pcbnew,9.0.3-9.0.3-0~ubuntu22.04.1*%
%TF.CreationDate,2025-09-08T21:56:23-03:00*%
%TF.ProjectId,airplane,61697270-6c61-46e6-952e-6b696361645f,0.0.1*%
%TF.SameCoordinates,Original*%
%TF.FileFunction,Soldermask,Top*%
%TF.FilePolarity,Negative*%
%FSLAX46Y46*%
G04 Gerber Fmt 4.6, Leading zero omitted, Abs format (unit mm)*
G04 Created by KiCad (PCBNEW 9.0.3-9.0.3-0~ubuntu22.04.1) date 2025-09-08 21:56:23*
%MOMM*%
%LPD*%
G01*
G04 APERTURE LIST*
G04 Aperture macros list*
%AMRoundRect*
0 Rectangle with rounded corners*
0 $1 Rounding radius*
0 $2 $3 $4 $5 $6 $7 $8 $9 X,Y pos of 4 corners*
0 Add a 4 corners polygon primitive as box body*
4,1,4,$2,$3,$4,$5,$6,$7,$8,$9,$2,$3,0*
0 Add four circle primitives for the rounded corners*
1,1,$1+$1,$2,$3*
1,1,$1+$1,$4,$5*
1,1,$1+$1,$6,$7*
1,1,$1+$1,$8,$9*
0 Add four rect primitives between the rounded corners*
20,1,$1+$1,$2,$3,$4,$5,0*
20,1,$1+$1,$4,$5,$6,$7,0*
20,1,$1+$1,$6,$7,$8,$9,0*
20,1,$1+$1,$8,$9,$2,$3,0*%
G04 Aperture macros list end*
%ADD10C,1.600000*%
%ADD11C,1.400000*%
%ADD12R,1.700000X1.700000*%
%ADD13C,1.700000*%
%ADD14R,2.000000X1.905000*%
%ADD15O,2.000000X1.905000*%
%ADD16RoundRect,0.250000X-0.350000X-0.350000X0.350000X-0.350000X0.350000X0.350000X-0.350000X0.350000X0*%
%ADD17C,1.200000*%
%ADD18R,3.000000X3.000000*%
%ADD19C,3.000000*%
G04 APERTURE END LIST*
D10*
%TO.C,U13*%
X136940000Y-103110000D03*
X134400000Y-103110000D03*
X136940000Y-100570000D03*
X134400000Y-100570000D03*
X136940000Y-98030000D03*
X134400000Y-98030000D03*
X136940000Y-95490000D03*
X134400000Y-95490000D03*
X136940000Y-92950000D03*
X134400000Y-92950000D03*
X136940000Y-90410000D03*
X134400000Y-90410000D03*
X136940000Y-87870000D03*
X134400000Y-87870000D03*
X136940000Y-85330000D03*
X134400000Y-85330000D03*
%TD*%
D11*
%TO.C,R7*%
X129000000Y-102500000D03*
X129000000Y-107580000D03*
%TD*%
%TO.C,R6*%
X125850000Y-107580000D03*
X125850000Y-102500000D03*
%TD*%
%TO.C,R5*%
X122700000Y-107580000D03*
X122700000Y-102500000D03*
%TD*%
D12*
%TO.C,U4*%
X189700000Y-84710000D03*
D13*
X189700000Y-87250000D03*
X189700000Y-89790000D03*
%TD*%
D12*
%TO.C,M4*%
X164930000Y-89750000D03*
D13*
X164930000Y-87210000D03*
X164930000Y-84670000D03*
%TD*%
D12*
%TO.C,M2*%
X174110000Y-89750000D03*
D13*
X174110000Y-87210000D03*
X174110000Y-84670000D03*
%TD*%
D14*
%TO.C,U6*%
X155650000Y-93290000D03*
D15*
X155650000Y-90750000D03*
X155650000Y-88210000D03*
%TD*%
D10*
%TO.C,U2*%
X205660000Y-83810000D03*
X208200000Y-83810000D03*
X205660000Y-86350000D03*
X208200000Y-86350000D03*
X205660000Y-88890000D03*
X208200000Y-88890000D03*
X205660000Y-91430000D03*
X208200000Y-91430000D03*
%TD*%
D11*
%TO.C,R4*%
X151650000Y-116500000D03*
X151650000Y-111420000D03*
%TD*%
D16*
%TO.C,C4*%
X144700000Y-82750000D03*
D17*
X146200000Y-82750000D03*
%TD*%
D11*
%TO.C,R3*%
X148500000Y-116500000D03*
X148500000Y-111420000D03*
%TD*%
%TO.C,R1*%
X142200000Y-116500000D03*
X142200000Y-111420000D03*
%TD*%
D18*
%TO.C,U8*%
X126720000Y-122250000D03*
D19*
X131800000Y-122250000D03*
X136880000Y-122250000D03*
X141960000Y-122250000D03*
X147040000Y-122250000D03*
X152120000Y-122250000D03*
X157200000Y-122250000D03*
X162280000Y-122250000D03*
%TD*%
D10*
%TO.C,U11*%
X106100000Y-121400000D03*
X108640000Y-121400000D03*
X111180000Y-121400000D03*
X113720000Y-121400000D03*
X116260000Y-121400000D03*
X118800000Y-121400000D03*
%TD*%
D12*
%TO.C,U10*%
X156250000Y-108790000D03*
D13*
X156250000Y-106250000D03*
X156250000Y-103710000D03*
%TD*%
D16*
%TO.C,C1*%
X153977401Y-98750000D03*
D17*
X155477401Y-98750000D03*
%TD*%
D14*
%TO.C,U7*%
X146200000Y-93250000D03*
D15*
X146200000Y-90710000D03*
X146200000Y-88170000D03*
%TD*%
D16*
%TO.C,C3*%
X144700000Y-98750000D03*
D17*
X146200000Y-98750000D03*
%TD*%
D16*
%TO.C,C2*%
X154200000Y-82750000D03*
D17*
X155700000Y-82750000D03*
%TD*%
D11*
%TO.C,R2*%
X145350000Y-116500000D03*
X145350000Y-111420000D03*
%TD*%
D12*
%TO.C,M1*%
X178700000Y-89750000D03*
D13*
X178700000Y-87210000D03*
X178700000Y-84670000D03*
%TD*%
D18*
%TO.C,U5*%
X128540000Y-86500000D03*
D19*
X123460000Y-86500000D03*
%TD*%
D10*
%TO.C,U1*%
X172180000Y-124450000D03*
X174720000Y-124450000D03*
X177260000Y-124450000D03*
X179800000Y-124450000D03*
X182340000Y-124450000D03*
X184880000Y-124450000D03*
X187420000Y-124450000D03*
X189960000Y-124450000D03*
X192500000Y-124450000D03*
X195040000Y-124450000D03*
X197580000Y-124450000D03*
X200120000Y-124450000D03*
X202660000Y-124450000D03*
X205200000Y-124450000D03*
X207740000Y-124450000D03*
X172180000Y-99050000D03*
X174720000Y-99050000D03*
X177260000Y-99050000D03*
X179800000Y-99050000D03*
X182340000Y-99050000D03*
X184880000Y-99050000D03*
X187420000Y-99050000D03*
X189960000Y-99050000D03*
X192500000Y-99050000D03*
X195040000Y-99050000D03*
X197580000Y-99050000D03*
X200120000Y-99050000D03*
X202660000Y-99050000D03*
X205200000Y-99050000D03*
X207740000Y-99050000D03*
%TD*%
D12*
%TO.C,M3*%
X169520000Y-89750000D03*
D13*
X169520000Y-87210000D03*
X169520000Y-84670000D03*
%TD*%
D10*
%TO.C,U9*%
X98000000Y-125990000D03*
X98000000Y-123450000D03*
X98000000Y-120910000D03*
X98000000Y-118370000D03*
X98000000Y-115830000D03*
X98000000Y-113290000D03*
X98000000Y-110750000D03*
X98000000Y-108210000D03*
%TD*%
D12*
%TO.C,U3*%
X200700000Y-84710000D03*
D13*
X200700000Y-87250000D03*
X200700000Y-89790000D03*
%TD*%
D10*
%TO.C,U12*%
X97200000Y-87130000D03*
X97200000Y-89670000D03*
X97200000Y-92210000D03*
X97200000Y-94750000D03*
%TD*%
M02*
