%TF.GenerationSoftware,KiCad,Pcbnew,9.0.3-9.0.3-0~ubuntu22.04.1*%
%TF.CreationDate,2025-09-08T21:56:11-03:00*%
%TF.ProjectId,airplane,61697270-6c61-46e6-952e-6b696361645f,0.0.1*%
%TF.SameCoordinates,Original*%
%TF.FileFunction,Copper,L1,Top*%
%TF.FilePolarity,Positive*%
%FSLAX46Y46*%
G04 Gerber Fmt 4.6, Leading zero omitted, Abs format (unit mm)*
G04 Created by KiCad (PCBNEW 9.0.3-9.0.3-0~ubuntu22.04.1) date 2025-09-08 21:56:11*
%MOMM*%
%LPD*%
G01*
G04 APERTURE LIST*
G04 Aperture macros list*
%AMRoundRect*
0 Rectangle with rounded corners*
0 $1 Rounding radius*
0 $2 $3 $4 $5 $6 $7 $8 $9 X,Y pos of 4 corners*
0 Add a 4 corners polygon primitive as box body*
4,1,4,$2,$3,$4,$5,$6,$7,$8,$9,$2,$3,0*
0 Add four circle primitives for the rounded corners*
1,1,$1+$1,$2,$3*
1,1,$1+$1,$4,$5*
1,1,$1+$1,$6,$7*
1,1,$1+$1,$8,$9*
0 Add four rect primitives between the rounded corners*
20,1,$1+$1,$2,$3,$4,$5,0*
20,1,$1+$1,$4,$5,$6,$7,0*
20,1,$1+$1,$6,$7,$8,$9,0*
20,1,$1+$1,$8,$9,$2,$3,0*%
G04 Aperture macros list end*
%TA.AperFunction,ComponentPad*%
%ADD10C,1.600000*%
%TD*%
%TA.AperFunction,ComponentPad*%
%ADD11C,1.400000*%
%TD*%
%TA.AperFunction,ComponentPad*%
%ADD12R,1.700000X1.700000*%
%TD*%
%TA.AperFunction,ComponentPad*%
%ADD13C,1.700000*%
%TD*%
%TA.AperFunction,ComponentPad*%
%ADD14R,2.000000X1.905000*%
%TD*%
%TA.AperFunction,ComponentPad*%
%ADD15O,2.000000X1.905000*%
%TD*%
%TA.AperFunction,ComponentPad*%
%ADD16RoundRect,0.250000X-0.350000X-0.350000X0.350000X-0.350000X0.350000X0.350000X-0.350000X0.350000X0*%
%TD*%
%TA.AperFunction,ComponentPad*%
%ADD17C,1.200000*%
%TD*%
%TA.AperFunction,ComponentPad*%
%ADD18R,3.000000X3.000000*%
%TD*%
%TA.AperFunction,ComponentPad*%
%ADD19C,3.000000*%
%TD*%
%TA.AperFunction,ViaPad*%
%ADD20C,0.600000*%
%TD*%
%TA.AperFunction,Conductor*%
%ADD21C,0.300000*%
%TD*%
%TA.AperFunction,Conductor*%
%ADD22C,0.800000*%
%TD*%
%TA.AperFunction,Conductor*%
%ADD23C,0.600000*%
%TD*%
G04 APERTURE END LIST*
D10*
%TO.P,U13,1,GND*%
%TO.N,GND*%
X136940000Y-103110000D03*
X134400000Y-103110000D03*
%TO.P,U13,2,3V3*%
%TO.N,Net-(U10-VO)*%
X136940000Y-100570000D03*
X134400000Y-100570000D03*
%TO.P,U13,3,5V*%
%TO.N,unconnected-(U13-5V-Pad3)_1*%
X136940000Y-98030000D03*
%TO.N,unconnected-(U13-5V-Pad3)*%
X134400000Y-98030000D03*
%TO.P,U13,4,CS*%
%TO.N,Net-(U1-GPIO5)*%
X136940000Y-95490000D03*
X134400000Y-95490000D03*
%TO.P,U13,5,MOSI*%
%TO.N,Net-(U1-GPIO23)*%
X136940000Y-92950000D03*
X134400000Y-92950000D03*
%TO.P,U13,6,SCK*%
%TO.N,Net-(U1-GPIO18)*%
X136940000Y-90410000D03*
X134400000Y-90410000D03*
%TO.P,U13,7,MISO*%
%TO.N,Net-(U1-GPIO19)*%
X136940000Y-87870000D03*
X134400000Y-87870000D03*
%TO.P,U13,8,GND*%
%TO.N,GND*%
X136940000Y-85330000D03*
X134400000Y-85330000D03*
%TD*%
D11*
%TO.P,R7,1*%
%TO.N,Net-(U10-VI)*%
X129000000Y-102500000D03*
%TO.P,R7,2*%
%TO.N,Net-(R6-Pad1)*%
X129000000Y-107580000D03*
%TD*%
%TO.P,R6,1*%
%TO.N,Net-(R6-Pad1)*%
X125850000Y-107580000D03*
%TO.P,R6,2*%
%TO.N,Net-(U1-GPIO25)*%
X125850000Y-102500000D03*
%TD*%
%TO.P,R5,1*%
%TO.N,Net-(U1-GPIO25)*%
X122700000Y-107580000D03*
%TO.P,R5,2*%
%TO.N,GND*%
X122700000Y-102500000D03*
%TD*%
D12*
%TO.P,U4,1,GND*%
%TO.N,GND*%
X189700000Y-84710000D03*
D13*
%TO.P,U4,2,5v*%
%TO.N,Net-(U1-VIN)*%
X189700000Y-87250000D03*
%TO.P,U4,3,PWM*%
%TO.N,Net-(U1-GPIO15)*%
X189700000Y-89790000D03*
%TD*%
D12*
%TO.P,M4,1,PWM*%
%TO.N,Net-(M3-PWM)*%
X164930000Y-89750000D03*
D13*
%TO.P,M4,2,+*%
%TO.N,Net-(M3-+)*%
X164930000Y-87210000D03*
%TO.P,M4,3,-*%
%TO.N,GND*%
X164930000Y-84670000D03*
%TD*%
D12*
%TO.P,M2,1,PWM*%
%TO.N,Net-(M2-PWM)*%
X174110000Y-89750000D03*
D13*
%TO.P,M2,2,+*%
%TO.N,Net-(M1-+)*%
X174110000Y-87210000D03*
%TO.P,M2,3,-*%
%TO.N,GND*%
X174110000Y-84670000D03*
%TD*%
D14*
%TO.P,U6,1,IN*%
%TO.N,Net-(U10-VI)*%
X155650000Y-93290000D03*
D15*
%TO.P,U6,2,OUT*%
%TO.N,Net-(M1-+)*%
X155650000Y-90750000D03*
%TO.P,U6,3,GND*%
%TO.N,GND*%
X155650000Y-88210000D03*
%TD*%
D10*
%TO.P,U2,1,GND*%
%TO.N,GND*%
X205660000Y-83810000D03*
%TO.P,U2,2,VCC*%
%TO.N,Net-(U2-VCC)*%
X208200000Y-83810000D03*
%TO.P,U2,3,CE*%
%TO.N,Net-(U1-GPIO4)*%
X205660000Y-86350000D03*
%TO.P,U2,4,CSN*%
%TO.N,Net-(U1-GPIO2)*%
X208200000Y-86350000D03*
%TO.P,U2,5,SCK*%
%TO.N,Net-(U1-GPIO18)*%
X205660000Y-88890000D03*
%TO.P,U2,6,MOSI*%
%TO.N,Net-(U1-GPIO23)*%
X208200000Y-88890000D03*
%TO.P,U2,7,MISO*%
%TO.N,Net-(U1-GPIO19)*%
X205660000Y-91430000D03*
%TO.P,U2,8,IRQ*%
%TO.N,unconnected-(U2-IRQ-Pad8)*%
X208200000Y-91430000D03*
%TD*%
D11*
%TO.P,R4,1*%
%TO.N,Net-(U8-GND2)*%
X151650000Y-116500000D03*
%TO.P,R4,2*%
%TO.N,GND*%
X151650000Y-111420000D03*
%TD*%
D16*
%TO.P,C4,1*%
%TO.N,Net-(M3-+)*%
X144700000Y-82750000D03*
D17*
%TO.P,C4,2*%
%TO.N,GND*%
X146200000Y-82750000D03*
%TD*%
D11*
%TO.P,R3,1*%
%TO.N,Net-(U8-GND1)*%
X148500000Y-116500000D03*
%TO.P,R3,2*%
%TO.N,GND*%
X148500000Y-111420000D03*
%TD*%
%TO.P,R1,1*%
%TO.N,Net-(U8-GNDR)*%
X142200000Y-116500000D03*
%TO.P,R1,2*%
%TO.N,GND*%
X142200000Y-111420000D03*
%TD*%
D18*
%TO.P,U8,1,NAVR*%
%TO.N,Net-(U1-GPIO26)*%
X126720000Y-122250000D03*
D19*
%TO.P,U8,2,GNDR*%
%TO.N,Net-(U8-GNDR)*%
X131800000Y-122250000D03*
%TO.P,U8,3,NAVG*%
%TO.N,Net-(U1-GPIO26)*%
X136880000Y-122250000D03*
%TO.P,U8,4,GNDG*%
%TO.N,Net-(U8-GNDG)*%
X141960000Y-122250000D03*
%TO.P,U8,5,STR1*%
%TO.N,Net-(U1-GPIO27)*%
X147040000Y-122250000D03*
%TO.P,U8,6,GND1*%
%TO.N,Net-(U8-GND1)*%
X152120000Y-122250000D03*
%TO.P,U8,7,STR2*%
%TO.N,Net-(U1-GPIO27)*%
X157200000Y-122250000D03*
%TO.P,U8,8,GND2*%
%TO.N,Net-(U8-GND2)*%
X162280000Y-122250000D03*
%TD*%
D10*
%TO.P,U11,1,VCC*%
%TO.N,Net-(U10-VO)*%
X106100000Y-121400000D03*
%TO.P,U11,2,GND*%
%TO.N,GND*%
X108640000Y-121400000D03*
%TO.P,U11,3,SCL*%
%TO.N,Net-(U1-GPIO22)*%
X111180000Y-121400000D03*
%TO.P,U11,4,SDA*%
%TO.N,Net-(U1-GPIO21)*%
X113720000Y-121400000D03*
%TO.P,U11,5,CSB*%
%TO.N,Net-(U10-VO)*%
X116260000Y-121400000D03*
%TO.P,U11,6,SDO*%
%TO.N,GND*%
X118800000Y-121400000D03*
%TD*%
D12*
%TO.P,U10,1,GND*%
%TO.N,GND*%
X156250000Y-108790000D03*
D13*
%TO.P,U10,2,VO*%
%TO.N,Net-(U10-VO)*%
X156250000Y-106250000D03*
%TO.P,U10,3,VI*%
%TO.N,Net-(U10-VI)*%
X156250000Y-103710000D03*
%TD*%
D16*
%TO.P,C1,1*%
%TO.N,Net-(U10-VI)*%
X153977401Y-98750000D03*
D17*
%TO.P,C1,2*%
%TO.N,GND*%
X155477401Y-98750000D03*
%TD*%
D14*
%TO.P,U7,1,IN*%
%TO.N,Net-(U10-VI)*%
X146200000Y-93250000D03*
D15*
%TO.P,U7,2,OUT*%
%TO.N,Net-(M3-+)*%
X146200000Y-90710000D03*
%TO.P,U7,3,GND*%
%TO.N,GND*%
X146200000Y-88170000D03*
%TD*%
D16*
%TO.P,C3,1*%
%TO.N,Net-(U10-VI)*%
X144700000Y-98750000D03*
D17*
%TO.P,C3,2*%
%TO.N,GND*%
X146200000Y-98750000D03*
%TD*%
D16*
%TO.P,C2,1*%
%TO.N,Net-(M1-+)*%
X154200000Y-82750000D03*
D17*
%TO.P,C2,2*%
%TO.N,GND*%
X155700000Y-82750000D03*
%TD*%
D11*
%TO.P,R2,1*%
%TO.N,Net-(U8-GNDG)*%
X145350000Y-116500000D03*
%TO.P,R2,2*%
%TO.N,GND*%
X145350000Y-111420000D03*
%TD*%
D12*
%TO.P,M1,1,PWM*%
%TO.N,Net-(M1-PWM)*%
X178700000Y-89750000D03*
D13*
%TO.P,M1,2,+*%
%TO.N,Net-(M1-+)*%
X178700000Y-87210000D03*
%TO.P,M1,3,-*%
%TO.N,GND*%
X178700000Y-84670000D03*
%TD*%
D18*
%TO.P,U5,1,GND*%
%TO.N,GND*%
X128540000Y-86500000D03*
D19*
%TO.P,U5,2,12v*%
%TO.N,Net-(U10-VI)*%
X123460000Y-86500000D03*
%TD*%
D10*
%TO.P,U1,1,EN*%
%TO.N,unconnected-(U1-EN-Pad1)*%
X172180000Y-124450000D03*
%TO.P,U1,2,GPIO36*%
%TO.N,unconnected-(U1-GPIO36-Pad2)*%
X174720000Y-124450000D03*
%TO.P,U1,3,GPIO39*%
%TO.N,unconnected-(U1-GPIO39-Pad3)*%
X177260000Y-124450000D03*
%TO.P,U1,4,GPIO34*%
%TO.N,unconnected-(U1-GPIO34-Pad4)*%
X179800000Y-124450000D03*
%TO.P,U1,5,GPIO35*%
%TO.N,unconnected-(U1-GPIO35-Pad5)*%
X182340000Y-124450000D03*
%TO.P,U1,6,GPIO32*%
%TO.N,unconnected-(U1-GPIO32-Pad6)*%
X184880000Y-124450000D03*
%TO.P,U1,7,GPIO33*%
%TO.N,unconnected-(U1-GPIO33-Pad7)*%
X187420000Y-124450000D03*
%TO.P,U1,8,GPIO25*%
%TO.N,Net-(U1-GPIO25)*%
X189960000Y-124450000D03*
%TO.P,U1,9,GPIO26*%
%TO.N,Net-(U1-GPIO26)*%
X192500000Y-124450000D03*
%TO.P,U1,10,GPIO27*%
%TO.N,Net-(U1-GPIO27)*%
X195040000Y-124450000D03*
%TO.P,U1,11,GPIO14*%
%TO.N,Net-(M3-PWM)*%
X197580000Y-124450000D03*
%TO.P,U1,12,GPIO12*%
%TO.N,Net-(M2-PWM)*%
X200120000Y-124450000D03*
%TO.P,U1,13,GPIO13*%
%TO.N,Net-(M1-PWM)*%
X202660000Y-124450000D03*
%TO.P,U1,14,GND*%
%TO.N,GND*%
X205200000Y-124450000D03*
%TO.P,U1,15,VIN*%
%TO.N,Net-(U1-VIN)*%
X207740000Y-124450000D03*
%TO.P,U1,16,GPIO23*%
%TO.N,Net-(U1-GPIO23)*%
X172180000Y-99050000D03*
%TO.P,U1,17,GPIO22*%
%TO.N,Net-(U1-GPIO22)*%
X174720000Y-99050000D03*
%TO.P,U1,18,GPIO1*%
%TO.N,unconnected-(U1-GPIO1-Pad18)*%
X177260000Y-99050000D03*
%TO.P,U1,19,GPIO3*%
%TO.N,unconnected-(U1-GPIO3-Pad19)*%
X179800000Y-99050000D03*
%TO.P,U1,20,GPIO21*%
%TO.N,Net-(U1-GPIO21)*%
X182340000Y-99050000D03*
%TO.P,U1,21,GPIO19*%
%TO.N,Net-(U1-GPIO19)*%
X184880000Y-99050000D03*
%TO.P,U1,22,GPIO18*%
%TO.N,Net-(U1-GPIO18)*%
X187420000Y-99050000D03*
%TO.P,U1,23,GPIO5*%
%TO.N,Net-(U1-GPIO5)*%
X189960000Y-99050000D03*
%TO.P,U1,24,GPIO17*%
%TO.N,Net-(U1-GPIO17)*%
X192500000Y-99050000D03*
%TO.P,U1,25,GPIO16*%
%TO.N,Net-(U1-GPIO16)*%
X195040000Y-99050000D03*
%TO.P,U1,26,GPIO4*%
%TO.N,Net-(U1-GPIO4)*%
X197580000Y-99050000D03*
%TO.P,U1,27,GPIO2*%
%TO.N,Net-(U1-GPIO2)*%
X200120000Y-99050000D03*
%TO.P,U1,28,GPIO15*%
%TO.N,Net-(U1-GPIO15)*%
X202660000Y-99050000D03*
%TO.P,U1,29,GND*%
%TO.N,GND*%
X205200000Y-99050000D03*
%TO.P,U1,30,3.3v*%
%TO.N,unconnected-(U1-3.3v-Pad30)*%
X207740000Y-99050000D03*
%TD*%
D12*
%TO.P,M3,1,PWM*%
%TO.N,Net-(M3-PWM)*%
X169520000Y-89750000D03*
D13*
%TO.P,M3,2,+*%
%TO.N,Net-(M3-+)*%
X169520000Y-87210000D03*
%TO.P,M3,3,-*%
%TO.N,GND*%
X169520000Y-84670000D03*
%TD*%
D10*
%TO.P,U9,1,VCC*%
%TO.N,Net-(U10-VO)*%
X98000000Y-125990000D03*
%TO.P,U9,2,GND*%
%TO.N,GND*%
X98000000Y-123450000D03*
%TO.P,U9,3,SCL*%
%TO.N,Net-(U1-GPIO22)*%
X98000000Y-120910000D03*
%TO.P,U9,4,SDA*%
%TO.N,Net-(U1-GPIO21)*%
X98000000Y-118370000D03*
%TO.P,U9,5,XDA*%
%TO.N,unconnected-(U9-XDA-Pad5)*%
X98000000Y-115830000D03*
%TO.P,U9,6,XCL*%
%TO.N,unconnected-(U9-XCL-Pad6)*%
X98000000Y-113290000D03*
%TO.P,U9,7,AD0*%
%TO.N,GND*%
X98000000Y-110750000D03*
%TO.P,U9,8,INT*%
%TO.N,unconnected-(U9-INT-Pad8)*%
X98000000Y-108210000D03*
%TD*%
D12*
%TO.P,U3,1,GND*%
%TO.N,GND*%
X200700000Y-84710000D03*
D13*
%TO.P,U3,2,VO*%
%TO.N,Net-(U2-VCC)*%
X200700000Y-87250000D03*
%TO.P,U3,3,VI*%
%TO.N,Net-(U1-VIN)*%
X200700000Y-89790000D03*
%TD*%
D10*
%TO.P,U12,1,VCC*%
%TO.N,Net-(U10-VO)*%
X97200000Y-87130000D03*
%TO.P,U12,2,RX*%
%TO.N,Net-(U1-GPIO17)*%
X97200000Y-89670000D03*
%TO.P,U12,3,TX*%
%TO.N,Net-(U1-GPIO16)*%
X97200000Y-92210000D03*
%TO.P,U12,4,GND*%
%TO.N,GND*%
X97200000Y-94750000D03*
%TD*%
D20*
%TO.N,Net-(U1-GPIO25)*%
X125000000Y-126000000D03*
%TO.N,Net-(U1-GPIO18)*%
X164950000Y-114050003D03*
%TO.N,Net-(U1-GPIO19)*%
X164950000Y-113250000D03*
X193950000Y-95000000D03*
%TO.N,Net-(U1-GPIO23)*%
X194200000Y-93500000D03*
%TO.N,Net-(U1-GPIO15)*%
X199450000Y-96000000D03*
%TO.N,Net-(U1-GPIO26)*%
X190200000Y-126251000D03*
%TO.N,Net-(U1-GPIO5)*%
X164950000Y-114850006D03*
%TD*%
D21*
%TO.N,Net-(U1-GPIO25)*%
X124390000Y-125390000D02*
X125000000Y-126000000D01*
X124390000Y-105890000D02*
X124390000Y-125390000D01*
X125850000Y-104430000D02*
X124390000Y-105890000D01*
X124390000Y-105890000D02*
X122700000Y-107580000D01*
X125850000Y-102500000D02*
X125850000Y-104430000D01*
%TO.N,Net-(R6-Pad1)*%
X125850000Y-107580000D02*
X129000000Y-107580000D01*
%TO.N,Net-(M1-PWM)*%
X174908520Y-120250000D02*
X198460000Y-120250000D01*
X170200000Y-93250000D02*
X168200000Y-95250000D01*
X168200000Y-113541480D02*
X174908520Y-120250000D01*
X168200000Y-95250000D02*
X168200000Y-113541480D01*
X178700000Y-89750000D02*
X175200000Y-93250000D01*
X198460000Y-120250000D02*
X202660000Y-124450000D01*
X175200000Y-93250000D02*
X170200000Y-93250000D01*
%TO.N,Net-(M2-PWM)*%
X174700000Y-120750000D02*
X167700000Y-113750000D01*
X172700000Y-89750000D02*
X174110000Y-89750000D01*
X200120000Y-124450000D02*
X196420000Y-120750000D01*
X196420000Y-120750000D02*
X174700000Y-120750000D01*
X167700000Y-113750000D02*
X167700000Y-94750000D01*
X167700000Y-94750000D02*
X172700000Y-89750000D01*
%TO.N,Net-(M3-PWM)*%
X174200000Y-121250000D02*
X194380000Y-121250000D01*
X167200000Y-89750000D02*
X167200000Y-114250000D01*
X194380000Y-121250000D02*
X197580000Y-124450000D01*
X167200000Y-114250000D02*
X174200000Y-121250000D01*
X164930000Y-89750000D02*
X167200000Y-89750000D01*
X167200000Y-89750000D02*
X169520000Y-89750000D01*
%TO.N,Net-(U1-VIN)*%
X210200000Y-82250000D02*
X208200000Y-80250000D01*
X208200000Y-80250000D02*
X201200000Y-80250000D01*
X210200000Y-121990000D02*
X210200000Y-82250000D01*
X189700000Y-87250000D02*
X198160000Y-87250000D01*
X201200000Y-80250000D02*
X198160000Y-83290000D01*
X198160000Y-83290000D02*
X198160000Y-87250000D01*
X207740000Y-124450000D02*
X210200000Y-121990000D01*
X198160000Y-87250000D02*
X200700000Y-89790000D01*
%TO.N,Net-(U1-GPIO22)*%
X109890001Y-120110001D02*
X111180000Y-121400000D01*
X98799999Y-120110001D02*
X109890001Y-120110001D01*
X98000000Y-120910000D02*
X98799999Y-120110001D01*
%TO.N,Net-(U1-GPIO27)*%
X154950000Y-124500000D02*
X157200000Y-122250000D01*
X193889000Y-125601000D02*
X195040000Y-124450000D01*
X147040000Y-122250000D02*
X149290000Y-124500000D01*
X160551000Y-125601000D02*
X193889000Y-125601000D01*
X149290000Y-124500000D02*
X154950000Y-124500000D01*
X157200000Y-122250000D02*
X160551000Y-125601000D01*
%TO.N,Net-(U1-GPIO18)*%
X139249000Y-112049003D02*
X141250000Y-114050003D01*
X141250000Y-114050003D02*
X164950000Y-114050003D01*
X136940000Y-90410000D02*
X134400000Y-90410000D01*
X139249000Y-92719000D02*
X139249000Y-112049003D01*
X136940000Y-90410000D02*
X139249000Y-92719000D01*
%TO.N,Net-(U1-GPIO4)*%
X205660000Y-86350000D02*
X202700000Y-89310000D01*
X202700000Y-89310000D02*
X202700000Y-93930000D01*
X202700000Y-93930000D02*
X197580000Y-99050000D01*
%TO.N,Net-(U1-GPIO21)*%
X110690000Y-118370000D02*
X113720000Y-121400000D01*
X98000000Y-118370000D02*
X110690000Y-118370000D01*
%TO.N,Net-(U1-GPIO19)*%
X134400000Y-87870000D02*
X136940000Y-87870000D01*
X139750000Y-90680000D02*
X139750000Y-111750000D01*
X139750000Y-111750000D02*
X141250000Y-113250000D01*
X188930000Y-95000000D02*
X184880000Y-99050000D01*
X141250000Y-113250000D02*
X164950000Y-113250000D01*
X193950000Y-95000000D02*
X188930000Y-95000000D01*
X136940000Y-87870000D02*
X139750000Y-90680000D01*
%TO.N,Net-(U1-GPIO2)*%
X207049000Y-92121000D02*
X200120000Y-99050000D01*
X207049000Y-87501000D02*
X207049000Y-92121000D01*
X208200000Y-86350000D02*
X207049000Y-87501000D01*
%TO.N,Net-(U1-GPIO23)*%
X177730000Y-93500000D02*
X172180000Y-99050000D01*
X136940000Y-92950000D02*
X134400000Y-92950000D01*
X194200000Y-93500000D02*
X177730000Y-93500000D01*
%TO.N,Net-(U1-GPIO15)*%
X189700000Y-89790000D02*
X193240000Y-89790000D01*
X193700000Y-90250000D02*
X199450000Y-96000000D01*
X193240000Y-89790000D02*
X193700000Y-90250000D01*
%TO.N,Net-(U1-GPIO26)*%
X136880000Y-122250000D02*
X140881000Y-126251000D01*
X140881000Y-126251000D02*
X190200000Y-126251000D01*
X128970000Y-124500000D02*
X134630000Y-124500000D01*
X134630000Y-124500000D02*
X136880000Y-122250000D01*
X126720000Y-122250000D02*
X128970000Y-124500000D01*
%TO.N,Net-(U2-VCC)*%
X200700000Y-87250000D02*
X200700000Y-87142240D01*
X200700000Y-87142240D02*
X205183240Y-82659000D01*
X207049000Y-82659000D02*
X208200000Y-83810000D01*
X205183240Y-82659000D02*
X207049000Y-82659000D01*
%TO.N,Net-(U8-GNDR)*%
X136800000Y-117250000D02*
X141450000Y-117250000D01*
X141450000Y-117250000D02*
X142200000Y-116500000D01*
X131800000Y-122250000D02*
X136800000Y-117250000D01*
%TO.N,Net-(U8-GNDG)*%
X141960000Y-122250000D02*
X145350000Y-118860000D01*
X145350000Y-118860000D02*
X145350000Y-116500000D01*
%TO.N,Net-(U8-GND1)*%
X148500000Y-118630000D02*
X148500000Y-116500000D01*
X152120000Y-122250000D02*
X148500000Y-118630000D01*
%TO.N,Net-(U8-GND2)*%
X162280000Y-122250000D02*
X157280000Y-117250000D01*
X157280000Y-117250000D02*
X152400000Y-117250000D01*
X152400000Y-117250000D02*
X151650000Y-116500000D01*
%TO.N,Net-(U1-GPIO5)*%
X136940000Y-95490000D02*
X138748000Y-97298000D01*
X141500000Y-114850006D02*
X164950000Y-114850006D01*
X138748000Y-112256523D02*
X141341483Y-114850006D01*
X141341483Y-114850006D02*
X141500000Y-114850006D01*
X138748000Y-97298000D02*
X138748000Y-112256523D01*
X136940000Y-95490000D02*
X134400000Y-95490000D01*
D22*
%TO.N,Net-(U10-VI)*%
X148500000Y-85500000D02*
X150200000Y-87200000D01*
X150200000Y-93250000D02*
X146200000Y-93250000D01*
X126500000Y-83500000D02*
X128500000Y-81500000D01*
X150200000Y-99800000D02*
X152700000Y-102300000D01*
X153977401Y-94962599D02*
X153977401Y-98750000D01*
X155650000Y-93290000D02*
X153977401Y-94962599D01*
X126460000Y-83500000D02*
X126500000Y-83500000D01*
X154840000Y-102300000D02*
X156250000Y-103710000D01*
X137200000Y-81500000D02*
X141200000Y-85500000D01*
X123460000Y-86500000D02*
X126460000Y-83500000D01*
X150200000Y-93250000D02*
X150200000Y-99800000D01*
X152700000Y-102300000D02*
X154840000Y-102300000D01*
X141200000Y-85500000D02*
X148500000Y-85500000D01*
X150200000Y-87200000D02*
X150200000Y-93250000D01*
X144700000Y-94750000D02*
X144700000Y-98750000D01*
X146200000Y-93250000D02*
X144700000Y-94750000D01*
X150200000Y-93250000D02*
X150240000Y-93290000D01*
X150240000Y-93290000D02*
X155650000Y-93290000D01*
X128500000Y-81500000D02*
X137200000Y-81500000D01*
D23*
%TO.N,Net-(U10-VO)*%
X134400000Y-100570000D02*
X112520000Y-100570000D01*
X98000000Y-125990000D02*
X94200000Y-122190000D01*
X94200000Y-90130000D02*
X97200000Y-87130000D01*
X136940000Y-100570000D02*
X134400000Y-100570000D01*
X112520000Y-100570000D02*
X99080000Y-87130000D01*
X94200000Y-122190000D02*
X94200000Y-90130000D01*
X106100000Y-125150000D02*
X106100000Y-121400000D01*
X106100000Y-125150000D02*
X112510000Y-125150000D01*
X112510000Y-125150000D02*
X116260000Y-121400000D01*
X105260000Y-125990000D02*
X106100000Y-125150000D01*
X105260000Y-125990000D02*
X98000000Y-125990000D01*
X99080000Y-87130000D02*
X97200000Y-87130000D01*
%TD*%
%TA.AperFunction,Conductor*%
%TO.N,GND*%
G36*
X104836728Y-120780186D02*
G01*
X104882483Y-120832990D01*
X104892427Y-120902148D01*
X104887622Y-120922810D01*
X104885888Y-120928149D01*
X104831522Y-121095465D01*
X104799500Y-121297648D01*
X104799500Y-121502351D01*
X104831522Y-121704534D01*
X104894781Y-121899223D01*
X104957485Y-122022284D01*
X104987585Y-122081359D01*
X104987715Y-122081613D01*
X105108028Y-122247213D01*
X105108034Y-122247219D01*
X105252781Y-122391966D01*
X105252783Y-122391967D01*
X105256038Y-122394748D01*
X105294227Y-122453258D01*
X105299500Y-122489033D01*
X105299500Y-124767060D01*
X105279815Y-124834099D01*
X105263181Y-124854741D01*
X104964741Y-125153181D01*
X104903418Y-125186666D01*
X104877060Y-125189500D01*
X99089033Y-125189500D01*
X99021994Y-125169815D01*
X98994748Y-125146038D01*
X98991964Y-125142779D01*
X98847213Y-124998028D01*
X98681611Y-124877713D01*
X98588369Y-124830203D01*
X98537574Y-124782229D01*
X98520779Y-124714407D01*
X98543317Y-124648273D01*
X98588371Y-124609234D01*
X98681346Y-124561861D01*
X98681347Y-124561861D01*
X98725921Y-124529474D01*
X98046446Y-123850000D01*
X98052661Y-123850000D01*
X98154394Y-123822741D01*
X98245606Y-123770080D01*
X98320080Y-123695606D01*
X98372741Y-123604394D01*
X98400000Y-123502661D01*
X98400000Y-123496448D01*
X99079474Y-124175922D01*
X99079474Y-124175921D01*
X99111859Y-124131349D01*
X99204755Y-123949031D01*
X99267990Y-123754417D01*
X99300000Y-123552317D01*
X99300000Y-123347682D01*
X99267990Y-123145582D01*
X99204755Y-122950968D01*
X99111859Y-122768650D01*
X99079474Y-122724077D01*
X99079474Y-122724076D01*
X98400000Y-123403551D01*
X98400000Y-123397339D01*
X98372741Y-123295606D01*
X98320080Y-123204394D01*
X98245606Y-123129920D01*
X98154394Y-123077259D01*
X98052661Y-123050000D01*
X98046446Y-123050000D01*
X98725922Y-122370524D01*
X98725921Y-122370523D01*
X98681359Y-122338147D01*
X98681350Y-122338141D01*
X98588369Y-122290765D01*
X98537573Y-122242790D01*
X98520778Y-122174969D01*
X98543315Y-122108835D01*
X98588370Y-122069795D01*
X98619234Y-122054069D01*
X98681610Y-122022287D01*
X98789550Y-121943865D01*
X98847213Y-121901971D01*
X98847215Y-121901968D01*
X98847219Y-121901966D01*
X98991966Y-121757219D01*
X98991968Y-121757215D01*
X98991971Y-121757213D01*
X99044732Y-121684590D01*
X99112287Y-121591610D01*
X99205220Y-121409219D01*
X99268477Y-121214534D01*
X99300500Y-121012352D01*
X99300500Y-120884501D01*
X99320185Y-120817462D01*
X99372989Y-120771707D01*
X99424500Y-120760501D01*
X104769689Y-120760501D01*
X104836728Y-120780186D01*
G37*
%TD.AperFunction*%
%TA.AperFunction,Conductor*%
G36*
X108240000Y-121452661D02*
G01*
X108267259Y-121554394D01*
X108319920Y-121645606D01*
X108394394Y-121720080D01*
X108485606Y-121772741D01*
X108587339Y-121800000D01*
X108593553Y-121800000D01*
X107914076Y-122479474D01*
X107958650Y-122511859D01*
X108140968Y-122604755D01*
X108335582Y-122667990D01*
X108537683Y-122700000D01*
X108742317Y-122700000D01*
X108944417Y-122667990D01*
X109139031Y-122604755D01*
X109321349Y-122511859D01*
X109365921Y-122479474D01*
X108686447Y-121800000D01*
X108692661Y-121800000D01*
X108794394Y-121772741D01*
X108885606Y-121720080D01*
X108960080Y-121645606D01*
X109012741Y-121554394D01*
X109040000Y-121452661D01*
X109040000Y-121446447D01*
X109719474Y-122125921D01*
X109751861Y-122081347D01*
X109751861Y-122081346D01*
X109799234Y-121988371D01*
X109847208Y-121937575D01*
X109915028Y-121920779D01*
X109981164Y-121943316D01*
X110020203Y-121988369D01*
X110067713Y-122081611D01*
X110188028Y-122247213D01*
X110332786Y-122391971D01*
X110453226Y-122479474D01*
X110498390Y-122512287D01*
X110614607Y-122571503D01*
X110680776Y-122605218D01*
X110680778Y-122605218D01*
X110680781Y-122605220D01*
X110785137Y-122639127D01*
X110875465Y-122668477D01*
X110976557Y-122684488D01*
X111077648Y-122700500D01*
X111077649Y-122700500D01*
X111282351Y-122700500D01*
X111282352Y-122700500D01*
X111484534Y-122668477D01*
X111679219Y-122605220D01*
X111861610Y-122512287D01*
X111982061Y-122424775D01*
X112027213Y-122391971D01*
X112027215Y-122391968D01*
X112027219Y-122391966D01*
X112171966Y-122247219D01*
X112171968Y-122247215D01*
X112171971Y-122247213D01*
X112292284Y-122081614D01*
X112292286Y-122081611D01*
X112292287Y-122081610D01*
X112339516Y-121988917D01*
X112387489Y-121938123D01*
X112455310Y-121921328D01*
X112521445Y-121943865D01*
X112560483Y-121988917D01*
X112593680Y-122054069D01*
X112607715Y-122081614D01*
X112728028Y-122247213D01*
X112872786Y-122391971D01*
X112993226Y-122479474D01*
X113038390Y-122512287D01*
X113154607Y-122571503D01*
X113220776Y-122605218D01*
X113220778Y-122605218D01*
X113220781Y-122605220D01*
X113415466Y-122668477D01*
X113558373Y-122691111D01*
X113621506Y-122721040D01*
X113658438Y-122780351D01*
X113657440Y-122850214D01*
X113626655Y-122901265D01*
X112214741Y-124313181D01*
X112153418Y-124346666D01*
X112127060Y-124349500D01*
X107024500Y-124349500D01*
X106957461Y-124329815D01*
X106911706Y-124277011D01*
X106900500Y-124225500D01*
X106900500Y-122489033D01*
X106909294Y-122459082D01*
X106916198Y-122428646D01*
X106919368Y-122424775D01*
X106920185Y-122421994D01*
X106937598Y-122400580D01*
X106943943Y-122394346D01*
X106947219Y-122391966D01*
X107091966Y-122247219D01*
X107091968Y-122247215D01*
X107091971Y-122247213D01*
X107212286Y-122081611D01*
X107212415Y-122081359D01*
X107259795Y-121988369D01*
X107307769Y-121937573D01*
X107375590Y-121920778D01*
X107441725Y-121943315D01*
X107480765Y-121988369D01*
X107528141Y-122081350D01*
X107528147Y-122081359D01*
X107560523Y-122125921D01*
X107560524Y-122125922D01*
X108240000Y-121446446D01*
X108240000Y-121452661D01*
G37*
%TD.AperFunction*%
%TA.AperFunction,Conductor*%
G36*
X128153620Y-101376738D02*
G01*
X128175709Y-101378318D01*
X128186492Y-101386390D01*
X128199414Y-101390185D01*
X128213913Y-101406918D01*
X128231642Y-101420190D01*
X128236349Y-101432810D01*
X128245169Y-101442989D01*
X128248320Y-101464906D01*
X128256059Y-101485654D01*
X128253196Y-101498814D01*
X128255113Y-101512147D01*
X128245913Y-101532290D01*
X128241207Y-101553927D01*
X128227938Y-101571652D01*
X128226088Y-101575703D01*
X128220056Y-101582181D01*
X128084312Y-101717924D01*
X128084312Y-101717925D01*
X128084310Y-101717927D01*
X128047323Y-101768835D01*
X127973240Y-101870800D01*
X127887454Y-102039163D01*
X127829059Y-102218881D01*
X127799500Y-102405513D01*
X127799500Y-102594486D01*
X127829059Y-102781118D01*
X127887454Y-102960836D01*
X127957350Y-103098013D01*
X127973240Y-103129199D01*
X128084310Y-103282073D01*
X128217927Y-103415690D01*
X128370801Y-103526760D01*
X128376130Y-103529475D01*
X128539163Y-103612545D01*
X128539165Y-103612545D01*
X128539168Y-103612547D01*
X128635497Y-103643846D01*
X128718881Y-103670940D01*
X128905514Y-103700500D01*
X128905519Y-103700500D01*
X129094486Y-103700500D01*
X129281118Y-103670940D01*
X129282623Y-103670451D01*
X129460832Y-103612547D01*
X129629199Y-103526760D01*
X129782073Y-103415690D01*
X129915690Y-103282073D01*
X130026760Y-103129199D01*
X130112547Y-102960832D01*
X130170940Y-102781118D01*
X130174848Y-102756446D01*
X130200500Y-102594486D01*
X130200500Y-102405513D01*
X130170940Y-102218881D01*
X130112545Y-102039163D01*
X130043059Y-101902790D01*
X130026760Y-101870801D01*
X129915690Y-101717927D01*
X129782073Y-101584310D01*
X129779944Y-101582181D01*
X129746459Y-101520858D01*
X129751443Y-101451166D01*
X129793315Y-101395233D01*
X129858779Y-101370816D01*
X129867625Y-101370500D01*
X133310967Y-101370500D01*
X133378006Y-101390185D01*
X133405252Y-101413962D01*
X133408035Y-101417220D01*
X133552786Y-101561971D01*
X133718385Y-101682284D01*
X133718387Y-101682285D01*
X133718390Y-101682287D01*
X133811630Y-101729795D01*
X133862426Y-101777770D01*
X133879221Y-101845591D01*
X133856684Y-101911725D01*
X133811630Y-101950765D01*
X133718644Y-101998143D01*
X133674077Y-102030523D01*
X133674077Y-102030524D01*
X134353554Y-102710000D01*
X134347339Y-102710000D01*
X134245606Y-102737259D01*
X134154394Y-102789920D01*
X134079920Y-102864394D01*
X134027259Y-102955606D01*
X134000000Y-103057339D01*
X134000000Y-103063553D01*
X133320524Y-102384077D01*
X133320523Y-102384077D01*
X133288143Y-102428644D01*
X133195244Y-102610968D01*
X133132009Y-102805582D01*
X133100000Y-103007682D01*
X133100000Y-103212317D01*
X133132009Y-103414417D01*
X133195244Y-103609031D01*
X133288141Y-103791350D01*
X133288147Y-103791359D01*
X133320523Y-103835921D01*
X133320524Y-103835922D01*
X134000000Y-103156446D01*
X134000000Y-103162661D01*
X134027259Y-103264394D01*
X134079920Y-103355606D01*
X134154394Y-103430080D01*
X134245606Y-103482741D01*
X134347339Y-103510000D01*
X134353553Y-103510000D01*
X133674076Y-104189474D01*
X133718650Y-104221859D01*
X133900968Y-104314755D01*
X134095582Y-104377990D01*
X134297683Y-104410000D01*
X134502317Y-104410000D01*
X134704417Y-104377990D01*
X134899031Y-104314755D01*
X135081349Y-104221859D01*
X135125921Y-104189474D01*
X134446447Y-103510000D01*
X134452661Y-103510000D01*
X134554394Y-103482741D01*
X134645606Y-103430080D01*
X134720080Y-103355606D01*
X134772741Y-103264394D01*
X134800000Y-103162661D01*
X134800000Y-103156447D01*
X135479474Y-103835921D01*
X135511861Y-103791347D01*
X135511861Y-103791346D01*
X135559515Y-103697820D01*
X135607489Y-103647024D01*
X135675310Y-103630228D01*
X135741445Y-103652765D01*
X135780485Y-103697819D01*
X135828141Y-103791350D01*
X135828147Y-103791359D01*
X135860523Y-103835921D01*
X135860524Y-103835922D01*
X136540000Y-103156446D01*
X136540000Y-103162661D01*
X136567259Y-103264394D01*
X136619920Y-103355606D01*
X136694394Y-103430080D01*
X136785606Y-103482741D01*
X136887339Y-103510000D01*
X136893553Y-103510000D01*
X136214076Y-104189474D01*
X136258650Y-104221859D01*
X136440968Y-104314755D01*
X136635582Y-104377990D01*
X136837683Y-104410000D01*
X137042317Y-104410000D01*
X137244417Y-104377990D01*
X137439031Y-104314755D01*
X137621349Y-104221859D01*
X137665921Y-104189474D01*
X136986447Y-103510000D01*
X136992661Y-103510000D01*
X137094394Y-103482741D01*
X137185606Y-103430080D01*
X137260080Y-103355606D01*
X137312741Y-103264394D01*
X137340000Y-103162661D01*
X137340000Y-103156447D01*
X138059896Y-103876344D01*
X138057036Y-103879203D01*
X138081865Y-103903648D01*
X138097500Y-103963923D01*
X138097500Y-112320593D01*
X138111207Y-112389499D01*
X138111207Y-112389501D01*
X138122497Y-112446259D01*
X138122499Y-112446267D01*
X138161575Y-112540606D01*
X138171535Y-112564650D01*
X138214006Y-112628213D01*
X138242726Y-112671196D01*
X138242727Y-112671197D01*
X139669499Y-114097968D01*
X140926814Y-115355283D01*
X140974961Y-115387453D01*
X141033356Y-115426471D01*
X141151739Y-115475507D01*
X141203942Y-115485891D01*
X141236984Y-115492464D01*
X141298895Y-115524849D01*
X141333470Y-115585565D01*
X141329730Y-115655334D01*
X141300476Y-115701760D01*
X141284313Y-115717922D01*
X141284312Y-115717925D01*
X141284310Y-115717927D01*
X141236610Y-115783579D01*
X141173240Y-115870800D01*
X141087454Y-116039163D01*
X141029059Y-116218881D01*
X140999500Y-116405513D01*
X140999500Y-116475500D01*
X140979815Y-116542539D01*
X140927011Y-116588294D01*
X140875500Y-116599500D01*
X136735929Y-116599500D01*
X136610261Y-116624497D01*
X136610255Y-116624499D01*
X136491874Y-116673534D01*
X136385326Y-116744726D01*
X132739201Y-120390851D01*
X132677878Y-120424336D01*
X132608186Y-120419352D01*
X132604084Y-120417737D01*
X132496558Y-120373198D01*
X132444417Y-120351601D01*
X132326858Y-120320101D01*
X132191116Y-120283730D01*
X132133339Y-120276123D01*
X131931127Y-120249500D01*
X131931120Y-120249500D01*
X131668880Y-120249500D01*
X131668872Y-120249500D01*
X131437772Y-120279926D01*
X131408884Y-120283730D01*
X131155585Y-120351601D01*
X131155581Y-120351602D01*
X131155571Y-120351605D01*
X130913309Y-120451953D01*
X130913299Y-120451958D01*
X130686196Y-120583075D01*
X130478148Y-120742718D01*
X130292718Y-120928148D01*
X130133075Y-121136196D01*
X130001958Y-121363299D01*
X130001953Y-121363309D01*
X129901605Y-121605571D01*
X129901602Y-121605581D01*
X129846609Y-121810821D01*
X129833730Y-121858885D01*
X129799500Y-122118872D01*
X129799500Y-122381127D01*
X129816769Y-122512287D01*
X129833730Y-122641116D01*
X129901602Y-122894418D01*
X129901605Y-122894428D01*
X130001953Y-123136690D01*
X130001958Y-123136700D01*
X130133075Y-123363803D01*
X130292718Y-123571851D01*
X130292726Y-123571860D01*
X130358685Y-123637819D01*
X130392170Y-123699142D01*
X130387186Y-123768834D01*
X130345314Y-123824767D01*
X130279850Y-123849184D01*
X130271004Y-123849500D01*
X129290808Y-123849500D01*
X129223769Y-123829815D01*
X129203127Y-123813181D01*
X128756818Y-123366872D01*
X128723333Y-123305549D01*
X128720499Y-123279191D01*
X128720499Y-120702129D01*
X128720498Y-120702123D01*
X128717483Y-120674077D01*
X128714091Y-120642517D01*
X128663796Y-120507669D01*
X128663795Y-120507668D01*
X128663793Y-120507664D01*
X128577547Y-120392455D01*
X128577544Y-120392452D01*
X128462335Y-120306206D01*
X128462328Y-120306202D01*
X128327482Y-120255908D01*
X128327483Y-120255908D01*
X128267883Y-120249501D01*
X128267881Y-120249500D01*
X128267873Y-120249500D01*
X128267864Y-120249500D01*
X125172122Y-120249500D01*
X125171111Y-120249555D01*
X125170882Y-120249500D01*
X125168808Y-120249501D01*
X125168808Y-120249010D01*
X125103117Y-120233472D01*
X125054612Y-120183183D01*
X125040500Y-120125731D01*
X125040500Y-113868872D01*
X125749500Y-113868872D01*
X125749500Y-114131127D01*
X125770436Y-114290140D01*
X125783730Y-114391116D01*
X125845732Y-114622511D01*
X125851602Y-114644418D01*
X125851605Y-114644428D01*
X125951953Y-114886690D01*
X125951958Y-114886700D01*
X126083075Y-115113803D01*
X126242718Y-115321851D01*
X126242726Y-115321860D01*
X126428140Y-115507274D01*
X126428148Y-115507281D01*
X126428149Y-115507282D01*
X126451847Y-115525466D01*
X126636196Y-115666924D01*
X126863299Y-115798041D01*
X126863309Y-115798046D01*
X127105571Y-115898394D01*
X127105581Y-115898398D01*
X127358884Y-115966270D01*
X127618880Y-116000500D01*
X127618887Y-116000500D01*
X127881113Y-116000500D01*
X127881120Y-116000500D01*
X128141116Y-115966270D01*
X128394419Y-115898398D01*
X128636697Y-115798043D01*
X128863803Y-115666924D01*
X129071851Y-115507282D01*
X129071855Y-115507277D01*
X129071860Y-115507274D01*
X129257274Y-115321860D01*
X129257277Y-115321855D01*
X129257282Y-115321851D01*
X129416924Y-115113803D01*
X129548043Y-114886697D01*
X129648398Y-114644419D01*
X129716270Y-114391116D01*
X129750500Y-114131120D01*
X129750500Y-113868880D01*
X129750499Y-113868872D01*
X132749500Y-113868872D01*
X132749500Y-114131127D01*
X132770436Y-114290140D01*
X132783730Y-114391116D01*
X132845732Y-114622511D01*
X132851602Y-114644418D01*
X132851605Y-114644428D01*
X132951953Y-114886690D01*
X132951958Y-114886700D01*
X133083075Y-115113803D01*
X133242718Y-115321851D01*
X133242726Y-115321860D01*
X133428140Y-115507274D01*
X133428148Y-115507281D01*
X133428149Y-115507282D01*
X133451847Y-115525466D01*
X133636196Y-115666924D01*
X133863299Y-115798041D01*
X133863309Y-115798046D01*
X134105571Y-115898394D01*
X134105581Y-115898398D01*
X134358884Y-115966270D01*
X134618880Y-116000500D01*
X134618887Y-116000500D01*
X134881113Y-116000500D01*
X134881120Y-116000500D01*
X135141116Y-115966270D01*
X135394419Y-115898398D01*
X135636697Y-115798043D01*
X135863803Y-115666924D01*
X136071851Y-115507282D01*
X136071855Y-115507277D01*
X136071860Y-115507274D01*
X136257274Y-115321860D01*
X136257277Y-115321855D01*
X136257282Y-115321851D01*
X136416924Y-115113803D01*
X136548043Y-114886697D01*
X136648398Y-114644419D01*
X136716270Y-114391116D01*
X136750500Y-114131120D01*
X136750500Y-113868880D01*
X136716270Y-113608884D01*
X136648398Y-113355581D01*
X136637323Y-113328844D01*
X136548046Y-113113309D01*
X136548041Y-113113299D01*
X136416924Y-112886196D01*
X136257281Y-112678148D01*
X136257274Y-112678140D01*
X136071860Y-112492726D01*
X136071851Y-112492718D01*
X135863803Y-112333075D01*
X135636700Y-112201958D01*
X135636690Y-112201953D01*
X135394428Y-112101605D01*
X135394421Y-112101603D01*
X135394419Y-112101602D01*
X135141116Y-112033730D01*
X135075027Y-112025029D01*
X134881127Y-111999500D01*
X134881120Y-111999500D01*
X134618880Y-111999500D01*
X134618872Y-111999500D01*
X134387772Y-112029926D01*
X134358884Y-112033730D01*
X134168362Y-112084780D01*
X134105581Y-112101602D01*
X134105571Y-112101605D01*
X133863309Y-112201953D01*
X133863299Y-112201958D01*
X133636196Y-112333075D01*
X133428148Y-112492718D01*
X133242718Y-112678148D01*
X133083075Y-112886196D01*
X132951958Y-113113299D01*
X132951953Y-113113309D01*
X132851605Y-113355571D01*
X132851602Y-113355581D01*
X132783730Y-113608885D01*
X132749500Y-113868872D01*
X129750499Y-113868872D01*
X129716270Y-113608884D01*
X129648398Y-113355581D01*
X129637323Y-113328844D01*
X129548046Y-113113309D01*
X129548041Y-113113299D01*
X129416924Y-112886196D01*
X129257281Y-112678148D01*
X129257274Y-112678140D01*
X129071860Y-112492726D01*
X129071851Y-112492718D01*
X128863803Y-112333075D01*
X128636700Y-112201958D01*
X128636690Y-112201953D01*
X128394428Y-112101605D01*
X128394421Y-112101603D01*
X128394419Y-112101602D01*
X128141116Y-112033730D01*
X128075027Y-112025029D01*
X127881127Y-111999500D01*
X127881120Y-111999500D01*
X127618880Y-111999500D01*
X127618872Y-111999500D01*
X127387772Y-112029926D01*
X127358884Y-112033730D01*
X127168362Y-112084780D01*
X127105581Y-112101602D01*
X127105571Y-112101605D01*
X126863309Y-112201953D01*
X126863299Y-112201958D01*
X126636196Y-112333075D01*
X126428148Y-112492718D01*
X126242718Y-112678148D01*
X126083075Y-112886196D01*
X125951958Y-113113299D01*
X125951953Y-113113309D01*
X125851605Y-113355571D01*
X125851602Y-113355581D01*
X125783730Y-113608885D01*
X125749500Y-113868872D01*
X125040500Y-113868872D01*
X125040500Y-108717241D01*
X125060185Y-108650202D01*
X125112989Y-108604447D01*
X125182147Y-108594503D01*
X125220795Y-108606756D01*
X125220801Y-108606760D01*
X125306061Y-108650202D01*
X125389163Y-108692545D01*
X125389165Y-108692545D01*
X125389168Y-108692547D01*
X125465168Y-108717241D01*
X125568881Y-108750940D01*
X125755514Y-108780500D01*
X125755519Y-108780500D01*
X125944486Y-108780500D01*
X126131118Y-108750940D01*
X126310832Y-108692547D01*
X126479199Y-108606760D01*
X126632073Y-108495690D01*
X126765690Y-108362073D01*
X126824147Y-108281613D01*
X126879478Y-108238949D01*
X126924465Y-108230500D01*
X127925535Y-108230500D01*
X127992574Y-108250185D01*
X128025852Y-108281613D01*
X128084310Y-108362073D01*
X128217927Y-108495690D01*
X128370801Y-108606760D01*
X128450347Y-108647290D01*
X128539163Y-108692545D01*
X128539165Y-108692545D01*
X128539168Y-108692547D01*
X128615168Y-108717241D01*
X128718881Y-108750940D01*
X128905514Y-108780500D01*
X128905519Y-108780500D01*
X129094486Y-108780500D01*
X129281118Y-108750940D01*
X129460832Y-108692547D01*
X129629199Y-108606760D01*
X129782073Y-108495690D01*
X129915690Y-108362073D01*
X130026760Y-108209199D01*
X130112547Y-108040832D01*
X130170940Y-107861118D01*
X130200500Y-107674486D01*
X130200500Y-107485513D01*
X130170940Y-107298881D01*
X130112545Y-107119163D01*
X130054264Y-107004781D01*
X130026760Y-106950801D01*
X129915690Y-106797927D01*
X129782073Y-106664310D01*
X129629199Y-106553240D01*
X129602945Y-106539863D01*
X129460836Y-106467454D01*
X129281118Y-106409059D01*
X129094486Y-106379500D01*
X129094481Y-106379500D01*
X128905519Y-106379500D01*
X128905514Y-106379500D01*
X128718881Y-106409059D01*
X128539163Y-106467454D01*
X128370800Y-106553240D01*
X128283579Y-106616610D01*
X128217927Y-106664310D01*
X128217925Y-106664312D01*
X128217924Y-106664312D01*
X128084311Y-106797925D01*
X128025853Y-106878386D01*
X127970522Y-106921051D01*
X127925535Y-106929500D01*
X126924465Y-106929500D01*
X126857426Y-106909815D01*
X126824147Y-106878386D01*
X126765690Y-106797927D01*
X126632073Y-106664310D01*
X126479199Y-106553240D01*
X126452945Y-106539863D01*
X126310836Y-106467454D01*
X126131118Y-106409059D01*
X125944486Y-106379500D01*
X125944481Y-106379500D01*
X125755519Y-106379500D01*
X125755514Y-106379500D01*
X125568881Y-106409059D01*
X125389163Y-106467454D01*
X125220795Y-106553243D01*
X125218089Y-106553751D01*
X125216011Y-106555552D01*
X125183961Y-106560160D01*
X125152126Y-106566139D01*
X125149576Y-106565104D01*
X125146853Y-106565496D01*
X125117394Y-106552042D01*
X125087385Y-106539863D01*
X125085799Y-106537613D01*
X125083297Y-106536471D01*
X125065788Y-106509227D01*
X125047128Y-106482756D01*
X125046555Y-106479299D01*
X125045523Y-106477693D01*
X125040500Y-106442758D01*
X125040500Y-106210808D01*
X125060185Y-106143769D01*
X125076819Y-106123127D01*
X126355273Y-104844673D01*
X126355277Y-104844669D01*
X126426465Y-104738127D01*
X126475501Y-104619744D01*
X126500500Y-104494069D01*
X126500500Y-103574464D01*
X126520185Y-103507425D01*
X126551616Y-103474145D01*
X126632069Y-103415693D01*
X126632069Y-103415692D01*
X126632073Y-103415690D01*
X126765690Y-103282073D01*
X126876760Y-103129199D01*
X126962547Y-102960832D01*
X127020940Y-102781118D01*
X127024848Y-102756446D01*
X127050500Y-102594486D01*
X127050500Y-102405513D01*
X127020940Y-102218881D01*
X126962545Y-102039163D01*
X126893059Y-101902790D01*
X126876760Y-101870801D01*
X126765690Y-101717927D01*
X126632073Y-101584310D01*
X126629944Y-101582181D01*
X126596459Y-101520858D01*
X126601443Y-101451166D01*
X126643315Y-101395233D01*
X126708779Y-101370816D01*
X126717625Y-101370500D01*
X128132375Y-101370500D01*
X128153620Y-101376738D01*
G37*
%TD.AperFunction*%
%TA.AperFunction,Conductor*%
G36*
X135918006Y-101390185D02*
G01*
X135945252Y-101413962D01*
X135948035Y-101417220D01*
X136092786Y-101561971D01*
X136258385Y-101682284D01*
X136258387Y-101682285D01*
X136258390Y-101682287D01*
X136351630Y-101729795D01*
X136402426Y-101777770D01*
X136419221Y-101845591D01*
X136396684Y-101911725D01*
X136351630Y-101950765D01*
X136258644Y-101998143D01*
X136214077Y-102030523D01*
X136214077Y-102030524D01*
X136893554Y-102710000D01*
X136887339Y-102710000D01*
X136785606Y-102737259D01*
X136694394Y-102789920D01*
X136619920Y-102864394D01*
X136567259Y-102955606D01*
X136540000Y-103057339D01*
X136540000Y-103063553D01*
X135860524Y-102384077D01*
X135860523Y-102384077D01*
X135828143Y-102428644D01*
X135780485Y-102522180D01*
X135732510Y-102572976D01*
X135664689Y-102589771D01*
X135598554Y-102567233D01*
X135559515Y-102522180D01*
X135511859Y-102428650D01*
X135479474Y-102384077D01*
X135479474Y-102384076D01*
X134800000Y-103063551D01*
X134800000Y-103057339D01*
X134772741Y-102955606D01*
X134720080Y-102864394D01*
X134645606Y-102789920D01*
X134554394Y-102737259D01*
X134452661Y-102710000D01*
X134446446Y-102710000D01*
X135125922Y-102030524D01*
X135125921Y-102030523D01*
X135081359Y-101998147D01*
X135081350Y-101998141D01*
X134988369Y-101950765D01*
X134937573Y-101902790D01*
X134920778Y-101834969D01*
X134943315Y-101768835D01*
X134988370Y-101729795D01*
X135081610Y-101682287D01*
X135194133Y-101600535D01*
X135247213Y-101561971D01*
X135247215Y-101561968D01*
X135247219Y-101561966D01*
X135391966Y-101417219D01*
X135391972Y-101417210D01*
X135394748Y-101413962D01*
X135453258Y-101375773D01*
X135489033Y-101370500D01*
X135850967Y-101370500D01*
X135918006Y-101390185D01*
G37*
%TD.AperFunction*%
%TA.AperFunction,Conductor*%
G36*
X138016834Y-101434865D02*
G01*
X138072767Y-101476737D01*
X138097184Y-101542201D01*
X138097500Y-101551047D01*
X138097500Y-102256075D01*
X138077815Y-102323114D01*
X138057209Y-102340968D01*
X138059896Y-102343655D01*
X137340000Y-103063551D01*
X137340000Y-103057339D01*
X137312741Y-102955606D01*
X137260080Y-102864394D01*
X137185606Y-102789920D01*
X137094394Y-102737259D01*
X136992661Y-102710000D01*
X136986446Y-102710000D01*
X137665922Y-102030524D01*
X137665921Y-102030523D01*
X137621359Y-101998147D01*
X137621350Y-101998141D01*
X137528369Y-101950765D01*
X137477573Y-101902790D01*
X137460778Y-101834969D01*
X137483315Y-101768835D01*
X137528370Y-101729795D01*
X137621610Y-101682287D01*
X137734133Y-101600535D01*
X137787213Y-101561971D01*
X137787215Y-101561968D01*
X137787219Y-101561966D01*
X137885819Y-101463366D01*
X137947142Y-101429881D01*
X138016834Y-101434865D01*
G37*
%TD.AperFunction*%
%TA.AperFunction,Conductor*%
G36*
X205260000Y-83862661D02*
G01*
X205287259Y-83964394D01*
X205339920Y-84055606D01*
X205414394Y-84130080D01*
X205505606Y-84182741D01*
X205607339Y-84210000D01*
X205613553Y-84210000D01*
X204934076Y-84889474D01*
X204978652Y-84921861D01*
X205071628Y-84969234D01*
X205122425Y-85017208D01*
X205139220Y-85085029D01*
X205116683Y-85151164D01*
X205071630Y-85190203D01*
X204978388Y-85237713D01*
X204812786Y-85358028D01*
X204668028Y-85502786D01*
X204547715Y-85668386D01*
X204454781Y-85850776D01*
X204391522Y-86045465D01*
X204359500Y-86247648D01*
X204359500Y-86452351D01*
X204387654Y-86630111D01*
X204378699Y-86699405D01*
X204352862Y-86737190D01*
X202194726Y-88895326D01*
X202170706Y-88931276D01*
X202136622Y-88982287D01*
X202123535Y-89001873D01*
X202086564Y-89091127D01*
X202085238Y-89093929D01*
X202063961Y-89117808D01*
X202043885Y-89142722D01*
X202040871Y-89143724D01*
X202038759Y-89146096D01*
X202007947Y-89154682D01*
X201977591Y-89164786D01*
X201974513Y-89164000D01*
X201971454Y-89164853D01*
X201940888Y-89155417D01*
X201909891Y-89147506D01*
X201907705Y-89145174D01*
X201904693Y-89144245D01*
X201885725Y-89121734D01*
X201862681Y-89097159D01*
X201855051Y-89082184D01*
X201855049Y-89082181D01*
X201855048Y-89082179D01*
X201730109Y-88910213D01*
X201579786Y-88759890D01*
X201407820Y-88634951D01*
X201407115Y-88634591D01*
X201399054Y-88630485D01*
X201348259Y-88582512D01*
X201331463Y-88514692D01*
X201353999Y-88448556D01*
X201399054Y-88409515D01*
X201407816Y-88405051D01*
X201439141Y-88382292D01*
X201579786Y-88280109D01*
X201579788Y-88280106D01*
X201579792Y-88280104D01*
X201730104Y-88129792D01*
X201730106Y-88129788D01*
X201730109Y-88129786D01*
X201855048Y-87957820D01*
X201855047Y-87957820D01*
X201855051Y-87957816D01*
X201951557Y-87768412D01*
X202017246Y-87566243D01*
X202050500Y-87356287D01*
X202050500Y-87143713D01*
X202017246Y-86933757D01*
X201994420Y-86863510D01*
X201992426Y-86793672D01*
X202024669Y-86737515D01*
X204333860Y-84428324D01*
X204395178Y-84394843D01*
X204464870Y-84399827D01*
X204520803Y-84441699D01*
X204532020Y-84459712D01*
X204548140Y-84491349D01*
X204548147Y-84491359D01*
X204580523Y-84535921D01*
X204580524Y-84535922D01*
X205260000Y-83856446D01*
X205260000Y-83862661D01*
G37*
%TD.AperFunction*%
%TA.AperFunction,Conductor*%
G36*
X207946231Y-80920185D02*
G01*
X207966873Y-80936819D01*
X209513181Y-82483126D01*
X209546666Y-82544449D01*
X209549500Y-82570807D01*
X209549500Y-83077449D01*
X209529815Y-83144488D01*
X209477011Y-83190243D01*
X209407853Y-83200187D01*
X209344297Y-83171162D01*
X209315016Y-83133745D01*
X209312286Y-83128388D01*
X209191971Y-82962786D01*
X209047213Y-82818028D01*
X208881613Y-82697715D01*
X208881612Y-82697714D01*
X208881610Y-82697713D01*
X208814322Y-82663428D01*
X208699223Y-82604781D01*
X208504534Y-82541522D01*
X208329995Y-82513878D01*
X208302352Y-82509500D01*
X208097648Y-82509500D01*
X208070343Y-82513824D01*
X207919888Y-82537654D01*
X207850594Y-82528699D01*
X207812809Y-82502862D01*
X207463673Y-82153726D01*
X207463669Y-82153723D01*
X207357127Y-82082535D01*
X207352605Y-82080662D01*
X207238744Y-82033499D01*
X207238738Y-82033497D01*
X207113071Y-82008500D01*
X207113069Y-82008500D01*
X205119171Y-82008500D01*
X205119169Y-82008500D01*
X204993501Y-82033497D01*
X204993491Y-82033500D01*
X204879631Y-82080662D01*
X204879632Y-82080663D01*
X204875113Y-82082535D01*
X204768566Y-82153726D01*
X204768565Y-82153727D01*
X202261681Y-84660612D01*
X202200358Y-84694097D01*
X202130666Y-84689113D01*
X202074733Y-84647241D01*
X202050316Y-84581777D01*
X202050000Y-84572931D01*
X202050000Y-83812172D01*
X202049999Y-83812155D01*
X202043598Y-83752627D01*
X202043596Y-83752620D01*
X201993354Y-83617913D01*
X201993350Y-83617906D01*
X201907190Y-83502812D01*
X201907187Y-83502809D01*
X201792093Y-83416649D01*
X201792086Y-83416645D01*
X201657379Y-83366403D01*
X201657372Y-83366401D01*
X201597844Y-83360000D01*
X200950000Y-83360000D01*
X200950000Y-84276988D01*
X200892993Y-84244075D01*
X200765826Y-84210000D01*
X200634174Y-84210000D01*
X200507007Y-84244075D01*
X200450000Y-84276988D01*
X200450000Y-83360000D01*
X199802155Y-83360000D01*
X199742627Y-83366401D01*
X199742620Y-83366403D01*
X199607913Y-83416645D01*
X199607906Y-83416649D01*
X199492812Y-83502809D01*
X199492809Y-83502812D01*
X199406649Y-83617906D01*
X199406645Y-83617913D01*
X199356403Y-83752620D01*
X199356401Y-83752627D01*
X199350000Y-83812155D01*
X199350000Y-84460000D01*
X200266988Y-84460000D01*
X200234075Y-84517007D01*
X200200000Y-84644174D01*
X200200000Y-84775826D01*
X200234075Y-84902993D01*
X200266988Y-84960000D01*
X199350000Y-84960000D01*
X199350000Y-85607844D01*
X199356401Y-85667372D01*
X199356403Y-85667379D01*
X199406645Y-85802086D01*
X199406649Y-85802093D01*
X199492809Y-85917187D01*
X199492812Y-85917190D01*
X199607906Y-86003350D01*
X199607913Y-86003354D01*
X199739470Y-86052422D01*
X199795404Y-86094293D01*
X199819821Y-86159758D01*
X199804969Y-86228031D01*
X199783819Y-86256285D01*
X199669889Y-86370215D01*
X199544951Y-86542179D01*
X199448444Y-86731585D01*
X199382753Y-86933760D01*
X199349500Y-87143713D01*
X199349500Y-87220192D01*
X199329815Y-87287231D01*
X199277011Y-87332986D01*
X199207853Y-87342930D01*
X199144297Y-87313905D01*
X199137819Y-87307873D01*
X198846819Y-87016873D01*
X198813334Y-86955550D01*
X198810500Y-86929192D01*
X198810500Y-83610807D01*
X198830185Y-83543768D01*
X198846819Y-83523126D01*
X201433126Y-80936819D01*
X201494449Y-80903334D01*
X201520807Y-80900500D01*
X207879192Y-80900500D01*
X207946231Y-80920185D01*
G37*
%TD.AperFunction*%
%TA.AperFunction,Conductor*%
G36*
X136540000Y-85382661D02*
G01*
X136567259Y-85484394D01*
X136619920Y-85575606D01*
X136694394Y-85650080D01*
X136785606Y-85702741D01*
X136887339Y-85730000D01*
X136893553Y-85730000D01*
X136214076Y-86409474D01*
X136258652Y-86441861D01*
X136351628Y-86489234D01*
X136402425Y-86537208D01*
X136419220Y-86605029D01*
X136396683Y-86671164D01*
X136351630Y-86710203D01*
X136258388Y-86757713D01*
X136092786Y-86878028D01*
X135948034Y-87022780D01*
X135898957Y-87090330D01*
X135842246Y-87168386D01*
X135837914Y-87171726D01*
X135835642Y-87176703D01*
X135810545Y-87192831D01*
X135786918Y-87211051D01*
X135780244Y-87212304D01*
X135776864Y-87214477D01*
X135741929Y-87219500D01*
X135598071Y-87219500D01*
X135531032Y-87199815D01*
X135497754Y-87168386D01*
X135391966Y-87022781D01*
X135247219Y-86878034D01*
X135247213Y-86878028D01*
X135081611Y-86757713D01*
X134988369Y-86710203D01*
X134937574Y-86662229D01*
X134920779Y-86594407D01*
X134943317Y-86528273D01*
X134988371Y-86489234D01*
X135081346Y-86441861D01*
X135081347Y-86441861D01*
X135125921Y-86409474D01*
X134446447Y-85730000D01*
X134452661Y-85730000D01*
X134554394Y-85702741D01*
X134645606Y-85650080D01*
X134720080Y-85575606D01*
X134772741Y-85484394D01*
X134800000Y-85382661D01*
X134800000Y-85376447D01*
X135479474Y-86055921D01*
X135511861Y-86011347D01*
X135511861Y-86011346D01*
X135559515Y-85917820D01*
X135607489Y-85867024D01*
X135675310Y-85850228D01*
X135741445Y-85872765D01*
X135780485Y-85917819D01*
X135828141Y-86011350D01*
X135828147Y-86011359D01*
X135860523Y-86055921D01*
X135860524Y-86055922D01*
X136540000Y-85376446D01*
X136540000Y-85382661D01*
G37*
%TD.AperFunction*%
%TA.AperFunction,Conductor*%
G36*
X206739474Y-84535921D02*
G01*
X206771861Y-84491347D01*
X206771861Y-84491346D01*
X206819234Y-84398371D01*
X206867208Y-84347575D01*
X206935028Y-84330779D01*
X207001164Y-84353316D01*
X207040203Y-84398369D01*
X207087713Y-84491611D01*
X207208028Y-84657213D01*
X207352786Y-84801971D01*
X207477566Y-84892627D01*
X207518390Y-84922287D01*
X207592406Y-84960000D01*
X207611080Y-84969515D01*
X207661876Y-85017490D01*
X207678671Y-85085311D01*
X207656134Y-85151446D01*
X207611080Y-85190485D01*
X207518386Y-85237715D01*
X207352786Y-85358028D01*
X207208028Y-85502786D01*
X207087715Y-85668386D01*
X207040485Y-85761080D01*
X206992510Y-85811876D01*
X206924689Y-85828671D01*
X206858554Y-85806134D01*
X206819515Y-85761080D01*
X206808774Y-85740000D01*
X206772287Y-85668390D01*
X206748897Y-85636196D01*
X206651971Y-85502786D01*
X206507213Y-85358028D01*
X206341611Y-85237713D01*
X206248369Y-85190203D01*
X206197574Y-85142229D01*
X206180779Y-85074407D01*
X206203317Y-85008273D01*
X206248371Y-84969234D01*
X206341346Y-84921861D01*
X206341347Y-84921861D01*
X206385921Y-84889474D01*
X205706447Y-84210000D01*
X205712661Y-84210000D01*
X205814394Y-84182741D01*
X205905606Y-84130080D01*
X205980080Y-84055606D01*
X206032741Y-83964394D01*
X206060000Y-83862661D01*
X206060000Y-83856447D01*
X206739474Y-84535921D01*
G37*
%TD.AperFunction*%
%TA.AperFunction,Conductor*%
G36*
X211142539Y-78770185D02*
G01*
X211188294Y-78822989D01*
X211199500Y-78874500D01*
X211199500Y-127625500D01*
X211179815Y-127692539D01*
X211127011Y-127738294D01*
X211075500Y-127749500D01*
X92324500Y-127749500D01*
X92257461Y-127729815D01*
X92211706Y-127677011D01*
X92200500Y-127625500D01*
X92200500Y-90051153D01*
X93399500Y-90051153D01*
X93399500Y-122268846D01*
X93430261Y-122423489D01*
X93430264Y-122423501D01*
X93490602Y-122569172D01*
X93490609Y-122569185D01*
X93578210Y-122700288D01*
X93578213Y-122700292D01*
X96663898Y-125785976D01*
X96697383Y-125847299D01*
X96699835Y-125883377D01*
X96699500Y-125887637D01*
X96699500Y-125887648D01*
X96699500Y-126092352D01*
X96701705Y-126106272D01*
X96731522Y-126294534D01*
X96794781Y-126489223D01*
X96887715Y-126671613D01*
X97008028Y-126837213D01*
X97152786Y-126981971D01*
X97307749Y-127094556D01*
X97318390Y-127102287D01*
X97434607Y-127161503D01*
X97500776Y-127195218D01*
X97500778Y-127195218D01*
X97500781Y-127195220D01*
X97605137Y-127229127D01*
X97695465Y-127258477D01*
X97796557Y-127274488D01*
X97897648Y-127290500D01*
X97897649Y-127290500D01*
X98102351Y-127290500D01*
X98102352Y-127290500D01*
X98304534Y-127258477D01*
X98499219Y-127195220D01*
X98681610Y-127102287D01*
X98774590Y-127034732D01*
X98847213Y-126981971D01*
X98847215Y-126981968D01*
X98847219Y-126981966D01*
X98991966Y-126837219D01*
X98991972Y-126837210D01*
X98994748Y-126833962D01*
X99053258Y-126795773D01*
X99089033Y-126790500D01*
X105338844Y-126790500D01*
X105338845Y-126790499D01*
X105493497Y-126759737D01*
X105606166Y-126713067D01*
X105639172Y-126699397D01*
X105639172Y-126699396D01*
X105639179Y-126699394D01*
X105770289Y-126611789D01*
X106395259Y-125986819D01*
X106456582Y-125953334D01*
X106482940Y-125950500D01*
X112588844Y-125950500D01*
X112588845Y-125950499D01*
X112743497Y-125919737D01*
X112889179Y-125859394D01*
X113020289Y-125771789D01*
X116055978Y-122736098D01*
X116117299Y-122702615D01*
X116153404Y-122700165D01*
X116157643Y-122700499D01*
X116157648Y-122700500D01*
X116157653Y-122700500D01*
X116362351Y-122700500D01*
X116362352Y-122700500D01*
X116564534Y-122668477D01*
X116759219Y-122605220D01*
X116941610Y-122512287D01*
X117062061Y-122424775D01*
X117107213Y-122391971D01*
X117107215Y-122391968D01*
X117107219Y-122391966D01*
X117251966Y-122247219D01*
X117251968Y-122247215D01*
X117251971Y-122247213D01*
X117372286Y-122081611D01*
X117372415Y-122081359D01*
X117419795Y-121988369D01*
X117467769Y-121937573D01*
X117535590Y-121920778D01*
X117601725Y-121943315D01*
X117640765Y-121988369D01*
X117688141Y-122081350D01*
X117688147Y-122081359D01*
X117720523Y-122125921D01*
X117720524Y-122125922D01*
X118400000Y-121446446D01*
X118400000Y-121452661D01*
X118427259Y-121554394D01*
X118479920Y-121645606D01*
X118554394Y-121720080D01*
X118645606Y-121772741D01*
X118747339Y-121800000D01*
X118753553Y-121800000D01*
X118074076Y-122479474D01*
X118118650Y-122511859D01*
X118300968Y-122604755D01*
X118495582Y-122667990D01*
X118697683Y-122700000D01*
X118902317Y-122700000D01*
X119104417Y-122667990D01*
X119299031Y-122604755D01*
X119481349Y-122511859D01*
X119525921Y-122479474D01*
X118846447Y-121800000D01*
X118852661Y-121800000D01*
X118954394Y-121772741D01*
X119045606Y-121720080D01*
X119120080Y-121645606D01*
X119172741Y-121554394D01*
X119200000Y-121452661D01*
X119200000Y-121446447D01*
X119879474Y-122125921D01*
X119911859Y-122081349D01*
X120004755Y-121899031D01*
X120067990Y-121704417D01*
X120100000Y-121502317D01*
X120100000Y-121297682D01*
X120067990Y-121095582D01*
X120004755Y-120900968D01*
X119911859Y-120718650D01*
X119879474Y-120674077D01*
X119879474Y-120674076D01*
X119200000Y-121353551D01*
X119200000Y-121347339D01*
X119172741Y-121245606D01*
X119120080Y-121154394D01*
X119045606Y-121079920D01*
X118954394Y-121027259D01*
X118852661Y-121000000D01*
X118846446Y-121000000D01*
X119525922Y-120320524D01*
X119525921Y-120320523D01*
X119481359Y-120288147D01*
X119481350Y-120288141D01*
X119299031Y-120195244D01*
X119104417Y-120132009D01*
X118902317Y-120100000D01*
X118697683Y-120100000D01*
X118495582Y-120132009D01*
X118300968Y-120195244D01*
X118118644Y-120288143D01*
X118074077Y-120320523D01*
X118074077Y-120320524D01*
X118753554Y-121000000D01*
X118747339Y-121000000D01*
X118645606Y-121027259D01*
X118554394Y-121079920D01*
X118479920Y-121154394D01*
X118427259Y-121245606D01*
X118400000Y-121347339D01*
X118400000Y-121353553D01*
X117720524Y-120674077D01*
X117720523Y-120674077D01*
X117688143Y-120718644D01*
X117640765Y-120811630D01*
X117592790Y-120862426D01*
X117524969Y-120879221D01*
X117458834Y-120856683D01*
X117419795Y-120811630D01*
X117417766Y-120807648D01*
X117372287Y-120718390D01*
X117372285Y-120718387D01*
X117372284Y-120718385D01*
X117251971Y-120552786D01*
X117107213Y-120408028D01*
X116941613Y-120287715D01*
X116941612Y-120287714D01*
X116941610Y-120287713D01*
X116866613Y-120249500D01*
X116759223Y-120194781D01*
X116564534Y-120131522D01*
X116389995Y-120103878D01*
X116362352Y-120099500D01*
X116157648Y-120099500D01*
X116133329Y-120103351D01*
X115955465Y-120131522D01*
X115760776Y-120194781D01*
X115578386Y-120287715D01*
X115412786Y-120408028D01*
X115268028Y-120552786D01*
X115147715Y-120718386D01*
X115100485Y-120811080D01*
X115052510Y-120861876D01*
X114984689Y-120878671D01*
X114918554Y-120856134D01*
X114879515Y-120811080D01*
X114877766Y-120807648D01*
X114832287Y-120718390D01*
X114800092Y-120674077D01*
X114711971Y-120552786D01*
X114567213Y-120408028D01*
X114401613Y-120287715D01*
X114401612Y-120287714D01*
X114401610Y-120287713D01*
X114326613Y-120249500D01*
X114219223Y-120194781D01*
X114024534Y-120131522D01*
X113849995Y-120103878D01*
X113822352Y-120099500D01*
X113617648Y-120099500D01*
X113439886Y-120127654D01*
X113370593Y-120118699D01*
X113332808Y-120092862D01*
X111104674Y-117864727D01*
X111104673Y-117864726D01*
X111047412Y-117826466D01*
X110998127Y-117793535D01*
X110905759Y-117755275D01*
X110879744Y-117744499D01*
X110879738Y-117744497D01*
X110754071Y-117719500D01*
X110754069Y-117719500D01*
X99198071Y-117719500D01*
X99131032Y-117699815D01*
X99097754Y-117668386D01*
X98991966Y-117522781D01*
X98847219Y-117378034D01*
X98847213Y-117378028D01*
X98681614Y-117257715D01*
X98675006Y-117254348D01*
X98588917Y-117210483D01*
X98538123Y-117162511D01*
X98521328Y-117094690D01*
X98543865Y-117028555D01*
X98588917Y-116989516D01*
X98681610Y-116942287D01*
X98702770Y-116926913D01*
X98847213Y-116821971D01*
X98847215Y-116821968D01*
X98847219Y-116821966D01*
X98991966Y-116677219D01*
X98991968Y-116677215D01*
X98991971Y-116677213D01*
X99048432Y-116599500D01*
X99112287Y-116511610D01*
X99205220Y-116329219D01*
X99268477Y-116134534D01*
X99300500Y-115932352D01*
X99300500Y-115727648D01*
X99268477Y-115525466D01*
X99268403Y-115525239D01*
X99223633Y-115387451D01*
X99205220Y-115330781D01*
X99205218Y-115330778D01*
X99205218Y-115330776D01*
X99153454Y-115229185D01*
X99112287Y-115148390D01*
X99087158Y-115113803D01*
X98991971Y-114982786D01*
X98847213Y-114838028D01*
X98681614Y-114717715D01*
X98675006Y-114714348D01*
X98588917Y-114670483D01*
X98538123Y-114622511D01*
X98521328Y-114554690D01*
X98543865Y-114488555D01*
X98588917Y-114449516D01*
X98681610Y-114402287D01*
X98742385Y-114358132D01*
X98847213Y-114281971D01*
X98847215Y-114281968D01*
X98847219Y-114281966D01*
X98991966Y-114137219D01*
X98991968Y-114137215D01*
X98991971Y-114137213D01*
X99044732Y-114064590D01*
X99112287Y-113971610D01*
X99205220Y-113789219D01*
X99268477Y-113594534D01*
X99300500Y-113392352D01*
X99300500Y-113187648D01*
X99268477Y-112985466D01*
X99205220Y-112790781D01*
X99205218Y-112790778D01*
X99205218Y-112790776D01*
X99147831Y-112678149D01*
X99112287Y-112608390D01*
X99090645Y-112578602D01*
X98991971Y-112442786D01*
X98847213Y-112298028D01*
X98681611Y-112177713D01*
X98588369Y-112130203D01*
X98537574Y-112082229D01*
X98520779Y-112014407D01*
X98543317Y-111948273D01*
X98588371Y-111909234D01*
X98681346Y-111861861D01*
X98681347Y-111861861D01*
X98725921Y-111829474D01*
X98046447Y-111150000D01*
X98052661Y-111150000D01*
X98154394Y-111122741D01*
X98245606Y-111070080D01*
X98320080Y-110995606D01*
X98372741Y-110904394D01*
X98400000Y-110802661D01*
X98400000Y-110796448D01*
X99079474Y-111475922D01*
X99079474Y-111475921D01*
X99111859Y-111431349D01*
X99204755Y-111249031D01*
X99267990Y-111054417D01*
X99300000Y-110852317D01*
X99300000Y-110647682D01*
X99267990Y-110445582D01*
X99204755Y-110250968D01*
X99111859Y-110068650D01*
X99079474Y-110024077D01*
X99079474Y-110024076D01*
X98400000Y-110703551D01*
X98400000Y-110697339D01*
X98372741Y-110595606D01*
X98320080Y-110504394D01*
X98245606Y-110429920D01*
X98154394Y-110377259D01*
X98052661Y-110350000D01*
X98046446Y-110350000D01*
X98725922Y-109670524D01*
X98725921Y-109670523D01*
X98681359Y-109638147D01*
X98681350Y-109638141D01*
X98588369Y-109590765D01*
X98537573Y-109542790D01*
X98520778Y-109474969D01*
X98543315Y-109408835D01*
X98588370Y-109369795D01*
X98681610Y-109322287D01*
X98731144Y-109286298D01*
X98847213Y-109201971D01*
X98847215Y-109201968D01*
X98847219Y-109201966D01*
X98991966Y-109057219D01*
X98991968Y-109057215D01*
X98991971Y-109057213D01*
X99045894Y-108982993D01*
X99112287Y-108891610D01*
X99205220Y-108709219D01*
X99268477Y-108514534D01*
X99300500Y-108312352D01*
X99300500Y-108107648D01*
X99268477Y-107905466D01*
X99254067Y-107861118D01*
X99205218Y-107710776D01*
X99140016Y-107582812D01*
X99112287Y-107528390D01*
X99081140Y-107485519D01*
X98991971Y-107362786D01*
X98847213Y-107218028D01*
X98681613Y-107097715D01*
X98681612Y-107097714D01*
X98681610Y-107097713D01*
X98624653Y-107068691D01*
X98499223Y-107004781D01*
X98304534Y-106941522D01*
X98129995Y-106913878D01*
X98102352Y-106909500D01*
X97897648Y-106909500D01*
X97873329Y-106913351D01*
X97695465Y-106941522D01*
X97500776Y-107004781D01*
X97318386Y-107097715D01*
X97152786Y-107218028D01*
X97008028Y-107362786D01*
X96887715Y-107528386D01*
X96794781Y-107710776D01*
X96731522Y-107905465D01*
X96699500Y-108107648D01*
X96699500Y-108312351D01*
X96731522Y-108514534D01*
X96794781Y-108709223D01*
X96887715Y-108891613D01*
X97008028Y-109057213D01*
X97152786Y-109201971D01*
X97318385Y-109322284D01*
X97318387Y-109322285D01*
X97318390Y-109322287D01*
X97411630Y-109369795D01*
X97462426Y-109417770D01*
X97479221Y-109485591D01*
X97456684Y-109551725D01*
X97411630Y-109590765D01*
X97318644Y-109638143D01*
X97274077Y-109670523D01*
X97274077Y-109670524D01*
X97953554Y-110350000D01*
X97947339Y-110350000D01*
X97845606Y-110377259D01*
X97754394Y-110429920D01*
X97679920Y-110504394D01*
X97627259Y-110595606D01*
X97600000Y-110697339D01*
X97600000Y-110703553D01*
X96920524Y-110024077D01*
X96920523Y-110024077D01*
X96888143Y-110068644D01*
X96795244Y-110250968D01*
X96732009Y-110445582D01*
X96700000Y-110647682D01*
X96700000Y-110852317D01*
X96732009Y-111054417D01*
X96795244Y-111249031D01*
X96888141Y-111431350D01*
X96888147Y-111431359D01*
X96920523Y-111475921D01*
X96920524Y-111475922D01*
X97600000Y-110796446D01*
X97600000Y-110802661D01*
X97627259Y-110904394D01*
X97679920Y-110995606D01*
X97754394Y-111070080D01*
X97845606Y-111122741D01*
X97947339Y-111150000D01*
X97953553Y-111150000D01*
X97274076Y-111829474D01*
X97318652Y-111861861D01*
X97411628Y-111909234D01*
X97462425Y-111957208D01*
X97479220Y-112025029D01*
X97456683Y-112091164D01*
X97411630Y-112130203D01*
X97318388Y-112177713D01*
X97152786Y-112298028D01*
X97008028Y-112442786D01*
X96887715Y-112608386D01*
X96794781Y-112790776D01*
X96731522Y-112985465D01*
X96699500Y-113187648D01*
X96699500Y-113392351D01*
X96731522Y-113594534D01*
X96794781Y-113789223D01*
X96835365Y-113868872D01*
X96887484Y-113971161D01*
X96887715Y-113971613D01*
X97008028Y-114137213D01*
X97152786Y-114281971D01*
X97257615Y-114358132D01*
X97318390Y-114402287D01*
X97409840Y-114448883D01*
X97411080Y-114449515D01*
X97461876Y-114497490D01*
X97478671Y-114565311D01*
X97456134Y-114631446D01*
X97411080Y-114670485D01*
X97318386Y-114717715D01*
X97152786Y-114838028D01*
X97008028Y-114982786D01*
X96887715Y-115148386D01*
X96794781Y-115330776D01*
X96731522Y-115525465D01*
X96699500Y-115727648D01*
X96699500Y-115932351D01*
X96731522Y-116134534D01*
X96794781Y-116329223D01*
X96887715Y-116511613D01*
X97008028Y-116677213D01*
X97152786Y-116821971D01*
X97307749Y-116934556D01*
X97318390Y-116942287D01*
X97409840Y-116988883D01*
X97411080Y-116989515D01*
X97461876Y-117037490D01*
X97478671Y-117105311D01*
X97456134Y-117171446D01*
X97411080Y-117210485D01*
X97318386Y-117257715D01*
X97152786Y-117378028D01*
X97008028Y-117522786D01*
X96887715Y-117688386D01*
X96794781Y-117870776D01*
X96731522Y-118065465D01*
X96699500Y-118267648D01*
X96699500Y-118472351D01*
X96731522Y-118674534D01*
X96794781Y-118869223D01*
X96829889Y-118938125D01*
X96886762Y-119049744D01*
X96887715Y-119051613D01*
X97008028Y-119217213D01*
X97152786Y-119361971D01*
X97295682Y-119465789D01*
X97318390Y-119482287D01*
X97409840Y-119528883D01*
X97411080Y-119529515D01*
X97461876Y-119577490D01*
X97478671Y-119645311D01*
X97456134Y-119711446D01*
X97411080Y-119750485D01*
X97318386Y-119797715D01*
X97152786Y-119918028D01*
X97008028Y-120062786D01*
X96887715Y-120228386D01*
X96794781Y-120410776D01*
X96731522Y-120605465D01*
X96699500Y-120807648D01*
X96699500Y-121012351D01*
X96731522Y-121214534D01*
X96794781Y-121409223D01*
X96858691Y-121534653D01*
X96868750Y-121554394D01*
X96887715Y-121591613D01*
X97008028Y-121757213D01*
X97152786Y-121901971D01*
X97318385Y-122022284D01*
X97318387Y-122022285D01*
X97318390Y-122022287D01*
X97380766Y-122054069D01*
X97411630Y-122069795D01*
X97462426Y-122117770D01*
X97479221Y-122185591D01*
X97456684Y-122251725D01*
X97411630Y-122290765D01*
X97318644Y-122338143D01*
X97274077Y-122370523D01*
X97274077Y-122370524D01*
X97953554Y-123050000D01*
X97947339Y-123050000D01*
X97845606Y-123077259D01*
X97754394Y-123129920D01*
X97679920Y-123204394D01*
X97627259Y-123295606D01*
X97600000Y-123397339D01*
X97600000Y-123403553D01*
X96920524Y-122724077D01*
X96920523Y-122724077D01*
X96888143Y-122768644D01*
X96795244Y-122950968D01*
X96732010Y-123145581D01*
X96709324Y-123288810D01*
X96679394Y-123351944D01*
X96620082Y-123388875D01*
X96550220Y-123387877D01*
X96499170Y-123357092D01*
X95036819Y-121894741D01*
X95003334Y-121833418D01*
X95000500Y-121807060D01*
X95000500Y-103507882D01*
X122045669Y-103507882D01*
X122045670Y-103507883D01*
X122071059Y-103526329D01*
X122239362Y-103612085D01*
X122418997Y-103670451D01*
X122605553Y-103700000D01*
X122794447Y-103700000D01*
X122981002Y-103670451D01*
X123160637Y-103612085D01*
X123328937Y-103526331D01*
X123354328Y-103507883D01*
X123354328Y-103507882D01*
X122700001Y-102853554D01*
X122700000Y-102853554D01*
X122045669Y-103507882D01*
X95000500Y-103507882D01*
X95000500Y-102405552D01*
X121500000Y-102405552D01*
X121500000Y-102594447D01*
X121529548Y-102781002D01*
X121587914Y-102960637D01*
X121673666Y-103128933D01*
X121692116Y-103154328D01*
X122346446Y-102500000D01*
X122346446Y-102499999D01*
X122300369Y-102453922D01*
X122350000Y-102453922D01*
X122350000Y-102546078D01*
X122373852Y-102635095D01*
X122419930Y-102714905D01*
X122485095Y-102780070D01*
X122564905Y-102826148D01*
X122653922Y-102850000D01*
X122746078Y-102850000D01*
X122835095Y-102826148D01*
X122914905Y-102780070D01*
X122980070Y-102714905D01*
X123026148Y-102635095D01*
X123050000Y-102546078D01*
X123050000Y-102499999D01*
X123053554Y-102499999D01*
X123053554Y-102500000D01*
X123707882Y-103154328D01*
X123707883Y-103154328D01*
X123726331Y-103128937D01*
X123812085Y-102960637D01*
X123870451Y-102781002D01*
X123900000Y-102594447D01*
X123900000Y-102405552D01*
X123870451Y-102218997D01*
X123812085Y-102039362D01*
X123726329Y-101871059D01*
X123707883Y-101845670D01*
X123707882Y-101845669D01*
X123053554Y-102499999D01*
X123050000Y-102499999D01*
X123050000Y-102453922D01*
X123026148Y-102364905D01*
X122980070Y-102285095D01*
X122914905Y-102219930D01*
X122835095Y-102173852D01*
X122746078Y-102150000D01*
X122653922Y-102150000D01*
X122564905Y-102173852D01*
X122485095Y-102219930D01*
X122419930Y-102285095D01*
X122373852Y-102364905D01*
X122350000Y-102453922D01*
X122300369Y-102453922D01*
X121692116Y-101845669D01*
X121692116Y-101845670D01*
X121673669Y-101871060D01*
X121587914Y-102039362D01*
X121529548Y-102218997D01*
X121500000Y-102405552D01*
X95000500Y-102405552D01*
X95000500Y-90512939D01*
X95020185Y-90445900D01*
X95036815Y-90425262D01*
X95698736Y-89763340D01*
X95760057Y-89729857D01*
X95829748Y-89734841D01*
X95885682Y-89776712D01*
X95908888Y-89831625D01*
X95931522Y-89974534D01*
X95994781Y-90169223D01*
X96049704Y-90277014D01*
X96065702Y-90308412D01*
X96087715Y-90351613D01*
X96208028Y-90517213D01*
X96352786Y-90661971D01*
X96499514Y-90768573D01*
X96518390Y-90782287D01*
X96573257Y-90810243D01*
X96611080Y-90829515D01*
X96661876Y-90877490D01*
X96678671Y-90945311D01*
X96656134Y-91011446D01*
X96611080Y-91050485D01*
X96518386Y-91097715D01*
X96352786Y-91218028D01*
X96208028Y-91362786D01*
X96087715Y-91528386D01*
X95994781Y-91710776D01*
X95931522Y-91905465D01*
X95899500Y-92107648D01*
X95899500Y-92312351D01*
X95931522Y-92514534D01*
X95994781Y-92709223D01*
X96049704Y-92817014D01*
X96080885Y-92878210D01*
X96087715Y-92891613D01*
X96208028Y-93057213D01*
X96352786Y-93201971D01*
X96518385Y-93322284D01*
X96518387Y-93322285D01*
X96518390Y-93322287D01*
X96611630Y-93369795D01*
X96662426Y-93417770D01*
X96679221Y-93485591D01*
X96656684Y-93551725D01*
X96611630Y-93590765D01*
X96518644Y-93638143D01*
X96474077Y-93670523D01*
X96474077Y-93670524D01*
X97153554Y-94350000D01*
X97147339Y-94350000D01*
X97045606Y-94377259D01*
X96954394Y-94429920D01*
X96879920Y-94504394D01*
X96827259Y-94595606D01*
X96800000Y-94697339D01*
X96800000Y-94703553D01*
X96120524Y-94024077D01*
X96120523Y-94024077D01*
X96088143Y-94068644D01*
X95995244Y-94250968D01*
X95932009Y-94445582D01*
X95900000Y-94647682D01*
X95900000Y-94852317D01*
X95932009Y-95054417D01*
X95995244Y-95249031D01*
X96088141Y-95431350D01*
X96088147Y-95431359D01*
X96120523Y-95475921D01*
X96120524Y-95475922D01*
X96800000Y-94796446D01*
X96800000Y-94802661D01*
X96827259Y-94904394D01*
X96879920Y-94995606D01*
X96954394Y-95070080D01*
X97045606Y-95122741D01*
X97147339Y-95150000D01*
X97153553Y-95150000D01*
X96474076Y-95829474D01*
X96518650Y-95861859D01*
X96700968Y-95954755D01*
X96895582Y-96017990D01*
X97097683Y-96050000D01*
X97302317Y-96050000D01*
X97504417Y-96017990D01*
X97699031Y-95954755D01*
X97881349Y-95861859D01*
X97925921Y-95829474D01*
X97246447Y-95150000D01*
X97252661Y-95150000D01*
X97354394Y-95122741D01*
X97445606Y-95070080D01*
X97520080Y-94995606D01*
X97572741Y-94904394D01*
X97600000Y-94802661D01*
X97600000Y-94796447D01*
X98279474Y-95475921D01*
X98311859Y-95431349D01*
X98404755Y-95249031D01*
X98467990Y-95054417D01*
X98500000Y-94852317D01*
X98500000Y-94647682D01*
X98467990Y-94445582D01*
X98404755Y-94250968D01*
X98311859Y-94068650D01*
X98279474Y-94024077D01*
X98279474Y-94024076D01*
X97600000Y-94703551D01*
X97600000Y-94697339D01*
X97572741Y-94595606D01*
X97520080Y-94504394D01*
X97445606Y-94429920D01*
X97354394Y-94377259D01*
X97252661Y-94350000D01*
X97246446Y-94350000D01*
X97925922Y-93670524D01*
X97925921Y-93670523D01*
X97881359Y-93638147D01*
X97881350Y-93638141D01*
X97788369Y-93590765D01*
X97737573Y-93542790D01*
X97720778Y-93474969D01*
X97743315Y-93408835D01*
X97788370Y-93369795D01*
X97881610Y-93322287D01*
X97974865Y-93254534D01*
X98047213Y-93201971D01*
X98047215Y-93201968D01*
X98047219Y-93201966D01*
X98191966Y-93057219D01*
X98191968Y-93057215D01*
X98191971Y-93057213D01*
X98268319Y-92952127D01*
X98312287Y-92891610D01*
X98405220Y-92709219D01*
X98468477Y-92514534D01*
X98500500Y-92312352D01*
X98500500Y-92107648D01*
X98473940Y-91939955D01*
X98468477Y-91905465D01*
X98416267Y-91744780D01*
X98405220Y-91710781D01*
X98405218Y-91710778D01*
X98405218Y-91710776D01*
X98333241Y-91569515D01*
X98312287Y-91528390D01*
X98300043Y-91511538D01*
X98191971Y-91362786D01*
X98047213Y-91218028D01*
X97881614Y-91097715D01*
X97847209Y-91080185D01*
X97788917Y-91050483D01*
X97738123Y-91002511D01*
X97721328Y-90934690D01*
X97743865Y-90868555D01*
X97788917Y-90829516D01*
X97881610Y-90782287D01*
X97928266Y-90748390D01*
X98047213Y-90661971D01*
X98047215Y-90661968D01*
X98047219Y-90661966D01*
X98191966Y-90517219D01*
X98191968Y-90517215D01*
X98191971Y-90517213D01*
X98268625Y-90411706D01*
X98312287Y-90351610D01*
X98405220Y-90169219D01*
X98468477Y-89974534D01*
X98500500Y-89772352D01*
X98500500Y-89567648D01*
X98484837Y-89468755D01*
X98468477Y-89365465D01*
X98429245Y-89244723D01*
X98405220Y-89170781D01*
X98405218Y-89170778D01*
X98405218Y-89170776D01*
X98363191Y-89088294D01*
X98312287Y-88988390D01*
X98255489Y-88910213D01*
X98191971Y-88822786D01*
X98047213Y-88678028D01*
X97881614Y-88557715D01*
X97862637Y-88548046D01*
X97788917Y-88510483D01*
X97738123Y-88462511D01*
X97721328Y-88394690D01*
X97743865Y-88328555D01*
X97788917Y-88289516D01*
X97881610Y-88242287D01*
X97928266Y-88208390D01*
X98047213Y-88121971D01*
X98047215Y-88121968D01*
X98047219Y-88121966D01*
X98191966Y-87977219D01*
X98191972Y-87977210D01*
X98194748Y-87973962D01*
X98253258Y-87935773D01*
X98289033Y-87930500D01*
X98697060Y-87930500D01*
X98764099Y-87950185D01*
X98784741Y-87966819D01*
X111893870Y-101075947D01*
X111893891Y-101075970D01*
X112009707Y-101191786D01*
X112009711Y-101191789D01*
X112140814Y-101279390D01*
X112140827Y-101279397D01*
X112286498Y-101339735D01*
X112286503Y-101339737D01*
X112286507Y-101339737D01*
X112286508Y-101339738D01*
X112441154Y-101370500D01*
X112441157Y-101370500D01*
X112441158Y-101370500D01*
X121921098Y-101370500D01*
X121988137Y-101390185D01*
X122033892Y-101442989D01*
X122041910Y-101488357D01*
X122700000Y-102146446D01*
X122700001Y-102146446D01*
X123358756Y-101487688D01*
X123369646Y-101435852D01*
X123418697Y-101386095D01*
X123478900Y-101370500D01*
X124982375Y-101370500D01*
X125049414Y-101390185D01*
X125095169Y-101442989D01*
X125105113Y-101512147D01*
X125076088Y-101575703D01*
X125070056Y-101582181D01*
X124934312Y-101717924D01*
X124934312Y-101717925D01*
X124934310Y-101717927D01*
X124897323Y-101768835D01*
X124823240Y-101870800D01*
X124737454Y-102039163D01*
X124679059Y-102218881D01*
X124649500Y-102405513D01*
X124649500Y-102594486D01*
X124679059Y-102781118D01*
X124737454Y-102960836D01*
X124807350Y-103098013D01*
X124823240Y-103129199D01*
X124934310Y-103282073D01*
X124934312Y-103282075D01*
X125067930Y-103415693D01*
X125148384Y-103474145D01*
X125191051Y-103529475D01*
X125199500Y-103574464D01*
X125199500Y-104109192D01*
X125179815Y-104176231D01*
X125163181Y-104196873D01*
X123975331Y-105384723D01*
X122999787Y-106360265D01*
X122938464Y-106393750D01*
X122892708Y-106395057D01*
X122794486Y-106379500D01*
X122794481Y-106379500D01*
X122605519Y-106379500D01*
X122605514Y-106379500D01*
X122418881Y-106409059D01*
X122239163Y-106467454D01*
X122070800Y-106553240D01*
X121983579Y-106616610D01*
X121917927Y-106664310D01*
X121917925Y-106664312D01*
X121917924Y-106664312D01*
X121784312Y-106797924D01*
X121784312Y-106797925D01*
X121784310Y-106797927D01*
X121736610Y-106863579D01*
X121673240Y-106950800D01*
X121587454Y-107119163D01*
X121529059Y-107298881D01*
X121499500Y-107485513D01*
X121499500Y-107674486D01*
X121529059Y-107861118D01*
X121587454Y-108040836D01*
X121621497Y-108107648D01*
X121673240Y-108209199D01*
X121784310Y-108362073D01*
X121917927Y-108495690D01*
X122070801Y-108606760D01*
X122150347Y-108647290D01*
X122239163Y-108692545D01*
X122239165Y-108692545D01*
X122239168Y-108692547D01*
X122315168Y-108717241D01*
X122418881Y-108750940D01*
X122605514Y-108780500D01*
X122605519Y-108780500D01*
X122794486Y-108780500D01*
X122981118Y-108750940D01*
X123160832Y-108692547D01*
X123329199Y-108606760D01*
X123482073Y-108495690D01*
X123527819Y-108449944D01*
X123589142Y-108416459D01*
X123658834Y-108421443D01*
X123714767Y-108463315D01*
X123739184Y-108528779D01*
X123739500Y-108537625D01*
X123739500Y-125454069D01*
X123739500Y-125454071D01*
X123739499Y-125454071D01*
X123764497Y-125579738D01*
X123764499Y-125579744D01*
X123813535Y-125698127D01*
X123862752Y-125771786D01*
X123884726Y-125804673D01*
X123884727Y-125804674D01*
X124182984Y-126102930D01*
X124216469Y-126164253D01*
X124216920Y-126166420D01*
X124230261Y-126233489D01*
X124230264Y-126233501D01*
X124290602Y-126379172D01*
X124290609Y-126379185D01*
X124378210Y-126510288D01*
X124378213Y-126510292D01*
X124489707Y-126621786D01*
X124489711Y-126621789D01*
X124620814Y-126709390D01*
X124620827Y-126709397D01*
X124766498Y-126769735D01*
X124766503Y-126769737D01*
X124897394Y-126795773D01*
X124921153Y-126800499D01*
X124921156Y-126800500D01*
X124921158Y-126800500D01*
X125078844Y-126800500D01*
X125078845Y-126800499D01*
X125233497Y-126769737D01*
X125379179Y-126709394D01*
X125510289Y-126621789D01*
X125621789Y-126510289D01*
X125709394Y-126379179D01*
X125769737Y-126233497D01*
X125800500Y-126078842D01*
X125800500Y-125921158D01*
X125800500Y-125921155D01*
X125800499Y-125921153D01*
X125782489Y-125830611D01*
X125769737Y-125766503D01*
X125765858Y-125757137D01*
X125709397Y-125620827D01*
X125709390Y-125620814D01*
X125621789Y-125489711D01*
X125621786Y-125489707D01*
X125510292Y-125378213D01*
X125510288Y-125378210D01*
X125379185Y-125290609D01*
X125379172Y-125290602D01*
X125233501Y-125230264D01*
X125233489Y-125230261D01*
X125166420Y-125216920D01*
X125149663Y-125208155D01*
X125131184Y-125204135D01*
X125106145Y-125185390D01*
X125104509Y-125184535D01*
X125102930Y-125182984D01*
X125076819Y-125156873D01*
X125043334Y-125095550D01*
X125040500Y-125069192D01*
X125040500Y-124374268D01*
X125060185Y-124307229D01*
X125112989Y-124261474D01*
X125168806Y-124250896D01*
X125168806Y-124250500D01*
X125170896Y-124250499D01*
X125171171Y-124250448D01*
X125172100Y-124250497D01*
X125172127Y-124250500D01*
X127749190Y-124250499D01*
X127816229Y-124270184D01*
X127836871Y-124286818D01*
X128555325Y-125005272D01*
X128555332Y-125005278D01*
X128661863Y-125076459D01*
X128661865Y-125076460D01*
X128661874Y-125076466D01*
X128708366Y-125095723D01*
X128708367Y-125095724D01*
X128708368Y-125095724D01*
X128780256Y-125125501D01*
X128780260Y-125125501D01*
X128780261Y-125125502D01*
X128905928Y-125150500D01*
X128905931Y-125150500D01*
X134694071Y-125150500D01*
X134778615Y-125133682D01*
X134819744Y-125125501D01*
X134938127Y-125076465D01*
X134939570Y-125075501D01*
X135044669Y-125005277D01*
X135940797Y-124109147D01*
X136002120Y-124075663D01*
X136071811Y-124080647D01*
X136075924Y-124082265D01*
X136235581Y-124148398D01*
X136488884Y-124216270D01*
X136748880Y-124250500D01*
X136748887Y-124250500D01*
X137011113Y-124250500D01*
X137011120Y-124250500D01*
X137271116Y-124216270D01*
X137524419Y-124148398D01*
X137684068Y-124082267D01*
X137753537Y-124074799D01*
X137816016Y-124106074D01*
X137819202Y-124109148D01*
X140466324Y-126756271D01*
X140466327Y-126756274D01*
X140532518Y-126800501D01*
X140572866Y-126827461D01*
X140572872Y-126827464D01*
X140572873Y-126827465D01*
X140691256Y-126876501D01*
X140691260Y-126876501D01*
X140691261Y-126876502D01*
X140816928Y-126901500D01*
X140816931Y-126901500D01*
X189695065Y-126901500D01*
X189762104Y-126921185D01*
X189763909Y-126922366D01*
X189820821Y-126960394D01*
X189820823Y-126960395D01*
X189820827Y-126960397D01*
X189966498Y-127020735D01*
X189966503Y-127020737D01*
X190121153Y-127051499D01*
X190121156Y-127051500D01*
X190121158Y-127051500D01*
X190278844Y-127051500D01*
X190278845Y-127051499D01*
X190433497Y-127020737D01*
X190579179Y-126960394D01*
X190710289Y-126872789D01*
X190821789Y-126761289D01*
X190909394Y-126630179D01*
X190912871Y-126621786D01*
X190959052Y-126510292D01*
X190969737Y-126484497D01*
X190974505Y-126460524D01*
X190996231Y-126351308D01*
X191028616Y-126289397D01*
X191089332Y-126254823D01*
X191117848Y-126251500D01*
X193953071Y-126251500D01*
X194037615Y-126234682D01*
X194078744Y-126226501D01*
X194197127Y-126177465D01*
X194303669Y-126106277D01*
X194652808Y-125757136D01*
X194714131Y-125723652D01*
X194759887Y-125722345D01*
X194937648Y-125750500D01*
X194937649Y-125750500D01*
X195142351Y-125750500D01*
X195142352Y-125750500D01*
X195344534Y-125718477D01*
X195539219Y-125655220D01*
X195721610Y-125562287D01*
X195875966Y-125450142D01*
X195887213Y-125441971D01*
X195887215Y-125441968D01*
X195887219Y-125441966D01*
X196031966Y-125297219D01*
X196031968Y-125297215D01*
X196031971Y-125297213D01*
X196152284Y-125131614D01*
X196152286Y-125131611D01*
X196152287Y-125131610D01*
X196199516Y-125038917D01*
X196247489Y-124988123D01*
X196315310Y-124971328D01*
X196381445Y-124993865D01*
X196420483Y-125038917D01*
X196449427Y-125095722D01*
X196467715Y-125131614D01*
X196588028Y-125297213D01*
X196732786Y-125441971D01*
X196853226Y-125529474D01*
X196898390Y-125562287D01*
X197013256Y-125620814D01*
X197080776Y-125655218D01*
X197080778Y-125655218D01*
X197080781Y-125655220D01*
X197185137Y-125689127D01*
X197275465Y-125718477D01*
X197376557Y-125734488D01*
X197477648Y-125750500D01*
X197477649Y-125750500D01*
X197682351Y-125750500D01*
X197682352Y-125750500D01*
X197884534Y-125718477D01*
X198079219Y-125655220D01*
X198261610Y-125562287D01*
X198415966Y-125450142D01*
X198427213Y-125441971D01*
X198427215Y-125441968D01*
X198427219Y-125441966D01*
X198571966Y-125297219D01*
X198571968Y-125297215D01*
X198571971Y-125297213D01*
X198692284Y-125131614D01*
X198692286Y-125131611D01*
X198692287Y-125131610D01*
X198739516Y-125038917D01*
X198787489Y-124988123D01*
X198855310Y-124971328D01*
X198921445Y-124993865D01*
X198960483Y-125038917D01*
X198989427Y-125095722D01*
X199007715Y-125131614D01*
X199128028Y-125297213D01*
X199272786Y-125441971D01*
X199393226Y-125529474D01*
X199438390Y-125562287D01*
X199553256Y-125620814D01*
X199620776Y-125655218D01*
X199620778Y-125655218D01*
X199620781Y-125655220D01*
X199725137Y-125689127D01*
X199815465Y-125718477D01*
X199916557Y-125734488D01*
X200017648Y-125750500D01*
X200017649Y-125750500D01*
X200222351Y-125750500D01*
X200222352Y-125750500D01*
X200424534Y-125718477D01*
X200619219Y-125655220D01*
X200801610Y-125562287D01*
X200955966Y-125450142D01*
X200967213Y-125441971D01*
X200967215Y-125441968D01*
X200967219Y-125441966D01*
X201111966Y-125297219D01*
X201111968Y-125297215D01*
X201111971Y-125297213D01*
X201232284Y-125131614D01*
X201232286Y-125131611D01*
X201232287Y-125131610D01*
X201279516Y-125038917D01*
X201327489Y-124988123D01*
X201395310Y-124971328D01*
X201461445Y-124993865D01*
X201500483Y-125038917D01*
X201529427Y-125095722D01*
X201547715Y-125131614D01*
X201668028Y-125297213D01*
X201812786Y-125441971D01*
X201933226Y-125529474D01*
X201978390Y-125562287D01*
X202093256Y-125620814D01*
X202160776Y-125655218D01*
X202160778Y-125655218D01*
X202160781Y-125655220D01*
X202265137Y-125689127D01*
X202355465Y-125718477D01*
X202456557Y-125734488D01*
X202557648Y-125750500D01*
X202557649Y-125750500D01*
X202762351Y-125750500D01*
X202762352Y-125750500D01*
X202964534Y-125718477D01*
X203159219Y-125655220D01*
X203341610Y-125562287D01*
X203495966Y-125450142D01*
X203507213Y-125441971D01*
X203507215Y-125441968D01*
X203507219Y-125441966D01*
X203651966Y-125297219D01*
X203651968Y-125297215D01*
X203651971Y-125297213D01*
X203744530Y-125169815D01*
X203772287Y-125131610D01*
X203819795Y-125038369D01*
X203867769Y-124987573D01*
X203935590Y-124970778D01*
X204001725Y-124993315D01*
X204040765Y-125038369D01*
X204088141Y-125131350D01*
X204088147Y-125131359D01*
X204120523Y-125175921D01*
X204120524Y-125175922D01*
X204757861Y-124538584D01*
X204780667Y-124623694D01*
X204839910Y-124726306D01*
X204923694Y-124810090D01*
X205026306Y-124869333D01*
X205111414Y-124892137D01*
X204474076Y-125529474D01*
X204518650Y-125561859D01*
X204700968Y-125654755D01*
X204895582Y-125717990D01*
X205097683Y-125750000D01*
X205302317Y-125750000D01*
X205504417Y-125717990D01*
X205699031Y-125654755D01*
X205881349Y-125561859D01*
X205925921Y-125529474D01*
X205288585Y-124892138D01*
X205373694Y-124869333D01*
X205476306Y-124810090D01*
X205560090Y-124726306D01*
X205619333Y-124623694D01*
X205642137Y-124538585D01*
X206279474Y-125175922D01*
X206279474Y-125175921D01*
X206311861Y-125131347D01*
X206311861Y-125131346D01*
X206359234Y-125038371D01*
X206407208Y-124987575D01*
X206475028Y-124970779D01*
X206541164Y-124993316D01*
X206580203Y-125038369D01*
X206627713Y-125131611D01*
X206748028Y-125297213D01*
X206892786Y-125441971D01*
X207013226Y-125529474D01*
X207058390Y-125562287D01*
X207173256Y-125620814D01*
X207240776Y-125655218D01*
X207240778Y-125655218D01*
X207240781Y-125655220D01*
X207345137Y-125689127D01*
X207435465Y-125718477D01*
X207536557Y-125734488D01*
X207637648Y-125750500D01*
X207637649Y-125750500D01*
X207842351Y-125750500D01*
X207842352Y-125750500D01*
X208044534Y-125718477D01*
X208239219Y-125655220D01*
X208421610Y-125562287D01*
X208575966Y-125450142D01*
X208587213Y-125441971D01*
X208587215Y-125441968D01*
X208587219Y-125441966D01*
X208731966Y-125297219D01*
X208731968Y-125297215D01*
X208731971Y-125297213D01*
X208799595Y-125204135D01*
X208852287Y-125131610D01*
X208945220Y-124949219D01*
X209008477Y-124754534D01*
X209040500Y-124552352D01*
X209040500Y-124347648D01*
X209040344Y-124346666D01*
X209012345Y-124169886D01*
X209021300Y-124100593D01*
X209047134Y-124062810D01*
X210705276Y-122404670D01*
X210749725Y-122338147D01*
X210776464Y-122298129D01*
X210779514Y-122290765D01*
X210825501Y-122179744D01*
X210831259Y-122150796D01*
X210845022Y-122081610D01*
X210850500Y-122054070D01*
X210850500Y-82185928D01*
X210825502Y-82060261D01*
X210825501Y-82060260D01*
X210825501Y-82060256D01*
X210776465Y-81941873D01*
X210776464Y-81941872D01*
X210776461Y-81941866D01*
X210705277Y-81835332D01*
X210670945Y-81801000D01*
X210614669Y-81744724D01*
X210519445Y-81649500D01*
X208614674Y-79744727D01*
X208614673Y-79744726D01*
X208508131Y-79673538D01*
X208508127Y-79673535D01*
X208508122Y-79673533D01*
X208389744Y-79624499D01*
X208389738Y-79624497D01*
X208264071Y-79599500D01*
X208264069Y-79599500D01*
X201135931Y-79599500D01*
X201135929Y-79599500D01*
X201010261Y-79624497D01*
X201010255Y-79624499D01*
X200891875Y-79673533D01*
X200891866Y-79673538D01*
X200785331Y-79744723D01*
X200785327Y-79744726D01*
X197654720Y-82875333D01*
X197630539Y-82911524D01*
X197620892Y-82925964D01*
X197615386Y-82934205D01*
X197583534Y-82981873D01*
X197534499Y-83100255D01*
X197534497Y-83100261D01*
X197509500Y-83225928D01*
X197509500Y-86475500D01*
X197489815Y-86542539D01*
X197437011Y-86588294D01*
X197385500Y-86599500D01*
X190959618Y-86599500D01*
X190892579Y-86579815D01*
X190858900Y-86545408D01*
X190857915Y-86546125D01*
X190730109Y-86370213D01*
X190616181Y-86256285D01*
X190582696Y-86194962D01*
X190587680Y-86125270D01*
X190629552Y-86069337D01*
X190660529Y-86052422D01*
X190792086Y-86003354D01*
X190792093Y-86003350D01*
X190907187Y-85917190D01*
X190907190Y-85917187D01*
X190993350Y-85802093D01*
X190993354Y-85802086D01*
X191043596Y-85667379D01*
X191043598Y-85667372D01*
X191049999Y-85607844D01*
X191050000Y-85607827D01*
X191050000Y-84960000D01*
X190133012Y-84960000D01*
X190165925Y-84902993D01*
X190200000Y-84775826D01*
X190200000Y-84644174D01*
X190165925Y-84517007D01*
X190133012Y-84460000D01*
X191050000Y-84460000D01*
X191050000Y-83812172D01*
X191049999Y-83812155D01*
X191043598Y-83752627D01*
X191043596Y-83752620D01*
X190993354Y-83617913D01*
X190993350Y-83617906D01*
X190907190Y-83502812D01*
X190907187Y-83502809D01*
X190792093Y-83416649D01*
X190792086Y-83416645D01*
X190657379Y-83366403D01*
X190657372Y-83366401D01*
X190597844Y-83360000D01*
X189950000Y-83360000D01*
X189950000Y-84276988D01*
X189892993Y-84244075D01*
X189765826Y-84210000D01*
X189634174Y-84210000D01*
X189507007Y-84244075D01*
X189450000Y-84276988D01*
X189450000Y-83360000D01*
X188802155Y-83360000D01*
X188742627Y-83366401D01*
X188742620Y-83366403D01*
X188607913Y-83416645D01*
X188607906Y-83416649D01*
X188492812Y-83502809D01*
X188492809Y-83502812D01*
X188406649Y-83617906D01*
X188406645Y-83617913D01*
X188356403Y-83752620D01*
X188356401Y-83752627D01*
X188350000Y-83812155D01*
X188350000Y-84460000D01*
X189266988Y-84460000D01*
X189234075Y-84517007D01*
X189200000Y-84644174D01*
X189200000Y-84775826D01*
X189234075Y-84902993D01*
X189266988Y-84960000D01*
X188350000Y-84960000D01*
X188350000Y-85607844D01*
X188356401Y-85667372D01*
X188356403Y-85667379D01*
X188406645Y-85802086D01*
X188406649Y-85802093D01*
X188492809Y-85917187D01*
X188492812Y-85917190D01*
X188607906Y-86003350D01*
X188607913Y-86003354D01*
X188739470Y-86052422D01*
X188795404Y-86094293D01*
X188819821Y-86159758D01*
X188804969Y-86228031D01*
X188783819Y-86256285D01*
X188669889Y-86370215D01*
X188544951Y-86542179D01*
X188448444Y-86731585D01*
X188382753Y-86933760D01*
X188349500Y-87143713D01*
X188349500Y-87356286D01*
X188382630Y-87565465D01*
X188382754Y-87566243D01*
X188440734Y-87744687D01*
X188448444Y-87768414D01*
X188544951Y-87957820D01*
X188669890Y-88129786D01*
X188820213Y-88280109D01*
X188992182Y-88405050D01*
X189000946Y-88409516D01*
X189051742Y-88457491D01*
X189068536Y-88525312D01*
X189045998Y-88591447D01*
X189000946Y-88630484D01*
X188992182Y-88634949D01*
X188820213Y-88759890D01*
X188669890Y-88910213D01*
X188544951Y-89082179D01*
X188448444Y-89271585D01*
X188382753Y-89473760D01*
X188356153Y-89641709D01*
X188349500Y-89683713D01*
X188349500Y-89896287D01*
X188349534Y-89896503D01*
X188382630Y-90105465D01*
X188382754Y-90106243D01*
X188434443Y-90265326D01*
X188448444Y-90308414D01*
X188544951Y-90497820D01*
X188669890Y-90669786D01*
X188820213Y-90820109D01*
X188992179Y-90945048D01*
X188992181Y-90945049D01*
X188992184Y-90945051D01*
X189181588Y-91041557D01*
X189383757Y-91107246D01*
X189593713Y-91140500D01*
X189593714Y-91140500D01*
X189806286Y-91140500D01*
X189806287Y-91140500D01*
X190016243Y-91107246D01*
X190218412Y-91041557D01*
X190407816Y-90945051D01*
X190451756Y-90913127D01*
X190579786Y-90820109D01*
X190579788Y-90820106D01*
X190579792Y-90820104D01*
X190730104Y-90669792D01*
X190730106Y-90669788D01*
X190730109Y-90669786D01*
X190857915Y-90493875D01*
X190859259Y-90494851D01*
X190905705Y-90452834D01*
X190959618Y-90440500D01*
X192919192Y-90440500D01*
X192986231Y-90460185D01*
X193006873Y-90476819D01*
X198632984Y-96102930D01*
X198666469Y-96164253D01*
X198666920Y-96166420D01*
X198680261Y-96233489D01*
X198680264Y-96233501D01*
X198740602Y-96379172D01*
X198740609Y-96379185D01*
X198828210Y-96510288D01*
X198828213Y-96510292D01*
X198926306Y-96608385D01*
X198959791Y-96669708D01*
X198954807Y-96739400D01*
X198926306Y-96783747D01*
X197967190Y-97742862D01*
X197905867Y-97776347D01*
X197860111Y-97777654D01*
X197714611Y-97754609D01*
X197682352Y-97749500D01*
X197477648Y-97749500D01*
X197453329Y-97753351D01*
X197275465Y-97781522D01*
X197080776Y-97844781D01*
X196898386Y-97937715D01*
X196732786Y-98058028D01*
X196588028Y-98202786D01*
X196467715Y-98368386D01*
X196420485Y-98461080D01*
X196372510Y-98511876D01*
X196304689Y-98528671D01*
X196238554Y-98506134D01*
X196199515Y-98461080D01*
X196152420Y-98368652D01*
X196152287Y-98368390D01*
X196138920Y-98349992D01*
X196031971Y-98202786D01*
X195887213Y-98058028D01*
X195721613Y-97937715D01*
X195721612Y-97937714D01*
X195721610Y-97937713D01*
X195616342Y-97884076D01*
X195539223Y-97844781D01*
X195344534Y-97781522D01*
X195169995Y-97753878D01*
X195142352Y-97749500D01*
X194937648Y-97749500D01*
X194913329Y-97753351D01*
X194735465Y-97781522D01*
X194540776Y-97844781D01*
X194358386Y-97937715D01*
X194192786Y-98058028D01*
X194048028Y-98202786D01*
X193927715Y-98368386D01*
X193880485Y-98461080D01*
X193832510Y-98511876D01*
X193764689Y-98528671D01*
X193698554Y-98506134D01*
X193659515Y-98461080D01*
X193612420Y-98368652D01*
X193612287Y-98368390D01*
X193598920Y-98349992D01*
X193491971Y-98202786D01*
X193347213Y-98058028D01*
X193181613Y-97937715D01*
X193181612Y-97937714D01*
X193181610Y-97937713D01*
X193076342Y-97884076D01*
X192999223Y-97844781D01*
X192804534Y-97781522D01*
X192629995Y-97753878D01*
X192602352Y-97749500D01*
X192397648Y-97749500D01*
X192373329Y-97753351D01*
X192195465Y-97781522D01*
X192000776Y-97844781D01*
X191818386Y-97937715D01*
X191652786Y-98058028D01*
X191508028Y-98202786D01*
X191387715Y-98368386D01*
X191340485Y-98461080D01*
X191292510Y-98511876D01*
X191224689Y-98528671D01*
X191158554Y-98506134D01*
X191119515Y-98461080D01*
X191072420Y-98368652D01*
X191072287Y-98368390D01*
X191058920Y-98349992D01*
X190951971Y-98202786D01*
X190807213Y-98058028D01*
X190641613Y-97937715D01*
X190641612Y-97937714D01*
X190641610Y-97937713D01*
X190536342Y-97884076D01*
X190459223Y-97844781D01*
X190264534Y-97781522D01*
X190089995Y-97753878D01*
X190062352Y-97749500D01*
X189857648Y-97749500D01*
X189833329Y-97753351D01*
X189655465Y-97781522D01*
X189460776Y-97844781D01*
X189278386Y-97937715D01*
X189112786Y-98058028D01*
X188968028Y-98202786D01*
X188847715Y-98368386D01*
X188800485Y-98461080D01*
X188752510Y-98511876D01*
X188684689Y-98528671D01*
X188618554Y-98506134D01*
X188579515Y-98461080D01*
X188532420Y-98368652D01*
X188532287Y-98368390D01*
X188518920Y-98349992D01*
X188411971Y-98202786D01*
X188267213Y-98058028D01*
X188101613Y-97937715D01*
X188101612Y-97937714D01*
X188101610Y-97937713D01*
X187996342Y-97884076D01*
X187919223Y-97844781D01*
X187724534Y-97781522D01*
X187549995Y-97753878D01*
X187522352Y-97749500D01*
X187399807Y-97749500D01*
X187332768Y-97729815D01*
X187287013Y-97677011D01*
X187277069Y-97607853D01*
X187306094Y-97544297D01*
X187312126Y-97537819D01*
X188152456Y-96697490D01*
X189163127Y-95686819D01*
X189224450Y-95653334D01*
X189250808Y-95650500D01*
X193445065Y-95650500D01*
X193512104Y-95670185D01*
X193513909Y-95671366D01*
X193570821Y-95709394D01*
X193570823Y-95709395D01*
X193570827Y-95709397D01*
X193651292Y-95742726D01*
X193716503Y-95769737D01*
X193841165Y-95794534D01*
X193871153Y-95800499D01*
X193871156Y-95800500D01*
X193871158Y-95800500D01*
X194028844Y-95800500D01*
X194028845Y-95800499D01*
X194183497Y-95769737D01*
X194329179Y-95709394D01*
X194460289Y-95621789D01*
X194571789Y-95510289D01*
X194659394Y-95379179D01*
X194719737Y-95233497D01*
X194750500Y-95078842D01*
X194750500Y-94921158D01*
X194750500Y-94921155D01*
X194750499Y-94921153D01*
X194741100Y-94873902D01*
X194719737Y-94766503D01*
X194711175Y-94745833D01*
X194659397Y-94620827D01*
X194659390Y-94620814D01*
X194571789Y-94489711D01*
X194571786Y-94489707D01*
X194506964Y-94424885D01*
X194473479Y-94363562D01*
X194478463Y-94293870D01*
X194520335Y-94237937D01*
X194547190Y-94222643D01*
X194579179Y-94209394D01*
X194710289Y-94121789D01*
X194821789Y-94010289D01*
X194909394Y-93879179D01*
X194910918Y-93875501D01*
X194969735Y-93733501D01*
X194969737Y-93733497D01*
X195000500Y-93578842D01*
X195000500Y-93421158D01*
X195000500Y-93421155D01*
X195000499Y-93421153D01*
X194980833Y-93322286D01*
X194969737Y-93266503D01*
X194943005Y-93201966D01*
X194909397Y-93120827D01*
X194909390Y-93120814D01*
X194821789Y-92989711D01*
X194821786Y-92989707D01*
X194710292Y-92878213D01*
X194710288Y-92878210D01*
X194579185Y-92790609D01*
X194579172Y-92790602D01*
X194433501Y-92730264D01*
X194433489Y-92730261D01*
X194278845Y-92699500D01*
X194278842Y-92699500D01*
X194121158Y-92699500D01*
X194121155Y-92699500D01*
X193966510Y-92730261D01*
X193966498Y-92730264D01*
X193820827Y-92790602D01*
X193820820Y-92790606D01*
X193796181Y-92807070D01*
X193763955Y-92828602D01*
X193697279Y-92849480D01*
X193695065Y-92849500D01*
X177665929Y-92849500D01*
X177540261Y-92874497D01*
X177540255Y-92874499D01*
X177421870Y-92923535D01*
X177315331Y-92994722D01*
X177315324Y-92994728D01*
X172567190Y-97742862D01*
X172505867Y-97776347D01*
X172460111Y-97777654D01*
X172314611Y-97754609D01*
X172282352Y-97749500D01*
X172077648Y-97749500D01*
X172053329Y-97753351D01*
X171875465Y-97781522D01*
X171680776Y-97844781D01*
X171498386Y-97937715D01*
X171332786Y-98058028D01*
X171188028Y-98202786D01*
X171067715Y-98368386D01*
X170974781Y-98550776D01*
X170911522Y-98745465D01*
X170879500Y-98947648D01*
X170879500Y-99152351D01*
X170911522Y-99354531D01*
X170974781Y-99549223D01*
X171038691Y-99674653D01*
X171067585Y-99731359D01*
X171067715Y-99731613D01*
X171188028Y-99897213D01*
X171332786Y-100041971D01*
X171453226Y-100129474D01*
X171498390Y-100162287D01*
X171614607Y-100221503D01*
X171680776Y-100255218D01*
X171680778Y-100255218D01*
X171680781Y-100255220D01*
X171785137Y-100289127D01*
X171875465Y-100318477D01*
X171976557Y-100334488D01*
X172077648Y-100350500D01*
X172077649Y-100350500D01*
X172282351Y-100350500D01*
X172282352Y-100350500D01*
X172484534Y-100318477D01*
X172679219Y-100255220D01*
X172861610Y-100162287D01*
X172998739Y-100062658D01*
X173027213Y-100041971D01*
X173027215Y-100041968D01*
X173027219Y-100041966D01*
X173171966Y-99897219D01*
X173171968Y-99897215D01*
X173171971Y-99897213D01*
X173292284Y-99731614D01*
X173292286Y-99731611D01*
X173292287Y-99731610D01*
X173339516Y-99638917D01*
X173387489Y-99588123D01*
X173455310Y-99571328D01*
X173521445Y-99593865D01*
X173560483Y-99638917D01*
X173588577Y-99694054D01*
X173607715Y-99731614D01*
X173728028Y-99897213D01*
X173872786Y-100041971D01*
X173993226Y-100129474D01*
X174038390Y-100162287D01*
X174154607Y-100221503D01*
X174220776Y-100255218D01*
X174220778Y-100255218D01*
X174220781Y-100255220D01*
X174325137Y-100289127D01*
X174415465Y-100318477D01*
X174516557Y-100334488D01*
X174617648Y-100350500D01*
X174617649Y-100350500D01*
X174822351Y-100350500D01*
X174822352Y-100350500D01*
X175024534Y-100318477D01*
X175219219Y-100255220D01*
X175401610Y-100162287D01*
X175538739Y-100062658D01*
X175567213Y-100041971D01*
X175567215Y-100041968D01*
X175567219Y-100041966D01*
X175711966Y-99897219D01*
X175711968Y-99897215D01*
X175711971Y-99897213D01*
X175832284Y-99731614D01*
X175832286Y-99731611D01*
X175832287Y-99731610D01*
X175879516Y-99638917D01*
X175927489Y-99588123D01*
X175995310Y-99571328D01*
X176061445Y-99593865D01*
X176100483Y-99638917D01*
X176128577Y-99694054D01*
X176147715Y-99731614D01*
X176268028Y-99897213D01*
X176412786Y-100041971D01*
X176533226Y-100129474D01*
X176578390Y-100162287D01*
X176694607Y-100221503D01*
X176760776Y-100255218D01*
X176760778Y-100255218D01*
X176760781Y-100255220D01*
X176865137Y-100289127D01*
X176955465Y-100318477D01*
X177056557Y-100334488D01*
X177157648Y-100350500D01*
X177157649Y-100350500D01*
X177362351Y-100350500D01*
X177362352Y-100350500D01*
X177564534Y-100318477D01*
X177759219Y-100255220D01*
X177941610Y-100162287D01*
X178078739Y-100062658D01*
X178107213Y-100041971D01*
X178107215Y-100041968D01*
X178107219Y-100041966D01*
X178251966Y-99897219D01*
X178251968Y-99897215D01*
X178251971Y-99897213D01*
X178372284Y-99731614D01*
X178372286Y-99731611D01*
X178372287Y-99731610D01*
X178419516Y-99638917D01*
X178467489Y-99588123D01*
X178535310Y-99571328D01*
X178601445Y-99593865D01*
X178640483Y-99638917D01*
X178668577Y-99694054D01*
X178687715Y-99731614D01*
X178808028Y-99897213D01*
X178952786Y-100041971D01*
X179073226Y-100129474D01*
X179118390Y-100162287D01*
X179234607Y-100221503D01*
X179300776Y-100255218D01*
X179300778Y-100255218D01*
X179300781Y-100255220D01*
X179405137Y-100289127D01*
X179495465Y-100318477D01*
X179596557Y-100334488D01*
X179697648Y-100350500D01*
X179697649Y-100350500D01*
X179902351Y-100350500D01*
X179902352Y-100350500D01*
X180104534Y-100318477D01*
X180299219Y-100255220D01*
X180481610Y-100162287D01*
X180618739Y-100062658D01*
X180647213Y-100041971D01*
X180647215Y-100041968D01*
X180647219Y-100041966D01*
X180791966Y-99897219D01*
X180791968Y-99897215D01*
X180791971Y-99897213D01*
X180912284Y-99731614D01*
X180912286Y-99731611D01*
X180912287Y-99731610D01*
X180959516Y-99638917D01*
X181007489Y-99588123D01*
X181075310Y-99571328D01*
X181141445Y-99593865D01*
X181180483Y-99638917D01*
X181208577Y-99694054D01*
X181227715Y-99731614D01*
X181348028Y-99897213D01*
X181492786Y-100041971D01*
X181613226Y-100129474D01*
X181658390Y-100162287D01*
X181774607Y-100221503D01*
X181840776Y-100255218D01*
X181840778Y-100255218D01*
X181840781Y-100255220D01*
X181945137Y-100289127D01*
X182035465Y-100318477D01*
X182136557Y-100334488D01*
X182237648Y-100350500D01*
X182237649Y-100350500D01*
X182442351Y-100350500D01*
X182442352Y-100350500D01*
X182644534Y-100318477D01*
X182839219Y-100255220D01*
X183021610Y-100162287D01*
X183158739Y-100062658D01*
X183187213Y-100041971D01*
X183187215Y-100041968D01*
X183187219Y-100041966D01*
X183331966Y-99897219D01*
X183331968Y-99897215D01*
X183331971Y-99897213D01*
X183452284Y-99731614D01*
X183452286Y-99731611D01*
X183452287Y-99731610D01*
X183499516Y-99638917D01*
X183547489Y-99588123D01*
X183615310Y-99571328D01*
X183681445Y-99593865D01*
X183720483Y-99638917D01*
X183748577Y-99694054D01*
X183767715Y-99731614D01*
X183888028Y-99897213D01*
X184032786Y-100041971D01*
X184153226Y-100129474D01*
X184198390Y-100162287D01*
X184314607Y-100221503D01*
X184380776Y-100255218D01*
X184380778Y-100255218D01*
X184380781Y-100255220D01*
X184485137Y-100289127D01*
X184575465Y-100318477D01*
X184676557Y-100334488D01*
X184777648Y-100350500D01*
X184777649Y-100350500D01*
X184982351Y-100350500D01*
X184982352Y-100350500D01*
X185184534Y-100318477D01*
X185379219Y-100255220D01*
X185561610Y-100162287D01*
X185698739Y-100062658D01*
X185727213Y-100041971D01*
X185727215Y-100041968D01*
X185727219Y-100041966D01*
X185871966Y-99897219D01*
X185871968Y-99897215D01*
X185871971Y-99897213D01*
X185992284Y-99731614D01*
X185992286Y-99731611D01*
X185992287Y-99731610D01*
X186039516Y-99638917D01*
X186087489Y-99588123D01*
X186155310Y-99571328D01*
X186221445Y-99593865D01*
X186260483Y-99638917D01*
X186288577Y-99694054D01*
X186307715Y-99731614D01*
X186428028Y-99897213D01*
X186572786Y-100041971D01*
X186693226Y-100129474D01*
X186738390Y-100162287D01*
X186854607Y-100221503D01*
X186920776Y-100255218D01*
X186920778Y-100255218D01*
X186920781Y-100255220D01*
X187025137Y-100289127D01*
X187115465Y-100318477D01*
X187216557Y-100334488D01*
X187317648Y-100350500D01*
X187317649Y-100350500D01*
X187522351Y-100350500D01*
X187522352Y-100350500D01*
X187724534Y-100318477D01*
X187919219Y-100255220D01*
X188101610Y-100162287D01*
X188238739Y-100062658D01*
X188267213Y-100041971D01*
X188267215Y-100041968D01*
X188267219Y-100041966D01*
X188411966Y-99897219D01*
X188411968Y-99897215D01*
X188411971Y-99897213D01*
X188532284Y-99731614D01*
X188532286Y-99731611D01*
X188532287Y-99731610D01*
X188579516Y-99638917D01*
X188627489Y-99588123D01*
X188695310Y-99571328D01*
X188761445Y-99593865D01*
X188800483Y-99638917D01*
X188828577Y-99694054D01*
X188847715Y-99731614D01*
X188968028Y-99897213D01*
X189112786Y-100041971D01*
X189233226Y-100129474D01*
X189278390Y-100162287D01*
X189394607Y-100221503D01*
X189460776Y-100255218D01*
X189460778Y-100255218D01*
X189460781Y-100255220D01*
X189565137Y-100289127D01*
X189655465Y-100318477D01*
X189756557Y-100334488D01*
X189857648Y-100350500D01*
X189857649Y-100350500D01*
X190062351Y-100350500D01*
X190062352Y-100350500D01*
X190264534Y-100318477D01*
X190459219Y-100255220D01*
X190641610Y-100162287D01*
X190778739Y-100062658D01*
X190807213Y-100041971D01*
X190807215Y-100041968D01*
X190807219Y-100041966D01*
X190951966Y-99897219D01*
X190951968Y-99897215D01*
X190951971Y-99897213D01*
X191072284Y-99731614D01*
X191072286Y-99731611D01*
X191072287Y-99731610D01*
X191119516Y-99638917D01*
X191167489Y-99588123D01*
X191235310Y-99571328D01*
X191301445Y-99593865D01*
X191340483Y-99638917D01*
X191368577Y-99694054D01*
X191387715Y-99731614D01*
X191508028Y-99897213D01*
X191652786Y-100041971D01*
X191773226Y-100129474D01*
X191818390Y-100162287D01*
X191934607Y-100221503D01*
X192000776Y-100255218D01*
X192000778Y-100255218D01*
X192000781Y-100255220D01*
X192105137Y-100289127D01*
X192195465Y-100318477D01*
X192296557Y-100334488D01*
X192397648Y-100350500D01*
X192397649Y-100350500D01*
X192602351Y-100350500D01*
X192602352Y-100350500D01*
X192804534Y-100318477D01*
X192999219Y-100255220D01*
X193181610Y-100162287D01*
X193318739Y-100062658D01*
X193347213Y-100041971D01*
X193347215Y-100041968D01*
X193347219Y-100041966D01*
X193491966Y-99897219D01*
X193491968Y-99897215D01*
X193491971Y-99897213D01*
X193612284Y-99731614D01*
X193612286Y-99731611D01*
X193612287Y-99731610D01*
X193659516Y-99638917D01*
X193707489Y-99588123D01*
X193775310Y-99571328D01*
X193841445Y-99593865D01*
X193880483Y-99638917D01*
X193908577Y-99694054D01*
X193927715Y-99731614D01*
X194048028Y-99897213D01*
X194192786Y-100041971D01*
X194313226Y-100129474D01*
X194358390Y-100162287D01*
X194474607Y-100221503D01*
X194540776Y-100255218D01*
X194540778Y-100255218D01*
X194540781Y-100255220D01*
X194645137Y-100289127D01*
X194735465Y-100318477D01*
X194836557Y-100334488D01*
X194937648Y-100350500D01*
X194937649Y-100350500D01*
X195142351Y-100350500D01*
X195142352Y-100350500D01*
X195344534Y-100318477D01*
X195539219Y-100255220D01*
X195721610Y-100162287D01*
X195858739Y-100062658D01*
X195887213Y-100041971D01*
X195887215Y-100041968D01*
X195887219Y-100041966D01*
X196031966Y-99897219D01*
X196031968Y-99897215D01*
X196031971Y-99897213D01*
X196152284Y-99731614D01*
X196152286Y-99731611D01*
X196152287Y-99731610D01*
X196199516Y-99638917D01*
X196247489Y-99588123D01*
X196315310Y-99571328D01*
X196381445Y-99593865D01*
X196420483Y-99638917D01*
X196448577Y-99694054D01*
X196467715Y-99731614D01*
X196588028Y-99897213D01*
X196732786Y-100041971D01*
X196853226Y-100129474D01*
X196898390Y-100162287D01*
X197014607Y-100221503D01*
X197080776Y-100255218D01*
X197080778Y-100255218D01*
X197080781Y-100255220D01*
X197185137Y-100289127D01*
X197275465Y-100318477D01*
X197376557Y-100334488D01*
X197477648Y-100350500D01*
X197477649Y-100350500D01*
X197682351Y-100350500D01*
X197682352Y-100350500D01*
X197884534Y-100318477D01*
X198079219Y-100255220D01*
X198261610Y-100162287D01*
X198398739Y-100062658D01*
X198427213Y-100041971D01*
X198427215Y-100041968D01*
X198427219Y-100041966D01*
X198571966Y-99897219D01*
X198571968Y-99897215D01*
X198571971Y-99897213D01*
X198692284Y-99731614D01*
X198692286Y-99731611D01*
X198692287Y-99731610D01*
X198739516Y-99638917D01*
X198787489Y-99588123D01*
X198855310Y-99571328D01*
X198921445Y-99593865D01*
X198960483Y-99638917D01*
X198988577Y-99694054D01*
X199007715Y-99731614D01*
X199128028Y-99897213D01*
X199272786Y-100041971D01*
X199393226Y-100129474D01*
X199438390Y-100162287D01*
X199554607Y-100221503D01*
X199620776Y-100255218D01*
X199620778Y-100255218D01*
X199620781Y-100255220D01*
X199725137Y-100289127D01*
X199815465Y-100318477D01*
X199916557Y-100334488D01*
X200017648Y-100350500D01*
X200017649Y-100350500D01*
X200222351Y-100350500D01*
X200222352Y-100350500D01*
X200424534Y-100318477D01*
X200619219Y-100255220D01*
X200801610Y-100162287D01*
X200938739Y-100062658D01*
X200967213Y-100041971D01*
X200967215Y-100041968D01*
X200967219Y-100041966D01*
X201111966Y-99897219D01*
X201111968Y-99897215D01*
X201111971Y-99897213D01*
X201232284Y-99731614D01*
X201232286Y-99731611D01*
X201232287Y-99731610D01*
X201279516Y-99638917D01*
X201327489Y-99588123D01*
X201395310Y-99571328D01*
X201461445Y-99593865D01*
X201500483Y-99638917D01*
X201528577Y-99694054D01*
X201547715Y-99731614D01*
X201668028Y-99897213D01*
X201812786Y-100041971D01*
X201933226Y-100129474D01*
X201978390Y-100162287D01*
X202094607Y-100221503D01*
X202160776Y-100255218D01*
X202160778Y-100255218D01*
X202160781Y-100255220D01*
X202265137Y-100289127D01*
X202355465Y-100318477D01*
X202456557Y-100334488D01*
X202557648Y-100350500D01*
X202557649Y-100350500D01*
X202762351Y-100350500D01*
X202762352Y-100350500D01*
X202964534Y-100318477D01*
X203159219Y-100255220D01*
X203341610Y-100162287D01*
X203478739Y-100062658D01*
X203507213Y-100041971D01*
X203507215Y-100041968D01*
X203507219Y-100041966D01*
X203651966Y-99897219D01*
X203651968Y-99897215D01*
X203651971Y-99897213D01*
X203740093Y-99775921D01*
X203772287Y-99731610D01*
X203819795Y-99638369D01*
X203867769Y-99587573D01*
X203935590Y-99570778D01*
X204001725Y-99593315D01*
X204040765Y-99638369D01*
X204088141Y-99731350D01*
X204088147Y-99731359D01*
X204120523Y-99775921D01*
X204120524Y-99775922D01*
X204757861Y-99138584D01*
X204780667Y-99223694D01*
X204839910Y-99326306D01*
X204923694Y-99410090D01*
X205026306Y-99469333D01*
X205111414Y-99492137D01*
X204474076Y-100129474D01*
X204518650Y-100161859D01*
X204700968Y-100254755D01*
X204895582Y-100317990D01*
X205097683Y-100350000D01*
X205302317Y-100350000D01*
X205504417Y-100317990D01*
X205699031Y-100254755D01*
X205881349Y-100161859D01*
X205925921Y-100129474D01*
X205288585Y-99492138D01*
X205373694Y-99469333D01*
X205476306Y-99410090D01*
X205560090Y-99326306D01*
X205619333Y-99223694D01*
X205642137Y-99138585D01*
X206279474Y-99775922D01*
X206279474Y-99775921D01*
X206311861Y-99731347D01*
X206311861Y-99731346D01*
X206359234Y-99638371D01*
X206407208Y-99587575D01*
X206475028Y-99570779D01*
X206541164Y-99593316D01*
X206580203Y-99638369D01*
X206627713Y-99731611D01*
X206748028Y-99897213D01*
X206892786Y-100041971D01*
X207013226Y-100129474D01*
X207058390Y-100162287D01*
X207174607Y-100221503D01*
X207240776Y-100255218D01*
X207240778Y-100255218D01*
X207240781Y-100255220D01*
X207345137Y-100289127D01*
X207435465Y-100318477D01*
X207536557Y-100334488D01*
X207637648Y-100350500D01*
X207637649Y-100350500D01*
X207842351Y-100350500D01*
X207842352Y-100350500D01*
X208044534Y-100318477D01*
X208239219Y-100255220D01*
X208421610Y-100162287D01*
X208558739Y-100062658D01*
X208587213Y-100041971D01*
X208587215Y-100041968D01*
X208587219Y-100041966D01*
X208731966Y-99897219D01*
X208731968Y-99897215D01*
X208731971Y-99897213D01*
X208813632Y-99784814D01*
X208852287Y-99731610D01*
X208945220Y-99549219D01*
X209008477Y-99354534D01*
X209008476Y-99354534D01*
X209008478Y-99354531D01*
X209040500Y-99152351D01*
X209040500Y-98947648D01*
X209008477Y-98745465D01*
X208972326Y-98634204D01*
X208945220Y-98550781D01*
X208945218Y-98550778D01*
X208945218Y-98550776D01*
X208852420Y-98368652D01*
X208852287Y-98368390D01*
X208838920Y-98349992D01*
X208731971Y-98202786D01*
X208587213Y-98058028D01*
X208421613Y-97937715D01*
X208421612Y-97937714D01*
X208421610Y-97937713D01*
X208316342Y-97884076D01*
X208239223Y-97844781D01*
X208044534Y-97781522D01*
X207869995Y-97753878D01*
X207842352Y-97749500D01*
X207637648Y-97749500D01*
X207613329Y-97753351D01*
X207435465Y-97781522D01*
X207240776Y-97844781D01*
X207058386Y-97937715D01*
X206892786Y-98058028D01*
X206748028Y-98202786D01*
X206627713Y-98368388D01*
X206580203Y-98461630D01*
X206532228Y-98512426D01*
X206464407Y-98529220D01*
X206398272Y-98506682D01*
X206359234Y-98461628D01*
X206311861Y-98368652D01*
X206279474Y-98324077D01*
X206279474Y-98324076D01*
X205642137Y-98961413D01*
X205619333Y-98876306D01*
X205560090Y-98773694D01*
X205476306Y-98689910D01*
X205373694Y-98630667D01*
X205288584Y-98607861D01*
X205925922Y-97970524D01*
X205925921Y-97970523D01*
X205881359Y-97938147D01*
X205881350Y-97938141D01*
X205699031Y-97845244D01*
X205504417Y-97782009D01*
X205302317Y-97750000D01*
X205097683Y-97750000D01*
X204895582Y-97782009D01*
X204700968Y-97845244D01*
X204518644Y-97938143D01*
X204474077Y-97970523D01*
X204474077Y-97970524D01*
X205111415Y-98607861D01*
X205026306Y-98630667D01*
X204923694Y-98689910D01*
X204839910Y-98773694D01*
X204780667Y-98876306D01*
X204757861Y-98961414D01*
X204120524Y-98324077D01*
X204120523Y-98324077D01*
X204088143Y-98368644D01*
X204040765Y-98461630D01*
X203992790Y-98512426D01*
X203924969Y-98529221D01*
X203858834Y-98506683D01*
X203819795Y-98461630D01*
X203772284Y-98368385D01*
X203651971Y-98202786D01*
X203507213Y-98058028D01*
X203341613Y-97937715D01*
X203341612Y-97937714D01*
X203341610Y-97937713D01*
X203236342Y-97884076D01*
X203159223Y-97844781D01*
X202964534Y-97781522D01*
X202789995Y-97753878D01*
X202762352Y-97749500D01*
X202639807Y-97749500D01*
X202572768Y-97729815D01*
X202527013Y-97677011D01*
X202517069Y-97607853D01*
X202546094Y-97544297D01*
X202552126Y-97537819D01*
X205011103Y-95078842D01*
X207474076Y-92615868D01*
X207535397Y-92582385D01*
X207605089Y-92587369D01*
X207618045Y-92593064D01*
X207625115Y-92596666D01*
X207700776Y-92635218D01*
X207700778Y-92635218D01*
X207700781Y-92635220D01*
X207805137Y-92669127D01*
X207895465Y-92698477D01*
X207963287Y-92709219D01*
X208097648Y-92730500D01*
X208097649Y-92730500D01*
X208302351Y-92730500D01*
X208302352Y-92730500D01*
X208504534Y-92698477D01*
X208699219Y-92635220D01*
X208881610Y-92542287D01*
X208974590Y-92474732D01*
X209047213Y-92421971D01*
X209047215Y-92421968D01*
X209047219Y-92421966D01*
X209191966Y-92277219D01*
X209191968Y-92277215D01*
X209191971Y-92277213D01*
X209312286Y-92111612D01*
X209315014Y-92106258D01*
X209362986Y-92055461D01*
X209430807Y-92038664D01*
X209496942Y-92061199D01*
X209540396Y-92115913D01*
X209549500Y-92162550D01*
X209549500Y-121669191D01*
X209529815Y-121736230D01*
X209513181Y-121756872D01*
X208127190Y-123142862D01*
X208065867Y-123176347D01*
X208020111Y-123177654D01*
X207874611Y-123154609D01*
X207842352Y-123149500D01*
X207637648Y-123149500D01*
X207613329Y-123153351D01*
X207435465Y-123181522D01*
X207240776Y-123244781D01*
X207058386Y-123337715D01*
X206892786Y-123458028D01*
X206748028Y-123602786D01*
X206627713Y-123768388D01*
X206580203Y-123861630D01*
X206532228Y-123912426D01*
X206464407Y-123929220D01*
X206398272Y-123906682D01*
X206359234Y-123861628D01*
X206311861Y-123768652D01*
X206279474Y-123724077D01*
X206279474Y-123724076D01*
X205642137Y-124361413D01*
X205619333Y-124276306D01*
X205560090Y-124173694D01*
X205476306Y-124089910D01*
X205373694Y-124030667D01*
X205288584Y-124007861D01*
X205925922Y-123370524D01*
X205925921Y-123370523D01*
X205881359Y-123338147D01*
X205881350Y-123338141D01*
X205699031Y-123245244D01*
X205504417Y-123182009D01*
X205302317Y-123150000D01*
X205097683Y-123150000D01*
X204895582Y-123182009D01*
X204700968Y-123245244D01*
X204518644Y-123338143D01*
X204474077Y-123370523D01*
X204474077Y-123370524D01*
X205111415Y-124007861D01*
X205026306Y-124030667D01*
X204923694Y-124089910D01*
X204839910Y-124173694D01*
X204780667Y-124276306D01*
X204757861Y-124361414D01*
X204120524Y-123724077D01*
X204120523Y-123724077D01*
X204088143Y-123768644D01*
X204040765Y-123861630D01*
X203992790Y-123912426D01*
X203924969Y-123929221D01*
X203858834Y-123906683D01*
X203819795Y-123861630D01*
X203813869Y-123850000D01*
X203772287Y-123768390D01*
X203772285Y-123768387D01*
X203772284Y-123768385D01*
X203651971Y-123602786D01*
X203507213Y-123458028D01*
X203341613Y-123337715D01*
X203341612Y-123337714D01*
X203341610Y-123337713D01*
X203278485Y-123305549D01*
X203159223Y-123244781D01*
X202964534Y-123181522D01*
X202789995Y-123153878D01*
X202762352Y-123149500D01*
X202557648Y-123149500D01*
X202379886Y-123177654D01*
X202310593Y-123168699D01*
X202272808Y-123142862D01*
X198874674Y-119744727D01*
X198874673Y-119744726D01*
X198874669Y-119744723D01*
X198768127Y-119673535D01*
X198716890Y-119652312D01*
X198649744Y-119624499D01*
X198649738Y-119624497D01*
X198524071Y-119599500D01*
X198524069Y-119599500D01*
X175229328Y-119599500D01*
X175162289Y-119579815D01*
X175141647Y-119563181D01*
X168886819Y-113308353D01*
X168853334Y-113247030D01*
X168850500Y-113220672D01*
X168850500Y-95570807D01*
X168870185Y-95503768D01*
X168886819Y-95483126D01*
X170433126Y-93936819D01*
X170494449Y-93903334D01*
X170520807Y-93900500D01*
X175264071Y-93900500D01*
X175348615Y-93883682D01*
X175389744Y-93875501D01*
X175508127Y-93826465D01*
X175566296Y-93787598D01*
X175614669Y-93755277D01*
X178233127Y-91136817D01*
X178294450Y-91103333D01*
X178320808Y-91100499D01*
X179597871Y-91100499D01*
X179597872Y-91100499D01*
X179657483Y-91094091D01*
X179792331Y-91043796D01*
X179907546Y-90957546D01*
X179993796Y-90842331D01*
X180044091Y-90707483D01*
X180050500Y-90647873D01*
X180050499Y-88852128D01*
X180044091Y-88792517D01*
X180040215Y-88782126D01*
X179993797Y-88657671D01*
X179993793Y-88657664D01*
X179907547Y-88542455D01*
X179907544Y-88542452D01*
X179792335Y-88456206D01*
X179792328Y-88456202D01*
X179660917Y-88407189D01*
X179604983Y-88365318D01*
X179580566Y-88299853D01*
X179595418Y-88231580D01*
X179616563Y-88203332D01*
X179730104Y-88089792D01*
X179797007Y-87997708D01*
X179825987Y-87957820D01*
X179855051Y-87917816D01*
X179951557Y-87728412D01*
X180017246Y-87526243D01*
X180050500Y-87316287D01*
X180050500Y-87103713D01*
X180017246Y-86893757D01*
X179951557Y-86691588D01*
X179914506Y-86618872D01*
X182199500Y-86618872D01*
X182199500Y-86881127D01*
X182218151Y-87022786D01*
X182233730Y-87141116D01*
X182298831Y-87384076D01*
X182301602Y-87394418D01*
X182301605Y-87394428D01*
X182401953Y-87636690D01*
X182401958Y-87636700D01*
X182533075Y-87863803D01*
X182692718Y-88071851D01*
X182692726Y-88071860D01*
X182878140Y-88257274D01*
X182878148Y-88257281D01*
X183086196Y-88416924D01*
X183313299Y-88548041D01*
X183313309Y-88548046D01*
X183523112Y-88634949D01*
X183555581Y-88648398D01*
X183808884Y-88716270D01*
X184068880Y-88750500D01*
X184068887Y-88750500D01*
X184331113Y-88750500D01*
X184331120Y-88750500D01*
X184591116Y-88716270D01*
X184844419Y-88648398D01*
X185078086Y-88551610D01*
X185086690Y-88548046D01*
X185086691Y-88548045D01*
X185086697Y-88548043D01*
X185313803Y-88416924D01*
X185521851Y-88257282D01*
X185521855Y-88257277D01*
X185521860Y-88257274D01*
X185707274Y-88071860D01*
X185707277Y-88071855D01*
X185707282Y-88071851D01*
X185866924Y-87863803D01*
X185998043Y-87636697D01*
X186098398Y-87394419D01*
X186166270Y-87141116D01*
X186200500Y-86881120D01*
X186200500Y-86618880D01*
X186166270Y-86358884D01*
X186098398Y-86105581D01*
X186093994Y-86094949D01*
X185998046Y-85863309D01*
X185998041Y-85863299D01*
X185866924Y-85636196D01*
X185707281Y-85428148D01*
X185707274Y-85428140D01*
X185521860Y-85242726D01*
X185521851Y-85242718D01*
X185313803Y-85083075D01*
X185086700Y-84951958D01*
X185086690Y-84951953D01*
X184844428Y-84851605D01*
X184844421Y-84851603D01*
X184844419Y-84851602D01*
X184591116Y-84783730D01*
X184531081Y-84775826D01*
X184331127Y-84749500D01*
X184331120Y-84749500D01*
X184068880Y-84749500D01*
X184068872Y-84749500D01*
X183837772Y-84779926D01*
X183808884Y-84783730D01*
X183613809Y-84836000D01*
X183555581Y-84851602D01*
X183555571Y-84851605D01*
X183313309Y-84951953D01*
X183313299Y-84951958D01*
X183086196Y-85083075D01*
X182878148Y-85242718D01*
X182692718Y-85428148D01*
X182533075Y-85636196D01*
X182401958Y-85863299D01*
X182401953Y-85863309D01*
X182301605Y-86105571D01*
X182301602Y-86105581D01*
X182233730Y-86358884D01*
X182232238Y-86370215D01*
X182199500Y-86618872D01*
X179914506Y-86618872D01*
X179855051Y-86502184D01*
X179855049Y-86502181D01*
X179855048Y-86502179D01*
X179730109Y-86330213D01*
X179579786Y-86179890D01*
X179407817Y-86054949D01*
X179398504Y-86050204D01*
X179347707Y-86002230D01*
X179330912Y-85934409D01*
X179353449Y-85868274D01*
X179398507Y-85829232D01*
X179407555Y-85824622D01*
X179461716Y-85785270D01*
X179461717Y-85785270D01*
X178829408Y-85152962D01*
X178892993Y-85135925D01*
X179007007Y-85070099D01*
X179100099Y-84977007D01*
X179165925Y-84862993D01*
X179182962Y-84799408D01*
X179815270Y-85431717D01*
X179815270Y-85431716D01*
X179854622Y-85377554D01*
X179951095Y-85188217D01*
X180016757Y-84986130D01*
X180016757Y-84986127D01*
X180050000Y-84776246D01*
X180050000Y-84563753D01*
X180016757Y-84353872D01*
X180016757Y-84353869D01*
X179951095Y-84151782D01*
X179854623Y-83962447D01*
X179854621Y-83962443D01*
X179815271Y-83908282D01*
X179815269Y-83908282D01*
X179182962Y-84540590D01*
X179165925Y-84477007D01*
X179100099Y-84362993D01*
X179007007Y-84269901D01*
X178892993Y-84204075D01*
X178829409Y-84187037D01*
X179461716Y-83554728D01*
X179407550Y-83515375D01*
X179218217Y-83418904D01*
X179016129Y-83353242D01*
X178806246Y-83320000D01*
X178593754Y-83320000D01*
X178383872Y-83353242D01*
X178383869Y-83353242D01*
X178181782Y-83418904D01*
X177992439Y-83515380D01*
X177938282Y-83554727D01*
X177938282Y-83554728D01*
X178570591Y-84187037D01*
X178507007Y-84204075D01*
X178392993Y-84269901D01*
X178299901Y-84362993D01*
X178234075Y-84477007D01*
X178217037Y-84540591D01*
X177584728Y-83908282D01*
X177584727Y-83908282D01*
X177545380Y-83962439D01*
X177448904Y-84151782D01*
X177383242Y-84353869D01*
X177383242Y-84353872D01*
X177350000Y-84563753D01*
X177350000Y-84776246D01*
X177383242Y-84986127D01*
X177383242Y-84986130D01*
X177448904Y-85188217D01*
X177545375Y-85377550D01*
X177584728Y-85431716D01*
X178217037Y-84799408D01*
X178234075Y-84862993D01*
X178299901Y-84977007D01*
X178392993Y-85070099D01*
X178507007Y-85135925D01*
X178570590Y-85152962D01*
X177938282Y-85785269D01*
X177938282Y-85785270D01*
X177992452Y-85824626D01*
X177992451Y-85824626D01*
X178001495Y-85829234D01*
X178052292Y-85877208D01*
X178069087Y-85945029D01*
X178046550Y-86011164D01*
X178001499Y-86050202D01*
X177992182Y-86054949D01*
X177820213Y-86179890D01*
X177669890Y-86330213D01*
X177544951Y-86502179D01*
X177448444Y-86691585D01*
X177448443Y-86691587D01*
X177448443Y-86691588D01*
X177435485Y-86731467D01*
X177382753Y-86893760D01*
X177349500Y-87103713D01*
X177349500Y-87316286D01*
X177382180Y-87522624D01*
X177382754Y-87526243D01*
X177438393Y-87697482D01*
X177448444Y-87728414D01*
X177544951Y-87917820D01*
X177669890Y-88089786D01*
X177783430Y-88203326D01*
X177816915Y-88264649D01*
X177811931Y-88334341D01*
X177770059Y-88390274D01*
X177739083Y-88407189D01*
X177607669Y-88456203D01*
X177607664Y-88456206D01*
X177492455Y-88542452D01*
X177492452Y-88542455D01*
X177406206Y-88657664D01*
X177406202Y-88657671D01*
X177355908Y-88792517D01*
X177351355Y-88834872D01*
X177349501Y-88852123D01*
X177349500Y-88852135D01*
X177349500Y-90129191D01*
X177329815Y-90196230D01*
X177313181Y-90216872D01*
X174966873Y-92563181D01*
X174905550Y-92596666D01*
X174879192Y-92599500D01*
X171069808Y-92599500D01*
X171002769Y-92579815D01*
X170957014Y-92527011D01*
X170947070Y-92457853D01*
X170976095Y-92394297D01*
X170982127Y-92387819D01*
X171331282Y-92038664D01*
X172601373Y-90768571D01*
X172662694Y-90735088D01*
X172732385Y-90740072D01*
X172788319Y-90781944D01*
X172805234Y-90812920D01*
X172816203Y-90842329D01*
X172816206Y-90842335D01*
X172902452Y-90957544D01*
X172902455Y-90957547D01*
X173017664Y-91043793D01*
X173017671Y-91043797D01*
X173152517Y-91094091D01*
X173152516Y-91094091D01*
X173159444Y-91094835D01*
X173212127Y-91100500D01*
X175007872Y-91100499D01*
X175067483Y-91094091D01*
X175202331Y-91043796D01*
X175317546Y-90957546D01*
X175403796Y-90842331D01*
X175454091Y-90707483D01*
X175460500Y-90647873D01*
X175460499Y-88852128D01*
X175454091Y-88792517D01*
X175450215Y-88782126D01*
X175403797Y-88657671D01*
X175403793Y-88657664D01*
X175317547Y-88542455D01*
X175317544Y-88542452D01*
X175202335Y-88456206D01*
X175202328Y-88456202D01*
X175070917Y-88407189D01*
X175014983Y-88365318D01*
X174990566Y-88299853D01*
X175005418Y-88231580D01*
X175026563Y-88203332D01*
X175140104Y-88089792D01*
X175207007Y-87997708D01*
X175235987Y-87957820D01*
X175265051Y-87917816D01*
X175361557Y-87728412D01*
X175427246Y-87526243D01*
X175460500Y-87316287D01*
X175460500Y-87103713D01*
X175427246Y-86893757D01*
X175361557Y-86691588D01*
X175265051Y-86502184D01*
X175265049Y-86502181D01*
X175265048Y-86502179D01*
X175140109Y-86330213D01*
X174989786Y-86179890D01*
X174817817Y-86054949D01*
X174808504Y-86050204D01*
X174757707Y-86002230D01*
X174740912Y-85934409D01*
X174763449Y-85868274D01*
X174808507Y-85829232D01*
X174817555Y-85824622D01*
X174871716Y-85785270D01*
X174871717Y-85785270D01*
X174239408Y-85152962D01*
X174302993Y-85135925D01*
X174417007Y-85070099D01*
X174510099Y-84977007D01*
X174575925Y-84862993D01*
X174592962Y-84799408D01*
X175225270Y-85431717D01*
X175225270Y-85431716D01*
X175264622Y-85377554D01*
X175361095Y-85188217D01*
X175426757Y-84986130D01*
X175426757Y-84986127D01*
X175460000Y-84776246D01*
X175460000Y-84563753D01*
X175426757Y-84353872D01*
X175426757Y-84353869D01*
X175361095Y-84151782D01*
X175264624Y-83962449D01*
X175225270Y-83908282D01*
X175225269Y-83908282D01*
X174592962Y-84540590D01*
X174575925Y-84477007D01*
X174510099Y-84362993D01*
X174417007Y-84269901D01*
X174302993Y-84204075D01*
X174239409Y-84187037D01*
X174871716Y-83554728D01*
X174817550Y-83515375D01*
X174628217Y-83418904D01*
X174426129Y-83353242D01*
X174216246Y-83320000D01*
X174003754Y-83320000D01*
X173793872Y-83353242D01*
X173793869Y-83353242D01*
X173591782Y-83418904D01*
X173402439Y-83515380D01*
X173348282Y-83554727D01*
X173348282Y-83554728D01*
X173980591Y-84187037D01*
X173917007Y-84204075D01*
X173802993Y-84269901D01*
X173709901Y-84362993D01*
X173644075Y-84477007D01*
X173627037Y-84540591D01*
X172994728Y-83908282D01*
X172994727Y-83908282D01*
X172955380Y-83962439D01*
X172858904Y-84151782D01*
X172793242Y-84353869D01*
X172793242Y-84353872D01*
X172760000Y-84563753D01*
X172760000Y-84776246D01*
X172793242Y-84986127D01*
X172793242Y-84986130D01*
X172858904Y-85188217D01*
X172955375Y-85377550D01*
X172994728Y-85431716D01*
X173627037Y-84799408D01*
X173644075Y-84862993D01*
X173709901Y-84977007D01*
X173802993Y-85070099D01*
X173917007Y-85135925D01*
X173980590Y-85152962D01*
X173348282Y-85785269D01*
X173348282Y-85785270D01*
X173402452Y-85824626D01*
X173402451Y-85824626D01*
X173411495Y-85829234D01*
X173462292Y-85877208D01*
X173479087Y-85945029D01*
X173456550Y-86011164D01*
X173411499Y-86050202D01*
X173402182Y-86054949D01*
X173230213Y-86179890D01*
X173079890Y-86330213D01*
X172954951Y-86502179D01*
X172858444Y-86691585D01*
X172858443Y-86691587D01*
X172858443Y-86691588D01*
X172845485Y-86731467D01*
X172792753Y-86893760D01*
X172759500Y-87103713D01*
X172759500Y-87316286D01*
X172792180Y-87522624D01*
X172792754Y-87526243D01*
X172848393Y-87697482D01*
X172858444Y-87728414D01*
X172954951Y-87917820D01*
X173079890Y-88089786D01*
X173193430Y-88203326D01*
X173226915Y-88264649D01*
X173221931Y-88334341D01*
X173180059Y-88390274D01*
X173149083Y-88407189D01*
X173017669Y-88456203D01*
X173017664Y-88456206D01*
X172902455Y-88542452D01*
X172902452Y-88542455D01*
X172816206Y-88657664D01*
X172816202Y-88657671D01*
X172765908Y-88792517D01*
X172761355Y-88834872D01*
X172759501Y-88852123D01*
X172759500Y-88852135D01*
X172759500Y-88975500D01*
X172739815Y-89042539D01*
X172687011Y-89088294D01*
X172641912Y-89098105D01*
X172641991Y-89098903D01*
X172635928Y-89099499D01*
X172510261Y-89124497D01*
X172510257Y-89124498D01*
X172469157Y-89141523D01*
X172391877Y-89173533D01*
X172391869Y-89173537D01*
X172285326Y-89244726D01*
X171082180Y-90447872D01*
X171020857Y-90481357D01*
X170951165Y-90476373D01*
X170895232Y-90434501D01*
X170870815Y-90369037D01*
X170870499Y-90360214D01*
X170870499Y-88852128D01*
X170864091Y-88792517D01*
X170860215Y-88782126D01*
X170813797Y-88657671D01*
X170813793Y-88657664D01*
X170727547Y-88542455D01*
X170727544Y-88542452D01*
X170612335Y-88456206D01*
X170612328Y-88456202D01*
X170480917Y-88407189D01*
X170424983Y-88365318D01*
X170400566Y-88299853D01*
X170415418Y-88231580D01*
X170436563Y-88203332D01*
X170550104Y-88089792D01*
X170617007Y-87997708D01*
X170645987Y-87957820D01*
X170675051Y-87917816D01*
X170771557Y-87728412D01*
X170837246Y-87526243D01*
X170870500Y-87316287D01*
X170870500Y-87103713D01*
X170837246Y-86893757D01*
X170771557Y-86691588D01*
X170675051Y-86502184D01*
X170675049Y-86502181D01*
X170675048Y-86502179D01*
X170550109Y-86330213D01*
X170399786Y-86179890D01*
X170227817Y-86054949D01*
X170218504Y-86050204D01*
X170167707Y-86002230D01*
X170150912Y-85934409D01*
X170173449Y-85868274D01*
X170218507Y-85829232D01*
X170227555Y-85824622D01*
X170281716Y-85785270D01*
X170281717Y-85785270D01*
X169649408Y-85152962D01*
X169712993Y-85135925D01*
X169827007Y-85070099D01*
X169920099Y-84977007D01*
X169985925Y-84862993D01*
X170002962Y-84799408D01*
X170635270Y-85431717D01*
X170635270Y-85431716D01*
X170674622Y-85377554D01*
X170771095Y-85188217D01*
X170836757Y-84986130D01*
X170836757Y-84986127D01*
X170870000Y-84776246D01*
X170870000Y-84563753D01*
X170836757Y-84353872D01*
X170836757Y-84353869D01*
X170771095Y-84151782D01*
X170674624Y-83962449D01*
X170635270Y-83908282D01*
X170635269Y-83908282D01*
X170002962Y-84540590D01*
X169985925Y-84477007D01*
X169920099Y-84362993D01*
X169827007Y-84269901D01*
X169712993Y-84204075D01*
X169649409Y-84187037D01*
X170281716Y-83554728D01*
X170227550Y-83515375D01*
X170038217Y-83418904D01*
X169836129Y-83353242D01*
X169626246Y-83320000D01*
X169413754Y-83320000D01*
X169203872Y-83353242D01*
X169203869Y-83353242D01*
X169001782Y-83418904D01*
X168812439Y-83515380D01*
X168758282Y-83554727D01*
X168758282Y-83554728D01*
X169390591Y-84187037D01*
X169327007Y-84204075D01*
X169212993Y-84269901D01*
X169119901Y-84362993D01*
X169054075Y-84477007D01*
X169037037Y-84540591D01*
X168404728Y-83908282D01*
X168404727Y-83908282D01*
X168365380Y-83962439D01*
X168268904Y-84151782D01*
X168203242Y-84353869D01*
X168203242Y-84353872D01*
X168170000Y-84563753D01*
X168170000Y-84776246D01*
X168203242Y-84986127D01*
X168203242Y-84986130D01*
X168268904Y-85188217D01*
X168365375Y-85377550D01*
X168404728Y-85431716D01*
X169037037Y-84799408D01*
X169054075Y-84862993D01*
X169119901Y-84977007D01*
X169212993Y-85070099D01*
X169327007Y-85135925D01*
X169390590Y-85152962D01*
X168758282Y-85785269D01*
X168758282Y-85785270D01*
X168812452Y-85824626D01*
X168812451Y-85824626D01*
X168821495Y-85829234D01*
X168872292Y-85877208D01*
X168889087Y-85945029D01*
X168866550Y-86011164D01*
X168821499Y-86050202D01*
X168812182Y-86054949D01*
X168640213Y-86179890D01*
X168489890Y-86330213D01*
X168364951Y-86502179D01*
X168268444Y-86691585D01*
X168268443Y-86691587D01*
X168268443Y-86691588D01*
X168255485Y-86731467D01*
X168202753Y-86893760D01*
X168169500Y-87103713D01*
X168169500Y-87316286D01*
X168202180Y-87522624D01*
X168202754Y-87526243D01*
X168258393Y-87697482D01*
X168268444Y-87728414D01*
X168364951Y-87917820D01*
X168489890Y-88089786D01*
X168603430Y-88203326D01*
X168636915Y-88264649D01*
X168631931Y-88334341D01*
X168590059Y-88390274D01*
X168559083Y-88407189D01*
X168427669Y-88456203D01*
X168427664Y-88456206D01*
X168312455Y-88542452D01*
X168312452Y-88542455D01*
X168226206Y-88657664D01*
X168226202Y-88657671D01*
X168175908Y-88792517D01*
X168171355Y-88834872D01*
X168169501Y-88852123D01*
X168169500Y-88852135D01*
X168169500Y-88975500D01*
X168149815Y-89042539D01*
X168097011Y-89088294D01*
X168045500Y-89099500D01*
X166404499Y-89099500D01*
X166337460Y-89079815D01*
X166291705Y-89027011D01*
X166280499Y-88975500D01*
X166280499Y-88852129D01*
X166280498Y-88852123D01*
X166280497Y-88852116D01*
X166274091Y-88792517D01*
X166270215Y-88782126D01*
X166223797Y-88657671D01*
X166223793Y-88657664D01*
X166137547Y-88542455D01*
X166137544Y-88542452D01*
X166022335Y-88456206D01*
X166022328Y-88456202D01*
X165890917Y-88407189D01*
X165834983Y-88365318D01*
X165810566Y-88299853D01*
X165825418Y-88231580D01*
X165846563Y-88203332D01*
X165960104Y-88089792D01*
X166027007Y-87997708D01*
X166055987Y-87957820D01*
X166085051Y-87917816D01*
X166181557Y-87728412D01*
X166247246Y-87526243D01*
X166280500Y-87316287D01*
X166280500Y-87103713D01*
X166247246Y-86893757D01*
X166181557Y-86691588D01*
X166085051Y-86502184D01*
X166085049Y-86502181D01*
X166085048Y-86502179D01*
X165960109Y-86330213D01*
X165809786Y-86179890D01*
X165637817Y-86054949D01*
X165628504Y-86050204D01*
X165577707Y-86002230D01*
X165560912Y-85934409D01*
X165583449Y-85868274D01*
X165628507Y-85829232D01*
X165637555Y-85824622D01*
X165691716Y-85785270D01*
X165691717Y-85785270D01*
X165059408Y-85152962D01*
X165122993Y-85135925D01*
X165237007Y-85070099D01*
X165330099Y-84977007D01*
X165395925Y-84862993D01*
X165412962Y-84799409D01*
X166045270Y-85431717D01*
X166045270Y-85431716D01*
X166084622Y-85377554D01*
X166181095Y-85188217D01*
X166246757Y-84986130D01*
X166246757Y-84986127D01*
X166280000Y-84776246D01*
X166280000Y-84563753D01*
X166246757Y-84353872D01*
X166246757Y-84353869D01*
X166181095Y-84151782D01*
X166084624Y-83962449D01*
X166045270Y-83908282D01*
X166045269Y-83908282D01*
X165412962Y-84540590D01*
X165395925Y-84477007D01*
X165330099Y-84362993D01*
X165237007Y-84269901D01*
X165122993Y-84204075D01*
X165059409Y-84187037D01*
X165691716Y-83554728D01*
X165637550Y-83515375D01*
X165448217Y-83418904D01*
X165246129Y-83353242D01*
X165036246Y-83320000D01*
X164823754Y-83320000D01*
X164613872Y-83353242D01*
X164613869Y-83353242D01*
X164411782Y-83418904D01*
X164222439Y-83515380D01*
X164168282Y-83554727D01*
X164168282Y-83554728D01*
X164800591Y-84187037D01*
X164737007Y-84204075D01*
X164622993Y-84269901D01*
X164529901Y-84362993D01*
X164464075Y-84477007D01*
X164447037Y-84540591D01*
X163814728Y-83908282D01*
X163814727Y-83908282D01*
X163775380Y-83962439D01*
X163678904Y-84151782D01*
X163613242Y-84353869D01*
X163613242Y-84353872D01*
X163580000Y-84563753D01*
X163580000Y-84776246D01*
X163613242Y-84986127D01*
X163613242Y-84986130D01*
X163678904Y-85188217D01*
X163775375Y-85377550D01*
X163814728Y-85431716D01*
X164447037Y-84799408D01*
X164464075Y-84862993D01*
X164529901Y-84977007D01*
X164622993Y-85070099D01*
X164737007Y-85135925D01*
X164800590Y-85152962D01*
X164168282Y-85785269D01*
X164168282Y-85785270D01*
X164222452Y-85824626D01*
X164222451Y-85824626D01*
X164231495Y-85829234D01*
X164282292Y-85877208D01*
X164299087Y-85945029D01*
X164276550Y-86011164D01*
X164231499Y-86050202D01*
X164222182Y-86054949D01*
X164050213Y-86179890D01*
X163899890Y-86330213D01*
X163774951Y-86502179D01*
X163678444Y-86691585D01*
X163678443Y-86691587D01*
X163678443Y-86691588D01*
X163665485Y-86731467D01*
X163612753Y-86893760D01*
X163579500Y-87103713D01*
X163579500Y-87316286D01*
X163612180Y-87522624D01*
X163612754Y-87526243D01*
X163668393Y-87697482D01*
X163678444Y-87728414D01*
X163774951Y-87917820D01*
X163899890Y-88089786D01*
X164013430Y-88203326D01*
X164046915Y-88264649D01*
X164041931Y-88334341D01*
X164000059Y-88390274D01*
X163969083Y-88407189D01*
X163837669Y-88456203D01*
X163837664Y-88456206D01*
X163722455Y-88542452D01*
X163722452Y-88542455D01*
X163636206Y-88657664D01*
X163636202Y-88657671D01*
X163585908Y-88792517D01*
X163581355Y-88834872D01*
X163579501Y-88852123D01*
X163579500Y-88852135D01*
X163579500Y-90647870D01*
X163579501Y-90647876D01*
X163585908Y-90707483D01*
X163636202Y-90842328D01*
X163636206Y-90842335D01*
X163722452Y-90957544D01*
X163722455Y-90957547D01*
X163837664Y-91043793D01*
X163837671Y-91043797D01*
X163972517Y-91094091D01*
X163972516Y-91094091D01*
X163979444Y-91094835D01*
X164032127Y-91100500D01*
X165827872Y-91100499D01*
X165887483Y-91094091D01*
X166022331Y-91043796D01*
X166137546Y-90957546D01*
X166223796Y-90842331D01*
X166274091Y-90707483D01*
X166280500Y-90647873D01*
X166280500Y-90524500D01*
X166283050Y-90515814D01*
X166281762Y-90506853D01*
X166292740Y-90482812D01*
X166300185Y-90457461D01*
X166307025Y-90451533D01*
X166310787Y-90443297D01*
X166333021Y-90429007D01*
X166352989Y-90411706D01*
X166363503Y-90409418D01*
X166369565Y-90405523D01*
X166404500Y-90400500D01*
X166425500Y-90400500D01*
X166492539Y-90420185D01*
X166538294Y-90472989D01*
X166549500Y-90524500D01*
X166549500Y-114314069D01*
X166558265Y-114358129D01*
X166558265Y-114358132D01*
X166574497Y-114439736D01*
X166574499Y-114439744D01*
X166598404Y-114497457D01*
X166623535Y-114558127D01*
X166674282Y-114634076D01*
X166694726Y-114664673D01*
X173785325Y-121755272D01*
X173785332Y-121755278D01*
X173868459Y-121810821D01*
X173868460Y-121810821D01*
X173891873Y-121826465D01*
X174010256Y-121875501D01*
X174010260Y-121875501D01*
X174010261Y-121875502D01*
X174135928Y-121900500D01*
X174135931Y-121900500D01*
X194059192Y-121900500D01*
X194126231Y-121920185D01*
X194146873Y-121936819D01*
X195147873Y-122937819D01*
X195181358Y-122999142D01*
X195176374Y-123068834D01*
X195134502Y-123124767D01*
X195069038Y-123149184D01*
X195060192Y-123149500D01*
X194937648Y-123149500D01*
X194913329Y-123153351D01*
X194735465Y-123181522D01*
X194540776Y-123244781D01*
X194358386Y-123337715D01*
X194192786Y-123458028D01*
X194048028Y-123602786D01*
X193927715Y-123768386D01*
X193880485Y-123861080D01*
X193832510Y-123911876D01*
X193764689Y-123928671D01*
X193698554Y-123906134D01*
X193659515Y-123861080D01*
X193652171Y-123846666D01*
X193612287Y-123768390D01*
X193580092Y-123724077D01*
X193491971Y-123602786D01*
X193347213Y-123458028D01*
X193181613Y-123337715D01*
X193181612Y-123337714D01*
X193181610Y-123337713D01*
X193118485Y-123305549D01*
X192999223Y-123244781D01*
X192804534Y-123181522D01*
X192629995Y-123153878D01*
X192602352Y-123149500D01*
X192397648Y-123149500D01*
X192373329Y-123153351D01*
X192195465Y-123181522D01*
X192000776Y-123244781D01*
X191818386Y-123337715D01*
X191652786Y-123458028D01*
X191508028Y-123602786D01*
X191387715Y-123768386D01*
X191340485Y-123861080D01*
X191292510Y-123911876D01*
X191224689Y-123928671D01*
X191158554Y-123906134D01*
X191119515Y-123861080D01*
X191112171Y-123846666D01*
X191072287Y-123768390D01*
X191040092Y-123724077D01*
X190951971Y-123602786D01*
X190807213Y-123458028D01*
X190641613Y-123337715D01*
X190641612Y-123337714D01*
X190641610Y-123337713D01*
X190578485Y-123305549D01*
X190459223Y-123244781D01*
X190264534Y-123181522D01*
X190089995Y-123153878D01*
X190062352Y-123149500D01*
X189857648Y-123149500D01*
X189833329Y-123153351D01*
X189655465Y-123181522D01*
X189460776Y-123244781D01*
X189278386Y-123337715D01*
X189112786Y-123458028D01*
X188968028Y-123602786D01*
X188847715Y-123768386D01*
X188800485Y-123861080D01*
X188752510Y-123911876D01*
X188684689Y-123928671D01*
X188618554Y-123906134D01*
X188579515Y-123861080D01*
X188572171Y-123846666D01*
X188532287Y-123768390D01*
X188500092Y-123724077D01*
X188411971Y-123602786D01*
X188267213Y-123458028D01*
X188101613Y-123337715D01*
X188101612Y-123337714D01*
X188101610Y-123337713D01*
X188038485Y-123305549D01*
X187919223Y-123244781D01*
X187724534Y-123181522D01*
X187549995Y-123153878D01*
X187522352Y-123149500D01*
X187317648Y-123149500D01*
X187293329Y-123153351D01*
X187115465Y-123181522D01*
X186920776Y-123244781D01*
X186738386Y-123337715D01*
X186572786Y-123458028D01*
X186428028Y-123602786D01*
X186307715Y-123768386D01*
X186260485Y-123861080D01*
X186212510Y-123911876D01*
X186144689Y-123928671D01*
X186078554Y-123906134D01*
X186039515Y-123861080D01*
X186032171Y-123846666D01*
X185992287Y-123768390D01*
X185960092Y-123724077D01*
X185871971Y-123602786D01*
X185727213Y-123458028D01*
X185561613Y-123337715D01*
X185561612Y-123337714D01*
X185561610Y-123337713D01*
X185498485Y-123305549D01*
X185379223Y-123244781D01*
X185184534Y-123181522D01*
X185009995Y-123153878D01*
X184982352Y-123149500D01*
X184777648Y-123149500D01*
X184753329Y-123153351D01*
X184575465Y-123181522D01*
X184380776Y-123244781D01*
X184198386Y-123337715D01*
X184032786Y-123458028D01*
X183888028Y-123602786D01*
X183767715Y-123768386D01*
X183720485Y-123861080D01*
X183672510Y-123911876D01*
X183604689Y-123928671D01*
X183538554Y-123906134D01*
X183499515Y-123861080D01*
X183492171Y-123846666D01*
X183452287Y-123768390D01*
X183420092Y-123724077D01*
X183331971Y-123602786D01*
X183187213Y-123458028D01*
X183021613Y-123337715D01*
X183021612Y-123337714D01*
X183021610Y-123337713D01*
X182958485Y-123305549D01*
X182839223Y-123244781D01*
X182644534Y-123181522D01*
X182469995Y-123153878D01*
X182442352Y-123149500D01*
X182237648Y-123149500D01*
X182213329Y-123153351D01*
X182035465Y-123181522D01*
X181840776Y-123244781D01*
X181658386Y-123337715D01*
X181492786Y-123458028D01*
X181348028Y-123602786D01*
X181227715Y-123768386D01*
X181180485Y-123861080D01*
X181132510Y-123911876D01*
X181064689Y-123928671D01*
X180998554Y-123906134D01*
X180959515Y-123861080D01*
X180952171Y-123846666D01*
X180912287Y-123768390D01*
X180880092Y-123724077D01*
X180791971Y-123602786D01*
X180647213Y-123458028D01*
X180481613Y-123337715D01*
X180481612Y-123337714D01*
X180481610Y-123337713D01*
X180418485Y-123305549D01*
X180299223Y-123244781D01*
X180104534Y-123181522D01*
X179929995Y-123153878D01*
X179902352Y-123149500D01*
X179697648Y-123149500D01*
X179673329Y-123153351D01*
X179495465Y-123181522D01*
X179300776Y-123244781D01*
X179118386Y-123337715D01*
X178952786Y-123458028D01*
X178808028Y-123602786D01*
X178687715Y-123768386D01*
X178640485Y-123861080D01*
X178592510Y-123911876D01*
X178524689Y-123928671D01*
X178458554Y-123906134D01*
X178419515Y-123861080D01*
X178412171Y-123846666D01*
X178372287Y-123768390D01*
X178340092Y-123724077D01*
X178251971Y-123602786D01*
X178107213Y-123458028D01*
X177941613Y-123337715D01*
X177941612Y-123337714D01*
X177941610Y-123337713D01*
X177878485Y-123305549D01*
X177759223Y-123244781D01*
X177564534Y-123181522D01*
X177389995Y-123153878D01*
X177362352Y-123149500D01*
X177157648Y-123149500D01*
X177133329Y-123153351D01*
X176955465Y-123181522D01*
X176760776Y-123244781D01*
X176578386Y-123337715D01*
X176412786Y-123458028D01*
X176268028Y-123602786D01*
X176147715Y-123768386D01*
X176100485Y-123861080D01*
X176052510Y-123911876D01*
X175984689Y-123928671D01*
X175918554Y-123906134D01*
X175879515Y-123861080D01*
X175872171Y-123846666D01*
X175832287Y-123768390D01*
X175800092Y-123724077D01*
X175711971Y-123602786D01*
X175567213Y-123458028D01*
X175401613Y-123337715D01*
X175401612Y-123337714D01*
X175401610Y-123337713D01*
X175338485Y-123305549D01*
X175219223Y-123244781D01*
X175024534Y-123181522D01*
X174849995Y-123153878D01*
X174822352Y-123149500D01*
X174617648Y-123149500D01*
X174593329Y-123153351D01*
X174415465Y-123181522D01*
X174220776Y-123244781D01*
X174038386Y-123337715D01*
X173872786Y-123458028D01*
X173728028Y-123602786D01*
X173607715Y-123768386D01*
X173560485Y-123861080D01*
X173512510Y-123911876D01*
X173444689Y-123928671D01*
X173378554Y-123906134D01*
X173339515Y-123861080D01*
X173332171Y-123846666D01*
X173292287Y-123768390D01*
X173260092Y-123724077D01*
X173171971Y-123602786D01*
X173027213Y-123458028D01*
X172861613Y-123337715D01*
X172861612Y-123337714D01*
X172861610Y-123337713D01*
X172798485Y-123305549D01*
X172679223Y-123244781D01*
X172484534Y-123181522D01*
X172309995Y-123153878D01*
X172282352Y-123149500D01*
X172077648Y-123149500D01*
X172053329Y-123153351D01*
X171875465Y-123181522D01*
X171680776Y-123244781D01*
X171498386Y-123337715D01*
X171332786Y-123458028D01*
X171188028Y-123602786D01*
X171067715Y-123768386D01*
X170974781Y-123950776D01*
X170911522Y-124145465D01*
X170879500Y-124347648D01*
X170879500Y-124552351D01*
X170911523Y-124754535D01*
X170911524Y-124754542D01*
X170922455Y-124788183D01*
X170924450Y-124858024D01*
X170888369Y-124917856D01*
X170825668Y-124948684D01*
X170804524Y-124950500D01*
X160871808Y-124950500D01*
X160804769Y-124930815D01*
X160784127Y-124914181D01*
X159059148Y-123189202D01*
X159025663Y-123127879D01*
X159030647Y-123058187D01*
X159032268Y-123054068D01*
X159098398Y-122894419D01*
X159166270Y-122641116D01*
X159200500Y-122381120D01*
X159200500Y-122118880D01*
X159166270Y-121858884D01*
X159098398Y-121605581D01*
X159046864Y-121481166D01*
X158998046Y-121363309D01*
X158998041Y-121363299D01*
X158866924Y-121136196D01*
X158707281Y-120928148D01*
X158707274Y-120928140D01*
X158521860Y-120742726D01*
X158521851Y-120742718D01*
X158313803Y-120583075D01*
X158086700Y-120451958D01*
X158086690Y-120451953D01*
X157844428Y-120351605D01*
X157844421Y-120351603D01*
X157844419Y-120351602D01*
X157591116Y-120283730D01*
X157533339Y-120276123D01*
X157331127Y-120249500D01*
X157331120Y-120249500D01*
X157068880Y-120249500D01*
X157068872Y-120249500D01*
X156837772Y-120279926D01*
X156808884Y-120283730D01*
X156555585Y-120351601D01*
X156555581Y-120351602D01*
X156555571Y-120351605D01*
X156313309Y-120451953D01*
X156313299Y-120451958D01*
X156086196Y-120583075D01*
X155878148Y-120742718D01*
X155692718Y-120928148D01*
X155533075Y-121136196D01*
X155401958Y-121363299D01*
X155401953Y-121363309D01*
X155301605Y-121605571D01*
X155301602Y-121605581D01*
X155246609Y-121810821D01*
X155233730Y-121858885D01*
X155199500Y-122118872D01*
X155199500Y-122381127D01*
X155216769Y-122512287D01*
X155233730Y-122641116D01*
X155255959Y-122724076D01*
X155301601Y-122894417D01*
X155367731Y-123054067D01*
X155375200Y-123123536D01*
X155343925Y-123186016D01*
X155340851Y-123189201D01*
X154716873Y-123813181D01*
X154655550Y-123846666D01*
X154629192Y-123849500D01*
X153648996Y-123849500D01*
X153581957Y-123829815D01*
X153536202Y-123777011D01*
X153526258Y-123707853D01*
X153555283Y-123644297D01*
X153561315Y-123637819D01*
X153627274Y-123571860D01*
X153627277Y-123571855D01*
X153627282Y-123571851D01*
X153786924Y-123363803D01*
X153918043Y-123136697D01*
X153923495Y-123123536D01*
X153952269Y-123054068D01*
X154018398Y-122894419D01*
X154086270Y-122641116D01*
X154120500Y-122381120D01*
X154120500Y-122118880D01*
X154086270Y-121858884D01*
X154018398Y-121605581D01*
X153966864Y-121481166D01*
X153918046Y-121363309D01*
X153918041Y-121363299D01*
X153786924Y-121136196D01*
X153627281Y-120928148D01*
X153627274Y-120928140D01*
X153441860Y-120742726D01*
X153441851Y-120742718D01*
X153233803Y-120583075D01*
X153006700Y-120451958D01*
X153006690Y-120451953D01*
X152764428Y-120351605D01*
X152764421Y-120351603D01*
X152764419Y-120351602D01*
X152511116Y-120283730D01*
X152453339Y-120276123D01*
X152251127Y-120249500D01*
X152251120Y-120249500D01*
X151988880Y-120249500D01*
X151988872Y-120249500D01*
X151757772Y-120279926D01*
X151728884Y-120283730D01*
X151475585Y-120351601D01*
X151475581Y-120351602D01*
X151475571Y-120351605D01*
X151315931Y-120417731D01*
X151246461Y-120425200D01*
X151183982Y-120393925D01*
X151180797Y-120390851D01*
X149186819Y-118396873D01*
X149153334Y-118335550D01*
X149150500Y-118309192D01*
X149150500Y-117574464D01*
X149170185Y-117507425D01*
X149201616Y-117474145D01*
X149282069Y-117415693D01*
X149282069Y-117415692D01*
X149282073Y-117415690D01*
X149415690Y-117282073D01*
X149526760Y-117129199D01*
X149612547Y-116960832D01*
X149670940Y-116781118D01*
X149687397Y-116677213D01*
X149700500Y-116594486D01*
X149700500Y-116405513D01*
X149670940Y-116218881D01*
X149612545Y-116039163D01*
X149540821Y-115898398D01*
X149526760Y-115870801D01*
X149415690Y-115717927D01*
X149409950Y-115712187D01*
X149376465Y-115650864D01*
X149381449Y-115581172D01*
X149423321Y-115525239D01*
X149488785Y-115500822D01*
X149497631Y-115500506D01*
X150652369Y-115500506D01*
X150719408Y-115520191D01*
X150765163Y-115572995D01*
X150775107Y-115642153D01*
X150746082Y-115705709D01*
X150740050Y-115712187D01*
X150734312Y-115717924D01*
X150734312Y-115717925D01*
X150734310Y-115717927D01*
X150686610Y-115783579D01*
X150623240Y-115870800D01*
X150537454Y-116039163D01*
X150479059Y-116218881D01*
X150449500Y-116405513D01*
X150449500Y-116594486D01*
X150479059Y-116781118D01*
X150537454Y-116960836D01*
X150571959Y-117028555D01*
X150623240Y-117129199D01*
X150734310Y-117282073D01*
X150867927Y-117415690D01*
X151020801Y-117526760D01*
X151026130Y-117529475D01*
X151189163Y-117612545D01*
X151189165Y-117612545D01*
X151189168Y-117612547D01*
X151285497Y-117643846D01*
X151368881Y-117670940D01*
X151555514Y-117700500D01*
X151555519Y-117700500D01*
X151744479Y-117700500D01*
X151744481Y-117700500D01*
X151842711Y-117684941D01*
X151912001Y-117693895D01*
X151949789Y-117719734D01*
X151985327Y-117755273D01*
X151985331Y-117755276D01*
X152091866Y-117826461D01*
X152091872Y-117826464D01*
X152091873Y-117826465D01*
X152210256Y-117875501D01*
X152210260Y-117875501D01*
X152210261Y-117875502D01*
X152335928Y-117900500D01*
X152335931Y-117900500D01*
X156959192Y-117900500D01*
X157026231Y-117920185D01*
X157046873Y-117936819D01*
X160420851Y-121310797D01*
X160454336Y-121372120D01*
X160449352Y-121441812D01*
X160447731Y-121445931D01*
X160381605Y-121605571D01*
X160381602Y-121605581D01*
X160326609Y-121810821D01*
X160313730Y-121858885D01*
X160279500Y-122118872D01*
X160279500Y-122381127D01*
X160296769Y-122512287D01*
X160313730Y-122641116D01*
X160381602Y-122894418D01*
X160381605Y-122894428D01*
X160481953Y-123136690D01*
X160481958Y-123136700D01*
X160613075Y-123363803D01*
X160772718Y-123571851D01*
X160772726Y-123571860D01*
X160958140Y-123757274D01*
X160958148Y-123757281D01*
X161166196Y-123916924D01*
X161393299Y-124048041D01*
X161393309Y-124048046D01*
X161635571Y-124148394D01*
X161635581Y-124148398D01*
X161888884Y-124216270D01*
X162148880Y-124250500D01*
X162148887Y-124250500D01*
X162411113Y-124250500D01*
X162411120Y-124250500D01*
X162671116Y-124216270D01*
X162924419Y-124148398D01*
X163166697Y-124048043D01*
X163393803Y-123916924D01*
X163601851Y-123757282D01*
X163601855Y-123757277D01*
X163601860Y-123757274D01*
X163787274Y-123571860D01*
X163787277Y-123571855D01*
X163787282Y-123571851D01*
X163946924Y-123363803D01*
X164078043Y-123136697D01*
X164083495Y-123123536D01*
X164112269Y-123054068D01*
X164178398Y-122894419D01*
X164246270Y-122641116D01*
X164280500Y-122381120D01*
X164280500Y-122118880D01*
X164246270Y-121858884D01*
X164178398Y-121605581D01*
X164126864Y-121481166D01*
X164078046Y-121363309D01*
X164078041Y-121363299D01*
X163946924Y-121136196D01*
X163787281Y-120928148D01*
X163787274Y-120928140D01*
X163601860Y-120742726D01*
X163601851Y-120742718D01*
X163393803Y-120583075D01*
X163166700Y-120451958D01*
X163166690Y-120451953D01*
X162924428Y-120351605D01*
X162924421Y-120351603D01*
X162924419Y-120351602D01*
X162671116Y-120283730D01*
X162613339Y-120276123D01*
X162411127Y-120249500D01*
X162411120Y-120249500D01*
X162148880Y-120249500D01*
X162148872Y-120249500D01*
X161917772Y-120279926D01*
X161888884Y-120283730D01*
X161635585Y-120351601D01*
X161635581Y-120351602D01*
X161635571Y-120351605D01*
X161475931Y-120417731D01*
X161406461Y-120425200D01*
X161343982Y-120393925D01*
X161340797Y-120390851D01*
X157694674Y-116744727D01*
X157694673Y-116744726D01*
X157694669Y-116744723D01*
X157588127Y-116673535D01*
X157469744Y-116624499D01*
X157469738Y-116624497D01*
X157344071Y-116599500D01*
X157344069Y-116599500D01*
X152974500Y-116599500D01*
X152907461Y-116579815D01*
X152861706Y-116527011D01*
X152850500Y-116475500D01*
X152850500Y-116405513D01*
X152820940Y-116218881D01*
X152762545Y-116039163D01*
X152690821Y-115898398D01*
X152676760Y-115870801D01*
X152565690Y-115717927D01*
X152559950Y-115712187D01*
X152526465Y-115650864D01*
X152531449Y-115581172D01*
X152573321Y-115525239D01*
X152638785Y-115500822D01*
X152647631Y-115500506D01*
X164445065Y-115500506D01*
X164512104Y-115520191D01*
X164513909Y-115521372D01*
X164570821Y-115559400D01*
X164570823Y-115559401D01*
X164570827Y-115559403D01*
X164633989Y-115585565D01*
X164716503Y-115619743D01*
X164829165Y-115642153D01*
X164871153Y-115650505D01*
X164871156Y-115650506D01*
X164871158Y-115650506D01*
X165028844Y-115650506D01*
X165028845Y-115650505D01*
X165183497Y-115619743D01*
X165329179Y-115559400D01*
X165460289Y-115471795D01*
X165571789Y-115360295D01*
X165659394Y-115229185D01*
X165719737Y-115083503D01*
X165750500Y-114928848D01*
X165750500Y-114771164D01*
X165750500Y-114771161D01*
X165750499Y-114771159D01*
X165739868Y-114717713D01*
X165719737Y-114616509D01*
X165670423Y-114497455D01*
X165662955Y-114427987D01*
X165670421Y-114402557D01*
X165719737Y-114283500D01*
X165750500Y-114128845D01*
X165750500Y-113971161D01*
X165750500Y-113971158D01*
X165750499Y-113971156D01*
X165719738Y-113816513D01*
X165719737Y-113816506D01*
X165670423Y-113697452D01*
X165662955Y-113627984D01*
X165670421Y-113602554D01*
X165719737Y-113483497D01*
X165750500Y-113328842D01*
X165750500Y-113171158D01*
X165750500Y-113171155D01*
X165750499Y-113171153D01*
X165719737Y-113016503D01*
X165665763Y-112886197D01*
X165659397Y-112870827D01*
X165659390Y-112870814D01*
X165571789Y-112739711D01*
X165571786Y-112739707D01*
X165460292Y-112628213D01*
X165460288Y-112628210D01*
X165329185Y-112540609D01*
X165329172Y-112540602D01*
X165183501Y-112480264D01*
X165183489Y-112480261D01*
X165028845Y-112449500D01*
X165028842Y-112449500D01*
X164871158Y-112449500D01*
X164871155Y-112449500D01*
X164716510Y-112480261D01*
X164716498Y-112480264D01*
X164570827Y-112540602D01*
X164570820Y-112540606D01*
X164541928Y-112559911D01*
X164513955Y-112578602D01*
X164447279Y-112599480D01*
X164445065Y-112599500D01*
X152424965Y-112599500D01*
X152357926Y-112579815D01*
X152312171Y-112527011D01*
X152301347Y-112465772D01*
X152304328Y-112427882D01*
X151650001Y-111773554D01*
X151650000Y-111773554D01*
X150995670Y-112427882D01*
X150998652Y-112465771D01*
X150984288Y-112534148D01*
X150935236Y-112583905D01*
X150875034Y-112599500D01*
X149274965Y-112599500D01*
X149207926Y-112579815D01*
X149162171Y-112527011D01*
X149151347Y-112465772D01*
X149154328Y-112427882D01*
X148500001Y-111773554D01*
X148500000Y-111773554D01*
X147845670Y-112427882D01*
X147848652Y-112465771D01*
X147834288Y-112534148D01*
X147785236Y-112583905D01*
X147725034Y-112599500D01*
X146124965Y-112599500D01*
X146057926Y-112579815D01*
X146012171Y-112527011D01*
X146001347Y-112465772D01*
X146004328Y-112427882D01*
X145350001Y-111773554D01*
X145350000Y-111773554D01*
X144695670Y-112427882D01*
X144698652Y-112465771D01*
X144684288Y-112534148D01*
X144635236Y-112583905D01*
X144575034Y-112599500D01*
X142974965Y-112599500D01*
X142907926Y-112579815D01*
X142862171Y-112527011D01*
X142851347Y-112465772D01*
X142854328Y-112427882D01*
X142196446Y-111770000D01*
X142246078Y-111770000D01*
X142335095Y-111746148D01*
X142414905Y-111700070D01*
X142480070Y-111634905D01*
X142526148Y-111555095D01*
X142550000Y-111466078D01*
X142550000Y-111419999D01*
X142553554Y-111419999D01*
X142553554Y-111420000D01*
X143207882Y-112074328D01*
X143207883Y-112074328D01*
X143226331Y-112048937D01*
X143312085Y-111880637D01*
X143370451Y-111701002D01*
X143400000Y-111514447D01*
X143400000Y-111325552D01*
X144150000Y-111325552D01*
X144150000Y-111514447D01*
X144179548Y-111701002D01*
X144237914Y-111880637D01*
X144323666Y-112048933D01*
X144342116Y-112074328D01*
X144996446Y-111420000D01*
X144996446Y-111419999D01*
X144950369Y-111373922D01*
X145000000Y-111373922D01*
X145000000Y-111466078D01*
X145023852Y-111555095D01*
X145069930Y-111634905D01*
X145135095Y-111700070D01*
X145214905Y-111746148D01*
X145303922Y-111770000D01*
X145396078Y-111770000D01*
X145485095Y-111746148D01*
X145564905Y-111700070D01*
X145630070Y-111634905D01*
X145676148Y-111555095D01*
X145700000Y-111466078D01*
X145700000Y-111419999D01*
X145703554Y-111419999D01*
X145703554Y-111420000D01*
X146357882Y-112074328D01*
X146357883Y-112074328D01*
X146376331Y-112048937D01*
X146462085Y-111880637D01*
X146520451Y-111701002D01*
X146550000Y-111514447D01*
X146550000Y-111325552D01*
X147300000Y-111325552D01*
X147300000Y-111514447D01*
X147329548Y-111701002D01*
X147387914Y-111880637D01*
X147473666Y-112048933D01*
X147492116Y-112074328D01*
X148146446Y-111420000D01*
X148146446Y-111419999D01*
X148100369Y-111373922D01*
X148150000Y-111373922D01*
X148150000Y-111466078D01*
X148173852Y-111555095D01*
X148219930Y-111634905D01*
X148285095Y-111700070D01*
X148364905Y-111746148D01*
X148453922Y-111770000D01*
X148546078Y-111770000D01*
X148635095Y-111746148D01*
X148714905Y-111700070D01*
X148780070Y-111634905D01*
X148826148Y-111555095D01*
X148850000Y-111466078D01*
X148850000Y-111419999D01*
X148853554Y-111419999D01*
X148853554Y-111420000D01*
X149507882Y-112074328D01*
X149507883Y-112074328D01*
X149526331Y-112048937D01*
X149612085Y-111880637D01*
X149670451Y-111701002D01*
X149700000Y-111514447D01*
X149700000Y-111325552D01*
X150450000Y-111325552D01*
X150450000Y-111514447D01*
X150479548Y-111701002D01*
X150537914Y-111880637D01*
X150623666Y-112048933D01*
X150642116Y-112074328D01*
X151296446Y-111420000D01*
X151296446Y-111419999D01*
X151250369Y-111373922D01*
X151300000Y-111373922D01*
X151300000Y-111466078D01*
X151323852Y-111555095D01*
X151369930Y-111634905D01*
X151435095Y-111700070D01*
X151514905Y-111746148D01*
X151603922Y-111770000D01*
X151696078Y-111770000D01*
X151785095Y-111746148D01*
X151864905Y-111700070D01*
X151930070Y-111634905D01*
X151976148Y-111555095D01*
X152000000Y-111466078D01*
X152000000Y-111419999D01*
X152003554Y-111419999D01*
X152003554Y-111420000D01*
X152657882Y-112074328D01*
X152657883Y-112074328D01*
X152676331Y-112048937D01*
X152762085Y-111880637D01*
X152820451Y-111701002D01*
X152850000Y-111514447D01*
X152850000Y-111325552D01*
X152820451Y-111138997D01*
X152762085Y-110959362D01*
X152676329Y-110791059D01*
X152657883Y-110765670D01*
X152657882Y-110765669D01*
X152003554Y-111419999D01*
X152000000Y-111419999D01*
X152000000Y-111373922D01*
X151976148Y-111284905D01*
X151930070Y-111205095D01*
X151864905Y-111139930D01*
X151785095Y-111093852D01*
X151696078Y-111070000D01*
X151603922Y-111070000D01*
X151514905Y-111093852D01*
X151435095Y-111139930D01*
X151369930Y-111205095D01*
X151323852Y-111284905D01*
X151300000Y-111373922D01*
X151250369Y-111373922D01*
X150642116Y-110765669D01*
X150642116Y-110765670D01*
X150623669Y-110791060D01*
X150537914Y-110959362D01*
X150479548Y-111138997D01*
X150450000Y-111325552D01*
X149700000Y-111325552D01*
X149670451Y-111138997D01*
X149612085Y-110959362D01*
X149526329Y-110791059D01*
X149507883Y-110765670D01*
X149507882Y-110765669D01*
X148853554Y-111419999D01*
X148850000Y-111419999D01*
X148850000Y-111373922D01*
X148826148Y-111284905D01*
X148780070Y-111205095D01*
X148714905Y-111139930D01*
X148635095Y-111093852D01*
X148546078Y-111070000D01*
X148453922Y-111070000D01*
X148364905Y-111093852D01*
X148285095Y-111139930D01*
X148219930Y-111205095D01*
X148173852Y-111284905D01*
X148150000Y-111373922D01*
X148100369Y-111373922D01*
X147492116Y-110765669D01*
X147492116Y-110765670D01*
X147473669Y-110791060D01*
X147387914Y-110959362D01*
X147329548Y-111138997D01*
X147300000Y-111325552D01*
X146550000Y-111325552D01*
X146520451Y-111138997D01*
X146462085Y-110959362D01*
X146376329Y-110791059D01*
X146357883Y-110765670D01*
X146357882Y-110765669D01*
X145703554Y-111419999D01*
X145700000Y-111419999D01*
X145700000Y-111373922D01*
X145676148Y-111284905D01*
X145630070Y-111205095D01*
X145564905Y-111139930D01*
X145485095Y-111093852D01*
X145396078Y-111070000D01*
X145303922Y-111070000D01*
X145214905Y-111093852D01*
X145135095Y-111139930D01*
X145069930Y-111205095D01*
X145023852Y-111284905D01*
X145000000Y-111373922D01*
X144950369Y-111373922D01*
X144342116Y-110765669D01*
X144342116Y-110765670D01*
X144323669Y-110791060D01*
X144237914Y-110959362D01*
X144179548Y-111138997D01*
X144150000Y-111325552D01*
X143400000Y-111325552D01*
X143370451Y-111138997D01*
X143312085Y-110959362D01*
X143226329Y-110791059D01*
X143207883Y-110765670D01*
X143207882Y-110765669D01*
X142553554Y-111419999D01*
X142550000Y-111419999D01*
X142550000Y-111373922D01*
X142526148Y-111284905D01*
X142480070Y-111205095D01*
X142414905Y-111139930D01*
X142335095Y-111093852D01*
X142246078Y-111070000D01*
X142153922Y-111070000D01*
X142064905Y-111093852D01*
X141985095Y-111139930D01*
X141919930Y-111205095D01*
X141873852Y-111284905D01*
X141850000Y-111373922D01*
X141850000Y-111423553D01*
X141192116Y-110765669D01*
X141192116Y-110765670D01*
X141173669Y-110791060D01*
X141087914Y-110959362D01*
X141029548Y-111138997D01*
X141000000Y-111325552D01*
X141000000Y-111514447D01*
X141029548Y-111701004D01*
X141066602Y-111815046D01*
X141068597Y-111884887D01*
X141032516Y-111944719D01*
X140969815Y-111975547D01*
X140900401Y-111967582D01*
X140860990Y-111941044D01*
X140436819Y-111516873D01*
X140403334Y-111455550D01*
X140400500Y-111429192D01*
X140400500Y-110412116D01*
X141545669Y-110412116D01*
X142200000Y-111066446D01*
X142200001Y-111066446D01*
X142854328Y-110412116D01*
X144695669Y-110412116D01*
X145350000Y-111066446D01*
X145350001Y-111066446D01*
X146004328Y-110412116D01*
X147845669Y-110412116D01*
X148500000Y-111066446D01*
X148500001Y-111066446D01*
X149154328Y-110412116D01*
X150995669Y-110412116D01*
X151650000Y-111066446D01*
X151650001Y-111066446D01*
X152304328Y-110412116D01*
X152278933Y-110393666D01*
X152110637Y-110307914D01*
X151931002Y-110249548D01*
X151744447Y-110220000D01*
X151555553Y-110220000D01*
X151368997Y-110249548D01*
X151189362Y-110307914D01*
X151021060Y-110393669D01*
X150995670Y-110412116D01*
X150995669Y-110412116D01*
X149154328Y-110412116D01*
X149128933Y-110393666D01*
X148960637Y-110307914D01*
X148781002Y-110249548D01*
X148594447Y-110220000D01*
X148405553Y-110220000D01*
X148218997Y-110249548D01*
X148039362Y-110307914D01*
X147871060Y-110393669D01*
X147845670Y-110412116D01*
X147845669Y-110412116D01*
X146004328Y-110412116D01*
X145978933Y-110393666D01*
X145810637Y-110307914D01*
X145631002Y-110249548D01*
X145444447Y-110220000D01*
X145255553Y-110220000D01*
X145068997Y-110249548D01*
X144889362Y-110307914D01*
X144721060Y-110393669D01*
X144695670Y-110412116D01*
X144695669Y-110412116D01*
X142854328Y-110412116D01*
X142828933Y-110393666D01*
X142660637Y-110307914D01*
X142481002Y-110249548D01*
X142294447Y-110220000D01*
X142105553Y-110220000D01*
X141918997Y-110249548D01*
X141739362Y-110307914D01*
X141571060Y-110393669D01*
X141545670Y-110412116D01*
X141545669Y-110412116D01*
X140400500Y-110412116D01*
X140400500Y-90615928D01*
X140375502Y-90490261D01*
X140375501Y-90490260D01*
X140375501Y-90490256D01*
X140369935Y-90476819D01*
X140326467Y-90371876D01*
X140324868Y-90369484D01*
X140324860Y-90369460D01*
X140324855Y-90369464D01*
X140255277Y-90265331D01*
X140255275Y-90265329D01*
X140255273Y-90265326D01*
X140255272Y-90265325D01*
X138247137Y-88257191D01*
X138245069Y-88253403D01*
X138241429Y-88251085D01*
X138228468Y-88223001D01*
X138213652Y-88195868D01*
X138213447Y-88190456D01*
X138212151Y-88187646D01*
X138212294Y-88159871D01*
X138212011Y-88152352D01*
X138212165Y-88151245D01*
X138240500Y-87972352D01*
X138240500Y-87767648D01*
X138217356Y-87621523D01*
X138208477Y-87565465D01*
X138150389Y-87386690D01*
X138145220Y-87370781D01*
X138145218Y-87370778D01*
X138145218Y-87370776D01*
X138088774Y-87260000D01*
X138052287Y-87188390D01*
X138020347Y-87144428D01*
X137931971Y-87022786D01*
X137787213Y-86878028D01*
X137621611Y-86757713D01*
X137528369Y-86710203D01*
X137477574Y-86662229D01*
X137460779Y-86594407D01*
X137483317Y-86528273D01*
X137528371Y-86489234D01*
X137621346Y-86441861D01*
X137621347Y-86441861D01*
X137665921Y-86409474D01*
X136986447Y-85730000D01*
X136992661Y-85730000D01*
X137094394Y-85702741D01*
X137185606Y-85650080D01*
X137260080Y-85575606D01*
X137312741Y-85484394D01*
X137340000Y-85382661D01*
X137340000Y-85376447D01*
X138019474Y-86055921D01*
X138051859Y-86011349D01*
X138144755Y-85829031D01*
X138207990Y-85634417D01*
X138240000Y-85432317D01*
X138240000Y-85227682D01*
X138207990Y-85025582D01*
X138144755Y-84830968D01*
X138051859Y-84648650D01*
X138019474Y-84604077D01*
X138019474Y-84604076D01*
X137340000Y-85283551D01*
X137340000Y-85277339D01*
X137312741Y-85175606D01*
X137260080Y-85084394D01*
X137185606Y-85009920D01*
X137094394Y-84957259D01*
X136992661Y-84930000D01*
X136986446Y-84930000D01*
X137665922Y-84250524D01*
X137665921Y-84250523D01*
X137621359Y-84218147D01*
X137621350Y-84218141D01*
X137439031Y-84125244D01*
X137244417Y-84062009D01*
X137042317Y-84030000D01*
X136837683Y-84030000D01*
X136635582Y-84062009D01*
X136440968Y-84125244D01*
X136258644Y-84218143D01*
X136214077Y-84250523D01*
X136214077Y-84250524D01*
X136893554Y-84930000D01*
X136887339Y-84930000D01*
X136785606Y-84957259D01*
X136694394Y-85009920D01*
X136619920Y-85084394D01*
X136567259Y-85175606D01*
X136540000Y-85277339D01*
X136540000Y-85283553D01*
X135860524Y-84604077D01*
X135860523Y-84604077D01*
X135828143Y-84648644D01*
X135780485Y-84742180D01*
X135732510Y-84792976D01*
X135664689Y-84809771D01*
X135598554Y-84787233D01*
X135559515Y-84742180D01*
X135511859Y-84648650D01*
X135479474Y-84604077D01*
X135479474Y-84604076D01*
X134800000Y-85283551D01*
X134800000Y-85277339D01*
X134772741Y-85175606D01*
X134720080Y-85084394D01*
X134645606Y-85009920D01*
X134554394Y-84957259D01*
X134452661Y-84930000D01*
X134446446Y-84930000D01*
X135125922Y-84250524D01*
X135125921Y-84250523D01*
X135081359Y-84218147D01*
X135081350Y-84218141D01*
X134899031Y-84125244D01*
X134704417Y-84062009D01*
X134502317Y-84030000D01*
X134297683Y-84030000D01*
X134095582Y-84062009D01*
X133900968Y-84125244D01*
X133718644Y-84218143D01*
X133674077Y-84250523D01*
X133674077Y-84250524D01*
X134353554Y-84930000D01*
X134347339Y-84930000D01*
X134245606Y-84957259D01*
X134154394Y-85009920D01*
X134079920Y-85084394D01*
X134027259Y-85175606D01*
X134000000Y-85277339D01*
X134000000Y-85283553D01*
X133320524Y-84604077D01*
X133320523Y-84604077D01*
X133288143Y-84648644D01*
X133195244Y-84830968D01*
X133132009Y-85025582D01*
X133100000Y-85227682D01*
X133100000Y-85432317D01*
X133132009Y-85634417D01*
X133195244Y-85829031D01*
X133288141Y-86011350D01*
X133288147Y-86011359D01*
X133320523Y-86055921D01*
X133320524Y-86055922D01*
X134000000Y-85376446D01*
X134000000Y-85382661D01*
X134027259Y-85484394D01*
X134079920Y-85575606D01*
X134154394Y-85650080D01*
X134245606Y-85702741D01*
X134347339Y-85730000D01*
X134353553Y-85730000D01*
X133674076Y-86409474D01*
X133718652Y-86441861D01*
X133811628Y-86489234D01*
X133862425Y-86537208D01*
X133879220Y-86605029D01*
X133856683Y-86671164D01*
X133811630Y-86710203D01*
X133718388Y-86757713D01*
X133552786Y-86878028D01*
X133408028Y-87022786D01*
X133287715Y-87188386D01*
X133194781Y-87370776D01*
X133131522Y-87565465D01*
X133099500Y-87767648D01*
X133099500Y-87972351D01*
X133131522Y-88174534D01*
X133194781Y-88369223D01*
X133244230Y-88466270D01*
X133283048Y-88542455D01*
X133287715Y-88551613D01*
X133408028Y-88717213D01*
X133552786Y-88861971D01*
X133707749Y-88974556D01*
X133718390Y-88982287D01*
X133806166Y-89027011D01*
X133811080Y-89029515D01*
X133861876Y-89077490D01*
X133878671Y-89145311D01*
X133856134Y-89211446D01*
X133811080Y-89250485D01*
X133718386Y-89297715D01*
X133552786Y-89418028D01*
X133408028Y-89562786D01*
X133287715Y-89728386D01*
X133194781Y-89910776D01*
X133131522Y-90105465D01*
X133099500Y-90307648D01*
X133099500Y-90512351D01*
X133131522Y-90714534D01*
X133194781Y-90909223D01*
X133243471Y-91004780D01*
X133287017Y-91090245D01*
X133287715Y-91091613D01*
X133408028Y-91257213D01*
X133552786Y-91401971D01*
X133648539Y-91471538D01*
X133718390Y-91522287D01*
X133809840Y-91568883D01*
X133811080Y-91569515D01*
X133861876Y-91617490D01*
X133878671Y-91685311D01*
X133856134Y-91751446D01*
X133811080Y-91790485D01*
X133718386Y-91837715D01*
X133552786Y-91958028D01*
X133408028Y-92102786D01*
X133287715Y-92268386D01*
X133194781Y-92450776D01*
X133131522Y-92645465D01*
X133099500Y-92847648D01*
X133099500Y-93052351D01*
X133131522Y-93254534D01*
X133194781Y-93449223D01*
X133226004Y-93510500D01*
X133266901Y-93590765D01*
X133287715Y-93631613D01*
X133408028Y-93797213D01*
X133552786Y-93941971D01*
X133665798Y-94024077D01*
X133718390Y-94062287D01*
X133809840Y-94108883D01*
X133811080Y-94109515D01*
X133861876Y-94157490D01*
X133878671Y-94225311D01*
X133856134Y-94291446D01*
X133811080Y-94330485D01*
X133718386Y-94377715D01*
X133552786Y-94498028D01*
X133408028Y-94642786D01*
X133287715Y-94808386D01*
X133194781Y-94990776D01*
X133131522Y-95185465D01*
X133099500Y-95387648D01*
X133099500Y-95592351D01*
X133131522Y-95794534D01*
X133194781Y-95989223D01*
X133252719Y-96102930D01*
X133283964Y-96164253D01*
X133287715Y-96171613D01*
X133408028Y-96337213D01*
X133552786Y-96481971D01*
X133707749Y-96594556D01*
X133718390Y-96602287D01*
X133809840Y-96648883D01*
X133811080Y-96649515D01*
X133861876Y-96697490D01*
X133878671Y-96765311D01*
X133856134Y-96831446D01*
X133811080Y-96870485D01*
X133718386Y-96917715D01*
X133552786Y-97038028D01*
X133408028Y-97182786D01*
X133287715Y-97348386D01*
X133194781Y-97530776D01*
X133131522Y-97725465D01*
X133099500Y-97927648D01*
X133099500Y-98132351D01*
X133131522Y-98334534D01*
X133169040Y-98450000D01*
X133194780Y-98529219D01*
X133287149Y-98710504D01*
X133287715Y-98711613D01*
X133408028Y-98877213D01*
X133552786Y-99021971D01*
X133707749Y-99134556D01*
X133718390Y-99142287D01*
X133809840Y-99188883D01*
X133811080Y-99189515D01*
X133861876Y-99237490D01*
X133878671Y-99305311D01*
X133856134Y-99371446D01*
X133811080Y-99410485D01*
X133718386Y-99457715D01*
X133552786Y-99578028D01*
X133408035Y-99722779D01*
X133405252Y-99726038D01*
X133346742Y-99764227D01*
X133310967Y-99769500D01*
X112902939Y-99769500D01*
X112835900Y-99749815D01*
X112815258Y-99733181D01*
X99590292Y-86508213D01*
X99590288Y-86508210D01*
X99529995Y-86467923D01*
X99459185Y-86420609D01*
X99459172Y-86420602D01*
X99334283Y-86368872D01*
X121459500Y-86368872D01*
X121459500Y-86631127D01*
X121478239Y-86773453D01*
X121493730Y-86891116D01*
X121560717Y-87141116D01*
X121561602Y-87144418D01*
X121561605Y-87144428D01*
X121661953Y-87386690D01*
X121661958Y-87386700D01*
X121793075Y-87613803D01*
X121952718Y-87821851D01*
X121952726Y-87821860D01*
X122138140Y-88007274D01*
X122138148Y-88007281D01*
X122346196Y-88166924D01*
X122573299Y-88298041D01*
X122573309Y-88298046D01*
X122795968Y-88390274D01*
X122815581Y-88398398D01*
X123068884Y-88466270D01*
X123317188Y-88498960D01*
X123325074Y-88499999D01*
X123328880Y-88500500D01*
X123328887Y-88500500D01*
X123591113Y-88500500D01*
X123591120Y-88500500D01*
X123851116Y-88466270D01*
X124104419Y-88398398D01*
X124281340Y-88325114D01*
X124346690Y-88298046D01*
X124346691Y-88298045D01*
X124346697Y-88298043D01*
X124573803Y-88166924D01*
X124781851Y-88007282D01*
X124781855Y-88007277D01*
X124781860Y-88007274D01*
X124967274Y-87821860D01*
X124967277Y-87821855D01*
X124967282Y-87821851D01*
X125126924Y-87613803D01*
X125258043Y-87386697D01*
X125358398Y-87144419D01*
X125426270Y-86891116D01*
X125452539Y-86691588D01*
X125453742Y-86682452D01*
X125453742Y-86682451D01*
X125457417Y-86654534D01*
X125460500Y-86631120D01*
X125460500Y-86368880D01*
X125426270Y-86108884D01*
X125381051Y-85940124D01*
X125382714Y-85870278D01*
X125413143Y-85820355D01*
X126328319Y-84905178D01*
X126389642Y-84871694D01*
X126459334Y-84876678D01*
X126515267Y-84918550D01*
X126539684Y-84984014D01*
X126540000Y-84992860D01*
X126540000Y-86250000D01*
X127820936Y-86250000D01*
X127809207Y-86278316D01*
X127780000Y-86425147D01*
X127780000Y-86574853D01*
X127809207Y-86721684D01*
X127820936Y-86750000D01*
X126540000Y-86750000D01*
X126540000Y-88047844D01*
X126546401Y-88107372D01*
X126546403Y-88107379D01*
X126596645Y-88242086D01*
X126596649Y-88242093D01*
X126682809Y-88357187D01*
X126682812Y-88357190D01*
X126797906Y-88443350D01*
X126797913Y-88443354D01*
X126932620Y-88493596D01*
X126932627Y-88493598D01*
X126992155Y-88499999D01*
X126992172Y-88500000D01*
X128290000Y-88500000D01*
X128290000Y-87219064D01*
X128318316Y-87230793D01*
X128465147Y-87260000D01*
X128614853Y-87260000D01*
X128761684Y-87230793D01*
X128790000Y-87219064D01*
X128790000Y-88500000D01*
X130087828Y-88500000D01*
X130087844Y-88499999D01*
X130147372Y-88493598D01*
X130147379Y-88493596D01*
X130282086Y-88443354D01*
X130282093Y-88443350D01*
X130397187Y-88357190D01*
X130397190Y-88357187D01*
X130483350Y-88242093D01*
X130483354Y-88242086D01*
X130533596Y-88107379D01*
X130533598Y-88107372D01*
X130539999Y-88047844D01*
X130540000Y-88047827D01*
X130540000Y-86750000D01*
X129259064Y-86750000D01*
X129270793Y-86721684D01*
X129300000Y-86574853D01*
X129300000Y-86425147D01*
X129270793Y-86278316D01*
X129259064Y-86250000D01*
X130540000Y-86250000D01*
X130540000Y-84952172D01*
X130539999Y-84952155D01*
X130533598Y-84892627D01*
X130533596Y-84892620D01*
X130483354Y-84757913D01*
X130483350Y-84757906D01*
X130397190Y-84642812D01*
X130397187Y-84642809D01*
X130282093Y-84556649D01*
X130282086Y-84556645D01*
X130147379Y-84506403D01*
X130147372Y-84506401D01*
X130087844Y-84500000D01*
X128790000Y-84500000D01*
X128790000Y-85780935D01*
X128761684Y-85769207D01*
X128614853Y-85740000D01*
X128465147Y-85740000D01*
X128318316Y-85769207D01*
X128290000Y-85780935D01*
X128290000Y-84500000D01*
X127033025Y-84500000D01*
X127000622Y-84490485D01*
X126968020Y-84481595D01*
X126967183Y-84480666D01*
X126965986Y-84480315D01*
X126943884Y-84454809D01*
X126921250Y-84429688D01*
X126921048Y-84428453D01*
X126920231Y-84427511D01*
X126915425Y-84394090D01*
X126909968Y-84360735D01*
X126910464Y-84359589D01*
X126910287Y-84358353D01*
X126924323Y-84327616D01*
X126937756Y-84296629D01*
X126938976Y-84295530D01*
X126939312Y-84294797D01*
X126963976Y-84273004D01*
X126964459Y-84272680D01*
X127018537Y-84236547D01*
X127074036Y-84199464D01*
X128836681Y-82436819D01*
X128898004Y-82403334D01*
X128924362Y-82400500D01*
X136775638Y-82400500D01*
X136842677Y-82420185D01*
X136863319Y-82436819D01*
X138696402Y-84269901D01*
X140500536Y-86074035D01*
X140564529Y-86138028D01*
X140625966Y-86199465D01*
X140744757Y-86278839D01*
X140773453Y-86298013D01*
X140855393Y-86331953D01*
X140937334Y-86365895D01*
X141111303Y-86400499D01*
X141111307Y-86400500D01*
X141111308Y-86400500D01*
X141111309Y-86400500D01*
X148075638Y-86400500D01*
X148142677Y-86420185D01*
X148163319Y-86436819D01*
X149263181Y-87536681D01*
X149296666Y-87598004D01*
X149299500Y-87624362D01*
X149299500Y-92225500D01*
X149279815Y-92292539D01*
X149227011Y-92338294D01*
X149175500Y-92349500D01*
X147822620Y-92349500D01*
X147755581Y-92329815D01*
X147709826Y-92277011D01*
X147699330Y-92238753D01*
X147694091Y-92190016D01*
X147643797Y-92055171D01*
X147643793Y-92055164D01*
X147557547Y-91939955D01*
X147557544Y-91939952D01*
X147442335Y-91853706D01*
X147442328Y-91853702D01*
X147414459Y-91843308D01*
X147358525Y-91801437D01*
X147334108Y-91735973D01*
X147348960Y-91667700D01*
X147357460Y-91654260D01*
X147490217Y-91471538D01*
X147594048Y-91267758D01*
X147624841Y-91172987D01*
X147664721Y-91050249D01*
X147664721Y-91050248D01*
X147664722Y-91050245D01*
X147700500Y-90824354D01*
X147700500Y-90595646D01*
X147664722Y-90369755D01*
X147664721Y-90369751D01*
X147664721Y-90369750D01*
X147594049Y-90152244D01*
X147542543Y-90051158D01*
X147490217Y-89948462D01*
X147355786Y-89763434D01*
X147194066Y-89601714D01*
X147109134Y-89540007D01*
X147066470Y-89484678D01*
X147060491Y-89415064D01*
X147093097Y-89353269D01*
X147109137Y-89339371D01*
X147193739Y-89277905D01*
X147355402Y-89116242D01*
X147489788Y-88931276D01*
X147593582Y-88727570D01*
X147664234Y-88510128D01*
X147678509Y-88420000D01*
X146690748Y-88420000D01*
X146712518Y-88382292D01*
X146750000Y-88242409D01*
X146750000Y-88097591D01*
X146712518Y-87957708D01*
X146690748Y-87920000D01*
X147678509Y-87920000D01*
X147664234Y-87829871D01*
X147593582Y-87612429D01*
X147489788Y-87408723D01*
X147355402Y-87223757D01*
X147193742Y-87062097D01*
X147008776Y-86927711D01*
X146805068Y-86823917D01*
X146587625Y-86753265D01*
X146587626Y-86753265D01*
X146450000Y-86731467D01*
X146450000Y-87679252D01*
X146412292Y-87657482D01*
X146272409Y-87620000D01*
X146127591Y-87620000D01*
X145987708Y-87657482D01*
X145950000Y-87679252D01*
X145950000Y-86731467D01*
X145812374Y-86753265D01*
X145594931Y-86823917D01*
X145391223Y-86927711D01*
X145206257Y-87062097D01*
X145044597Y-87223757D01*
X144910211Y-87408723D01*
X144806417Y-87612429D01*
X144735765Y-87829871D01*
X144721491Y-87920000D01*
X145709252Y-87920000D01*
X145687482Y-87957708D01*
X145650000Y-88097591D01*
X145650000Y-88242409D01*
X145687482Y-88382292D01*
X145709252Y-88420000D01*
X144721491Y-88420000D01*
X144735765Y-88510128D01*
X144806417Y-88727570D01*
X144910211Y-88931276D01*
X145044597Y-89116242D01*
X145206257Y-89277902D01*
X145206263Y-89277907D01*
X145290863Y-89339372D01*
X145333529Y-89394701D01*
X145339508Y-89464315D01*
X145306903Y-89526110D01*
X145290864Y-89540007D01*
X145205940Y-89601709D01*
X145205931Y-89601716D01*
X145044216Y-89763431D01*
X145044216Y-89763432D01*
X145044214Y-89763434D01*
X144994670Y-89831625D01*
X144909783Y-89948461D01*
X144805950Y-90152244D01*
X144735278Y-90369750D01*
X144735278Y-90369753D01*
X144708483Y-90538928D01*
X144699500Y-90595646D01*
X144699500Y-90824354D01*
X144707916Y-90877490D01*
X144735278Y-91050246D01*
X144735278Y-91050249D01*
X144805950Y-91267755D01*
X144854371Y-91362786D01*
X144909783Y-91471538D01*
X145042525Y-91654242D01*
X145066005Y-91720046D01*
X145050180Y-91788100D01*
X145000074Y-91836795D01*
X144985541Y-91843308D01*
X144957670Y-91853703D01*
X144957664Y-91853706D01*
X144842455Y-91939952D01*
X144842452Y-91939955D01*
X144756206Y-92055164D01*
X144756202Y-92055171D01*
X144705908Y-92190017D01*
X144699501Y-92249616D01*
X144699500Y-92249635D01*
X144699500Y-93425637D01*
X144679815Y-93492676D01*
X144663181Y-93513318D01*
X144000540Y-94175958D01*
X144000537Y-94175961D01*
X143984810Y-94199500D01*
X143901985Y-94323455D01*
X143868046Y-94405393D01*
X143834107Y-94487327D01*
X143834105Y-94487333D01*
X143834105Y-94487334D01*
X143806900Y-94624106D01*
X143806900Y-94624107D01*
X143799500Y-94661307D01*
X143799500Y-97837770D01*
X143779815Y-97904809D01*
X143763181Y-97925451D01*
X143757289Y-97931342D01*
X143665187Y-98080663D01*
X143665186Y-98080666D01*
X143610001Y-98247203D01*
X143610001Y-98247204D01*
X143610000Y-98247204D01*
X143599500Y-98349983D01*
X143599500Y-99150001D01*
X143599501Y-99150019D01*
X143610000Y-99252796D01*
X143610001Y-99252799D01*
X143659441Y-99401996D01*
X143665186Y-99419334D01*
X143757288Y-99568656D01*
X143881344Y-99692712D01*
X144030666Y-99784814D01*
X144197203Y-99839999D01*
X144299991Y-99850500D01*
X145100008Y-99850499D01*
X145100016Y-99850498D01*
X145100019Y-99850498D01*
X145156302Y-99844748D01*
X145202797Y-99839999D01*
X145369334Y-99784814D01*
X145508464Y-99698997D01*
X145575853Y-99680559D01*
X145629854Y-99694054D01*
X145777740Y-99769407D01*
X145942415Y-99822914D01*
X146113429Y-99850000D01*
X146286571Y-99850000D01*
X146457584Y-99822914D01*
X146622257Y-99769408D01*
X146776525Y-99690803D01*
X146782736Y-99686289D01*
X146141301Y-99044854D01*
X146160504Y-99050000D01*
X146239496Y-99050000D01*
X146315796Y-99029556D01*
X146384205Y-98990060D01*
X146440060Y-98934205D01*
X146479556Y-98865796D01*
X146500000Y-98789496D01*
X146500000Y-98749999D01*
X146553553Y-98749999D01*
X146553553Y-98750000D01*
X147136289Y-99332736D01*
X147140803Y-99326525D01*
X147219408Y-99172257D01*
X147272914Y-99007584D01*
X147300000Y-98836571D01*
X147300000Y-98663428D01*
X147272914Y-98492415D01*
X147219408Y-98327742D01*
X147140801Y-98173471D01*
X147136290Y-98167262D01*
X147136289Y-98167261D01*
X146553553Y-98749999D01*
X146500000Y-98749999D01*
X146500000Y-98710504D01*
X146479556Y-98634204D01*
X146440060Y-98565795D01*
X146384205Y-98509940D01*
X146315796Y-98470444D01*
X146239496Y-98450000D01*
X146160504Y-98450000D01*
X146141300Y-98455145D01*
X146782737Y-97813709D01*
X146776525Y-97809196D01*
X146622259Y-97730592D01*
X146457584Y-97677085D01*
X146286571Y-97650000D01*
X146113429Y-97650000D01*
X145942415Y-97677085D01*
X145777736Y-97730594D01*
X145773238Y-97732457D01*
X145772473Y-97730611D01*
X145712064Y-97741926D01*
X145647337Y-97715617D01*
X145607108Y-97658490D01*
X145600500Y-97618551D01*
X145600500Y-95174360D01*
X145620185Y-95107321D01*
X145636815Y-95086683D01*
X145984180Y-94739317D01*
X146045503Y-94705833D01*
X146071861Y-94702999D01*
X147247871Y-94702999D01*
X147247872Y-94702999D01*
X147307483Y-94696591D01*
X147442331Y-94646296D01*
X147557546Y-94560046D01*
X147643796Y-94444831D01*
X147694091Y-94309983D01*
X147699331Y-94261241D01*
X147726068Y-94196694D01*
X147783461Y-94156846D01*
X147822620Y-94150500D01*
X149175500Y-94150500D01*
X149242539Y-94170185D01*
X149288294Y-94222989D01*
X149299500Y-94274500D01*
X149299500Y-99888696D01*
X149334103Y-100062658D01*
X149334105Y-100062666D01*
X149365155Y-100137627D01*
X149365158Y-100137632D01*
X149367569Y-100143453D01*
X149401987Y-100226547D01*
X149455968Y-100307334D01*
X149459237Y-100312227D01*
X149459239Y-100312230D01*
X149500537Y-100374038D01*
X149500540Y-100374041D01*
X152125964Y-102999464D01*
X152125966Y-102999466D01*
X152160326Y-103022423D01*
X152185040Y-103038936D01*
X152273453Y-103098013D01*
X152355393Y-103131953D01*
X152361480Y-103134474D01*
X152361485Y-103134477D01*
X152397940Y-103149577D01*
X152437334Y-103165895D01*
X152566489Y-103191585D01*
X152611303Y-103200499D01*
X152611307Y-103200500D01*
X152611308Y-103200500D01*
X152611309Y-103200500D01*
X154415638Y-103200500D01*
X154482677Y-103220185D01*
X154503319Y-103236819D01*
X154863181Y-103596681D01*
X154896666Y-103658004D01*
X154899500Y-103684362D01*
X154899500Y-103816287D01*
X154932754Y-104026243D01*
X154988195Y-104196873D01*
X154998444Y-104228414D01*
X155094951Y-104417820D01*
X155219890Y-104589786D01*
X155370213Y-104740109D01*
X155542182Y-104865050D01*
X155550946Y-104869516D01*
X155601742Y-104917491D01*
X155618536Y-104985312D01*
X155595998Y-105051447D01*
X155550946Y-105090484D01*
X155542182Y-105094949D01*
X155370213Y-105219890D01*
X155219890Y-105370213D01*
X155094951Y-105542179D01*
X154998444Y-105731585D01*
X154932753Y-105933760D01*
X154899500Y-106143713D01*
X154899500Y-106356287D01*
X154909534Y-106419644D01*
X154932753Y-106566239D01*
X154998444Y-106768414D01*
X155094951Y-106957820D01*
X155219890Y-107129786D01*
X155333818Y-107243714D01*
X155367303Y-107305037D01*
X155362319Y-107374729D01*
X155320447Y-107430662D01*
X155289471Y-107447577D01*
X155157912Y-107496646D01*
X155157906Y-107496649D01*
X155042812Y-107582809D01*
X155042809Y-107582812D01*
X154956649Y-107697906D01*
X154956645Y-107697913D01*
X154906403Y-107832620D01*
X154906401Y-107832627D01*
X154900000Y-107892155D01*
X154900000Y-108540000D01*
X155816988Y-108540000D01*
X155784075Y-108597007D01*
X155750000Y-108724174D01*
X155750000Y-108855826D01*
X155784075Y-108982993D01*
X155816988Y-109040000D01*
X154900000Y-109040000D01*
X154900000Y-109687844D01*
X154906401Y-109747372D01*
X154906403Y-109747379D01*
X154956645Y-109882086D01*
X154956649Y-109882093D01*
X155042809Y-109997187D01*
X155042812Y-109997190D01*
X155157906Y-110083350D01*
X155157913Y-110083354D01*
X155292620Y-110133596D01*
X155292627Y-110133598D01*
X155352155Y-110139999D01*
X155352172Y-110140000D01*
X156000000Y-110140000D01*
X156000000Y-109223012D01*
X156057007Y-109255925D01*
X156184174Y-109290000D01*
X156315826Y-109290000D01*
X156442993Y-109255925D01*
X156500000Y-109223012D01*
X156500000Y-110140000D01*
X157147828Y-110140000D01*
X157147844Y-110139999D01*
X157207372Y-110133598D01*
X157207379Y-110133596D01*
X157342086Y-110083354D01*
X157342093Y-110083350D01*
X157457187Y-109997190D01*
X157457190Y-109997187D01*
X157543350Y-109882093D01*
X157543354Y-109882086D01*
X157593596Y-109747379D01*
X157593598Y-109747372D01*
X157599999Y-109687844D01*
X157600000Y-109687827D01*
X157600000Y-109040000D01*
X156683012Y-109040000D01*
X156715925Y-108982993D01*
X156750000Y-108855826D01*
X156750000Y-108724174D01*
X156715925Y-108597007D01*
X156683012Y-108540000D01*
X157600000Y-108540000D01*
X157600000Y-107892172D01*
X157599999Y-107892155D01*
X157593598Y-107832627D01*
X157593596Y-107832620D01*
X157543354Y-107697913D01*
X157543350Y-107697906D01*
X157457190Y-107582812D01*
X157457187Y-107582809D01*
X157342093Y-107496649D01*
X157342088Y-107496646D01*
X157210528Y-107447577D01*
X157154595Y-107405705D01*
X157130178Y-107340241D01*
X157145030Y-107271968D01*
X157166175Y-107243720D01*
X157280104Y-107129792D01*
X157287827Y-107119163D01*
X157405048Y-106957820D01*
X157405047Y-106957820D01*
X157405051Y-106957816D01*
X157501557Y-106768412D01*
X157567246Y-106566243D01*
X157600500Y-106356287D01*
X157600500Y-106143713D01*
X157567246Y-105933757D01*
X157501557Y-105731588D01*
X157405051Y-105542184D01*
X157405049Y-105542181D01*
X157405048Y-105542179D01*
X157280109Y-105370213D01*
X157129786Y-105219890D01*
X156957820Y-105094951D01*
X156957115Y-105094591D01*
X156949054Y-105090485D01*
X156898259Y-105042512D01*
X156881463Y-104974692D01*
X156903999Y-104908556D01*
X156949054Y-104869515D01*
X156957816Y-104865051D01*
X156985870Y-104844669D01*
X157129786Y-104740109D01*
X157129788Y-104740106D01*
X157129792Y-104740104D01*
X157280104Y-104589792D01*
X157280106Y-104589788D01*
X157280109Y-104589786D01*
X157405048Y-104417820D01*
X157405047Y-104417820D01*
X157405051Y-104417816D01*
X157501557Y-104228412D01*
X157567246Y-104026243D01*
X157600500Y-103816287D01*
X157600500Y-103603713D01*
X157567246Y-103393757D01*
X157501557Y-103191588D01*
X157405051Y-103002184D01*
X157405049Y-103002181D01*
X157405048Y-103002179D01*
X157280109Y-102830213D01*
X157129786Y-102679890D01*
X156957820Y-102554951D01*
X156768414Y-102458444D01*
X156768413Y-102458443D01*
X156768412Y-102458443D01*
X156566243Y-102392754D01*
X156566241Y-102392753D01*
X156566240Y-102392753D01*
X156404957Y-102367208D01*
X156356287Y-102359500D01*
X156356286Y-102359500D01*
X156224362Y-102359500D01*
X156157323Y-102339815D01*
X156136681Y-102323181D01*
X155414035Y-101600535D01*
X155414030Y-101600531D01*
X155359622Y-101564178D01*
X155359616Y-101564175D01*
X155354959Y-101561063D01*
X155266547Y-101501987D01*
X155184606Y-101468046D01*
X155177025Y-101464906D01*
X155102666Y-101434105D01*
X155102658Y-101434103D01*
X154928696Y-101399500D01*
X154928692Y-101399500D01*
X154928691Y-101399500D01*
X153124362Y-101399500D01*
X153057323Y-101379815D01*
X153036681Y-101363181D01*
X151136819Y-99463319D01*
X151103334Y-99401996D01*
X151100500Y-99375638D01*
X151100500Y-94314500D01*
X151120185Y-94247461D01*
X151172989Y-94201706D01*
X151224500Y-94190500D01*
X153178308Y-94190500D01*
X153188075Y-94193368D01*
X153198178Y-94192102D01*
X153221037Y-94203046D01*
X153245347Y-94210185D01*
X153252012Y-94217877D01*
X153261197Y-94222275D01*
X153274509Y-94243840D01*
X153291102Y-94262989D01*
X153292550Y-94273065D01*
X153297899Y-94281729D01*
X153297439Y-94307064D01*
X153301046Y-94332147D01*
X153296782Y-94343267D01*
X153296632Y-94351587D01*
X153286239Y-94370770D01*
X153281390Y-94383420D01*
X153277980Y-94388519D01*
X153277937Y-94388563D01*
X153255605Y-94421985D01*
X153254570Y-94423534D01*
X153254570Y-94423535D01*
X153179386Y-94536054D01*
X153179385Y-94536056D01*
X153153107Y-94599499D01*
X153153107Y-94599500D01*
X153111506Y-94699932D01*
X153111504Y-94699940D01*
X153076901Y-94873902D01*
X153076901Y-97837770D01*
X153057216Y-97904809D01*
X153040582Y-97925451D01*
X153034690Y-97931342D01*
X152942588Y-98080663D01*
X152942587Y-98080666D01*
X152887402Y-98247203D01*
X152887402Y-98247204D01*
X152887401Y-98247204D01*
X152876901Y-98349983D01*
X152876901Y-99150001D01*
X152876902Y-99150019D01*
X152887401Y-99252796D01*
X152887402Y-99252799D01*
X152936842Y-99401996D01*
X152942587Y-99419334D01*
X153034689Y-99568656D01*
X153158745Y-99692712D01*
X153308067Y-99784814D01*
X153474604Y-99839999D01*
X153577392Y-99850500D01*
X154377409Y-99850499D01*
X154377417Y-99850498D01*
X154377420Y-99850498D01*
X154433703Y-99844748D01*
X154480198Y-99839999D01*
X154646735Y-99784814D01*
X154785865Y-99698997D01*
X154853254Y-99680559D01*
X154907255Y-99694054D01*
X155055141Y-99769407D01*
X155219816Y-99822914D01*
X155390830Y-99850000D01*
X155563972Y-99850000D01*
X155734985Y-99822914D01*
X155899658Y-99769408D01*
X156053926Y-99690803D01*
X156060137Y-99686289D01*
X155418702Y-99044854D01*
X155437905Y-99050000D01*
X155516897Y-99050000D01*
X155593197Y-99029556D01*
X155661606Y-98990060D01*
X155717461Y-98934205D01*
X155756957Y-98865796D01*
X155777401Y-98789496D01*
X155777401Y-98749999D01*
X155830954Y-98749999D01*
X155830954Y-98750001D01*
X156413690Y-99332737D01*
X156413690Y-99332736D01*
X156418204Y-99326525D01*
X156496809Y-99172257D01*
X156550315Y-99007584D01*
X156577401Y-98836571D01*
X156577401Y-98663428D01*
X156550315Y-98492415D01*
X156496809Y-98327742D01*
X156418202Y-98173471D01*
X156413691Y-98167262D01*
X156413690Y-98167261D01*
X155830954Y-98749999D01*
X155777401Y-98749999D01*
X155777401Y-98710504D01*
X155756957Y-98634204D01*
X155717461Y-98565795D01*
X155661606Y-98509940D01*
X155593197Y-98470444D01*
X155516897Y-98450000D01*
X155437905Y-98450000D01*
X155418701Y-98455145D01*
X156060138Y-97813709D01*
X156053926Y-97809196D01*
X155899660Y-97730592D01*
X155734985Y-97677085D01*
X155563972Y-97650000D01*
X155390830Y-97650000D01*
X155219816Y-97677085D01*
X155055137Y-97730594D01*
X155050639Y-97732457D01*
X155049874Y-97730611D01*
X154989465Y-97741926D01*
X154924738Y-97715617D01*
X154884509Y-97658490D01*
X154877901Y-97618551D01*
X154877901Y-97118872D01*
X161249500Y-97118872D01*
X161249500Y-97381127D01*
X161269203Y-97530776D01*
X161283730Y-97641116D01*
X161351602Y-97894418D01*
X161351605Y-97894428D01*
X161451953Y-98136690D01*
X161451958Y-98136700D01*
X161583075Y-98363803D01*
X161742718Y-98571851D01*
X161742726Y-98571860D01*
X161928140Y-98757274D01*
X161928148Y-98757281D01*
X161928149Y-98757282D01*
X161970131Y-98789496D01*
X162136196Y-98916924D01*
X162363299Y-99048041D01*
X162363309Y-99048046D01*
X162605571Y-99148394D01*
X162605581Y-99148398D01*
X162858884Y-99216270D01*
X163118880Y-99250500D01*
X163118887Y-99250500D01*
X163381113Y-99250500D01*
X163381120Y-99250500D01*
X163641116Y-99216270D01*
X163894419Y-99148398D01*
X164131970Y-99050001D01*
X164136690Y-99048046D01*
X164136691Y-99048045D01*
X164136697Y-99048043D01*
X164363803Y-98916924D01*
X164571851Y-98757282D01*
X164571855Y-98757277D01*
X164571860Y-98757274D01*
X164757274Y-98571860D01*
X164757277Y-98571855D01*
X164757282Y-98571851D01*
X164916924Y-98363803D01*
X165048043Y-98136697D01*
X165148398Y-97894419D01*
X165216270Y-97641116D01*
X165250500Y-97381120D01*
X165250500Y-97118880D01*
X165216270Y-96858884D01*
X165148398Y-96605581D01*
X165108927Y-96510289D01*
X165048046Y-96363309D01*
X165048041Y-96363299D01*
X164916924Y-96136196D01*
X164757281Y-95928148D01*
X164757274Y-95928140D01*
X164571860Y-95742726D01*
X164571851Y-95742718D01*
X164363803Y-95583075D01*
X164136700Y-95451958D01*
X164136690Y-95451953D01*
X163894428Y-95351605D01*
X163894421Y-95351603D01*
X163894419Y-95351602D01*
X163641116Y-95283730D01*
X163583339Y-95276123D01*
X163381127Y-95249500D01*
X163381120Y-95249500D01*
X163118880Y-95249500D01*
X163118872Y-95249500D01*
X162887772Y-95279926D01*
X162858884Y-95283730D01*
X162605581Y-95351602D01*
X162605571Y-95351605D01*
X162363309Y-95451953D01*
X162363299Y-95451958D01*
X162136196Y-95583075D01*
X161928148Y-95742718D01*
X161742718Y-95928148D01*
X161583075Y-96136196D01*
X161451958Y-96363299D01*
X161451953Y-96363309D01*
X161351605Y-96605571D01*
X161351602Y-96605581D01*
X161315746Y-96739400D01*
X161283730Y-96858885D01*
X161249500Y-97118872D01*
X154877901Y-97118872D01*
X154877901Y-95386960D01*
X154897586Y-95319921D01*
X154914216Y-95299283D01*
X155434181Y-94779317D01*
X155495504Y-94745833D01*
X155521862Y-94742999D01*
X156697871Y-94742999D01*
X156697872Y-94742999D01*
X156757483Y-94736591D01*
X156892331Y-94686296D01*
X157007546Y-94600046D01*
X157093796Y-94484831D01*
X157144091Y-94349983D01*
X157150500Y-94290373D01*
X157150499Y-92289628D01*
X157144091Y-92230017D01*
X157142406Y-92225500D01*
X157093797Y-92095171D01*
X157093793Y-92095164D01*
X157007547Y-91979955D01*
X157007544Y-91979952D01*
X156892335Y-91893706D01*
X156892328Y-91893702D01*
X156864459Y-91883308D01*
X156808525Y-91841437D01*
X156784108Y-91775973D01*
X156798960Y-91707700D01*
X156807460Y-91694260D01*
X156940217Y-91511538D01*
X157044048Y-91307758D01*
X157103278Y-91125466D01*
X157114721Y-91090249D01*
X157114721Y-91090248D01*
X157114722Y-91090245D01*
X157150500Y-90864354D01*
X157150500Y-90635646D01*
X157114722Y-90409755D01*
X157114721Y-90409751D01*
X157114721Y-90409750D01*
X157044049Y-90192244D01*
X156972162Y-90051158D01*
X156940217Y-89988462D01*
X156805786Y-89803434D01*
X156644066Y-89641714D01*
X156559134Y-89580007D01*
X156516470Y-89524678D01*
X156510491Y-89455064D01*
X156543097Y-89393269D01*
X156559137Y-89379371D01*
X156643739Y-89317905D01*
X156805402Y-89156242D01*
X156939788Y-88971276D01*
X157043582Y-88767570D01*
X157114234Y-88550128D01*
X157128509Y-88460000D01*
X156140748Y-88460000D01*
X156162518Y-88422292D01*
X156200000Y-88282409D01*
X156200000Y-88137591D01*
X156162518Y-87997708D01*
X156140748Y-87960000D01*
X157128509Y-87960000D01*
X157114234Y-87869871D01*
X157043582Y-87652429D01*
X156939788Y-87448723D01*
X156805402Y-87263757D01*
X156643742Y-87102097D01*
X156458776Y-86967711D01*
X156255068Y-86863917D01*
X156037625Y-86793265D01*
X156037626Y-86793265D01*
X155900000Y-86771467D01*
X155900000Y-87719252D01*
X155862292Y-87697482D01*
X155722409Y-87660000D01*
X155577591Y-87660000D01*
X155437708Y-87697482D01*
X155400000Y-87719252D01*
X155400000Y-86771467D01*
X155262374Y-86793265D01*
X155044931Y-86863917D01*
X154841223Y-86967711D01*
X154656257Y-87102097D01*
X154494597Y-87263757D01*
X154360211Y-87448723D01*
X154256417Y-87652429D01*
X154185765Y-87869871D01*
X154171491Y-87960000D01*
X155159252Y-87960000D01*
X155137482Y-87997708D01*
X155100000Y-88137591D01*
X155100000Y-88282409D01*
X155137482Y-88422292D01*
X155159252Y-88460000D01*
X154171491Y-88460000D01*
X154185765Y-88550128D01*
X154256417Y-88767570D01*
X154360211Y-88971276D01*
X154494597Y-89156242D01*
X154656257Y-89317902D01*
X154656263Y-89317907D01*
X154740863Y-89379372D01*
X154783529Y-89434701D01*
X154789508Y-89504315D01*
X154756903Y-89566110D01*
X154740864Y-89580007D01*
X154655940Y-89641709D01*
X154655931Y-89641716D01*
X154494216Y-89803431D01*
X154494216Y-89803432D01*
X154494214Y-89803434D01*
X154473732Y-89831625D01*
X154359783Y-89988461D01*
X154255950Y-90192244D01*
X154185278Y-90409750D01*
X154185278Y-90409753D01*
X154171800Y-90494851D01*
X154149500Y-90635646D01*
X154149500Y-90864354D01*
X154166938Y-90974450D01*
X154185278Y-91090246D01*
X154185278Y-91090249D01*
X154255950Y-91307755D01*
X154339402Y-91471538D01*
X154359783Y-91511538D01*
X154492525Y-91694242D01*
X154516005Y-91760046D01*
X154500180Y-91828100D01*
X154450074Y-91876795D01*
X154435541Y-91883308D01*
X154407670Y-91893703D01*
X154407664Y-91893706D01*
X154292455Y-91979952D01*
X154292452Y-91979955D01*
X154206206Y-92095164D01*
X154206202Y-92095171D01*
X154155910Y-92230013D01*
X154155909Y-92230017D01*
X154150668Y-92278758D01*
X154123932Y-92343306D01*
X154066539Y-92383154D01*
X154027380Y-92389500D01*
X151224500Y-92389500D01*
X151157461Y-92369815D01*
X151111706Y-92317011D01*
X151100500Y-92265500D01*
X151100500Y-87111309D01*
X151097180Y-87094616D01*
X151095532Y-87086329D01*
X151095532Y-87086328D01*
X151065896Y-86937341D01*
X151065895Y-86937334D01*
X151019557Y-86825466D01*
X150998013Y-86773453D01*
X150938936Y-86685040D01*
X150918553Y-86654534D01*
X150899466Y-86625966D01*
X149074035Y-84800535D01*
X149074030Y-84800531D01*
X149019248Y-84763928D01*
X149019241Y-84763924D01*
X149014959Y-84761063D01*
X148926547Y-84701987D01*
X148851126Y-84670746D01*
X148851125Y-84670746D01*
X148844606Y-84668046D01*
X148762666Y-84634105D01*
X148762658Y-84634103D01*
X148588696Y-84599500D01*
X148588692Y-84599500D01*
X148588691Y-84599500D01*
X141624361Y-84599500D01*
X141557322Y-84579815D01*
X141536680Y-84563181D01*
X139408015Y-82434515D01*
X139323483Y-82349983D01*
X143599500Y-82349983D01*
X143599500Y-83150001D01*
X143599501Y-83150019D01*
X143610000Y-83252796D01*
X143610001Y-83252799D01*
X143647646Y-83366403D01*
X143665186Y-83419334D01*
X143757288Y-83568656D01*
X143881344Y-83692712D01*
X144030666Y-83784814D01*
X144197203Y-83839999D01*
X144299991Y-83850500D01*
X145100008Y-83850499D01*
X145100016Y-83850498D01*
X145100019Y-83850498D01*
X145156302Y-83844748D01*
X145202797Y-83839999D01*
X145369334Y-83784814D01*
X145508464Y-83698997D01*
X145575853Y-83680559D01*
X145629854Y-83694054D01*
X145777740Y-83769407D01*
X145942415Y-83822914D01*
X146113429Y-83850000D01*
X146286571Y-83850000D01*
X146457584Y-83822914D01*
X146622257Y-83769408D01*
X146776525Y-83690803D01*
X146782736Y-83686289D01*
X146141301Y-83044854D01*
X146160504Y-83050000D01*
X146239496Y-83050000D01*
X146315796Y-83029556D01*
X146384205Y-82990060D01*
X146440060Y-82934205D01*
X146479556Y-82865796D01*
X146500000Y-82789496D01*
X146500000Y-82749999D01*
X146553553Y-82749999D01*
X146553553Y-82750000D01*
X147136289Y-83332736D01*
X147140803Y-83326525D01*
X147219408Y-83172257D01*
X147272914Y-83007584D01*
X147300000Y-82836571D01*
X147300000Y-82663428D01*
X147272914Y-82492415D01*
X147238062Y-82385153D01*
X147226635Y-82349983D01*
X153099500Y-82349983D01*
X153099500Y-83150001D01*
X153099501Y-83150019D01*
X153110000Y-83252796D01*
X153110001Y-83252799D01*
X153147646Y-83366403D01*
X153165186Y-83419334D01*
X153257288Y-83568656D01*
X153381344Y-83692712D01*
X153530666Y-83784814D01*
X153697203Y-83839999D01*
X153799991Y-83850500D01*
X154600008Y-83850499D01*
X154600016Y-83850498D01*
X154600019Y-83850498D01*
X154656302Y-83844748D01*
X154702797Y-83839999D01*
X154869334Y-83784814D01*
X155008464Y-83698997D01*
X155075853Y-83680559D01*
X155129854Y-83694054D01*
X155277740Y-83769407D01*
X155442415Y-83822914D01*
X155613429Y-83850000D01*
X155786571Y-83850000D01*
X155957584Y-83822914D01*
X156122257Y-83769408D01*
X156276525Y-83690803D01*
X156282736Y-83686289D01*
X155641301Y-83044854D01*
X155660504Y-83050000D01*
X155739496Y-83050000D01*
X155815796Y-83029556D01*
X155884205Y-82990060D01*
X155940060Y-82934205D01*
X155979556Y-82865796D01*
X156000000Y-82789496D01*
X156000000Y-82749999D01*
X156053553Y-82749999D01*
X156053553Y-82750000D01*
X156636289Y-83332736D01*
X156640803Y-83326525D01*
X156719408Y-83172257D01*
X156772914Y-83007584D01*
X156800000Y-82836571D01*
X156800000Y-82663428D01*
X156772914Y-82492415D01*
X156719408Y-82327742D01*
X156640801Y-82173471D01*
X156636290Y-82167262D01*
X156636289Y-82167261D01*
X156053553Y-82749999D01*
X156000000Y-82749999D01*
X156000000Y-82710504D01*
X155979556Y-82634204D01*
X155940060Y-82565795D01*
X155884205Y-82509940D01*
X155815796Y-82470444D01*
X155739496Y-82450000D01*
X155660504Y-82450000D01*
X155641300Y-82455145D01*
X156282737Y-81813709D01*
X156276525Y-81809196D01*
X156122259Y-81730592D01*
X155957584Y-81677085D01*
X155786571Y-81650000D01*
X155613429Y-81650000D01*
X155442415Y-81677085D01*
X155277742Y-81730591D01*
X155129853Y-81805946D01*
X155061184Y-81818842D01*
X155008462Y-81801000D01*
X154869340Y-81715189D01*
X154869335Y-81715187D01*
X154869334Y-81715186D01*
X154702797Y-81660001D01*
X154702795Y-81660000D01*
X154600010Y-81649500D01*
X153799998Y-81649500D01*
X153799980Y-81649501D01*
X153697203Y-81660000D01*
X153697200Y-81660001D01*
X153530668Y-81715185D01*
X153530663Y-81715187D01*
X153381342Y-81807289D01*
X153257289Y-81931342D01*
X153165187Y-82080663D01*
X153165185Y-82080668D01*
X153140977Y-82153723D01*
X153110001Y-82247203D01*
X153110001Y-82247204D01*
X153110000Y-82247204D01*
X153099500Y-82349983D01*
X147226635Y-82349983D01*
X147219408Y-82327742D01*
X147140801Y-82173471D01*
X147136290Y-82167262D01*
X147136289Y-82167261D01*
X146553553Y-82749999D01*
X146500000Y-82749999D01*
X146500000Y-82710504D01*
X146479556Y-82634204D01*
X146440060Y-82565795D01*
X146384205Y-82509940D01*
X146315796Y-82470444D01*
X146239496Y-82450000D01*
X146160504Y-82450000D01*
X146141300Y-82455145D01*
X146782737Y-81813709D01*
X146776525Y-81809196D01*
X146622259Y-81730592D01*
X146457584Y-81677085D01*
X146286571Y-81650000D01*
X146113429Y-81650000D01*
X145942415Y-81677085D01*
X145777742Y-81730591D01*
X145629853Y-81805946D01*
X145561184Y-81818842D01*
X145508462Y-81801000D01*
X145369340Y-81715189D01*
X145369335Y-81715187D01*
X145369334Y-81715186D01*
X145202797Y-81660001D01*
X145202795Y-81660000D01*
X145100010Y-81649500D01*
X144299998Y-81649500D01*
X144299980Y-81649501D01*
X144197203Y-81660000D01*
X144197200Y-81660001D01*
X144030668Y-81715185D01*
X144030663Y-81715187D01*
X143881342Y-81807289D01*
X143757289Y-81931342D01*
X143665187Y-82080663D01*
X143665185Y-82080668D01*
X143640977Y-82153723D01*
X143610001Y-82247203D01*
X143610001Y-82247204D01*
X143610000Y-82247204D01*
X143599500Y-82349983D01*
X139323483Y-82349983D01*
X137774041Y-80800540D01*
X137774038Y-80800537D01*
X137706298Y-80755275D01*
X137626544Y-80701985D01*
X137626542Y-80701984D01*
X137544607Y-80668046D01*
X137544606Y-80668046D01*
X137462666Y-80634105D01*
X137462658Y-80634103D01*
X137288696Y-80599500D01*
X137288692Y-80599500D01*
X137288691Y-80599500D01*
X128588692Y-80599500D01*
X128411308Y-80599500D01*
X128411303Y-80599500D01*
X128237341Y-80634103D01*
X128237329Y-80634106D01*
X128155392Y-80668045D01*
X128155393Y-80668046D01*
X128073455Y-80701985D01*
X127993702Y-80755275D01*
X127925961Y-80800537D01*
X126015145Y-82711353D01*
X125996357Y-82726773D01*
X125953701Y-82755276D01*
X125885964Y-82800535D01*
X125885961Y-82800538D01*
X124139645Y-84546853D01*
X124078322Y-84580338D01*
X124019871Y-84578947D01*
X123961030Y-84563181D01*
X123851116Y-84533730D01*
X123807662Y-84528009D01*
X123591127Y-84499500D01*
X123591120Y-84499500D01*
X123328880Y-84499500D01*
X123328872Y-84499500D01*
X123097772Y-84529926D01*
X123068884Y-84533730D01*
X122873809Y-84586000D01*
X122815581Y-84601602D01*
X122815571Y-84601605D01*
X122573309Y-84701953D01*
X122573299Y-84701958D01*
X122346196Y-84833075D01*
X122138148Y-84992718D01*
X121952718Y-85178148D01*
X121793075Y-85386196D01*
X121661958Y-85613299D01*
X121661953Y-85613309D01*
X121561605Y-85855571D01*
X121561602Y-85855581D01*
X121507922Y-86055921D01*
X121493730Y-86108885D01*
X121459500Y-86368872D01*
X99334283Y-86368872D01*
X99313501Y-86360264D01*
X99313489Y-86360261D01*
X99158845Y-86329500D01*
X99158842Y-86329500D01*
X98289033Y-86329500D01*
X98221994Y-86309815D01*
X98194748Y-86286038D01*
X98191964Y-86282779D01*
X98047213Y-86138028D01*
X97881613Y-86017715D01*
X97881612Y-86017714D01*
X97881610Y-86017713D01*
X97824653Y-85988691D01*
X97699223Y-85924781D01*
X97504534Y-85861522D01*
X97329995Y-85833878D01*
X97302352Y-85829500D01*
X97097648Y-85829500D01*
X97073329Y-85833351D01*
X96895465Y-85861522D01*
X96700776Y-85924781D01*
X96518386Y-86017715D01*
X96352786Y-86138028D01*
X96208028Y-86282786D01*
X96087715Y-86448386D01*
X95994781Y-86630776D01*
X95931522Y-86825465D01*
X95899500Y-87027648D01*
X95899500Y-87232359D01*
X95899835Y-87236619D01*
X95885467Y-87304996D01*
X95863898Y-87334022D01*
X94226646Y-88971276D01*
X93689711Y-89508211D01*
X93657915Y-89540007D01*
X93578209Y-89619712D01*
X93490609Y-89750814D01*
X93490602Y-89750827D01*
X93430264Y-89896498D01*
X93430261Y-89896510D01*
X93399500Y-90051153D01*
X92200500Y-90051153D01*
X92200500Y-78874500D01*
X92220185Y-78807461D01*
X92272989Y-78761706D01*
X92324500Y-78750500D01*
X211075500Y-78750500D01*
X211142539Y-78770185D01*
G37*
%TD.AperFunction*%
%TD*%
M02*
