%TF.GenerationSoftware,KiCad,Pcbnew,9.0.3-9.0.3-0~ubuntu22.04.1*%
%TF.CreationDate,2025-09-08T21:56:20-03:00*%
%TF.ProjectId,airplane,61697270-6c61-46e6-952e-6b696361645f,0.0.1*%
%TF.SameCoordinates,Original*%
%TF.FileFunction,Legend,Bot*%
%TF.FilePolarity,Positive*%
%FSLAX46Y46*%
G04 Gerber Fmt 4.6, Leading zero omitted, Abs format (unit mm)*
G04 Created by KiCad (PCBNEW 9.0.3-9.0.3-0~ubuntu22.04.1) date 2025-09-08 21:56:20*
%MOMM*%
%LPD*%
G01*
G04 APERTURE LIST*
%ADD10C,0.100000*%
G04 APERTURE END LIST*
D10*
X111086905Y-95417580D02*
X111086905Y-94608057D01*
X111086905Y-94608057D02*
X111134524Y-94512819D01*
X111134524Y-94512819D02*
X111182143Y-94465200D01*
X111182143Y-94465200D02*
X111277381Y-94417580D01*
X111277381Y-94417580D02*
X111467857Y-94417580D01*
X111467857Y-94417580D02*
X111563095Y-94465200D01*
X111563095Y-94465200D02*
X111610714Y-94512819D01*
X111610714Y-94512819D02*
X111658333Y-94608057D01*
X111658333Y-94608057D02*
X111658333Y-95417580D01*
X112658333Y-94417580D02*
X112086905Y-94417580D01*
X112372619Y-94417580D02*
X112372619Y-95417580D01*
X112372619Y-95417580D02*
X112277381Y-95274723D01*
X112277381Y-95274723D02*
X112182143Y-95179485D01*
X112182143Y-95179485D02*
X112086905Y-95131866D01*
X112991667Y-95417580D02*
X113610714Y-95417580D01*
X113610714Y-95417580D02*
X113277381Y-95036628D01*
X113277381Y-95036628D02*
X113420238Y-95036628D01*
X113420238Y-95036628D02*
X113515476Y-94989009D01*
X113515476Y-94989009D02*
X113563095Y-94941390D01*
X113563095Y-94941390D02*
X113610714Y-94846152D01*
X113610714Y-94846152D02*
X113610714Y-94608057D01*
X113610714Y-94608057D02*
X113563095Y-94512819D01*
X113563095Y-94512819D02*
X113515476Y-94465200D01*
X113515476Y-94465200D02*
X113420238Y-94417580D01*
X113420238Y-94417580D02*
X113134524Y-94417580D01*
X113134524Y-94417580D02*
X113039286Y-94465200D01*
X113039286Y-94465200D02*
X112991667Y-94512819D01*
%TO.C,U13*%
X138700000Y-109750000D02*
X87700000Y-109750000D01*
X87700000Y-78750000D01*
X138700000Y-78750000D01*
X138700000Y-109750000D01*
%TD*%
M02*
