M48
; DRILL file {KiCad 9.0.3-9.0.3-0~ubuntu22.04.1} date 2025-09-08T21:56:35-0300
; FORMAT={-:-/ absolute / metric / decimal}
; #@! TF.CreationDate,2025-09-08T21:56:35-03:00
; #@! TF.GenerationSoftware,Kicad,Pcbnew,9.0.3-9.0.3-0~ubuntu22.04.1
; #@! TF.FileFunction,Plated,1,2,PTH
FMAT,2
METRIC
; #@! TA.AperFunction,Plated,PTH,ViaDrill
T1C0.300
; #@! TA.AperFunction,Plated,PTH,ComponentDrill
T2C0.600
; #@! TA.AperFunction,Plated,PTH,ComponentDrill
T3C0.700
; #@! TA.AperFunction,Plated,PTH,ComponentDrill
T4C0.800
; #@! TA.AperFunction,Plated,PTH,ComponentDrill
T5C0.900
; #@! TA.AperFunction,Plated,PTH,ComponentDrill
T6C1.000
; #@! TA.AperFunction,Plated,PTH,ComponentDrill
T7C1.100
; #@! TA.AperFunction,Plated,PTH,ComponentDrill
T8C1.520
%
G90
G05
T1
X125.0Y-126.0
X164.95Y-113.25
X164.95Y-114.05
X164.95Y-114.85
X190.2Y-126.251
X193.95Y-95.0
X194.2Y-93.5
X199.45Y-96.0
T2
X144.7Y-82.75
X144.7Y-98.75
X146.2Y-82.75
X146.2Y-98.75
X153.977Y-98.75
X154.2Y-82.75
X155.477Y-98.75
X155.7Y-82.75
T3
X122.7Y-102.5
X122.7Y-107.58
X125.85Y-102.5
X125.85Y-107.58
X129.0Y-102.5
X129.0Y-107.58
X142.2Y-111.42
X142.2Y-116.5
X145.35Y-111.42
X145.35Y-116.5
X148.5Y-111.42
X148.5Y-116.5
X151.65Y-111.42
X151.65Y-116.5
T4
X97.2Y-87.13
X97.2Y-89.67
X97.2Y-92.21
X97.2Y-94.75
X98.0Y-108.21
X98.0Y-110.75
X98.0Y-113.29
X98.0Y-115.83
X98.0Y-118.37
X98.0Y-120.91
X98.0Y-123.45
X98.0Y-125.99
X106.1Y-121.4
X108.64Y-121.4
X111.18Y-121.4
X113.72Y-121.4
X116.26Y-121.4
X118.8Y-121.4
X134.4Y-85.33
X134.4Y-87.87
X134.4Y-90.41
X134.4Y-92.95
X134.4Y-95.49
X134.4Y-98.03
X134.4Y-100.57
X134.4Y-103.11
X136.94Y-85.33
X136.94Y-87.87
X136.94Y-90.41
X136.94Y-92.95
X136.94Y-95.49
X136.94Y-98.03
X136.94Y-100.57
X136.94Y-103.11
X205.66Y-83.81
X205.66Y-86.35
X205.66Y-88.89
X205.66Y-91.43
X208.2Y-83.81
X208.2Y-86.35
X208.2Y-88.89
X208.2Y-91.43
T5
X172.18Y-99.05
X172.18Y-124.45
X174.72Y-99.05
X174.72Y-124.45
X177.26Y-99.05
X177.26Y-124.45
X179.8Y-99.05
X179.8Y-124.45
X182.34Y-99.05
X182.34Y-124.45
X184.88Y-99.05
X184.88Y-124.45
X187.42Y-99.05
X187.42Y-124.45
X189.96Y-99.05
X189.96Y-124.45
X192.5Y-99.05
X192.5Y-124.45
X195.04Y-99.05
X195.04Y-124.45
X197.58Y-99.05
X197.58Y-124.45
X200.12Y-99.05
X200.12Y-124.45
X202.66Y-99.05
X202.66Y-124.45
X205.2Y-99.05
X205.2Y-124.45
X207.74Y-99.05
X207.74Y-124.45
T6
X156.25Y-103.71
X156.25Y-106.25
X156.25Y-108.79
X164.93Y-84.67
X164.93Y-87.21
X164.93Y-89.75
X169.52Y-84.67
X169.52Y-87.21
X169.52Y-89.75
X174.11Y-84.67
X174.11Y-87.21
X174.11Y-89.75
X178.7Y-84.67
X178.7Y-87.21
X178.7Y-89.75
X189.7Y-84.71
X189.7Y-87.25
X189.7Y-89.79
X200.7Y-84.71
X200.7Y-87.25
X200.7Y-89.79
T7
X146.2Y-88.17
X146.2Y-90.71
X146.2Y-93.25
X155.65Y-88.21
X155.65Y-90.75
X155.65Y-93.29
T8
X123.46Y-86.5
X126.72Y-122.25
X128.54Y-86.5
X131.8Y-122.25
X136.88Y-122.25
X141.96Y-122.25
X147.04Y-122.25
X152.12Y-122.25
X157.2Y-122.25
X162.28Y-122.25
M30
