%TF.GenerationSoftware,KiCad,Pcbnew,9.0.3-9.0.3-0~ubuntu22.04.1*%
%TF.CreationDate,2025-09-08T21:56:17-03:00*%
%TF.ProjectId,airplane,61697270-6c61-46e6-952e-6b696361645f,0.0.1*%
%TF.SameCoordinates,Original*%
%TF.FileFunction,Legend,Top*%
%TF.FilePolarity,Positive*%
%FSLAX46Y46*%
G04 Gerber Fmt 4.6, Leading zero omitted, Abs format (unit mm)*
G04 Created by KiCad (PCBNEW 9.0.3-9.0.3-0~ubuntu22.04.1) date 2025-09-08 21:56:17*
%MOMM*%
%LPD*%
G01*
G04 APERTURE LIST*
%ADD10C,0.100000*%
%ADD11C,0.150000*%
%ADD12C,0.120000*%
%ADD13C,0.000000*%
G04 APERTURE END LIST*
D10*
X99375000Y-91000000D02*
X120125000Y-91000000D01*
X120125000Y-109500000D01*
X99375000Y-109500000D01*
X99375000Y-91000000D01*
X100853884Y-96167867D02*
X100853884Y-95167867D01*
X100853884Y-95167867D02*
X101187217Y-95882152D01*
X101187217Y-95882152D02*
X101520550Y-95167867D01*
X101520550Y-95167867D02*
X101520550Y-96167867D01*
X102520550Y-96167867D02*
X101949122Y-96167867D01*
X102234836Y-96167867D02*
X102234836Y-95167867D01*
X102234836Y-95167867D02*
X102139598Y-95310724D01*
X102139598Y-95310724D02*
X102044360Y-95405962D01*
X102044360Y-95405962D02*
X101949122Y-95453581D01*
X102949122Y-96072628D02*
X102996741Y-96120248D01*
X102996741Y-96120248D02*
X102949122Y-96167867D01*
X102949122Y-96167867D02*
X102901503Y-96120248D01*
X102901503Y-96120248D02*
X102949122Y-96072628D01*
X102949122Y-96072628D02*
X102949122Y-96167867D01*
X102949122Y-95548819D02*
X102996741Y-95596438D01*
X102996741Y-95596438D02*
X102949122Y-95644057D01*
X102949122Y-95644057D02*
X102901503Y-95596438D01*
X102901503Y-95596438D02*
X102949122Y-95548819D01*
X102949122Y-95548819D02*
X102949122Y-95644057D01*
X104139598Y-95882152D02*
X104615788Y-95882152D01*
X104044360Y-96167867D02*
X104377693Y-95167867D01*
X104377693Y-95167867D02*
X104711026Y-96167867D01*
X105044360Y-96167867D02*
X105044360Y-95501200D01*
X105044360Y-95167867D02*
X104996741Y-95215486D01*
X104996741Y-95215486D02*
X105044360Y-95263105D01*
X105044360Y-95263105D02*
X105091979Y-95215486D01*
X105091979Y-95215486D02*
X105044360Y-95167867D01*
X105044360Y-95167867D02*
X105044360Y-95263105D01*
X105663407Y-96167867D02*
X105568169Y-96120248D01*
X105568169Y-96120248D02*
X105520550Y-96025009D01*
X105520550Y-96025009D02*
X105520550Y-95167867D01*
X106425312Y-96120248D02*
X106330074Y-96167867D01*
X106330074Y-96167867D02*
X106139598Y-96167867D01*
X106139598Y-96167867D02*
X106044360Y-96120248D01*
X106044360Y-96120248D02*
X105996741Y-96025009D01*
X105996741Y-96025009D02*
X105996741Y-95644057D01*
X105996741Y-95644057D02*
X106044360Y-95548819D01*
X106044360Y-95548819D02*
X106139598Y-95501200D01*
X106139598Y-95501200D02*
X106330074Y-95501200D01*
X106330074Y-95501200D02*
X106425312Y-95548819D01*
X106425312Y-95548819D02*
X106472931Y-95644057D01*
X106472931Y-95644057D02*
X106472931Y-95739295D01*
X106472931Y-95739295D02*
X105996741Y-95834533D01*
X106901503Y-96167867D02*
X106901503Y-95501200D01*
X106901503Y-95691676D02*
X106949122Y-95596438D01*
X106949122Y-95596438D02*
X106996741Y-95548819D01*
X106996741Y-95548819D02*
X107091979Y-95501200D01*
X107091979Y-95501200D02*
X107187217Y-95501200D01*
X107663408Y-96167867D02*
X107568170Y-96120248D01*
X107568170Y-96120248D02*
X107520551Y-96072628D01*
X107520551Y-96072628D02*
X107472932Y-95977390D01*
X107472932Y-95977390D02*
X107472932Y-95691676D01*
X107472932Y-95691676D02*
X107520551Y-95596438D01*
X107520551Y-95596438D02*
X107568170Y-95548819D01*
X107568170Y-95548819D02*
X107663408Y-95501200D01*
X107663408Y-95501200D02*
X107806265Y-95501200D01*
X107806265Y-95501200D02*
X107901503Y-95548819D01*
X107901503Y-95548819D02*
X107949122Y-95596438D01*
X107949122Y-95596438D02*
X107996741Y-95691676D01*
X107996741Y-95691676D02*
X107996741Y-95977390D01*
X107996741Y-95977390D02*
X107949122Y-96072628D01*
X107949122Y-96072628D02*
X107901503Y-96120248D01*
X107901503Y-96120248D02*
X107806265Y-96167867D01*
X107806265Y-96167867D02*
X107663408Y-96167867D01*
X108425313Y-95501200D02*
X108425313Y-96167867D01*
X108425313Y-95596438D02*
X108472932Y-95548819D01*
X108472932Y-95548819D02*
X108568170Y-95501200D01*
X108568170Y-95501200D02*
X108711027Y-95501200D01*
X108711027Y-95501200D02*
X108806265Y-95548819D01*
X108806265Y-95548819D02*
X108853884Y-95644057D01*
X108853884Y-95644057D02*
X108853884Y-96167867D01*
X109282456Y-96120248D02*
X109377694Y-96167867D01*
X109377694Y-96167867D02*
X109568170Y-96167867D01*
X109568170Y-96167867D02*
X109663408Y-96120248D01*
X109663408Y-96120248D02*
X109711027Y-96025009D01*
X109711027Y-96025009D02*
X109711027Y-95977390D01*
X109711027Y-95977390D02*
X109663408Y-95882152D01*
X109663408Y-95882152D02*
X109568170Y-95834533D01*
X109568170Y-95834533D02*
X109425313Y-95834533D01*
X109425313Y-95834533D02*
X109330075Y-95786914D01*
X109330075Y-95786914D02*
X109282456Y-95691676D01*
X109282456Y-95691676D02*
X109282456Y-95644057D01*
X109282456Y-95644057D02*
X109330075Y-95548819D01*
X109330075Y-95548819D02*
X109425313Y-95501200D01*
X109425313Y-95501200D02*
X109568170Y-95501200D01*
X109568170Y-95501200D02*
X109663408Y-95548819D01*
X110901504Y-95786914D02*
X111663409Y-95786914D01*
X113425313Y-95215486D02*
X113330075Y-95167867D01*
X113330075Y-95167867D02*
X113187218Y-95167867D01*
X113187218Y-95167867D02*
X113044361Y-95215486D01*
X113044361Y-95215486D02*
X112949123Y-95310724D01*
X112949123Y-95310724D02*
X112901504Y-95405962D01*
X112901504Y-95405962D02*
X112853885Y-95596438D01*
X112853885Y-95596438D02*
X112853885Y-95739295D01*
X112853885Y-95739295D02*
X112901504Y-95929771D01*
X112901504Y-95929771D02*
X112949123Y-96025009D01*
X112949123Y-96025009D02*
X113044361Y-96120248D01*
X113044361Y-96120248D02*
X113187218Y-96167867D01*
X113187218Y-96167867D02*
X113282456Y-96167867D01*
X113282456Y-96167867D02*
X113425313Y-96120248D01*
X113425313Y-96120248D02*
X113472932Y-96072628D01*
X113472932Y-96072628D02*
X113472932Y-95739295D01*
X113472932Y-95739295D02*
X113282456Y-95739295D01*
X113901504Y-96167867D02*
X113901504Y-95167867D01*
X113901504Y-95167867D02*
X114282456Y-95167867D01*
X114282456Y-95167867D02*
X114377694Y-95215486D01*
X114377694Y-95215486D02*
X114425313Y-95263105D01*
X114425313Y-95263105D02*
X114472932Y-95358343D01*
X114472932Y-95358343D02*
X114472932Y-95501200D01*
X114472932Y-95501200D02*
X114425313Y-95596438D01*
X114425313Y-95596438D02*
X114377694Y-95644057D01*
X114377694Y-95644057D02*
X114282456Y-95691676D01*
X114282456Y-95691676D02*
X113901504Y-95691676D01*
X114901504Y-96167867D02*
X114901504Y-95167867D01*
X115568170Y-95167867D02*
X115758646Y-95167867D01*
X115758646Y-95167867D02*
X115853884Y-95215486D01*
X115853884Y-95215486D02*
X115949122Y-95310724D01*
X115949122Y-95310724D02*
X115996741Y-95501200D01*
X115996741Y-95501200D02*
X115996741Y-95834533D01*
X115996741Y-95834533D02*
X115949122Y-96025009D01*
X115949122Y-96025009D02*
X115853884Y-96120248D01*
X115853884Y-96120248D02*
X115758646Y-96167867D01*
X115758646Y-96167867D02*
X115568170Y-96167867D01*
X115568170Y-96167867D02*
X115472932Y-96120248D01*
X115472932Y-96120248D02*
X115377694Y-96025009D01*
X115377694Y-96025009D02*
X115330075Y-95834533D01*
X115330075Y-95834533D02*
X115330075Y-95501200D01*
X115330075Y-95501200D02*
X115377694Y-95310724D01*
X115377694Y-95310724D02*
X115472932Y-95215486D01*
X115472932Y-95215486D02*
X115568170Y-95167867D01*
X116949122Y-96167867D02*
X116377694Y-96167867D01*
X116663408Y-96167867D02*
X116663408Y-95167867D01*
X116663408Y-95167867D02*
X116568170Y-95310724D01*
X116568170Y-95310724D02*
X116472932Y-95405962D01*
X116472932Y-95405962D02*
X116377694Y-95453581D01*
X117282456Y-95167867D02*
X117901503Y-95167867D01*
X117901503Y-95167867D02*
X117568170Y-95548819D01*
X117568170Y-95548819D02*
X117711027Y-95548819D01*
X117711027Y-95548819D02*
X117806265Y-95596438D01*
X117806265Y-95596438D02*
X117853884Y-95644057D01*
X117853884Y-95644057D02*
X117901503Y-95739295D01*
X117901503Y-95739295D02*
X117901503Y-95977390D01*
X117901503Y-95977390D02*
X117853884Y-96072628D01*
X117853884Y-96072628D02*
X117806265Y-96120248D01*
X117806265Y-96120248D02*
X117711027Y-96167867D01*
X117711027Y-96167867D02*
X117425313Y-96167867D01*
X117425313Y-96167867D02*
X117330075Y-96120248D01*
X117330075Y-96120248D02*
X117282456Y-96072628D01*
X100853884Y-97777811D02*
X100853884Y-96777811D01*
X100853884Y-96777811D02*
X101187217Y-97492096D01*
X101187217Y-97492096D02*
X101520550Y-96777811D01*
X101520550Y-96777811D02*
X101520550Y-97777811D01*
X101949122Y-96873049D02*
X101996741Y-96825430D01*
X101996741Y-96825430D02*
X102091979Y-96777811D01*
X102091979Y-96777811D02*
X102330074Y-96777811D01*
X102330074Y-96777811D02*
X102425312Y-96825430D01*
X102425312Y-96825430D02*
X102472931Y-96873049D01*
X102472931Y-96873049D02*
X102520550Y-96968287D01*
X102520550Y-96968287D02*
X102520550Y-97063525D01*
X102520550Y-97063525D02*
X102472931Y-97206382D01*
X102472931Y-97206382D02*
X101901503Y-97777811D01*
X101901503Y-97777811D02*
X102520550Y-97777811D01*
X102949122Y-97682572D02*
X102996741Y-97730192D01*
X102996741Y-97730192D02*
X102949122Y-97777811D01*
X102949122Y-97777811D02*
X102901503Y-97730192D01*
X102901503Y-97730192D02*
X102949122Y-97682572D01*
X102949122Y-97682572D02*
X102949122Y-97777811D01*
X102949122Y-97158763D02*
X102996741Y-97206382D01*
X102996741Y-97206382D02*
X102949122Y-97254001D01*
X102949122Y-97254001D02*
X102901503Y-97206382D01*
X102901503Y-97206382D02*
X102949122Y-97158763D01*
X102949122Y-97158763D02*
X102949122Y-97254001D01*
X104187217Y-97254001D02*
X104520550Y-97254001D01*
X104663407Y-97777811D02*
X104187217Y-97777811D01*
X104187217Y-97777811D02*
X104187217Y-96777811D01*
X104187217Y-96777811D02*
X104663407Y-96777811D01*
X105234836Y-97777811D02*
X105139598Y-97730192D01*
X105139598Y-97730192D02*
X105091979Y-97634953D01*
X105091979Y-97634953D02*
X105091979Y-96777811D01*
X105996741Y-97730192D02*
X105901503Y-97777811D01*
X105901503Y-97777811D02*
X105711027Y-97777811D01*
X105711027Y-97777811D02*
X105615789Y-97730192D01*
X105615789Y-97730192D02*
X105568170Y-97634953D01*
X105568170Y-97634953D02*
X105568170Y-97254001D01*
X105568170Y-97254001D02*
X105615789Y-97158763D01*
X105615789Y-97158763D02*
X105711027Y-97111144D01*
X105711027Y-97111144D02*
X105901503Y-97111144D01*
X105901503Y-97111144D02*
X105996741Y-97158763D01*
X105996741Y-97158763D02*
X106044360Y-97254001D01*
X106044360Y-97254001D02*
X106044360Y-97349239D01*
X106044360Y-97349239D02*
X105568170Y-97444477D01*
X106377694Y-97111144D02*
X106615789Y-97777811D01*
X106615789Y-97777811D02*
X106853884Y-97111144D01*
X107663408Y-97777811D02*
X107663408Y-97254001D01*
X107663408Y-97254001D02*
X107615789Y-97158763D01*
X107615789Y-97158763D02*
X107520551Y-97111144D01*
X107520551Y-97111144D02*
X107330075Y-97111144D01*
X107330075Y-97111144D02*
X107234837Y-97158763D01*
X107663408Y-97730192D02*
X107568170Y-97777811D01*
X107568170Y-97777811D02*
X107330075Y-97777811D01*
X107330075Y-97777811D02*
X107234837Y-97730192D01*
X107234837Y-97730192D02*
X107187218Y-97634953D01*
X107187218Y-97634953D02*
X107187218Y-97539715D01*
X107187218Y-97539715D02*
X107234837Y-97444477D01*
X107234837Y-97444477D02*
X107330075Y-97396858D01*
X107330075Y-97396858D02*
X107568170Y-97396858D01*
X107568170Y-97396858D02*
X107663408Y-97349239D01*
X107996742Y-97111144D02*
X108377694Y-97111144D01*
X108139599Y-96777811D02*
X108139599Y-97634953D01*
X108139599Y-97634953D02*
X108187218Y-97730192D01*
X108187218Y-97730192D02*
X108282456Y-97777811D01*
X108282456Y-97777811D02*
X108377694Y-97777811D01*
X108853885Y-97777811D02*
X108758647Y-97730192D01*
X108758647Y-97730192D02*
X108711028Y-97682572D01*
X108711028Y-97682572D02*
X108663409Y-97587334D01*
X108663409Y-97587334D02*
X108663409Y-97301620D01*
X108663409Y-97301620D02*
X108711028Y-97206382D01*
X108711028Y-97206382D02*
X108758647Y-97158763D01*
X108758647Y-97158763D02*
X108853885Y-97111144D01*
X108853885Y-97111144D02*
X108996742Y-97111144D01*
X108996742Y-97111144D02*
X109091980Y-97158763D01*
X109091980Y-97158763D02*
X109139599Y-97206382D01*
X109139599Y-97206382D02*
X109187218Y-97301620D01*
X109187218Y-97301620D02*
X109187218Y-97587334D01*
X109187218Y-97587334D02*
X109139599Y-97682572D01*
X109139599Y-97682572D02*
X109091980Y-97730192D01*
X109091980Y-97730192D02*
X108996742Y-97777811D01*
X108996742Y-97777811D02*
X108853885Y-97777811D01*
X109615790Y-97777811D02*
X109615790Y-97111144D01*
X109615790Y-97301620D02*
X109663409Y-97206382D01*
X109663409Y-97206382D02*
X109711028Y-97158763D01*
X109711028Y-97158763D02*
X109806266Y-97111144D01*
X109806266Y-97111144D02*
X109901504Y-97111144D01*
X110996743Y-97396858D02*
X111758648Y-97396858D01*
X113520552Y-96825430D02*
X113425314Y-96777811D01*
X113425314Y-96777811D02*
X113282457Y-96777811D01*
X113282457Y-96777811D02*
X113139600Y-96825430D01*
X113139600Y-96825430D02*
X113044362Y-96920668D01*
X113044362Y-96920668D02*
X112996743Y-97015906D01*
X112996743Y-97015906D02*
X112949124Y-97206382D01*
X112949124Y-97206382D02*
X112949124Y-97349239D01*
X112949124Y-97349239D02*
X112996743Y-97539715D01*
X112996743Y-97539715D02*
X113044362Y-97634953D01*
X113044362Y-97634953D02*
X113139600Y-97730192D01*
X113139600Y-97730192D02*
X113282457Y-97777811D01*
X113282457Y-97777811D02*
X113377695Y-97777811D01*
X113377695Y-97777811D02*
X113520552Y-97730192D01*
X113520552Y-97730192D02*
X113568171Y-97682572D01*
X113568171Y-97682572D02*
X113568171Y-97349239D01*
X113568171Y-97349239D02*
X113377695Y-97349239D01*
X113996743Y-97777811D02*
X113996743Y-96777811D01*
X113996743Y-96777811D02*
X114377695Y-96777811D01*
X114377695Y-96777811D02*
X114472933Y-96825430D01*
X114472933Y-96825430D02*
X114520552Y-96873049D01*
X114520552Y-96873049D02*
X114568171Y-96968287D01*
X114568171Y-96968287D02*
X114568171Y-97111144D01*
X114568171Y-97111144D02*
X114520552Y-97206382D01*
X114520552Y-97206382D02*
X114472933Y-97254001D01*
X114472933Y-97254001D02*
X114377695Y-97301620D01*
X114377695Y-97301620D02*
X113996743Y-97301620D01*
X114996743Y-97777811D02*
X114996743Y-96777811D01*
X115663409Y-96777811D02*
X115853885Y-96777811D01*
X115853885Y-96777811D02*
X115949123Y-96825430D01*
X115949123Y-96825430D02*
X116044361Y-96920668D01*
X116044361Y-96920668D02*
X116091980Y-97111144D01*
X116091980Y-97111144D02*
X116091980Y-97444477D01*
X116091980Y-97444477D02*
X116044361Y-97634953D01*
X116044361Y-97634953D02*
X115949123Y-97730192D01*
X115949123Y-97730192D02*
X115853885Y-97777811D01*
X115853885Y-97777811D02*
X115663409Y-97777811D01*
X115663409Y-97777811D02*
X115568171Y-97730192D01*
X115568171Y-97730192D02*
X115472933Y-97634953D01*
X115472933Y-97634953D02*
X115425314Y-97444477D01*
X115425314Y-97444477D02*
X115425314Y-97111144D01*
X115425314Y-97111144D02*
X115472933Y-96920668D01*
X115472933Y-96920668D02*
X115568171Y-96825430D01*
X115568171Y-96825430D02*
X115663409Y-96777811D01*
X117044361Y-97777811D02*
X116472933Y-97777811D01*
X116758647Y-97777811D02*
X116758647Y-96777811D01*
X116758647Y-96777811D02*
X116663409Y-96920668D01*
X116663409Y-96920668D02*
X116568171Y-97015906D01*
X116568171Y-97015906D02*
X116472933Y-97063525D01*
X117425314Y-96873049D02*
X117472933Y-96825430D01*
X117472933Y-96825430D02*
X117568171Y-96777811D01*
X117568171Y-96777811D02*
X117806266Y-96777811D01*
X117806266Y-96777811D02*
X117901504Y-96825430D01*
X117901504Y-96825430D02*
X117949123Y-96873049D01*
X117949123Y-96873049D02*
X117996742Y-96968287D01*
X117996742Y-96968287D02*
X117996742Y-97063525D01*
X117996742Y-97063525D02*
X117949123Y-97206382D01*
X117949123Y-97206382D02*
X117377695Y-97777811D01*
X117377695Y-97777811D02*
X117996742Y-97777811D01*
X100853884Y-99387755D02*
X100853884Y-98387755D01*
X100853884Y-98387755D02*
X101187217Y-99102040D01*
X101187217Y-99102040D02*
X101520550Y-98387755D01*
X101520550Y-98387755D02*
X101520550Y-99387755D01*
X101901503Y-98387755D02*
X102520550Y-98387755D01*
X102520550Y-98387755D02*
X102187217Y-98768707D01*
X102187217Y-98768707D02*
X102330074Y-98768707D01*
X102330074Y-98768707D02*
X102425312Y-98816326D01*
X102425312Y-98816326D02*
X102472931Y-98863945D01*
X102472931Y-98863945D02*
X102520550Y-98959183D01*
X102520550Y-98959183D02*
X102520550Y-99197278D01*
X102520550Y-99197278D02*
X102472931Y-99292516D01*
X102472931Y-99292516D02*
X102425312Y-99340136D01*
X102425312Y-99340136D02*
X102330074Y-99387755D01*
X102330074Y-99387755D02*
X102044360Y-99387755D01*
X102044360Y-99387755D02*
X101949122Y-99340136D01*
X101949122Y-99340136D02*
X101901503Y-99292516D01*
X102996741Y-99340136D02*
X102996741Y-99387755D01*
X102996741Y-99387755D02*
X102949122Y-99482993D01*
X102949122Y-99482993D02*
X102901503Y-99530612D01*
X104187217Y-99387755D02*
X104187217Y-98387755D01*
X104187217Y-98387755D02*
X104520550Y-99102040D01*
X104520550Y-99102040D02*
X104853883Y-98387755D01*
X104853883Y-98387755D02*
X104853883Y-99387755D01*
X105758645Y-98721088D02*
X105758645Y-99387755D01*
X105520550Y-98340136D02*
X105282455Y-99054421D01*
X105282455Y-99054421D02*
X105901502Y-99054421D01*
X106282455Y-99292516D02*
X106330074Y-99340136D01*
X106330074Y-99340136D02*
X106282455Y-99387755D01*
X106282455Y-99387755D02*
X106234836Y-99340136D01*
X106234836Y-99340136D02*
X106282455Y-99292516D01*
X106282455Y-99292516D02*
X106282455Y-99387755D01*
X106282455Y-98768707D02*
X106330074Y-98816326D01*
X106330074Y-98816326D02*
X106282455Y-98863945D01*
X106282455Y-98863945D02*
X106234836Y-98816326D01*
X106234836Y-98816326D02*
X106282455Y-98768707D01*
X106282455Y-98768707D02*
X106282455Y-98863945D01*
X108091978Y-99387755D02*
X107758645Y-98911564D01*
X107520550Y-99387755D02*
X107520550Y-98387755D01*
X107520550Y-98387755D02*
X107901502Y-98387755D01*
X107901502Y-98387755D02*
X107996740Y-98435374D01*
X107996740Y-98435374D02*
X108044359Y-98482993D01*
X108044359Y-98482993D02*
X108091978Y-98578231D01*
X108091978Y-98578231D02*
X108091978Y-98721088D01*
X108091978Y-98721088D02*
X108044359Y-98816326D01*
X108044359Y-98816326D02*
X107996740Y-98863945D01*
X107996740Y-98863945D02*
X107901502Y-98911564D01*
X107901502Y-98911564D02*
X107520550Y-98911564D01*
X109330074Y-99387755D02*
X109282455Y-99387755D01*
X109282455Y-99387755D02*
X109187216Y-99340136D01*
X109187216Y-99340136D02*
X109044359Y-99197278D01*
X109044359Y-99197278D02*
X108806264Y-98911564D01*
X108806264Y-98911564D02*
X108711026Y-98768707D01*
X108711026Y-98768707D02*
X108663407Y-98625850D01*
X108663407Y-98625850D02*
X108663407Y-98530612D01*
X108663407Y-98530612D02*
X108711026Y-98435374D01*
X108711026Y-98435374D02*
X108806264Y-98387755D01*
X108806264Y-98387755D02*
X108853883Y-98387755D01*
X108853883Y-98387755D02*
X108949121Y-98435374D01*
X108949121Y-98435374D02*
X108996740Y-98530612D01*
X108996740Y-98530612D02*
X108996740Y-98578231D01*
X108996740Y-98578231D02*
X108949121Y-98673469D01*
X108949121Y-98673469D02*
X108901502Y-98721088D01*
X108901502Y-98721088D02*
X108615788Y-98911564D01*
X108615788Y-98911564D02*
X108568169Y-98959183D01*
X108568169Y-98959183D02*
X108520550Y-99054421D01*
X108520550Y-99054421D02*
X108520550Y-99197278D01*
X108520550Y-99197278D02*
X108568169Y-99292516D01*
X108568169Y-99292516D02*
X108615788Y-99340136D01*
X108615788Y-99340136D02*
X108711026Y-99387755D01*
X108711026Y-99387755D02*
X108853883Y-99387755D01*
X108853883Y-99387755D02*
X108949121Y-99340136D01*
X108949121Y-99340136D02*
X108996740Y-99292516D01*
X108996740Y-99292516D02*
X109139597Y-99102040D01*
X109139597Y-99102040D02*
X109187216Y-98959183D01*
X109187216Y-98959183D02*
X109187216Y-98863945D01*
X109663407Y-98387755D02*
X109901502Y-99387755D01*
X109901502Y-99387755D02*
X110091978Y-98673469D01*
X110091978Y-98673469D02*
X110282454Y-99387755D01*
X110282454Y-99387755D02*
X110520550Y-98387755D01*
X111663407Y-99006802D02*
X112425312Y-99006802D01*
X114187216Y-98435374D02*
X114091978Y-98387755D01*
X114091978Y-98387755D02*
X113949121Y-98387755D01*
X113949121Y-98387755D02*
X113806264Y-98435374D01*
X113806264Y-98435374D02*
X113711026Y-98530612D01*
X113711026Y-98530612D02*
X113663407Y-98625850D01*
X113663407Y-98625850D02*
X113615788Y-98816326D01*
X113615788Y-98816326D02*
X113615788Y-98959183D01*
X113615788Y-98959183D02*
X113663407Y-99149659D01*
X113663407Y-99149659D02*
X113711026Y-99244897D01*
X113711026Y-99244897D02*
X113806264Y-99340136D01*
X113806264Y-99340136D02*
X113949121Y-99387755D01*
X113949121Y-99387755D02*
X114044359Y-99387755D01*
X114044359Y-99387755D02*
X114187216Y-99340136D01*
X114187216Y-99340136D02*
X114234835Y-99292516D01*
X114234835Y-99292516D02*
X114234835Y-98959183D01*
X114234835Y-98959183D02*
X114044359Y-98959183D01*
X114663407Y-99387755D02*
X114663407Y-98387755D01*
X114663407Y-98387755D02*
X115044359Y-98387755D01*
X115044359Y-98387755D02*
X115139597Y-98435374D01*
X115139597Y-98435374D02*
X115187216Y-98482993D01*
X115187216Y-98482993D02*
X115234835Y-98578231D01*
X115234835Y-98578231D02*
X115234835Y-98721088D01*
X115234835Y-98721088D02*
X115187216Y-98816326D01*
X115187216Y-98816326D02*
X115139597Y-98863945D01*
X115139597Y-98863945D02*
X115044359Y-98911564D01*
X115044359Y-98911564D02*
X114663407Y-98911564D01*
X115663407Y-99387755D02*
X115663407Y-98387755D01*
X116330073Y-98387755D02*
X116520549Y-98387755D01*
X116520549Y-98387755D02*
X116615787Y-98435374D01*
X116615787Y-98435374D02*
X116711025Y-98530612D01*
X116711025Y-98530612D02*
X116758644Y-98721088D01*
X116758644Y-98721088D02*
X116758644Y-99054421D01*
X116758644Y-99054421D02*
X116711025Y-99244897D01*
X116711025Y-99244897D02*
X116615787Y-99340136D01*
X116615787Y-99340136D02*
X116520549Y-99387755D01*
X116520549Y-99387755D02*
X116330073Y-99387755D01*
X116330073Y-99387755D02*
X116234835Y-99340136D01*
X116234835Y-99340136D02*
X116139597Y-99244897D01*
X116139597Y-99244897D02*
X116091978Y-99054421D01*
X116091978Y-99054421D02*
X116091978Y-98721088D01*
X116091978Y-98721088D02*
X116139597Y-98530612D01*
X116139597Y-98530612D02*
X116234835Y-98435374D01*
X116234835Y-98435374D02*
X116330073Y-98387755D01*
X117711025Y-99387755D02*
X117139597Y-99387755D01*
X117425311Y-99387755D02*
X117425311Y-98387755D01*
X117425311Y-98387755D02*
X117330073Y-98530612D01*
X117330073Y-98530612D02*
X117234835Y-98625850D01*
X117234835Y-98625850D02*
X117139597Y-98673469D01*
X118568168Y-98721088D02*
X118568168Y-99387755D01*
X118330073Y-98340136D02*
X118091978Y-99054421D01*
X118091978Y-99054421D02*
X118711025Y-99054421D01*
X100853884Y-99997699D02*
X100853884Y-100807222D01*
X100853884Y-100807222D02*
X100901503Y-100902460D01*
X100901503Y-100902460D02*
X100949122Y-100950080D01*
X100949122Y-100950080D02*
X101044360Y-100997699D01*
X101044360Y-100997699D02*
X101234836Y-100997699D01*
X101234836Y-100997699D02*
X101330074Y-100950080D01*
X101330074Y-100950080D02*
X101377693Y-100902460D01*
X101377693Y-100902460D02*
X101425312Y-100807222D01*
X101425312Y-100807222D02*
X101425312Y-99997699D01*
X102330074Y-100331032D02*
X102330074Y-100997699D01*
X102091979Y-99950080D02*
X101853884Y-100664365D01*
X101853884Y-100664365D02*
X102472931Y-100664365D01*
X102853884Y-100902460D02*
X102901503Y-100950080D01*
X102901503Y-100950080D02*
X102853884Y-100997699D01*
X102853884Y-100997699D02*
X102806265Y-100950080D01*
X102806265Y-100950080D02*
X102853884Y-100902460D01*
X102853884Y-100902460D02*
X102853884Y-100997699D01*
X102853884Y-100378651D02*
X102901503Y-100426270D01*
X102901503Y-100426270D02*
X102853884Y-100473889D01*
X102853884Y-100473889D02*
X102806265Y-100426270D01*
X102806265Y-100426270D02*
X102853884Y-100378651D01*
X102853884Y-100378651D02*
X102853884Y-100473889D01*
X104091979Y-100997699D02*
X104091979Y-99997699D01*
X104091979Y-99997699D02*
X104472931Y-99997699D01*
X104472931Y-99997699D02*
X104568169Y-100045318D01*
X104568169Y-100045318D02*
X104615788Y-100092937D01*
X104615788Y-100092937D02*
X104663407Y-100188175D01*
X104663407Y-100188175D02*
X104663407Y-100331032D01*
X104663407Y-100331032D02*
X104615788Y-100426270D01*
X104615788Y-100426270D02*
X104568169Y-100473889D01*
X104568169Y-100473889D02*
X104472931Y-100521508D01*
X104472931Y-100521508D02*
X104091979Y-100521508D01*
X104996741Y-99997699D02*
X105234836Y-100997699D01*
X105234836Y-100997699D02*
X105425312Y-100283413D01*
X105425312Y-100283413D02*
X105615788Y-100997699D01*
X105615788Y-100997699D02*
X105853884Y-99997699D01*
X106234836Y-100997699D02*
X106234836Y-99997699D01*
X106234836Y-99997699D02*
X106568169Y-100711984D01*
X106568169Y-100711984D02*
X106901502Y-99997699D01*
X106901502Y-99997699D02*
X106901502Y-100997699D01*
X108139598Y-100616746D02*
X108901503Y-100616746D01*
X110663407Y-100045318D02*
X110568169Y-99997699D01*
X110568169Y-99997699D02*
X110425312Y-99997699D01*
X110425312Y-99997699D02*
X110282455Y-100045318D01*
X110282455Y-100045318D02*
X110187217Y-100140556D01*
X110187217Y-100140556D02*
X110139598Y-100235794D01*
X110139598Y-100235794D02*
X110091979Y-100426270D01*
X110091979Y-100426270D02*
X110091979Y-100569127D01*
X110091979Y-100569127D02*
X110139598Y-100759603D01*
X110139598Y-100759603D02*
X110187217Y-100854841D01*
X110187217Y-100854841D02*
X110282455Y-100950080D01*
X110282455Y-100950080D02*
X110425312Y-100997699D01*
X110425312Y-100997699D02*
X110520550Y-100997699D01*
X110520550Y-100997699D02*
X110663407Y-100950080D01*
X110663407Y-100950080D02*
X110711026Y-100902460D01*
X110711026Y-100902460D02*
X110711026Y-100569127D01*
X110711026Y-100569127D02*
X110520550Y-100569127D01*
X111139598Y-100997699D02*
X111139598Y-99997699D01*
X111139598Y-99997699D02*
X111520550Y-99997699D01*
X111520550Y-99997699D02*
X111615788Y-100045318D01*
X111615788Y-100045318D02*
X111663407Y-100092937D01*
X111663407Y-100092937D02*
X111711026Y-100188175D01*
X111711026Y-100188175D02*
X111711026Y-100331032D01*
X111711026Y-100331032D02*
X111663407Y-100426270D01*
X111663407Y-100426270D02*
X111615788Y-100473889D01*
X111615788Y-100473889D02*
X111520550Y-100521508D01*
X111520550Y-100521508D02*
X111139598Y-100521508D01*
X112139598Y-100997699D02*
X112139598Y-99997699D01*
X112806264Y-99997699D02*
X112996740Y-99997699D01*
X112996740Y-99997699D02*
X113091978Y-100045318D01*
X113091978Y-100045318D02*
X113187216Y-100140556D01*
X113187216Y-100140556D02*
X113234835Y-100331032D01*
X113234835Y-100331032D02*
X113234835Y-100664365D01*
X113234835Y-100664365D02*
X113187216Y-100854841D01*
X113187216Y-100854841D02*
X113091978Y-100950080D01*
X113091978Y-100950080D02*
X112996740Y-100997699D01*
X112996740Y-100997699D02*
X112806264Y-100997699D01*
X112806264Y-100997699D02*
X112711026Y-100950080D01*
X112711026Y-100950080D02*
X112615788Y-100854841D01*
X112615788Y-100854841D02*
X112568169Y-100664365D01*
X112568169Y-100664365D02*
X112568169Y-100331032D01*
X112568169Y-100331032D02*
X112615788Y-100140556D01*
X112615788Y-100140556D02*
X112711026Y-100045318D01*
X112711026Y-100045318D02*
X112806264Y-99997699D01*
X114187216Y-100997699D02*
X113615788Y-100997699D01*
X113901502Y-100997699D02*
X113901502Y-99997699D01*
X113901502Y-99997699D02*
X113806264Y-100140556D01*
X113806264Y-100140556D02*
X113711026Y-100235794D01*
X113711026Y-100235794D02*
X113615788Y-100283413D01*
X115091978Y-99997699D02*
X114615788Y-99997699D01*
X114615788Y-99997699D02*
X114568169Y-100473889D01*
X114568169Y-100473889D02*
X114615788Y-100426270D01*
X114615788Y-100426270D02*
X114711026Y-100378651D01*
X114711026Y-100378651D02*
X114949121Y-100378651D01*
X114949121Y-100378651D02*
X115044359Y-100426270D01*
X115044359Y-100426270D02*
X115091978Y-100473889D01*
X115091978Y-100473889D02*
X115139597Y-100569127D01*
X115139597Y-100569127D02*
X115139597Y-100807222D01*
X115139597Y-100807222D02*
X115091978Y-100902460D01*
X115091978Y-100902460D02*
X115044359Y-100950080D01*
X115044359Y-100950080D02*
X114949121Y-100997699D01*
X114949121Y-100997699D02*
X114711026Y-100997699D01*
X114711026Y-100997699D02*
X114615788Y-100950080D01*
X114615788Y-100950080D02*
X114568169Y-100902460D01*
X100853884Y-101607643D02*
X100853884Y-102417166D01*
X100853884Y-102417166D02*
X100901503Y-102512404D01*
X100901503Y-102512404D02*
X100949122Y-102560024D01*
X100949122Y-102560024D02*
X101044360Y-102607643D01*
X101044360Y-102607643D02*
X101234836Y-102607643D01*
X101234836Y-102607643D02*
X101330074Y-102560024D01*
X101330074Y-102560024D02*
X101377693Y-102512404D01*
X101377693Y-102512404D02*
X101425312Y-102417166D01*
X101425312Y-102417166D02*
X101425312Y-101607643D01*
X102044360Y-102036214D02*
X101949122Y-101988595D01*
X101949122Y-101988595D02*
X101901503Y-101940976D01*
X101901503Y-101940976D02*
X101853884Y-101845738D01*
X101853884Y-101845738D02*
X101853884Y-101798119D01*
X101853884Y-101798119D02*
X101901503Y-101702881D01*
X101901503Y-101702881D02*
X101949122Y-101655262D01*
X101949122Y-101655262D02*
X102044360Y-101607643D01*
X102044360Y-101607643D02*
X102234836Y-101607643D01*
X102234836Y-101607643D02*
X102330074Y-101655262D01*
X102330074Y-101655262D02*
X102377693Y-101702881D01*
X102377693Y-101702881D02*
X102425312Y-101798119D01*
X102425312Y-101798119D02*
X102425312Y-101845738D01*
X102425312Y-101845738D02*
X102377693Y-101940976D01*
X102377693Y-101940976D02*
X102330074Y-101988595D01*
X102330074Y-101988595D02*
X102234836Y-102036214D01*
X102234836Y-102036214D02*
X102044360Y-102036214D01*
X102044360Y-102036214D02*
X101949122Y-102083833D01*
X101949122Y-102083833D02*
X101901503Y-102131452D01*
X101901503Y-102131452D02*
X101853884Y-102226690D01*
X101853884Y-102226690D02*
X101853884Y-102417166D01*
X101853884Y-102417166D02*
X101901503Y-102512404D01*
X101901503Y-102512404D02*
X101949122Y-102560024D01*
X101949122Y-102560024D02*
X102044360Y-102607643D01*
X102044360Y-102607643D02*
X102234836Y-102607643D01*
X102234836Y-102607643D02*
X102330074Y-102560024D01*
X102330074Y-102560024D02*
X102377693Y-102512404D01*
X102377693Y-102512404D02*
X102425312Y-102417166D01*
X102425312Y-102417166D02*
X102425312Y-102226690D01*
X102425312Y-102226690D02*
X102377693Y-102131452D01*
X102377693Y-102131452D02*
X102330074Y-102083833D01*
X102330074Y-102083833D02*
X102234836Y-102036214D01*
X102853884Y-102512404D02*
X102901503Y-102560024D01*
X102901503Y-102560024D02*
X102853884Y-102607643D01*
X102853884Y-102607643D02*
X102806265Y-102560024D01*
X102806265Y-102560024D02*
X102853884Y-102512404D01*
X102853884Y-102512404D02*
X102853884Y-102607643D01*
X102853884Y-101988595D02*
X102901503Y-102036214D01*
X102901503Y-102036214D02*
X102853884Y-102083833D01*
X102853884Y-102083833D02*
X102806265Y-102036214D01*
X102806265Y-102036214D02*
X102853884Y-101988595D01*
X102853884Y-101988595D02*
X102853884Y-102083833D01*
X104091979Y-102607643D02*
X104091979Y-101607643D01*
X104091979Y-101607643D02*
X104663407Y-102607643D01*
X104663407Y-102607643D02*
X104663407Y-101607643D01*
X105568169Y-102607643D02*
X105568169Y-102083833D01*
X105568169Y-102083833D02*
X105520550Y-101988595D01*
X105520550Y-101988595D02*
X105425312Y-101940976D01*
X105425312Y-101940976D02*
X105234836Y-101940976D01*
X105234836Y-101940976D02*
X105139598Y-101988595D01*
X105568169Y-102560024D02*
X105472931Y-102607643D01*
X105472931Y-102607643D02*
X105234836Y-102607643D01*
X105234836Y-102607643D02*
X105139598Y-102560024D01*
X105139598Y-102560024D02*
X105091979Y-102464785D01*
X105091979Y-102464785D02*
X105091979Y-102369547D01*
X105091979Y-102369547D02*
X105139598Y-102274309D01*
X105139598Y-102274309D02*
X105234836Y-102226690D01*
X105234836Y-102226690D02*
X105472931Y-102226690D01*
X105472931Y-102226690D02*
X105568169Y-102179071D01*
X105949122Y-101940976D02*
X106187217Y-102607643D01*
X106187217Y-102607643D02*
X106425312Y-101940976D01*
X107568170Y-102226690D02*
X108330075Y-102226690D01*
X110091979Y-101655262D02*
X109996741Y-101607643D01*
X109996741Y-101607643D02*
X109853884Y-101607643D01*
X109853884Y-101607643D02*
X109711027Y-101655262D01*
X109711027Y-101655262D02*
X109615789Y-101750500D01*
X109615789Y-101750500D02*
X109568170Y-101845738D01*
X109568170Y-101845738D02*
X109520551Y-102036214D01*
X109520551Y-102036214D02*
X109520551Y-102179071D01*
X109520551Y-102179071D02*
X109568170Y-102369547D01*
X109568170Y-102369547D02*
X109615789Y-102464785D01*
X109615789Y-102464785D02*
X109711027Y-102560024D01*
X109711027Y-102560024D02*
X109853884Y-102607643D01*
X109853884Y-102607643D02*
X109949122Y-102607643D01*
X109949122Y-102607643D02*
X110091979Y-102560024D01*
X110091979Y-102560024D02*
X110139598Y-102512404D01*
X110139598Y-102512404D02*
X110139598Y-102179071D01*
X110139598Y-102179071D02*
X109949122Y-102179071D01*
X110568170Y-102607643D02*
X110568170Y-101607643D01*
X110568170Y-101607643D02*
X110949122Y-101607643D01*
X110949122Y-101607643D02*
X111044360Y-101655262D01*
X111044360Y-101655262D02*
X111091979Y-101702881D01*
X111091979Y-101702881D02*
X111139598Y-101798119D01*
X111139598Y-101798119D02*
X111139598Y-101940976D01*
X111139598Y-101940976D02*
X111091979Y-102036214D01*
X111091979Y-102036214D02*
X111044360Y-102083833D01*
X111044360Y-102083833D02*
X110949122Y-102131452D01*
X110949122Y-102131452D02*
X110568170Y-102131452D01*
X111568170Y-102607643D02*
X111568170Y-101607643D01*
X112234836Y-101607643D02*
X112425312Y-101607643D01*
X112425312Y-101607643D02*
X112520550Y-101655262D01*
X112520550Y-101655262D02*
X112615788Y-101750500D01*
X112615788Y-101750500D02*
X112663407Y-101940976D01*
X112663407Y-101940976D02*
X112663407Y-102274309D01*
X112663407Y-102274309D02*
X112615788Y-102464785D01*
X112615788Y-102464785D02*
X112520550Y-102560024D01*
X112520550Y-102560024D02*
X112425312Y-102607643D01*
X112425312Y-102607643D02*
X112234836Y-102607643D01*
X112234836Y-102607643D02*
X112139598Y-102560024D01*
X112139598Y-102560024D02*
X112044360Y-102464785D01*
X112044360Y-102464785D02*
X111996741Y-102274309D01*
X111996741Y-102274309D02*
X111996741Y-101940976D01*
X111996741Y-101940976D02*
X112044360Y-101750500D01*
X112044360Y-101750500D02*
X112139598Y-101655262D01*
X112139598Y-101655262D02*
X112234836Y-101607643D01*
X113044360Y-101702881D02*
X113091979Y-101655262D01*
X113091979Y-101655262D02*
X113187217Y-101607643D01*
X113187217Y-101607643D02*
X113425312Y-101607643D01*
X113425312Y-101607643D02*
X113520550Y-101655262D01*
X113520550Y-101655262D02*
X113568169Y-101702881D01*
X113568169Y-101702881D02*
X113615788Y-101798119D01*
X113615788Y-101798119D02*
X113615788Y-101893357D01*
X113615788Y-101893357D02*
X113568169Y-102036214D01*
X113568169Y-102036214D02*
X112996741Y-102607643D01*
X112996741Y-102607643D02*
X113615788Y-102607643D01*
X114472931Y-101607643D02*
X114282455Y-101607643D01*
X114282455Y-101607643D02*
X114187217Y-101655262D01*
X114187217Y-101655262D02*
X114139598Y-101702881D01*
X114139598Y-101702881D02*
X114044360Y-101845738D01*
X114044360Y-101845738D02*
X113996741Y-102036214D01*
X113996741Y-102036214D02*
X113996741Y-102417166D01*
X113996741Y-102417166D02*
X114044360Y-102512404D01*
X114044360Y-102512404D02*
X114091979Y-102560024D01*
X114091979Y-102560024D02*
X114187217Y-102607643D01*
X114187217Y-102607643D02*
X114377693Y-102607643D01*
X114377693Y-102607643D02*
X114472931Y-102560024D01*
X114472931Y-102560024D02*
X114520550Y-102512404D01*
X114520550Y-102512404D02*
X114568169Y-102417166D01*
X114568169Y-102417166D02*
X114568169Y-102179071D01*
X114568169Y-102179071D02*
X114520550Y-102083833D01*
X114520550Y-102083833D02*
X114472931Y-102036214D01*
X114472931Y-102036214D02*
X114377693Y-101988595D01*
X114377693Y-101988595D02*
X114187217Y-101988595D01*
X114187217Y-101988595D02*
X114091979Y-102036214D01*
X114091979Y-102036214D02*
X114044360Y-102083833D01*
X114044360Y-102083833D02*
X113996741Y-102179071D01*
X100853884Y-103217587D02*
X100853884Y-104027110D01*
X100853884Y-104027110D02*
X100901503Y-104122348D01*
X100901503Y-104122348D02*
X100949122Y-104169968D01*
X100949122Y-104169968D02*
X101044360Y-104217587D01*
X101044360Y-104217587D02*
X101234836Y-104217587D01*
X101234836Y-104217587D02*
X101330074Y-104169968D01*
X101330074Y-104169968D02*
X101377693Y-104122348D01*
X101377693Y-104122348D02*
X101425312Y-104027110D01*
X101425312Y-104027110D02*
X101425312Y-103217587D01*
X102044360Y-103646158D02*
X101949122Y-103598539D01*
X101949122Y-103598539D02*
X101901503Y-103550920D01*
X101901503Y-103550920D02*
X101853884Y-103455682D01*
X101853884Y-103455682D02*
X101853884Y-103408063D01*
X101853884Y-103408063D02*
X101901503Y-103312825D01*
X101901503Y-103312825D02*
X101949122Y-103265206D01*
X101949122Y-103265206D02*
X102044360Y-103217587D01*
X102044360Y-103217587D02*
X102234836Y-103217587D01*
X102234836Y-103217587D02*
X102330074Y-103265206D01*
X102330074Y-103265206D02*
X102377693Y-103312825D01*
X102377693Y-103312825D02*
X102425312Y-103408063D01*
X102425312Y-103408063D02*
X102425312Y-103455682D01*
X102425312Y-103455682D02*
X102377693Y-103550920D01*
X102377693Y-103550920D02*
X102330074Y-103598539D01*
X102330074Y-103598539D02*
X102234836Y-103646158D01*
X102234836Y-103646158D02*
X102044360Y-103646158D01*
X102044360Y-103646158D02*
X101949122Y-103693777D01*
X101949122Y-103693777D02*
X101901503Y-103741396D01*
X101901503Y-103741396D02*
X101853884Y-103836634D01*
X101853884Y-103836634D02*
X101853884Y-104027110D01*
X101853884Y-104027110D02*
X101901503Y-104122348D01*
X101901503Y-104122348D02*
X101949122Y-104169968D01*
X101949122Y-104169968D02*
X102044360Y-104217587D01*
X102044360Y-104217587D02*
X102234836Y-104217587D01*
X102234836Y-104217587D02*
X102330074Y-104169968D01*
X102330074Y-104169968D02*
X102377693Y-104122348D01*
X102377693Y-104122348D02*
X102425312Y-104027110D01*
X102425312Y-104027110D02*
X102425312Y-103836634D01*
X102425312Y-103836634D02*
X102377693Y-103741396D01*
X102377693Y-103741396D02*
X102330074Y-103693777D01*
X102330074Y-103693777D02*
X102234836Y-103646158D01*
X102853884Y-104122348D02*
X102901503Y-104169968D01*
X102901503Y-104169968D02*
X102853884Y-104217587D01*
X102853884Y-104217587D02*
X102806265Y-104169968D01*
X102806265Y-104169968D02*
X102853884Y-104122348D01*
X102853884Y-104122348D02*
X102853884Y-104217587D01*
X102853884Y-103598539D02*
X102901503Y-103646158D01*
X102901503Y-103646158D02*
X102853884Y-103693777D01*
X102853884Y-103693777D02*
X102806265Y-103646158D01*
X102806265Y-103646158D02*
X102853884Y-103598539D01*
X102853884Y-103598539D02*
X102853884Y-103693777D01*
X104044360Y-104169968D02*
X104187217Y-104217587D01*
X104187217Y-104217587D02*
X104425312Y-104217587D01*
X104425312Y-104217587D02*
X104520550Y-104169968D01*
X104520550Y-104169968D02*
X104568169Y-104122348D01*
X104568169Y-104122348D02*
X104615788Y-104027110D01*
X104615788Y-104027110D02*
X104615788Y-103931872D01*
X104615788Y-103931872D02*
X104568169Y-103836634D01*
X104568169Y-103836634D02*
X104520550Y-103789015D01*
X104520550Y-103789015D02*
X104425312Y-103741396D01*
X104425312Y-103741396D02*
X104234836Y-103693777D01*
X104234836Y-103693777D02*
X104139598Y-103646158D01*
X104139598Y-103646158D02*
X104091979Y-103598539D01*
X104091979Y-103598539D02*
X104044360Y-103503301D01*
X104044360Y-103503301D02*
X104044360Y-103408063D01*
X104044360Y-103408063D02*
X104091979Y-103312825D01*
X104091979Y-103312825D02*
X104139598Y-103265206D01*
X104139598Y-103265206D02*
X104234836Y-103217587D01*
X104234836Y-103217587D02*
X104472931Y-103217587D01*
X104472931Y-103217587D02*
X104615788Y-103265206D01*
X104901503Y-103550920D02*
X105282455Y-103550920D01*
X105044360Y-103217587D02*
X105044360Y-104074729D01*
X105044360Y-104074729D02*
X105091979Y-104169968D01*
X105091979Y-104169968D02*
X105187217Y-104217587D01*
X105187217Y-104217587D02*
X105282455Y-104217587D01*
X105615789Y-104217587D02*
X105615789Y-103550920D01*
X105615789Y-103741396D02*
X105663408Y-103646158D01*
X105663408Y-103646158D02*
X105711027Y-103598539D01*
X105711027Y-103598539D02*
X105806265Y-103550920D01*
X105806265Y-103550920D02*
X105901503Y-103550920D01*
X106377694Y-104217587D02*
X106282456Y-104169968D01*
X106282456Y-104169968D02*
X106234837Y-104122348D01*
X106234837Y-104122348D02*
X106187218Y-104027110D01*
X106187218Y-104027110D02*
X106187218Y-103741396D01*
X106187218Y-103741396D02*
X106234837Y-103646158D01*
X106234837Y-103646158D02*
X106282456Y-103598539D01*
X106282456Y-103598539D02*
X106377694Y-103550920D01*
X106377694Y-103550920D02*
X106520551Y-103550920D01*
X106520551Y-103550920D02*
X106615789Y-103598539D01*
X106615789Y-103598539D02*
X106663408Y-103646158D01*
X106663408Y-103646158D02*
X106711027Y-103741396D01*
X106711027Y-103741396D02*
X106711027Y-104027110D01*
X106711027Y-104027110D02*
X106663408Y-104122348D01*
X106663408Y-104122348D02*
X106615789Y-104169968D01*
X106615789Y-104169968D02*
X106520551Y-104217587D01*
X106520551Y-104217587D02*
X106377694Y-104217587D01*
X107139599Y-104217587D02*
X107139599Y-103217587D01*
X107139599Y-103598539D02*
X107234837Y-103550920D01*
X107234837Y-103550920D02*
X107425313Y-103550920D01*
X107425313Y-103550920D02*
X107520551Y-103598539D01*
X107520551Y-103598539D02*
X107568170Y-103646158D01*
X107568170Y-103646158D02*
X107615789Y-103741396D01*
X107615789Y-103741396D02*
X107615789Y-104027110D01*
X107615789Y-104027110D02*
X107568170Y-104122348D01*
X107568170Y-104122348D02*
X107520551Y-104169968D01*
X107520551Y-104169968D02*
X107425313Y-104217587D01*
X107425313Y-104217587D02*
X107234837Y-104217587D01*
X107234837Y-104217587D02*
X107139599Y-104169968D01*
X108425313Y-104169968D02*
X108330075Y-104217587D01*
X108330075Y-104217587D02*
X108139599Y-104217587D01*
X108139599Y-104217587D02*
X108044361Y-104169968D01*
X108044361Y-104169968D02*
X107996742Y-104074729D01*
X107996742Y-104074729D02*
X107996742Y-103693777D01*
X107996742Y-103693777D02*
X108044361Y-103598539D01*
X108044361Y-103598539D02*
X108139599Y-103550920D01*
X108139599Y-103550920D02*
X108330075Y-103550920D01*
X108330075Y-103550920D02*
X108425313Y-103598539D01*
X108425313Y-103598539D02*
X108472932Y-103693777D01*
X108472932Y-103693777D02*
X108472932Y-103789015D01*
X108472932Y-103789015D02*
X107996742Y-103884253D01*
X109663409Y-103836634D02*
X110425314Y-103836634D01*
X112187218Y-103265206D02*
X112091980Y-103217587D01*
X112091980Y-103217587D02*
X111949123Y-103217587D01*
X111949123Y-103217587D02*
X111806266Y-103265206D01*
X111806266Y-103265206D02*
X111711028Y-103360444D01*
X111711028Y-103360444D02*
X111663409Y-103455682D01*
X111663409Y-103455682D02*
X111615790Y-103646158D01*
X111615790Y-103646158D02*
X111615790Y-103789015D01*
X111615790Y-103789015D02*
X111663409Y-103979491D01*
X111663409Y-103979491D02*
X111711028Y-104074729D01*
X111711028Y-104074729D02*
X111806266Y-104169968D01*
X111806266Y-104169968D02*
X111949123Y-104217587D01*
X111949123Y-104217587D02*
X112044361Y-104217587D01*
X112044361Y-104217587D02*
X112187218Y-104169968D01*
X112187218Y-104169968D02*
X112234837Y-104122348D01*
X112234837Y-104122348D02*
X112234837Y-103789015D01*
X112234837Y-103789015D02*
X112044361Y-103789015D01*
X112663409Y-104217587D02*
X112663409Y-103217587D01*
X112663409Y-103217587D02*
X113044361Y-103217587D01*
X113044361Y-103217587D02*
X113139599Y-103265206D01*
X113139599Y-103265206D02*
X113187218Y-103312825D01*
X113187218Y-103312825D02*
X113234837Y-103408063D01*
X113234837Y-103408063D02*
X113234837Y-103550920D01*
X113234837Y-103550920D02*
X113187218Y-103646158D01*
X113187218Y-103646158D02*
X113139599Y-103693777D01*
X113139599Y-103693777D02*
X113044361Y-103741396D01*
X113044361Y-103741396D02*
X112663409Y-103741396D01*
X113663409Y-104217587D02*
X113663409Y-103217587D01*
X114330075Y-103217587D02*
X114520551Y-103217587D01*
X114520551Y-103217587D02*
X114615789Y-103265206D01*
X114615789Y-103265206D02*
X114711027Y-103360444D01*
X114711027Y-103360444D02*
X114758646Y-103550920D01*
X114758646Y-103550920D02*
X114758646Y-103884253D01*
X114758646Y-103884253D02*
X114711027Y-104074729D01*
X114711027Y-104074729D02*
X114615789Y-104169968D01*
X114615789Y-104169968D02*
X114520551Y-104217587D01*
X114520551Y-104217587D02*
X114330075Y-104217587D01*
X114330075Y-104217587D02*
X114234837Y-104169968D01*
X114234837Y-104169968D02*
X114139599Y-104074729D01*
X114139599Y-104074729D02*
X114091980Y-103884253D01*
X114091980Y-103884253D02*
X114091980Y-103550920D01*
X114091980Y-103550920D02*
X114139599Y-103360444D01*
X114139599Y-103360444D02*
X114234837Y-103265206D01*
X114234837Y-103265206D02*
X114330075Y-103217587D01*
X115139599Y-103312825D02*
X115187218Y-103265206D01*
X115187218Y-103265206D02*
X115282456Y-103217587D01*
X115282456Y-103217587D02*
X115520551Y-103217587D01*
X115520551Y-103217587D02*
X115615789Y-103265206D01*
X115615789Y-103265206D02*
X115663408Y-103312825D01*
X115663408Y-103312825D02*
X115711027Y-103408063D01*
X115711027Y-103408063D02*
X115711027Y-103503301D01*
X115711027Y-103503301D02*
X115663408Y-103646158D01*
X115663408Y-103646158D02*
X115091980Y-104217587D01*
X115091980Y-104217587D02*
X115711027Y-104217587D01*
X116044361Y-103217587D02*
X116711027Y-103217587D01*
X116711027Y-103217587D02*
X116282456Y-104217587D01*
X100853884Y-104827531D02*
X100853884Y-105637054D01*
X100853884Y-105637054D02*
X100901503Y-105732292D01*
X100901503Y-105732292D02*
X100949122Y-105779912D01*
X100949122Y-105779912D02*
X101044360Y-105827531D01*
X101044360Y-105827531D02*
X101234836Y-105827531D01*
X101234836Y-105827531D02*
X101330074Y-105779912D01*
X101330074Y-105779912D02*
X101377693Y-105732292D01*
X101377693Y-105732292D02*
X101425312Y-105637054D01*
X101425312Y-105637054D02*
X101425312Y-104827531D01*
X102425312Y-105827531D02*
X101853884Y-105827531D01*
X102139598Y-105827531D02*
X102139598Y-104827531D01*
X102139598Y-104827531D02*
X102044360Y-104970388D01*
X102044360Y-104970388D02*
X101949122Y-105065626D01*
X101949122Y-105065626D02*
X101853884Y-105113245D01*
X102758646Y-104827531D02*
X103377693Y-104827531D01*
X103377693Y-104827531D02*
X103044360Y-105208483D01*
X103044360Y-105208483D02*
X103187217Y-105208483D01*
X103187217Y-105208483D02*
X103282455Y-105256102D01*
X103282455Y-105256102D02*
X103330074Y-105303721D01*
X103330074Y-105303721D02*
X103377693Y-105398959D01*
X103377693Y-105398959D02*
X103377693Y-105637054D01*
X103377693Y-105637054D02*
X103330074Y-105732292D01*
X103330074Y-105732292D02*
X103282455Y-105779912D01*
X103282455Y-105779912D02*
X103187217Y-105827531D01*
X103187217Y-105827531D02*
X102901503Y-105827531D01*
X102901503Y-105827531D02*
X102806265Y-105779912D01*
X102806265Y-105779912D02*
X102758646Y-105732292D01*
X103806265Y-105732292D02*
X103853884Y-105779912D01*
X103853884Y-105779912D02*
X103806265Y-105827531D01*
X103806265Y-105827531D02*
X103758646Y-105779912D01*
X103758646Y-105779912D02*
X103806265Y-105732292D01*
X103806265Y-105732292D02*
X103806265Y-105827531D01*
X103806265Y-105208483D02*
X103853884Y-105256102D01*
X103853884Y-105256102D02*
X103806265Y-105303721D01*
X103806265Y-105303721D02*
X103758646Y-105256102D01*
X103758646Y-105256102D02*
X103806265Y-105208483D01*
X103806265Y-105208483D02*
X103806265Y-105303721D01*
X105615788Y-105732292D02*
X105568169Y-105779912D01*
X105568169Y-105779912D02*
X105425312Y-105827531D01*
X105425312Y-105827531D02*
X105330074Y-105827531D01*
X105330074Y-105827531D02*
X105187217Y-105779912D01*
X105187217Y-105779912D02*
X105091979Y-105684673D01*
X105091979Y-105684673D02*
X105044360Y-105589435D01*
X105044360Y-105589435D02*
X104996741Y-105398959D01*
X104996741Y-105398959D02*
X104996741Y-105256102D01*
X104996741Y-105256102D02*
X105044360Y-105065626D01*
X105044360Y-105065626D02*
X105091979Y-104970388D01*
X105091979Y-104970388D02*
X105187217Y-104875150D01*
X105187217Y-104875150D02*
X105330074Y-104827531D01*
X105330074Y-104827531D02*
X105425312Y-104827531D01*
X105425312Y-104827531D02*
X105568169Y-104875150D01*
X105568169Y-104875150D02*
X105615788Y-104922769D01*
X105996741Y-105779912D02*
X106139598Y-105827531D01*
X106139598Y-105827531D02*
X106377693Y-105827531D01*
X106377693Y-105827531D02*
X106472931Y-105779912D01*
X106472931Y-105779912D02*
X106520550Y-105732292D01*
X106520550Y-105732292D02*
X106568169Y-105637054D01*
X106568169Y-105637054D02*
X106568169Y-105541816D01*
X106568169Y-105541816D02*
X106520550Y-105446578D01*
X106520550Y-105446578D02*
X106472931Y-105398959D01*
X106472931Y-105398959D02*
X106377693Y-105351340D01*
X106377693Y-105351340D02*
X106187217Y-105303721D01*
X106187217Y-105303721D02*
X106091979Y-105256102D01*
X106091979Y-105256102D02*
X106044360Y-105208483D01*
X106044360Y-105208483D02*
X105996741Y-105113245D01*
X105996741Y-105113245D02*
X105996741Y-105018007D01*
X105996741Y-105018007D02*
X106044360Y-104922769D01*
X106044360Y-104922769D02*
X106091979Y-104875150D01*
X106091979Y-104875150D02*
X106187217Y-104827531D01*
X106187217Y-104827531D02*
X106425312Y-104827531D01*
X106425312Y-104827531D02*
X106568169Y-104875150D01*
X107758646Y-105446578D02*
X108520551Y-105446578D01*
X110282455Y-104875150D02*
X110187217Y-104827531D01*
X110187217Y-104827531D02*
X110044360Y-104827531D01*
X110044360Y-104827531D02*
X109901503Y-104875150D01*
X109901503Y-104875150D02*
X109806265Y-104970388D01*
X109806265Y-104970388D02*
X109758646Y-105065626D01*
X109758646Y-105065626D02*
X109711027Y-105256102D01*
X109711027Y-105256102D02*
X109711027Y-105398959D01*
X109711027Y-105398959D02*
X109758646Y-105589435D01*
X109758646Y-105589435D02*
X109806265Y-105684673D01*
X109806265Y-105684673D02*
X109901503Y-105779912D01*
X109901503Y-105779912D02*
X110044360Y-105827531D01*
X110044360Y-105827531D02*
X110139598Y-105827531D01*
X110139598Y-105827531D02*
X110282455Y-105779912D01*
X110282455Y-105779912D02*
X110330074Y-105732292D01*
X110330074Y-105732292D02*
X110330074Y-105398959D01*
X110330074Y-105398959D02*
X110139598Y-105398959D01*
X110758646Y-105827531D02*
X110758646Y-104827531D01*
X110758646Y-104827531D02*
X111139598Y-104827531D01*
X111139598Y-104827531D02*
X111234836Y-104875150D01*
X111234836Y-104875150D02*
X111282455Y-104922769D01*
X111282455Y-104922769D02*
X111330074Y-105018007D01*
X111330074Y-105018007D02*
X111330074Y-105160864D01*
X111330074Y-105160864D02*
X111282455Y-105256102D01*
X111282455Y-105256102D02*
X111234836Y-105303721D01*
X111234836Y-105303721D02*
X111139598Y-105351340D01*
X111139598Y-105351340D02*
X110758646Y-105351340D01*
X111758646Y-105827531D02*
X111758646Y-104827531D01*
X112425312Y-104827531D02*
X112615788Y-104827531D01*
X112615788Y-104827531D02*
X112711026Y-104875150D01*
X112711026Y-104875150D02*
X112806264Y-104970388D01*
X112806264Y-104970388D02*
X112853883Y-105160864D01*
X112853883Y-105160864D02*
X112853883Y-105494197D01*
X112853883Y-105494197D02*
X112806264Y-105684673D01*
X112806264Y-105684673D02*
X112711026Y-105779912D01*
X112711026Y-105779912D02*
X112615788Y-105827531D01*
X112615788Y-105827531D02*
X112425312Y-105827531D01*
X112425312Y-105827531D02*
X112330074Y-105779912D01*
X112330074Y-105779912D02*
X112234836Y-105684673D01*
X112234836Y-105684673D02*
X112187217Y-105494197D01*
X112187217Y-105494197D02*
X112187217Y-105160864D01*
X112187217Y-105160864D02*
X112234836Y-104970388D01*
X112234836Y-104970388D02*
X112330074Y-104875150D01*
X112330074Y-104875150D02*
X112425312Y-104827531D01*
X113758645Y-104827531D02*
X113282455Y-104827531D01*
X113282455Y-104827531D02*
X113234836Y-105303721D01*
X113234836Y-105303721D02*
X113282455Y-105256102D01*
X113282455Y-105256102D02*
X113377693Y-105208483D01*
X113377693Y-105208483D02*
X113615788Y-105208483D01*
X113615788Y-105208483D02*
X113711026Y-105256102D01*
X113711026Y-105256102D02*
X113758645Y-105303721D01*
X113758645Y-105303721D02*
X113806264Y-105398959D01*
X113806264Y-105398959D02*
X113806264Y-105637054D01*
X113806264Y-105637054D02*
X113758645Y-105732292D01*
X113758645Y-105732292D02*
X113711026Y-105779912D01*
X113711026Y-105779912D02*
X113615788Y-105827531D01*
X113615788Y-105827531D02*
X113377693Y-105827531D01*
X113377693Y-105827531D02*
X113282455Y-105779912D01*
X113282455Y-105779912D02*
X113234836Y-105732292D01*
X100853884Y-106437475D02*
X100853884Y-107246998D01*
X100853884Y-107246998D02*
X100901503Y-107342236D01*
X100901503Y-107342236D02*
X100949122Y-107389856D01*
X100949122Y-107389856D02*
X101044360Y-107437475D01*
X101044360Y-107437475D02*
X101234836Y-107437475D01*
X101234836Y-107437475D02*
X101330074Y-107389856D01*
X101330074Y-107389856D02*
X101377693Y-107342236D01*
X101377693Y-107342236D02*
X101425312Y-107246998D01*
X101425312Y-107246998D02*
X101425312Y-106437475D01*
X101853884Y-106532713D02*
X101901503Y-106485094D01*
X101901503Y-106485094D02*
X101996741Y-106437475D01*
X101996741Y-106437475D02*
X102234836Y-106437475D01*
X102234836Y-106437475D02*
X102330074Y-106485094D01*
X102330074Y-106485094D02*
X102377693Y-106532713D01*
X102377693Y-106532713D02*
X102425312Y-106627951D01*
X102425312Y-106627951D02*
X102425312Y-106723189D01*
X102425312Y-106723189D02*
X102377693Y-106866046D01*
X102377693Y-106866046D02*
X101806265Y-107437475D01*
X101806265Y-107437475D02*
X102425312Y-107437475D01*
X102853884Y-107342236D02*
X102901503Y-107389856D01*
X102901503Y-107389856D02*
X102853884Y-107437475D01*
X102853884Y-107437475D02*
X102806265Y-107389856D01*
X102806265Y-107389856D02*
X102853884Y-107342236D01*
X102853884Y-107342236D02*
X102853884Y-107437475D01*
X102853884Y-106818427D02*
X102901503Y-106866046D01*
X102901503Y-106866046D02*
X102853884Y-106913665D01*
X102853884Y-106913665D02*
X102806265Y-106866046D01*
X102806265Y-106866046D02*
X102853884Y-106818427D01*
X102853884Y-106818427D02*
X102853884Y-106913665D01*
X104663407Y-107342236D02*
X104615788Y-107389856D01*
X104615788Y-107389856D02*
X104472931Y-107437475D01*
X104472931Y-107437475D02*
X104377693Y-107437475D01*
X104377693Y-107437475D02*
X104234836Y-107389856D01*
X104234836Y-107389856D02*
X104139598Y-107294617D01*
X104139598Y-107294617D02*
X104091979Y-107199379D01*
X104091979Y-107199379D02*
X104044360Y-107008903D01*
X104044360Y-107008903D02*
X104044360Y-106866046D01*
X104044360Y-106866046D02*
X104091979Y-106675570D01*
X104091979Y-106675570D02*
X104139598Y-106580332D01*
X104139598Y-106580332D02*
X104234836Y-106485094D01*
X104234836Y-106485094D02*
X104377693Y-106437475D01*
X104377693Y-106437475D02*
X104472931Y-106437475D01*
X104472931Y-106437475D02*
X104615788Y-106485094D01*
X104615788Y-106485094D02*
X104663407Y-106532713D01*
X105091979Y-106913665D02*
X105425312Y-106913665D01*
X105568169Y-107437475D02*
X105091979Y-107437475D01*
X105091979Y-107437475D02*
X105091979Y-106437475D01*
X105091979Y-106437475D02*
X105568169Y-106437475D01*
X106758646Y-107056522D02*
X107520551Y-107056522D01*
X109282455Y-106485094D02*
X109187217Y-106437475D01*
X109187217Y-106437475D02*
X109044360Y-106437475D01*
X109044360Y-106437475D02*
X108901503Y-106485094D01*
X108901503Y-106485094D02*
X108806265Y-106580332D01*
X108806265Y-106580332D02*
X108758646Y-106675570D01*
X108758646Y-106675570D02*
X108711027Y-106866046D01*
X108711027Y-106866046D02*
X108711027Y-107008903D01*
X108711027Y-107008903D02*
X108758646Y-107199379D01*
X108758646Y-107199379D02*
X108806265Y-107294617D01*
X108806265Y-107294617D02*
X108901503Y-107389856D01*
X108901503Y-107389856D02*
X109044360Y-107437475D01*
X109044360Y-107437475D02*
X109139598Y-107437475D01*
X109139598Y-107437475D02*
X109282455Y-107389856D01*
X109282455Y-107389856D02*
X109330074Y-107342236D01*
X109330074Y-107342236D02*
X109330074Y-107008903D01*
X109330074Y-107008903D02*
X109139598Y-107008903D01*
X109758646Y-107437475D02*
X109758646Y-106437475D01*
X109758646Y-106437475D02*
X110139598Y-106437475D01*
X110139598Y-106437475D02*
X110234836Y-106485094D01*
X110234836Y-106485094D02*
X110282455Y-106532713D01*
X110282455Y-106532713D02*
X110330074Y-106627951D01*
X110330074Y-106627951D02*
X110330074Y-106770808D01*
X110330074Y-106770808D02*
X110282455Y-106866046D01*
X110282455Y-106866046D02*
X110234836Y-106913665D01*
X110234836Y-106913665D02*
X110139598Y-106961284D01*
X110139598Y-106961284D02*
X109758646Y-106961284D01*
X110758646Y-107437475D02*
X110758646Y-106437475D01*
X111425312Y-106437475D02*
X111615788Y-106437475D01*
X111615788Y-106437475D02*
X111711026Y-106485094D01*
X111711026Y-106485094D02*
X111806264Y-106580332D01*
X111806264Y-106580332D02*
X111853883Y-106770808D01*
X111853883Y-106770808D02*
X111853883Y-107104141D01*
X111853883Y-107104141D02*
X111806264Y-107294617D01*
X111806264Y-107294617D02*
X111711026Y-107389856D01*
X111711026Y-107389856D02*
X111615788Y-107437475D01*
X111615788Y-107437475D02*
X111425312Y-107437475D01*
X111425312Y-107437475D02*
X111330074Y-107389856D01*
X111330074Y-107389856D02*
X111234836Y-107294617D01*
X111234836Y-107294617D02*
X111187217Y-107104141D01*
X111187217Y-107104141D02*
X111187217Y-106770808D01*
X111187217Y-106770808D02*
X111234836Y-106580332D01*
X111234836Y-106580332D02*
X111330074Y-106485094D01*
X111330074Y-106485094D02*
X111425312Y-106437475D01*
X112711026Y-106770808D02*
X112711026Y-107437475D01*
X112472931Y-106389856D02*
X112234836Y-107104141D01*
X112234836Y-107104141D02*
X112853883Y-107104141D01*
X100853884Y-108047419D02*
X100853884Y-108856942D01*
X100853884Y-108856942D02*
X100901503Y-108952180D01*
X100901503Y-108952180D02*
X100949122Y-108999800D01*
X100949122Y-108999800D02*
X101044360Y-109047419D01*
X101044360Y-109047419D02*
X101234836Y-109047419D01*
X101234836Y-109047419D02*
X101330074Y-108999800D01*
X101330074Y-108999800D02*
X101377693Y-108952180D01*
X101377693Y-108952180D02*
X101425312Y-108856942D01*
X101425312Y-108856942D02*
X101425312Y-108047419D01*
X101853884Y-108142657D02*
X101901503Y-108095038D01*
X101901503Y-108095038D02*
X101996741Y-108047419D01*
X101996741Y-108047419D02*
X102234836Y-108047419D01*
X102234836Y-108047419D02*
X102330074Y-108095038D01*
X102330074Y-108095038D02*
X102377693Y-108142657D01*
X102377693Y-108142657D02*
X102425312Y-108237895D01*
X102425312Y-108237895D02*
X102425312Y-108333133D01*
X102425312Y-108333133D02*
X102377693Y-108475990D01*
X102377693Y-108475990D02*
X101806265Y-109047419D01*
X101806265Y-109047419D02*
X102425312Y-109047419D01*
X102853884Y-108952180D02*
X102901503Y-108999800D01*
X102901503Y-108999800D02*
X102853884Y-109047419D01*
X102853884Y-109047419D02*
X102806265Y-108999800D01*
X102806265Y-108999800D02*
X102853884Y-108952180D01*
X102853884Y-108952180D02*
X102853884Y-109047419D01*
X102853884Y-108428371D02*
X102901503Y-108475990D01*
X102901503Y-108475990D02*
X102853884Y-108523609D01*
X102853884Y-108523609D02*
X102806265Y-108475990D01*
X102806265Y-108475990D02*
X102853884Y-108428371D01*
X102853884Y-108428371D02*
X102853884Y-108523609D01*
X104663407Y-108952180D02*
X104615788Y-108999800D01*
X104615788Y-108999800D02*
X104472931Y-109047419D01*
X104472931Y-109047419D02*
X104377693Y-109047419D01*
X104377693Y-109047419D02*
X104234836Y-108999800D01*
X104234836Y-108999800D02*
X104139598Y-108904561D01*
X104139598Y-108904561D02*
X104091979Y-108809323D01*
X104091979Y-108809323D02*
X104044360Y-108618847D01*
X104044360Y-108618847D02*
X104044360Y-108475990D01*
X104044360Y-108475990D02*
X104091979Y-108285514D01*
X104091979Y-108285514D02*
X104139598Y-108190276D01*
X104139598Y-108190276D02*
X104234836Y-108095038D01*
X104234836Y-108095038D02*
X104377693Y-108047419D01*
X104377693Y-108047419D02*
X104472931Y-108047419D01*
X104472931Y-108047419D02*
X104615788Y-108095038D01*
X104615788Y-108095038D02*
X104663407Y-108142657D01*
X105044360Y-108999800D02*
X105187217Y-109047419D01*
X105187217Y-109047419D02*
X105425312Y-109047419D01*
X105425312Y-109047419D02*
X105520550Y-108999800D01*
X105520550Y-108999800D02*
X105568169Y-108952180D01*
X105568169Y-108952180D02*
X105615788Y-108856942D01*
X105615788Y-108856942D02*
X105615788Y-108761704D01*
X105615788Y-108761704D02*
X105568169Y-108666466D01*
X105568169Y-108666466D02*
X105520550Y-108618847D01*
X105520550Y-108618847D02*
X105425312Y-108571228D01*
X105425312Y-108571228D02*
X105234836Y-108523609D01*
X105234836Y-108523609D02*
X105139598Y-108475990D01*
X105139598Y-108475990D02*
X105091979Y-108428371D01*
X105091979Y-108428371D02*
X105044360Y-108333133D01*
X105044360Y-108333133D02*
X105044360Y-108237895D01*
X105044360Y-108237895D02*
X105091979Y-108142657D01*
X105091979Y-108142657D02*
X105139598Y-108095038D01*
X105139598Y-108095038D02*
X105234836Y-108047419D01*
X105234836Y-108047419D02*
X105472931Y-108047419D01*
X105472931Y-108047419D02*
X105615788Y-108095038D01*
X106044360Y-109047419D02*
X106044360Y-108047419D01*
X106044360Y-108047419D02*
X106615788Y-109047419D01*
X106615788Y-109047419D02*
X106615788Y-108047419D01*
X107853884Y-108666466D02*
X108615789Y-108666466D01*
X110377693Y-108095038D02*
X110282455Y-108047419D01*
X110282455Y-108047419D02*
X110139598Y-108047419D01*
X110139598Y-108047419D02*
X109996741Y-108095038D01*
X109996741Y-108095038D02*
X109901503Y-108190276D01*
X109901503Y-108190276D02*
X109853884Y-108285514D01*
X109853884Y-108285514D02*
X109806265Y-108475990D01*
X109806265Y-108475990D02*
X109806265Y-108618847D01*
X109806265Y-108618847D02*
X109853884Y-108809323D01*
X109853884Y-108809323D02*
X109901503Y-108904561D01*
X109901503Y-108904561D02*
X109996741Y-108999800D01*
X109996741Y-108999800D02*
X110139598Y-109047419D01*
X110139598Y-109047419D02*
X110234836Y-109047419D01*
X110234836Y-109047419D02*
X110377693Y-108999800D01*
X110377693Y-108999800D02*
X110425312Y-108952180D01*
X110425312Y-108952180D02*
X110425312Y-108618847D01*
X110425312Y-108618847D02*
X110234836Y-108618847D01*
X110853884Y-109047419D02*
X110853884Y-108047419D01*
X110853884Y-108047419D02*
X111234836Y-108047419D01*
X111234836Y-108047419D02*
X111330074Y-108095038D01*
X111330074Y-108095038D02*
X111377693Y-108142657D01*
X111377693Y-108142657D02*
X111425312Y-108237895D01*
X111425312Y-108237895D02*
X111425312Y-108380752D01*
X111425312Y-108380752D02*
X111377693Y-108475990D01*
X111377693Y-108475990D02*
X111330074Y-108523609D01*
X111330074Y-108523609D02*
X111234836Y-108571228D01*
X111234836Y-108571228D02*
X110853884Y-108571228D01*
X111853884Y-109047419D02*
X111853884Y-108047419D01*
X112520550Y-108047419D02*
X112711026Y-108047419D01*
X112711026Y-108047419D02*
X112806264Y-108095038D01*
X112806264Y-108095038D02*
X112901502Y-108190276D01*
X112901502Y-108190276D02*
X112949121Y-108380752D01*
X112949121Y-108380752D02*
X112949121Y-108714085D01*
X112949121Y-108714085D02*
X112901502Y-108904561D01*
X112901502Y-108904561D02*
X112806264Y-108999800D01*
X112806264Y-108999800D02*
X112711026Y-109047419D01*
X112711026Y-109047419D02*
X112520550Y-109047419D01*
X112520550Y-109047419D02*
X112425312Y-108999800D01*
X112425312Y-108999800D02*
X112330074Y-108904561D01*
X112330074Y-108904561D02*
X112282455Y-108714085D01*
X112282455Y-108714085D02*
X112282455Y-108380752D01*
X112282455Y-108380752D02*
X112330074Y-108190276D01*
X112330074Y-108190276D02*
X112425312Y-108095038D01*
X112425312Y-108095038D02*
X112520550Y-108047419D01*
X113901502Y-109047419D02*
X113330074Y-109047419D01*
X113615788Y-109047419D02*
X113615788Y-108047419D01*
X113615788Y-108047419D02*
X113520550Y-108190276D01*
X113520550Y-108190276D02*
X113425312Y-108285514D01*
X113425312Y-108285514D02*
X113330074Y-108333133D01*
X114806264Y-108047419D02*
X114330074Y-108047419D01*
X114330074Y-108047419D02*
X114282455Y-108523609D01*
X114282455Y-108523609D02*
X114330074Y-108475990D01*
X114330074Y-108475990D02*
X114425312Y-108428371D01*
X114425312Y-108428371D02*
X114663407Y-108428371D01*
X114663407Y-108428371D02*
X114758645Y-108475990D01*
X114758645Y-108475990D02*
X114806264Y-108523609D01*
X114806264Y-108523609D02*
X114853883Y-108618847D01*
X114853883Y-108618847D02*
X114853883Y-108856942D01*
X114853883Y-108856942D02*
X114806264Y-108952180D01*
X114806264Y-108952180D02*
X114758645Y-108999800D01*
X114758645Y-108999800D02*
X114663407Y-109047419D01*
X114663407Y-109047419D02*
X114425312Y-109047419D01*
X114425312Y-109047419D02*
X114330074Y-108999800D01*
X114330074Y-108999800D02*
X114282455Y-108952180D01*
D11*
X101295112Y-92236065D02*
X100961779Y-92236065D01*
X100961779Y-92759875D02*
X100961779Y-91759875D01*
X100961779Y-91759875D02*
X101437969Y-91759875D01*
X101818922Y-92759875D02*
X101818922Y-92093208D01*
X101818922Y-91759875D02*
X101771303Y-91807494D01*
X101771303Y-91807494D02*
X101818922Y-91855113D01*
X101818922Y-91855113D02*
X101866541Y-91807494D01*
X101866541Y-91807494D02*
X101818922Y-91759875D01*
X101818922Y-91759875D02*
X101818922Y-91855113D01*
X102295112Y-92093208D02*
X102295112Y-92759875D01*
X102295112Y-92188446D02*
X102342731Y-92140827D01*
X102342731Y-92140827D02*
X102437969Y-92093208D01*
X102437969Y-92093208D02*
X102580826Y-92093208D01*
X102580826Y-92093208D02*
X102676064Y-92140827D01*
X102676064Y-92140827D02*
X102723683Y-92236065D01*
X102723683Y-92236065D02*
X102723683Y-92759875D01*
X103628445Y-92759875D02*
X103628445Y-92236065D01*
X103628445Y-92236065D02*
X103580826Y-92140827D01*
X103580826Y-92140827D02*
X103485588Y-92093208D01*
X103485588Y-92093208D02*
X103295112Y-92093208D01*
X103295112Y-92093208D02*
X103199874Y-92140827D01*
X103628445Y-92712256D02*
X103533207Y-92759875D01*
X103533207Y-92759875D02*
X103295112Y-92759875D01*
X103295112Y-92759875D02*
X103199874Y-92712256D01*
X103199874Y-92712256D02*
X103152255Y-92617017D01*
X103152255Y-92617017D02*
X103152255Y-92521779D01*
X103152255Y-92521779D02*
X103199874Y-92426541D01*
X103199874Y-92426541D02*
X103295112Y-92378922D01*
X103295112Y-92378922D02*
X103533207Y-92378922D01*
X103533207Y-92378922D02*
X103628445Y-92331303D01*
X104247493Y-92759875D02*
X104152255Y-92712256D01*
X104152255Y-92712256D02*
X104104636Y-92617017D01*
X104104636Y-92617017D02*
X104104636Y-91759875D01*
X105390351Y-92759875D02*
X105390351Y-91759875D01*
X105390351Y-91759875D02*
X105771303Y-91759875D01*
X105771303Y-91759875D02*
X105866541Y-91807494D01*
X105866541Y-91807494D02*
X105914160Y-91855113D01*
X105914160Y-91855113D02*
X105961779Y-91950351D01*
X105961779Y-91950351D02*
X105961779Y-92093208D01*
X105961779Y-92093208D02*
X105914160Y-92188446D01*
X105914160Y-92188446D02*
X105866541Y-92236065D01*
X105866541Y-92236065D02*
X105771303Y-92283684D01*
X105771303Y-92283684D02*
X105390351Y-92283684D01*
X106390351Y-92759875D02*
X106390351Y-92093208D01*
X106390351Y-92283684D02*
X106437970Y-92188446D01*
X106437970Y-92188446D02*
X106485589Y-92140827D01*
X106485589Y-92140827D02*
X106580827Y-92093208D01*
X106580827Y-92093208D02*
X106676065Y-92093208D01*
X107152256Y-92759875D02*
X107057018Y-92712256D01*
X107057018Y-92712256D02*
X107009399Y-92664636D01*
X107009399Y-92664636D02*
X106961780Y-92569398D01*
X106961780Y-92569398D02*
X106961780Y-92283684D01*
X106961780Y-92283684D02*
X107009399Y-92188446D01*
X107009399Y-92188446D02*
X107057018Y-92140827D01*
X107057018Y-92140827D02*
X107152256Y-92093208D01*
X107152256Y-92093208D02*
X107295113Y-92093208D01*
X107295113Y-92093208D02*
X107390351Y-92140827D01*
X107390351Y-92140827D02*
X107437970Y-92188446D01*
X107437970Y-92188446D02*
X107485589Y-92283684D01*
X107485589Y-92283684D02*
X107485589Y-92569398D01*
X107485589Y-92569398D02*
X107437970Y-92664636D01*
X107437970Y-92664636D02*
X107390351Y-92712256D01*
X107390351Y-92712256D02*
X107295113Y-92759875D01*
X107295113Y-92759875D02*
X107152256Y-92759875D01*
X107914161Y-92093208D02*
X107914161Y-92950351D01*
X107914161Y-92950351D02*
X107866542Y-93045589D01*
X107866542Y-93045589D02*
X107771304Y-93093208D01*
X107771304Y-93093208D02*
X107723685Y-93093208D01*
X107914161Y-91759875D02*
X107866542Y-91807494D01*
X107866542Y-91807494D02*
X107914161Y-91855113D01*
X107914161Y-91855113D02*
X107961780Y-91807494D01*
X107961780Y-91807494D02*
X107914161Y-91759875D01*
X107914161Y-91759875D02*
X107914161Y-91855113D01*
X108771303Y-92712256D02*
X108676065Y-92759875D01*
X108676065Y-92759875D02*
X108485589Y-92759875D01*
X108485589Y-92759875D02*
X108390351Y-92712256D01*
X108390351Y-92712256D02*
X108342732Y-92617017D01*
X108342732Y-92617017D02*
X108342732Y-92236065D01*
X108342732Y-92236065D02*
X108390351Y-92140827D01*
X108390351Y-92140827D02*
X108485589Y-92093208D01*
X108485589Y-92093208D02*
X108676065Y-92093208D01*
X108676065Y-92093208D02*
X108771303Y-92140827D01*
X108771303Y-92140827D02*
X108818922Y-92236065D01*
X108818922Y-92236065D02*
X108818922Y-92331303D01*
X108818922Y-92331303D02*
X108342732Y-92426541D01*
X109676065Y-92712256D02*
X109580827Y-92759875D01*
X109580827Y-92759875D02*
X109390351Y-92759875D01*
X109390351Y-92759875D02*
X109295113Y-92712256D01*
X109295113Y-92712256D02*
X109247494Y-92664636D01*
X109247494Y-92664636D02*
X109199875Y-92569398D01*
X109199875Y-92569398D02*
X109199875Y-92283684D01*
X109199875Y-92283684D02*
X109247494Y-92188446D01*
X109247494Y-92188446D02*
X109295113Y-92140827D01*
X109295113Y-92140827D02*
X109390351Y-92093208D01*
X109390351Y-92093208D02*
X109580827Y-92093208D01*
X109580827Y-92093208D02*
X109676065Y-92140827D01*
X109961780Y-92093208D02*
X110342732Y-92093208D01*
X110104637Y-91759875D02*
X110104637Y-92617017D01*
X110104637Y-92617017D02*
X110152256Y-92712256D01*
X110152256Y-92712256D02*
X110247494Y-92759875D01*
X110247494Y-92759875D02*
X110342732Y-92759875D01*
X111437971Y-92378922D02*
X112199876Y-92378922D01*
X113390352Y-92474160D02*
X113866542Y-92474160D01*
X113295114Y-92759875D02*
X113628447Y-91759875D01*
X113628447Y-91759875D02*
X113961780Y-92759875D01*
X114295114Y-92759875D02*
X114295114Y-92093208D01*
X114295114Y-91759875D02*
X114247495Y-91807494D01*
X114247495Y-91807494D02*
X114295114Y-91855113D01*
X114295114Y-91855113D02*
X114342733Y-91807494D01*
X114342733Y-91807494D02*
X114295114Y-91759875D01*
X114295114Y-91759875D02*
X114295114Y-91855113D01*
X114771304Y-92759875D02*
X114771304Y-92093208D01*
X114771304Y-92283684D02*
X114818923Y-92188446D01*
X114818923Y-92188446D02*
X114866542Y-92140827D01*
X114866542Y-92140827D02*
X114961780Y-92093208D01*
X114961780Y-92093208D02*
X115057018Y-92093208D01*
X115390352Y-92093208D02*
X115390352Y-93093208D01*
X115390352Y-92140827D02*
X115485590Y-92093208D01*
X115485590Y-92093208D02*
X115676066Y-92093208D01*
X115676066Y-92093208D02*
X115771304Y-92140827D01*
X115771304Y-92140827D02*
X115818923Y-92188446D01*
X115818923Y-92188446D02*
X115866542Y-92283684D01*
X115866542Y-92283684D02*
X115866542Y-92569398D01*
X115866542Y-92569398D02*
X115818923Y-92664636D01*
X115818923Y-92664636D02*
X115771304Y-92712256D01*
X115771304Y-92712256D02*
X115676066Y-92759875D01*
X115676066Y-92759875D02*
X115485590Y-92759875D01*
X115485590Y-92759875D02*
X115390352Y-92712256D01*
X116437971Y-92759875D02*
X116342733Y-92712256D01*
X116342733Y-92712256D02*
X116295114Y-92617017D01*
X116295114Y-92617017D02*
X116295114Y-91759875D01*
X117247495Y-92759875D02*
X117247495Y-92236065D01*
X117247495Y-92236065D02*
X117199876Y-92140827D01*
X117199876Y-92140827D02*
X117104638Y-92093208D01*
X117104638Y-92093208D02*
X116914162Y-92093208D01*
X116914162Y-92093208D02*
X116818924Y-92140827D01*
X117247495Y-92712256D02*
X117152257Y-92759875D01*
X117152257Y-92759875D02*
X116914162Y-92759875D01*
X116914162Y-92759875D02*
X116818924Y-92712256D01*
X116818924Y-92712256D02*
X116771305Y-92617017D01*
X116771305Y-92617017D02*
X116771305Y-92521779D01*
X116771305Y-92521779D02*
X116818924Y-92426541D01*
X116818924Y-92426541D02*
X116914162Y-92378922D01*
X116914162Y-92378922D02*
X117152257Y-92378922D01*
X117152257Y-92378922D02*
X117247495Y-92331303D01*
X117723686Y-92093208D02*
X117723686Y-92759875D01*
X117723686Y-92188446D02*
X117771305Y-92140827D01*
X117771305Y-92140827D02*
X117866543Y-92093208D01*
X117866543Y-92093208D02*
X118009400Y-92093208D01*
X118009400Y-92093208D02*
X118104638Y-92140827D01*
X118104638Y-92140827D02*
X118152257Y-92236065D01*
X118152257Y-92236065D02*
X118152257Y-92759875D01*
X119009400Y-92712256D02*
X118914162Y-92759875D01*
X118914162Y-92759875D02*
X118723686Y-92759875D01*
X118723686Y-92759875D02*
X118628448Y-92712256D01*
X118628448Y-92712256D02*
X118580829Y-92617017D01*
X118580829Y-92617017D02*
X118580829Y-92236065D01*
X118580829Y-92236065D02*
X118628448Y-92140827D01*
X118628448Y-92140827D02*
X118723686Y-92093208D01*
X118723686Y-92093208D02*
X118914162Y-92093208D01*
X118914162Y-92093208D02*
X119009400Y-92140827D01*
X119009400Y-92140827D02*
X119057019Y-92236065D01*
X119057019Y-92236065D02*
X119057019Y-92331303D01*
X119057019Y-92331303D02*
X118580829Y-92426541D01*
X101295112Y-93846009D02*
X101437969Y-93893628D01*
X101437969Y-93893628D02*
X101485588Y-93941247D01*
X101485588Y-93941247D02*
X101533207Y-94036485D01*
X101533207Y-94036485D02*
X101533207Y-94179342D01*
X101533207Y-94179342D02*
X101485588Y-94274580D01*
X101485588Y-94274580D02*
X101437969Y-94322200D01*
X101437969Y-94322200D02*
X101342731Y-94369819D01*
X101342731Y-94369819D02*
X100961779Y-94369819D01*
X100961779Y-94369819D02*
X100961779Y-93369819D01*
X100961779Y-93369819D02*
X101295112Y-93369819D01*
X101295112Y-93369819D02*
X101390350Y-93417438D01*
X101390350Y-93417438D02*
X101437969Y-93465057D01*
X101437969Y-93465057D02*
X101485588Y-93560295D01*
X101485588Y-93560295D02*
X101485588Y-93655533D01*
X101485588Y-93655533D02*
X101437969Y-93750771D01*
X101437969Y-93750771D02*
X101390350Y-93798390D01*
X101390350Y-93798390D02*
X101295112Y-93846009D01*
X101295112Y-93846009D02*
X100961779Y-93846009D01*
X101961779Y-94369819D02*
X101961779Y-93703152D01*
X101961779Y-93893628D02*
X102009398Y-93798390D01*
X102009398Y-93798390D02*
X102057017Y-93750771D01*
X102057017Y-93750771D02*
X102152255Y-93703152D01*
X102152255Y-93703152D02*
X102247493Y-93703152D01*
X102961779Y-94322200D02*
X102866541Y-94369819D01*
X102866541Y-94369819D02*
X102676065Y-94369819D01*
X102676065Y-94369819D02*
X102580827Y-94322200D01*
X102580827Y-94322200D02*
X102533208Y-94226961D01*
X102533208Y-94226961D02*
X102533208Y-93846009D01*
X102533208Y-93846009D02*
X102580827Y-93750771D01*
X102580827Y-93750771D02*
X102676065Y-93703152D01*
X102676065Y-93703152D02*
X102866541Y-93703152D01*
X102866541Y-93703152D02*
X102961779Y-93750771D01*
X102961779Y-93750771D02*
X103009398Y-93846009D01*
X103009398Y-93846009D02*
X103009398Y-93941247D01*
X103009398Y-93941247D02*
X102533208Y-94036485D01*
X103437970Y-93703152D02*
X103437970Y-94369819D01*
X103437970Y-93798390D02*
X103485589Y-93750771D01*
X103485589Y-93750771D02*
X103580827Y-93703152D01*
X103580827Y-93703152D02*
X103723684Y-93703152D01*
X103723684Y-93703152D02*
X103818922Y-93750771D01*
X103818922Y-93750771D02*
X103866541Y-93846009D01*
X103866541Y-93846009D02*
X103866541Y-94369819D01*
X104485589Y-94369819D02*
X104390351Y-94322200D01*
X104390351Y-94322200D02*
X104342732Y-94274580D01*
X104342732Y-94274580D02*
X104295113Y-94179342D01*
X104295113Y-94179342D02*
X104295113Y-93893628D01*
X104295113Y-93893628D02*
X104342732Y-93798390D01*
X104342732Y-93798390D02*
X104390351Y-93750771D01*
X104390351Y-93750771D02*
X104485589Y-93703152D01*
X104485589Y-93703152D02*
X104628446Y-93703152D01*
X104628446Y-93703152D02*
X104723684Y-93750771D01*
X104723684Y-93750771D02*
X104771303Y-93798390D01*
X104771303Y-93798390D02*
X104818922Y-93893628D01*
X104818922Y-93893628D02*
X104818922Y-94179342D01*
X104818922Y-94179342D02*
X104771303Y-94274580D01*
X104771303Y-94274580D02*
X104723684Y-94322200D01*
X104723684Y-94322200D02*
X104628446Y-94369819D01*
X104628446Y-94369819D02*
X104485589Y-94369819D01*
X105961780Y-94322200D02*
X106104637Y-94369819D01*
X106104637Y-94369819D02*
X106342732Y-94369819D01*
X106342732Y-94369819D02*
X106437970Y-94322200D01*
X106437970Y-94322200D02*
X106485589Y-94274580D01*
X106485589Y-94274580D02*
X106533208Y-94179342D01*
X106533208Y-94179342D02*
X106533208Y-94084104D01*
X106533208Y-94084104D02*
X106485589Y-93988866D01*
X106485589Y-93988866D02*
X106437970Y-93941247D01*
X106437970Y-93941247D02*
X106342732Y-93893628D01*
X106342732Y-93893628D02*
X106152256Y-93846009D01*
X106152256Y-93846009D02*
X106057018Y-93798390D01*
X106057018Y-93798390D02*
X106009399Y-93750771D01*
X106009399Y-93750771D02*
X105961780Y-93655533D01*
X105961780Y-93655533D02*
X105961780Y-93560295D01*
X105961780Y-93560295D02*
X106009399Y-93465057D01*
X106009399Y-93465057D02*
X106057018Y-93417438D01*
X106057018Y-93417438D02*
X106152256Y-93369819D01*
X106152256Y-93369819D02*
X106390351Y-93369819D01*
X106390351Y-93369819D02*
X106533208Y-93417438D01*
X107104637Y-94369819D02*
X107009399Y-94322200D01*
X107009399Y-94322200D02*
X106961780Y-94274580D01*
X106961780Y-94274580D02*
X106914161Y-94179342D01*
X106914161Y-94179342D02*
X106914161Y-93893628D01*
X106914161Y-93893628D02*
X106961780Y-93798390D01*
X106961780Y-93798390D02*
X107009399Y-93750771D01*
X107009399Y-93750771D02*
X107104637Y-93703152D01*
X107104637Y-93703152D02*
X107247494Y-93703152D01*
X107247494Y-93703152D02*
X107342732Y-93750771D01*
X107342732Y-93750771D02*
X107390351Y-93798390D01*
X107390351Y-93798390D02*
X107437970Y-93893628D01*
X107437970Y-93893628D02*
X107437970Y-94179342D01*
X107437970Y-94179342D02*
X107390351Y-94274580D01*
X107390351Y-94274580D02*
X107342732Y-94322200D01*
X107342732Y-94322200D02*
X107247494Y-94369819D01*
X107247494Y-94369819D02*
X107104637Y-94369819D01*
X108295113Y-94369819D02*
X108295113Y-93846009D01*
X108295113Y-93846009D02*
X108247494Y-93750771D01*
X108247494Y-93750771D02*
X108152256Y-93703152D01*
X108152256Y-93703152D02*
X107961780Y-93703152D01*
X107961780Y-93703152D02*
X107866542Y-93750771D01*
X108295113Y-94322200D02*
X108199875Y-94369819D01*
X108199875Y-94369819D02*
X107961780Y-94369819D01*
X107961780Y-94369819D02*
X107866542Y-94322200D01*
X107866542Y-94322200D02*
X107818923Y-94226961D01*
X107818923Y-94226961D02*
X107818923Y-94131723D01*
X107818923Y-94131723D02*
X107866542Y-94036485D01*
X107866542Y-94036485D02*
X107961780Y-93988866D01*
X107961780Y-93988866D02*
X108199875Y-93988866D01*
X108199875Y-93988866D02*
X108295113Y-93941247D01*
X108771304Y-94369819D02*
X108771304Y-93703152D01*
X108771304Y-93893628D02*
X108818923Y-93798390D01*
X108818923Y-93798390D02*
X108866542Y-93750771D01*
X108866542Y-93750771D02*
X108961780Y-93703152D01*
X108961780Y-93703152D02*
X109057018Y-93703152D01*
X109771304Y-94322200D02*
X109676066Y-94369819D01*
X109676066Y-94369819D02*
X109485590Y-94369819D01*
X109485590Y-94369819D02*
X109390352Y-94322200D01*
X109390352Y-94322200D02*
X109342733Y-94226961D01*
X109342733Y-94226961D02*
X109342733Y-93846009D01*
X109342733Y-93846009D02*
X109390352Y-93750771D01*
X109390352Y-93750771D02*
X109485590Y-93703152D01*
X109485590Y-93703152D02*
X109676066Y-93703152D01*
X109676066Y-93703152D02*
X109771304Y-93750771D01*
X109771304Y-93750771D02*
X109818923Y-93846009D01*
X109818923Y-93846009D02*
X109818923Y-93941247D01*
X109818923Y-93941247D02*
X109342733Y-94036485D01*
X110199876Y-94322200D02*
X110295114Y-94369819D01*
X110295114Y-94369819D02*
X110485590Y-94369819D01*
X110485590Y-94369819D02*
X110580828Y-94322200D01*
X110580828Y-94322200D02*
X110628447Y-94226961D01*
X110628447Y-94226961D02*
X110628447Y-94179342D01*
X110628447Y-94179342D02*
X110580828Y-94084104D01*
X110580828Y-94084104D02*
X110485590Y-94036485D01*
X110485590Y-94036485D02*
X110342733Y-94036485D01*
X110342733Y-94036485D02*
X110247495Y-93988866D01*
X110247495Y-93988866D02*
X110199876Y-93893628D01*
X110199876Y-93893628D02*
X110199876Y-93846009D01*
X110199876Y-93846009D02*
X110247495Y-93750771D01*
X110247495Y-93750771D02*
X110342733Y-93703152D01*
X110342733Y-93703152D02*
X110485590Y-93703152D01*
X110485590Y-93703152D02*
X110580828Y-93750771D01*
X111771305Y-94084104D02*
X112247495Y-94084104D01*
X111676067Y-94369819D02*
X112009400Y-93369819D01*
X112009400Y-93369819D02*
X112342733Y-94369819D01*
X112818924Y-94369819D02*
X112723686Y-94322200D01*
X112723686Y-94322200D02*
X112676067Y-94226961D01*
X112676067Y-94226961D02*
X112676067Y-93369819D01*
X113104639Y-93703152D02*
X113342734Y-94369819D01*
X113342734Y-94369819D02*
X113580829Y-93703152D01*
X114342734Y-94322200D02*
X114247496Y-94369819D01*
X114247496Y-94369819D02*
X114057020Y-94369819D01*
X114057020Y-94369819D02*
X113961782Y-94322200D01*
X113961782Y-94322200D02*
X113914163Y-94226961D01*
X113914163Y-94226961D02*
X113914163Y-93846009D01*
X113914163Y-93846009D02*
X113961782Y-93750771D01*
X113961782Y-93750771D02*
X114057020Y-93703152D01*
X114057020Y-93703152D02*
X114247496Y-93703152D01*
X114247496Y-93703152D02*
X114342734Y-93750771D01*
X114342734Y-93750771D02*
X114390353Y-93846009D01*
X114390353Y-93846009D02*
X114390353Y-93941247D01*
X114390353Y-93941247D02*
X113914163Y-94036485D01*
X114771306Y-94322200D02*
X114866544Y-94369819D01*
X114866544Y-94369819D02*
X115057020Y-94369819D01*
X115057020Y-94369819D02*
X115152258Y-94322200D01*
X115152258Y-94322200D02*
X115199877Y-94226961D01*
X115199877Y-94226961D02*
X115199877Y-94179342D01*
X115199877Y-94179342D02*
X115152258Y-94084104D01*
X115152258Y-94084104D02*
X115057020Y-94036485D01*
X115057020Y-94036485D02*
X114914163Y-94036485D01*
X114914163Y-94036485D02*
X114818925Y-93988866D01*
X114818925Y-93988866D02*
X114771306Y-93893628D01*
X114771306Y-93893628D02*
X114771306Y-93846009D01*
X114771306Y-93846009D02*
X114818925Y-93750771D01*
X114818925Y-93750771D02*
X114914163Y-93703152D01*
X114914163Y-93703152D02*
X115057020Y-93703152D01*
X115057020Y-93703152D02*
X115152258Y-93750771D01*
X129454819Y-105206666D02*
X128978628Y-105539999D01*
X129454819Y-105778094D02*
X128454819Y-105778094D01*
X128454819Y-105778094D02*
X128454819Y-105397142D01*
X128454819Y-105397142D02*
X128502438Y-105301904D01*
X128502438Y-105301904D02*
X128550057Y-105254285D01*
X128550057Y-105254285D02*
X128645295Y-105206666D01*
X128645295Y-105206666D02*
X128788152Y-105206666D01*
X128788152Y-105206666D02*
X128883390Y-105254285D01*
X128883390Y-105254285D02*
X128931009Y-105301904D01*
X128931009Y-105301904D02*
X128978628Y-105397142D01*
X128978628Y-105397142D02*
X128978628Y-105778094D01*
X128454819Y-104873332D02*
X128454819Y-104206666D01*
X128454819Y-104206666D02*
X129454819Y-104635237D01*
X126454819Y-105206666D02*
X125978628Y-105539999D01*
X126454819Y-105778094D02*
X125454819Y-105778094D01*
X125454819Y-105778094D02*
X125454819Y-105397142D01*
X125454819Y-105397142D02*
X125502438Y-105301904D01*
X125502438Y-105301904D02*
X125550057Y-105254285D01*
X125550057Y-105254285D02*
X125645295Y-105206666D01*
X125645295Y-105206666D02*
X125788152Y-105206666D01*
X125788152Y-105206666D02*
X125883390Y-105254285D01*
X125883390Y-105254285D02*
X125931009Y-105301904D01*
X125931009Y-105301904D02*
X125978628Y-105397142D01*
X125978628Y-105397142D02*
X125978628Y-105778094D01*
X125454819Y-104349523D02*
X125454819Y-104539999D01*
X125454819Y-104539999D02*
X125502438Y-104635237D01*
X125502438Y-104635237D02*
X125550057Y-104682856D01*
X125550057Y-104682856D02*
X125692914Y-104778094D01*
X125692914Y-104778094D02*
X125883390Y-104825713D01*
X125883390Y-104825713D02*
X126264342Y-104825713D01*
X126264342Y-104825713D02*
X126359580Y-104778094D01*
X126359580Y-104778094D02*
X126407200Y-104730475D01*
X126407200Y-104730475D02*
X126454819Y-104635237D01*
X126454819Y-104635237D02*
X126454819Y-104444761D01*
X126454819Y-104444761D02*
X126407200Y-104349523D01*
X126407200Y-104349523D02*
X126359580Y-104301904D01*
X126359580Y-104301904D02*
X126264342Y-104254285D01*
X126264342Y-104254285D02*
X126026247Y-104254285D01*
X126026247Y-104254285D02*
X125931009Y-104301904D01*
X125931009Y-104301904D02*
X125883390Y-104349523D01*
X125883390Y-104349523D02*
X125835771Y-104444761D01*
X125835771Y-104444761D02*
X125835771Y-104635237D01*
X125835771Y-104635237D02*
X125883390Y-104730475D01*
X125883390Y-104730475D02*
X125931009Y-104778094D01*
X125931009Y-104778094D02*
X126026247Y-104825713D01*
X123154819Y-105166666D02*
X122678628Y-105499999D01*
X123154819Y-105738094D02*
X122154819Y-105738094D01*
X122154819Y-105738094D02*
X122154819Y-105357142D01*
X122154819Y-105357142D02*
X122202438Y-105261904D01*
X122202438Y-105261904D02*
X122250057Y-105214285D01*
X122250057Y-105214285D02*
X122345295Y-105166666D01*
X122345295Y-105166666D02*
X122488152Y-105166666D01*
X122488152Y-105166666D02*
X122583390Y-105214285D01*
X122583390Y-105214285D02*
X122631009Y-105261904D01*
X122631009Y-105261904D02*
X122678628Y-105357142D01*
X122678628Y-105357142D02*
X122678628Y-105738094D01*
X122154819Y-104261904D02*
X122154819Y-104738094D01*
X122154819Y-104738094D02*
X122631009Y-104785713D01*
X122631009Y-104785713D02*
X122583390Y-104738094D01*
X122583390Y-104738094D02*
X122535771Y-104642856D01*
X122535771Y-104642856D02*
X122535771Y-104404761D01*
X122535771Y-104404761D02*
X122583390Y-104309523D01*
X122583390Y-104309523D02*
X122631009Y-104261904D01*
X122631009Y-104261904D02*
X122726247Y-104214285D01*
X122726247Y-104214285D02*
X122964342Y-104214285D01*
X122964342Y-104214285D02*
X123059580Y-104261904D01*
X123059580Y-104261904D02*
X123107200Y-104309523D01*
X123107200Y-104309523D02*
X123154819Y-104404761D01*
X123154819Y-104404761D02*
X123154819Y-104642856D01*
X123154819Y-104642856D02*
X123107200Y-104738094D01*
X123107200Y-104738094D02*
X123059580Y-104785713D01*
X188938095Y-81784819D02*
X188938095Y-82594342D01*
X188938095Y-82594342D02*
X188985714Y-82689580D01*
X188985714Y-82689580D02*
X189033333Y-82737200D01*
X189033333Y-82737200D02*
X189128571Y-82784819D01*
X189128571Y-82784819D02*
X189319047Y-82784819D01*
X189319047Y-82784819D02*
X189414285Y-82737200D01*
X189414285Y-82737200D02*
X189461904Y-82689580D01*
X189461904Y-82689580D02*
X189509523Y-82594342D01*
X189509523Y-82594342D02*
X189509523Y-81784819D01*
X190414285Y-82118152D02*
X190414285Y-82784819D01*
X190176190Y-81737200D02*
X189938095Y-82451485D01*
X189938095Y-82451485D02*
X190557142Y-82451485D01*
X164120476Y-92584819D02*
X164120476Y-91584819D01*
X164120476Y-91584819D02*
X164453809Y-92299104D01*
X164453809Y-92299104D02*
X164787142Y-91584819D01*
X164787142Y-91584819D02*
X164787142Y-92584819D01*
X165691904Y-91918152D02*
X165691904Y-92584819D01*
X165453809Y-91537200D02*
X165215714Y-92251485D01*
X165215714Y-92251485D02*
X165834761Y-92251485D01*
X173300476Y-92584819D02*
X173300476Y-91584819D01*
X173300476Y-91584819D02*
X173633809Y-92299104D01*
X173633809Y-92299104D02*
X173967142Y-91584819D01*
X173967142Y-91584819D02*
X173967142Y-92584819D01*
X174395714Y-91680057D02*
X174443333Y-91632438D01*
X174443333Y-91632438D02*
X174538571Y-91584819D01*
X174538571Y-91584819D02*
X174776666Y-91584819D01*
X174776666Y-91584819D02*
X174871904Y-91632438D01*
X174871904Y-91632438D02*
X174919523Y-91680057D01*
X174919523Y-91680057D02*
X174967142Y-91775295D01*
X174967142Y-91775295D02*
X174967142Y-91870533D01*
X174967142Y-91870533D02*
X174919523Y-92013390D01*
X174919523Y-92013390D02*
X174348095Y-92584819D01*
X174348095Y-92584819D02*
X174967142Y-92584819D01*
X151004819Y-91511904D02*
X151814342Y-91511904D01*
X151814342Y-91511904D02*
X151909580Y-91464285D01*
X151909580Y-91464285D02*
X151957200Y-91416666D01*
X151957200Y-91416666D02*
X152004819Y-91321428D01*
X152004819Y-91321428D02*
X152004819Y-91130952D01*
X152004819Y-91130952D02*
X151957200Y-91035714D01*
X151957200Y-91035714D02*
X151909580Y-90988095D01*
X151909580Y-90988095D02*
X151814342Y-90940476D01*
X151814342Y-90940476D02*
X151004819Y-90940476D01*
X151004819Y-90035714D02*
X151004819Y-90226190D01*
X151004819Y-90226190D02*
X151052438Y-90321428D01*
X151052438Y-90321428D02*
X151100057Y-90369047D01*
X151100057Y-90369047D02*
X151242914Y-90464285D01*
X151242914Y-90464285D02*
X151433390Y-90511904D01*
X151433390Y-90511904D02*
X151814342Y-90511904D01*
X151814342Y-90511904D02*
X151909580Y-90464285D01*
X151909580Y-90464285D02*
X151957200Y-90416666D01*
X151957200Y-90416666D02*
X152004819Y-90321428D01*
X152004819Y-90321428D02*
X152004819Y-90130952D01*
X152004819Y-90130952D02*
X151957200Y-90035714D01*
X151957200Y-90035714D02*
X151909580Y-89988095D01*
X151909580Y-89988095D02*
X151814342Y-89940476D01*
X151814342Y-89940476D02*
X151576247Y-89940476D01*
X151576247Y-89940476D02*
X151481009Y-89988095D01*
X151481009Y-89988095D02*
X151433390Y-90035714D01*
X151433390Y-90035714D02*
X151385771Y-90130952D01*
X151385771Y-90130952D02*
X151385771Y-90321428D01*
X151385771Y-90321428D02*
X151433390Y-90416666D01*
X151433390Y-90416666D02*
X151481009Y-90464285D01*
X151481009Y-90464285D02*
X151576247Y-90511904D01*
D10*
X207238095Y-93707419D02*
X207238095Y-94516942D01*
X207238095Y-94516942D02*
X207285714Y-94612180D01*
X207285714Y-94612180D02*
X207333333Y-94659800D01*
X207333333Y-94659800D02*
X207428571Y-94707419D01*
X207428571Y-94707419D02*
X207619047Y-94707419D01*
X207619047Y-94707419D02*
X207714285Y-94659800D01*
X207714285Y-94659800D02*
X207761904Y-94612180D01*
X207761904Y-94612180D02*
X207809523Y-94516942D01*
X207809523Y-94516942D02*
X207809523Y-93707419D01*
X208238095Y-93802657D02*
X208285714Y-93755038D01*
X208285714Y-93755038D02*
X208380952Y-93707419D01*
X208380952Y-93707419D02*
X208619047Y-93707419D01*
X208619047Y-93707419D02*
X208714285Y-93755038D01*
X208714285Y-93755038D02*
X208761904Y-93802657D01*
X208761904Y-93802657D02*
X208809523Y-93897895D01*
X208809523Y-93897895D02*
X208809523Y-93993133D01*
X208809523Y-93993133D02*
X208761904Y-94135990D01*
X208761904Y-94135990D02*
X208190476Y-94707419D01*
X208190476Y-94707419D02*
X208809523Y-94707419D01*
D11*
X152104819Y-114126666D02*
X151628628Y-114459999D01*
X152104819Y-114698094D02*
X151104819Y-114698094D01*
X151104819Y-114698094D02*
X151104819Y-114317142D01*
X151104819Y-114317142D02*
X151152438Y-114221904D01*
X151152438Y-114221904D02*
X151200057Y-114174285D01*
X151200057Y-114174285D02*
X151295295Y-114126666D01*
X151295295Y-114126666D02*
X151438152Y-114126666D01*
X151438152Y-114126666D02*
X151533390Y-114174285D01*
X151533390Y-114174285D02*
X151581009Y-114221904D01*
X151581009Y-114221904D02*
X151628628Y-114317142D01*
X151628628Y-114317142D02*
X151628628Y-114698094D01*
X151438152Y-113269523D02*
X152104819Y-113269523D01*
X151057200Y-113507618D02*
X151771485Y-113745713D01*
X151771485Y-113745713D02*
X151771485Y-113126666D01*
X145283333Y-79859580D02*
X145235714Y-79907200D01*
X145235714Y-79907200D02*
X145092857Y-79954819D01*
X145092857Y-79954819D02*
X144997619Y-79954819D01*
X144997619Y-79954819D02*
X144854762Y-79907200D01*
X144854762Y-79907200D02*
X144759524Y-79811961D01*
X144759524Y-79811961D02*
X144711905Y-79716723D01*
X144711905Y-79716723D02*
X144664286Y-79526247D01*
X144664286Y-79526247D02*
X144664286Y-79383390D01*
X144664286Y-79383390D02*
X144711905Y-79192914D01*
X144711905Y-79192914D02*
X144759524Y-79097676D01*
X144759524Y-79097676D02*
X144854762Y-79002438D01*
X144854762Y-79002438D02*
X144997619Y-78954819D01*
X144997619Y-78954819D02*
X145092857Y-78954819D01*
X145092857Y-78954819D02*
X145235714Y-79002438D01*
X145235714Y-79002438D02*
X145283333Y-79050057D01*
X146140476Y-79288152D02*
X146140476Y-79954819D01*
X145902381Y-78907200D02*
X145664286Y-79621485D01*
X145664286Y-79621485D02*
X146283333Y-79621485D01*
X148954819Y-114126666D02*
X148478628Y-114459999D01*
X148954819Y-114698094D02*
X147954819Y-114698094D01*
X147954819Y-114698094D02*
X147954819Y-114317142D01*
X147954819Y-114317142D02*
X148002438Y-114221904D01*
X148002438Y-114221904D02*
X148050057Y-114174285D01*
X148050057Y-114174285D02*
X148145295Y-114126666D01*
X148145295Y-114126666D02*
X148288152Y-114126666D01*
X148288152Y-114126666D02*
X148383390Y-114174285D01*
X148383390Y-114174285D02*
X148431009Y-114221904D01*
X148431009Y-114221904D02*
X148478628Y-114317142D01*
X148478628Y-114317142D02*
X148478628Y-114698094D01*
X147954819Y-113793332D02*
X147954819Y-113174285D01*
X147954819Y-113174285D02*
X148335771Y-113507618D01*
X148335771Y-113507618D02*
X148335771Y-113364761D01*
X148335771Y-113364761D02*
X148383390Y-113269523D01*
X148383390Y-113269523D02*
X148431009Y-113221904D01*
X148431009Y-113221904D02*
X148526247Y-113174285D01*
X148526247Y-113174285D02*
X148764342Y-113174285D01*
X148764342Y-113174285D02*
X148859580Y-113221904D01*
X148859580Y-113221904D02*
X148907200Y-113269523D01*
X148907200Y-113269523D02*
X148954819Y-113364761D01*
X148954819Y-113364761D02*
X148954819Y-113650475D01*
X148954819Y-113650475D02*
X148907200Y-113745713D01*
X148907200Y-113745713D02*
X148859580Y-113793332D01*
X142654819Y-114126666D02*
X142178628Y-114459999D01*
X142654819Y-114698094D02*
X141654819Y-114698094D01*
X141654819Y-114698094D02*
X141654819Y-114317142D01*
X141654819Y-114317142D02*
X141702438Y-114221904D01*
X141702438Y-114221904D02*
X141750057Y-114174285D01*
X141750057Y-114174285D02*
X141845295Y-114126666D01*
X141845295Y-114126666D02*
X141988152Y-114126666D01*
X141988152Y-114126666D02*
X142083390Y-114174285D01*
X142083390Y-114174285D02*
X142131009Y-114221904D01*
X142131009Y-114221904D02*
X142178628Y-114317142D01*
X142178628Y-114317142D02*
X142178628Y-114698094D01*
X142654819Y-113174285D02*
X142654819Y-113745713D01*
X142654819Y-113459999D02*
X141654819Y-113459999D01*
X141654819Y-113459999D02*
X141797676Y-113555237D01*
X141797676Y-113555237D02*
X141892914Y-113650475D01*
X141892914Y-113650475D02*
X141940533Y-113745713D01*
X139438095Y-118954819D02*
X139438095Y-119764342D01*
X139438095Y-119764342D02*
X139485714Y-119859580D01*
X139485714Y-119859580D02*
X139533333Y-119907200D01*
X139533333Y-119907200D02*
X139628571Y-119954819D01*
X139628571Y-119954819D02*
X139819047Y-119954819D01*
X139819047Y-119954819D02*
X139914285Y-119907200D01*
X139914285Y-119907200D02*
X139961904Y-119859580D01*
X139961904Y-119859580D02*
X140009523Y-119764342D01*
X140009523Y-119764342D02*
X140009523Y-118954819D01*
X140628571Y-119383390D02*
X140533333Y-119335771D01*
X140533333Y-119335771D02*
X140485714Y-119288152D01*
X140485714Y-119288152D02*
X140438095Y-119192914D01*
X140438095Y-119192914D02*
X140438095Y-119145295D01*
X140438095Y-119145295D02*
X140485714Y-119050057D01*
X140485714Y-119050057D02*
X140533333Y-119002438D01*
X140533333Y-119002438D02*
X140628571Y-118954819D01*
X140628571Y-118954819D02*
X140819047Y-118954819D01*
X140819047Y-118954819D02*
X140914285Y-119002438D01*
X140914285Y-119002438D02*
X140961904Y-119050057D01*
X140961904Y-119050057D02*
X141009523Y-119145295D01*
X141009523Y-119145295D02*
X141009523Y-119192914D01*
X141009523Y-119192914D02*
X140961904Y-119288152D01*
X140961904Y-119288152D02*
X140914285Y-119335771D01*
X140914285Y-119335771D02*
X140819047Y-119383390D01*
X140819047Y-119383390D02*
X140628571Y-119383390D01*
X140628571Y-119383390D02*
X140533333Y-119431009D01*
X140533333Y-119431009D02*
X140485714Y-119478628D01*
X140485714Y-119478628D02*
X140438095Y-119573866D01*
X140438095Y-119573866D02*
X140438095Y-119764342D01*
X140438095Y-119764342D02*
X140485714Y-119859580D01*
X140485714Y-119859580D02*
X140533333Y-119907200D01*
X140533333Y-119907200D02*
X140628571Y-119954819D01*
X140628571Y-119954819D02*
X140819047Y-119954819D01*
X140819047Y-119954819D02*
X140914285Y-119907200D01*
X140914285Y-119907200D02*
X140961904Y-119859580D01*
X140961904Y-119859580D02*
X141009523Y-119764342D01*
X141009523Y-119764342D02*
X141009523Y-119573866D01*
X141009523Y-119573866D02*
X140961904Y-119478628D01*
X140961904Y-119478628D02*
X140914285Y-119431009D01*
X140914285Y-119431009D02*
X140819047Y-119383390D01*
D10*
X111261905Y-114457419D02*
X111261905Y-115266942D01*
X111261905Y-115266942D02*
X111309524Y-115362180D01*
X111309524Y-115362180D02*
X111357143Y-115409800D01*
X111357143Y-115409800D02*
X111452381Y-115457419D01*
X111452381Y-115457419D02*
X111642857Y-115457419D01*
X111642857Y-115457419D02*
X111738095Y-115409800D01*
X111738095Y-115409800D02*
X111785714Y-115362180D01*
X111785714Y-115362180D02*
X111833333Y-115266942D01*
X111833333Y-115266942D02*
X111833333Y-114457419D01*
X112833333Y-115457419D02*
X112261905Y-115457419D01*
X112547619Y-115457419D02*
X112547619Y-114457419D01*
X112547619Y-114457419D02*
X112452381Y-114600276D01*
X112452381Y-114600276D02*
X112357143Y-114695514D01*
X112357143Y-114695514D02*
X112261905Y-114743133D01*
X113785714Y-115457419D02*
X113214286Y-115457419D01*
X113500000Y-115457419D02*
X113500000Y-114457419D01*
X113500000Y-114457419D02*
X113404762Y-114600276D01*
X113404762Y-114600276D02*
X113309524Y-114695514D01*
X113309524Y-114695514D02*
X113214286Y-114743133D01*
D11*
X155011905Y-110624819D02*
X155011905Y-111434342D01*
X155011905Y-111434342D02*
X155059524Y-111529580D01*
X155059524Y-111529580D02*
X155107143Y-111577200D01*
X155107143Y-111577200D02*
X155202381Y-111624819D01*
X155202381Y-111624819D02*
X155392857Y-111624819D01*
X155392857Y-111624819D02*
X155488095Y-111577200D01*
X155488095Y-111577200D02*
X155535714Y-111529580D01*
X155535714Y-111529580D02*
X155583333Y-111434342D01*
X155583333Y-111434342D02*
X155583333Y-110624819D01*
X156583333Y-111624819D02*
X156011905Y-111624819D01*
X156297619Y-111624819D02*
X156297619Y-110624819D01*
X156297619Y-110624819D02*
X156202381Y-110767676D01*
X156202381Y-110767676D02*
X156107143Y-110862914D01*
X156107143Y-110862914D02*
X156011905Y-110910533D01*
X157202381Y-110624819D02*
X157297619Y-110624819D01*
X157297619Y-110624819D02*
X157392857Y-110672438D01*
X157392857Y-110672438D02*
X157440476Y-110720057D01*
X157440476Y-110720057D02*
X157488095Y-110815295D01*
X157488095Y-110815295D02*
X157535714Y-111005771D01*
X157535714Y-111005771D02*
X157535714Y-111243866D01*
X157535714Y-111243866D02*
X157488095Y-111434342D01*
X157488095Y-111434342D02*
X157440476Y-111529580D01*
X157440476Y-111529580D02*
X157392857Y-111577200D01*
X157392857Y-111577200D02*
X157297619Y-111624819D01*
X157297619Y-111624819D02*
X157202381Y-111624819D01*
X157202381Y-111624819D02*
X157107143Y-111577200D01*
X157107143Y-111577200D02*
X157059524Y-111529580D01*
X157059524Y-111529580D02*
X157011905Y-111434342D01*
X157011905Y-111434342D02*
X156964286Y-111243866D01*
X156964286Y-111243866D02*
X156964286Y-111005771D01*
X156964286Y-111005771D02*
X157011905Y-110815295D01*
X157011905Y-110815295D02*
X157059524Y-110720057D01*
X157059524Y-110720057D02*
X157107143Y-110672438D01*
X157107143Y-110672438D02*
X157202381Y-110624819D01*
X158033333Y-97109580D02*
X157985714Y-97157200D01*
X157985714Y-97157200D02*
X157842857Y-97204819D01*
X157842857Y-97204819D02*
X157747619Y-97204819D01*
X157747619Y-97204819D02*
X157604762Y-97157200D01*
X157604762Y-97157200D02*
X157509524Y-97061961D01*
X157509524Y-97061961D02*
X157461905Y-96966723D01*
X157461905Y-96966723D02*
X157414286Y-96776247D01*
X157414286Y-96776247D02*
X157414286Y-96633390D01*
X157414286Y-96633390D02*
X157461905Y-96442914D01*
X157461905Y-96442914D02*
X157509524Y-96347676D01*
X157509524Y-96347676D02*
X157604762Y-96252438D01*
X157604762Y-96252438D02*
X157747619Y-96204819D01*
X157747619Y-96204819D02*
X157842857Y-96204819D01*
X157842857Y-96204819D02*
X157985714Y-96252438D01*
X157985714Y-96252438D02*
X158033333Y-96300057D01*
X158985714Y-97204819D02*
X158414286Y-97204819D01*
X158700000Y-97204819D02*
X158700000Y-96204819D01*
X158700000Y-96204819D02*
X158604762Y-96347676D01*
X158604762Y-96347676D02*
X158509524Y-96442914D01*
X158509524Y-96442914D02*
X158414286Y-96490533D01*
X141554819Y-91471904D02*
X142364342Y-91471904D01*
X142364342Y-91471904D02*
X142459580Y-91424285D01*
X142459580Y-91424285D02*
X142507200Y-91376666D01*
X142507200Y-91376666D02*
X142554819Y-91281428D01*
X142554819Y-91281428D02*
X142554819Y-91090952D01*
X142554819Y-91090952D02*
X142507200Y-90995714D01*
X142507200Y-90995714D02*
X142459580Y-90948095D01*
X142459580Y-90948095D02*
X142364342Y-90900476D01*
X142364342Y-90900476D02*
X141554819Y-90900476D01*
X141554819Y-90519523D02*
X141554819Y-89852857D01*
X141554819Y-89852857D02*
X142554819Y-90281428D01*
X148533333Y-97109580D02*
X148485714Y-97157200D01*
X148485714Y-97157200D02*
X148342857Y-97204819D01*
X148342857Y-97204819D02*
X148247619Y-97204819D01*
X148247619Y-97204819D02*
X148104762Y-97157200D01*
X148104762Y-97157200D02*
X148009524Y-97061961D01*
X148009524Y-97061961D02*
X147961905Y-96966723D01*
X147961905Y-96966723D02*
X147914286Y-96776247D01*
X147914286Y-96776247D02*
X147914286Y-96633390D01*
X147914286Y-96633390D02*
X147961905Y-96442914D01*
X147961905Y-96442914D02*
X148009524Y-96347676D01*
X148009524Y-96347676D02*
X148104762Y-96252438D01*
X148104762Y-96252438D02*
X148247619Y-96204819D01*
X148247619Y-96204819D02*
X148342857Y-96204819D01*
X148342857Y-96204819D02*
X148485714Y-96252438D01*
X148485714Y-96252438D02*
X148533333Y-96300057D01*
X148866667Y-96204819D02*
X149485714Y-96204819D01*
X149485714Y-96204819D02*
X149152381Y-96585771D01*
X149152381Y-96585771D02*
X149295238Y-96585771D01*
X149295238Y-96585771D02*
X149390476Y-96633390D01*
X149390476Y-96633390D02*
X149438095Y-96681009D01*
X149438095Y-96681009D02*
X149485714Y-96776247D01*
X149485714Y-96776247D02*
X149485714Y-97014342D01*
X149485714Y-97014342D02*
X149438095Y-97109580D01*
X149438095Y-97109580D02*
X149390476Y-97157200D01*
X149390476Y-97157200D02*
X149295238Y-97204819D01*
X149295238Y-97204819D02*
X149009524Y-97204819D01*
X149009524Y-97204819D02*
X148914286Y-97157200D01*
X148914286Y-97157200D02*
X148866667Y-97109580D01*
X154783333Y-79859580D02*
X154735714Y-79907200D01*
X154735714Y-79907200D02*
X154592857Y-79954819D01*
X154592857Y-79954819D02*
X154497619Y-79954819D01*
X154497619Y-79954819D02*
X154354762Y-79907200D01*
X154354762Y-79907200D02*
X154259524Y-79811961D01*
X154259524Y-79811961D02*
X154211905Y-79716723D01*
X154211905Y-79716723D02*
X154164286Y-79526247D01*
X154164286Y-79526247D02*
X154164286Y-79383390D01*
X154164286Y-79383390D02*
X154211905Y-79192914D01*
X154211905Y-79192914D02*
X154259524Y-79097676D01*
X154259524Y-79097676D02*
X154354762Y-79002438D01*
X154354762Y-79002438D02*
X154497619Y-78954819D01*
X154497619Y-78954819D02*
X154592857Y-78954819D01*
X154592857Y-78954819D02*
X154735714Y-79002438D01*
X154735714Y-79002438D02*
X154783333Y-79050057D01*
X155164286Y-79050057D02*
X155211905Y-79002438D01*
X155211905Y-79002438D02*
X155307143Y-78954819D01*
X155307143Y-78954819D02*
X155545238Y-78954819D01*
X155545238Y-78954819D02*
X155640476Y-79002438D01*
X155640476Y-79002438D02*
X155688095Y-79050057D01*
X155688095Y-79050057D02*
X155735714Y-79145295D01*
X155735714Y-79145295D02*
X155735714Y-79240533D01*
X155735714Y-79240533D02*
X155688095Y-79383390D01*
X155688095Y-79383390D02*
X155116667Y-79954819D01*
X155116667Y-79954819D02*
X155735714Y-79954819D01*
X145804819Y-114126666D02*
X145328628Y-114459999D01*
X145804819Y-114698094D02*
X144804819Y-114698094D01*
X144804819Y-114698094D02*
X144804819Y-114317142D01*
X144804819Y-114317142D02*
X144852438Y-114221904D01*
X144852438Y-114221904D02*
X144900057Y-114174285D01*
X144900057Y-114174285D02*
X144995295Y-114126666D01*
X144995295Y-114126666D02*
X145138152Y-114126666D01*
X145138152Y-114126666D02*
X145233390Y-114174285D01*
X145233390Y-114174285D02*
X145281009Y-114221904D01*
X145281009Y-114221904D02*
X145328628Y-114317142D01*
X145328628Y-114317142D02*
X145328628Y-114698094D01*
X144900057Y-113745713D02*
X144852438Y-113698094D01*
X144852438Y-113698094D02*
X144804819Y-113602856D01*
X144804819Y-113602856D02*
X144804819Y-113364761D01*
X144804819Y-113364761D02*
X144852438Y-113269523D01*
X144852438Y-113269523D02*
X144900057Y-113221904D01*
X144900057Y-113221904D02*
X144995295Y-113174285D01*
X144995295Y-113174285D02*
X145090533Y-113174285D01*
X145090533Y-113174285D02*
X145233390Y-113221904D01*
X145233390Y-113221904D02*
X145804819Y-113793332D01*
X145804819Y-113793332D02*
X145804819Y-113174285D01*
X177890476Y-92584819D02*
X177890476Y-91584819D01*
X177890476Y-91584819D02*
X178223809Y-92299104D01*
X178223809Y-92299104D02*
X178557142Y-91584819D01*
X178557142Y-91584819D02*
X178557142Y-92584819D01*
X179557142Y-92584819D02*
X178985714Y-92584819D01*
X179271428Y-92584819D02*
X179271428Y-91584819D01*
X179271428Y-91584819D02*
X179176190Y-91727676D01*
X179176190Y-91727676D02*
X179080952Y-91822914D01*
X179080952Y-91822914D02*
X178985714Y-91870533D01*
X125238095Y-91034819D02*
X125238095Y-91844342D01*
X125238095Y-91844342D02*
X125285714Y-91939580D01*
X125285714Y-91939580D02*
X125333333Y-91987200D01*
X125333333Y-91987200D02*
X125428571Y-92034819D01*
X125428571Y-92034819D02*
X125619047Y-92034819D01*
X125619047Y-92034819D02*
X125714285Y-91987200D01*
X125714285Y-91987200D02*
X125761904Y-91939580D01*
X125761904Y-91939580D02*
X125809523Y-91844342D01*
X125809523Y-91844342D02*
X125809523Y-91034819D01*
X126761904Y-91034819D02*
X126285714Y-91034819D01*
X126285714Y-91034819D02*
X126238095Y-91511009D01*
X126238095Y-91511009D02*
X126285714Y-91463390D01*
X126285714Y-91463390D02*
X126380952Y-91415771D01*
X126380952Y-91415771D02*
X126619047Y-91415771D01*
X126619047Y-91415771D02*
X126714285Y-91463390D01*
X126714285Y-91463390D02*
X126761904Y-91511009D01*
X126761904Y-91511009D02*
X126809523Y-91606247D01*
X126809523Y-91606247D02*
X126809523Y-91844342D01*
X126809523Y-91844342D02*
X126761904Y-91939580D01*
X126761904Y-91939580D02*
X126714285Y-91987200D01*
X126714285Y-91987200D02*
X126619047Y-92034819D01*
X126619047Y-92034819D02*
X126380952Y-92034819D01*
X126380952Y-92034819D02*
X126285714Y-91987200D01*
X126285714Y-91987200D02*
X126238095Y-91939580D01*
D10*
X189917419Y-112511904D02*
X190726942Y-112511904D01*
X190726942Y-112511904D02*
X190822180Y-112464285D01*
X190822180Y-112464285D02*
X190869800Y-112416666D01*
X190869800Y-112416666D02*
X190917419Y-112321428D01*
X190917419Y-112321428D02*
X190917419Y-112130952D01*
X190917419Y-112130952D02*
X190869800Y-112035714D01*
X190869800Y-112035714D02*
X190822180Y-111988095D01*
X190822180Y-111988095D02*
X190726942Y-111940476D01*
X190726942Y-111940476D02*
X189917419Y-111940476D01*
X190917419Y-110940476D02*
X190917419Y-111511904D01*
X190917419Y-111226190D02*
X189917419Y-111226190D01*
X189917419Y-111226190D02*
X190060276Y-111321428D01*
X190060276Y-111321428D02*
X190155514Y-111416666D01*
X190155514Y-111416666D02*
X190203133Y-111511904D01*
D11*
X168710476Y-92584819D02*
X168710476Y-91584819D01*
X168710476Y-91584819D02*
X169043809Y-92299104D01*
X169043809Y-92299104D02*
X169377142Y-91584819D01*
X169377142Y-91584819D02*
X169377142Y-92584819D01*
X169758095Y-91584819D02*
X170377142Y-91584819D01*
X170377142Y-91584819D02*
X170043809Y-91965771D01*
X170043809Y-91965771D02*
X170186666Y-91965771D01*
X170186666Y-91965771D02*
X170281904Y-92013390D01*
X170281904Y-92013390D02*
X170329523Y-92061009D01*
X170329523Y-92061009D02*
X170377142Y-92156247D01*
X170377142Y-92156247D02*
X170377142Y-92394342D01*
X170377142Y-92394342D02*
X170329523Y-92489580D01*
X170329523Y-92489580D02*
X170281904Y-92537200D01*
X170281904Y-92537200D02*
X170186666Y-92584819D01*
X170186666Y-92584819D02*
X169900952Y-92584819D01*
X169900952Y-92584819D02*
X169805714Y-92537200D01*
X169805714Y-92537200D02*
X169758095Y-92489580D01*
D10*
X93488095Y-125207419D02*
X93488095Y-126016942D01*
X93488095Y-126016942D02*
X93535714Y-126112180D01*
X93535714Y-126112180D02*
X93583333Y-126159800D01*
X93583333Y-126159800D02*
X93678571Y-126207419D01*
X93678571Y-126207419D02*
X93869047Y-126207419D01*
X93869047Y-126207419D02*
X93964285Y-126159800D01*
X93964285Y-126159800D02*
X94011904Y-126112180D01*
X94011904Y-126112180D02*
X94059523Y-126016942D01*
X94059523Y-126016942D02*
X94059523Y-125207419D01*
X94583333Y-126207419D02*
X94773809Y-126207419D01*
X94773809Y-126207419D02*
X94869047Y-126159800D01*
X94869047Y-126159800D02*
X94916666Y-126112180D01*
X94916666Y-126112180D02*
X95011904Y-125969323D01*
X95011904Y-125969323D02*
X95059523Y-125778847D01*
X95059523Y-125778847D02*
X95059523Y-125397895D01*
X95059523Y-125397895D02*
X95011904Y-125302657D01*
X95011904Y-125302657D02*
X94964285Y-125255038D01*
X94964285Y-125255038D02*
X94869047Y-125207419D01*
X94869047Y-125207419D02*
X94678571Y-125207419D01*
X94678571Y-125207419D02*
X94583333Y-125255038D01*
X94583333Y-125255038D02*
X94535714Y-125302657D01*
X94535714Y-125302657D02*
X94488095Y-125397895D01*
X94488095Y-125397895D02*
X94488095Y-125635990D01*
X94488095Y-125635990D02*
X94535714Y-125731228D01*
X94535714Y-125731228D02*
X94583333Y-125778847D01*
X94583333Y-125778847D02*
X94678571Y-125826466D01*
X94678571Y-125826466D02*
X94869047Y-125826466D01*
X94869047Y-125826466D02*
X94964285Y-125778847D01*
X94964285Y-125778847D02*
X95011904Y-125731228D01*
X95011904Y-125731228D02*
X95059523Y-125635990D01*
D11*
X199938095Y-81784819D02*
X199938095Y-82594342D01*
X199938095Y-82594342D02*
X199985714Y-82689580D01*
X199985714Y-82689580D02*
X200033333Y-82737200D01*
X200033333Y-82737200D02*
X200128571Y-82784819D01*
X200128571Y-82784819D02*
X200319047Y-82784819D01*
X200319047Y-82784819D02*
X200414285Y-82737200D01*
X200414285Y-82737200D02*
X200461904Y-82689580D01*
X200461904Y-82689580D02*
X200509523Y-82594342D01*
X200509523Y-82594342D02*
X200509523Y-81784819D01*
X200890476Y-81784819D02*
X201509523Y-81784819D01*
X201509523Y-81784819D02*
X201176190Y-82165771D01*
X201176190Y-82165771D02*
X201319047Y-82165771D01*
X201319047Y-82165771D02*
X201414285Y-82213390D01*
X201414285Y-82213390D02*
X201461904Y-82261009D01*
X201461904Y-82261009D02*
X201509523Y-82356247D01*
X201509523Y-82356247D02*
X201509523Y-82594342D01*
X201509523Y-82594342D02*
X201461904Y-82689580D01*
X201461904Y-82689580D02*
X201414285Y-82737200D01*
X201414285Y-82737200D02*
X201319047Y-82784819D01*
X201319047Y-82784819D02*
X201033333Y-82784819D01*
X201033333Y-82784819D02*
X200938095Y-82737200D01*
X200938095Y-82737200D02*
X200890476Y-82689580D01*
D10*
X93011905Y-83707419D02*
X93011905Y-84516942D01*
X93011905Y-84516942D02*
X93059524Y-84612180D01*
X93059524Y-84612180D02*
X93107143Y-84659800D01*
X93107143Y-84659800D02*
X93202381Y-84707419D01*
X93202381Y-84707419D02*
X93392857Y-84707419D01*
X93392857Y-84707419D02*
X93488095Y-84659800D01*
X93488095Y-84659800D02*
X93535714Y-84612180D01*
X93535714Y-84612180D02*
X93583333Y-84516942D01*
X93583333Y-84516942D02*
X93583333Y-83707419D01*
X94583333Y-84707419D02*
X94011905Y-84707419D01*
X94297619Y-84707419D02*
X94297619Y-83707419D01*
X94297619Y-83707419D02*
X94202381Y-83850276D01*
X94202381Y-83850276D02*
X94107143Y-83945514D01*
X94107143Y-83945514D02*
X94011905Y-83993133D01*
X94964286Y-83802657D02*
X95011905Y-83755038D01*
X95011905Y-83755038D02*
X95107143Y-83707419D01*
X95107143Y-83707419D02*
X95345238Y-83707419D01*
X95345238Y-83707419D02*
X95440476Y-83755038D01*
X95440476Y-83755038D02*
X95488095Y-83802657D01*
X95488095Y-83802657D02*
X95535714Y-83897895D01*
X95535714Y-83897895D02*
X95535714Y-83993133D01*
X95535714Y-83993133D02*
X95488095Y-84135990D01*
X95488095Y-84135990D02*
X94916667Y-84707419D01*
X94916667Y-84707419D02*
X95535714Y-84707419D01*
%TO.C,U13*%
X138700000Y-104250000D02*
X132600000Y-104250000D01*
X132600000Y-84250000D01*
X138700000Y-84250000D01*
X138700000Y-104250000D01*
D12*
%TO.C,R7*%
X129920000Y-103120000D02*
X129920000Y-106960000D01*
X128080000Y-103120000D02*
X128080000Y-106960000D01*
%TO.C,R6*%
X124930000Y-106960000D02*
X124930000Y-103120000D01*
X126770000Y-106960000D02*
X126770000Y-103120000D01*
%TO.C,R5*%
X121780000Y-106960000D02*
X121780000Y-103120000D01*
X123620000Y-106960000D02*
X123620000Y-103120000D01*
%TO.C,U4*%
X188320000Y-83330000D02*
X189700000Y-83330000D01*
X188320000Y-84710000D02*
X188320000Y-83330000D01*
X188320000Y-85980000D02*
X188320000Y-91170000D01*
X188320000Y-85980000D02*
X191080000Y-85980000D01*
X188320000Y-91170000D02*
X191080000Y-91170000D01*
X191080000Y-85980000D02*
X191080000Y-91170000D01*
%TO.C,M4*%
X163550000Y-88480000D02*
X163550000Y-83290000D01*
X166310000Y-83290000D02*
X163550000Y-83290000D01*
X166310000Y-88480000D02*
X163550000Y-88480000D01*
X166310000Y-88480000D02*
X166310000Y-83290000D01*
X166310000Y-89750000D02*
X166310000Y-91130000D01*
X166310000Y-91130000D02*
X164930000Y-91130000D01*
%TO.C,M2*%
X172730000Y-88480000D02*
X172730000Y-83290000D01*
X175490000Y-83290000D02*
X172730000Y-83290000D01*
X175490000Y-88480000D02*
X172730000Y-88480000D01*
X175490000Y-88480000D02*
X175490000Y-83290000D01*
X175490000Y-89750000D02*
X175490000Y-91130000D01*
X175490000Y-91130000D02*
X174110000Y-91130000D01*
%TO.C,U6*%
X152390000Y-85640000D02*
X157010000Y-85640000D01*
X152390000Y-88900000D02*
X153770000Y-88900000D01*
X152390000Y-92600000D02*
X153770000Y-92600000D01*
X152390000Y-95860000D02*
X152390000Y-85640000D01*
X153770000Y-95860000D02*
X153770000Y-85640000D01*
X157010000Y-85640000D02*
X157010000Y-95860000D01*
X157010000Y-95860000D02*
X152390000Y-95860000D01*
%TO.C,U2*%
D10*
X203700000Y-80250000D02*
X233700000Y-80250000D01*
X233700000Y-95250000D01*
X203700000Y-95250000D01*
X203700000Y-80250000D01*
X203700000Y-82500000D02*
X210200000Y-82500000D01*
X210200000Y-93000000D01*
X203700000Y-93000000D01*
X203700000Y-82500000D01*
D12*
%TO.C,R4*%
X150730000Y-115880000D02*
X150730000Y-112040000D01*
X152570000Y-115880000D02*
X152570000Y-112040000D01*
%TO.C,C4*%
X143180199Y-81555000D02*
X143580199Y-81555000D01*
X143380199Y-81355000D02*
X143380199Y-81755000D01*
X145450000Y-80670000D02*
X145450000Y-81910000D01*
X145450000Y-83590000D02*
X145450000Y-84830000D01*
X145490000Y-80670000D02*
X145490000Y-81910000D01*
X145490000Y-83590000D02*
X145490000Y-84830000D01*
X145530000Y-80672000D02*
X145530000Y-81910000D01*
X145530000Y-83590000D02*
X145530000Y-84828000D01*
X145570000Y-80673000D02*
X145570000Y-81910000D01*
X145570000Y-83590000D02*
X145570000Y-84827000D01*
X145610000Y-80676000D02*
X145610000Y-81910000D01*
X145610000Y-83590000D02*
X145610000Y-84824000D01*
X145650000Y-80679000D02*
X145650000Y-81910000D01*
X145650000Y-83590000D02*
X145650000Y-84821000D01*
X145690000Y-80684000D02*
X145690000Y-81910000D01*
X145690000Y-83590000D02*
X145690000Y-84816000D01*
X145730000Y-80689000D02*
X145730000Y-81910000D01*
X145730000Y-83590000D02*
X145730000Y-84811000D01*
X145770000Y-80694000D02*
X145770000Y-81910000D01*
X145770000Y-83590000D02*
X145770000Y-84806000D01*
X145810000Y-80701000D02*
X145810000Y-81910000D01*
X145810000Y-83590000D02*
X145810000Y-84799000D01*
X145850000Y-80708000D02*
X145850000Y-81910000D01*
X145850000Y-83590000D02*
X145850000Y-84792000D01*
X145890000Y-80716000D02*
X145890000Y-81910000D01*
X145890000Y-83590000D02*
X145890000Y-84784000D01*
X145930000Y-80725000D02*
X145930000Y-81910000D01*
X145930000Y-83590000D02*
X145930000Y-84775000D01*
X145970000Y-80735000D02*
X145970000Y-81910000D01*
X145970000Y-83590000D02*
X145970000Y-84765000D01*
X146010000Y-80745000D02*
X146010000Y-81910000D01*
X146010000Y-83590000D02*
X146010000Y-84755000D01*
X146050000Y-80757000D02*
X146050000Y-81910000D01*
X146050000Y-83590000D02*
X146050000Y-84743000D01*
X146090000Y-80769000D02*
X146090000Y-81910000D01*
X146090000Y-83590000D02*
X146090000Y-84731000D01*
X146130000Y-80782000D02*
X146130000Y-81910000D01*
X146130000Y-83590000D02*
X146130000Y-84718000D01*
X146170000Y-80796000D02*
X146170000Y-81910000D01*
X146170000Y-83590000D02*
X146170000Y-84704000D01*
X146210000Y-80811000D02*
X146210000Y-81910000D01*
X146210000Y-83590000D02*
X146210000Y-84689000D01*
X146250000Y-80827000D02*
X146250000Y-81910000D01*
X146250000Y-83590000D02*
X146250000Y-84673000D01*
X146290000Y-80844000D02*
X146290000Y-81910000D01*
X146290000Y-83590000D02*
X146290000Y-84656000D01*
X146330000Y-80861000D02*
X146330000Y-81910000D01*
X146330000Y-83590000D02*
X146330000Y-84639000D01*
X146370000Y-80880000D02*
X146370000Y-81910000D01*
X146370000Y-83590000D02*
X146370000Y-84620000D01*
X146410000Y-80900000D02*
X146410000Y-81910000D01*
X146410000Y-83590000D02*
X146410000Y-84600000D01*
X146450000Y-80921000D02*
X146450000Y-81910000D01*
X146450000Y-83590000D02*
X146450000Y-84579000D01*
X146490000Y-80943000D02*
X146490000Y-81910000D01*
X146490000Y-83590000D02*
X146490000Y-84557000D01*
X146530000Y-80966000D02*
X146530000Y-81910000D01*
X146530000Y-83590000D02*
X146530000Y-84534000D01*
X146570000Y-80990000D02*
X146570000Y-81910000D01*
X146570000Y-83590000D02*
X146570000Y-84510000D01*
X146610000Y-81016000D02*
X146610000Y-81910000D01*
X146610000Y-83590000D02*
X146610000Y-84484000D01*
X146650000Y-81042000D02*
X146650000Y-81910000D01*
X146650000Y-83590000D02*
X146650000Y-84458000D01*
X146690000Y-81070000D02*
X146690000Y-81910000D01*
X146690000Y-83590000D02*
X146690000Y-84430000D01*
X146730000Y-81100000D02*
X146730000Y-81910000D01*
X146730000Y-83590000D02*
X146730000Y-84400000D01*
X146770000Y-81131000D02*
X146770000Y-81910000D01*
X146770000Y-83590000D02*
X146770000Y-84369000D01*
X146810000Y-81164000D02*
X146810000Y-81910000D01*
X146810000Y-83590000D02*
X146810000Y-84336000D01*
X146850000Y-81198000D02*
X146850000Y-81910000D01*
X146850000Y-83590000D02*
X146850000Y-84302000D01*
X146890000Y-81234000D02*
X146890000Y-81910000D01*
X146890000Y-83590000D02*
X146890000Y-84266000D01*
X146930000Y-81272000D02*
X146930000Y-81910000D01*
X146930000Y-83590000D02*
X146930000Y-84228000D01*
X146970000Y-81312000D02*
X146970000Y-81910000D01*
X146970000Y-83590000D02*
X146970000Y-84188000D01*
X147010000Y-81354000D02*
X147010000Y-81910000D01*
X147010000Y-83590000D02*
X147010000Y-84146000D01*
X147050000Y-81399000D02*
X147050000Y-84101000D01*
X147090000Y-81447000D02*
X147090000Y-84053000D01*
X147130000Y-81497000D02*
X147130000Y-84003000D01*
X147170000Y-81551000D02*
X147170000Y-83949000D01*
X147210000Y-81608000D02*
X147210000Y-83892000D01*
X147250000Y-81670000D02*
X147250000Y-83830000D01*
X147290000Y-81737000D02*
X147290000Y-83763000D01*
X147330000Y-81810000D02*
X147330000Y-83690000D01*
X147370000Y-81891000D02*
X147370000Y-83609000D01*
X147410000Y-81982000D02*
X147410000Y-83518000D01*
X147450000Y-82087000D02*
X147450000Y-83413000D01*
X147490000Y-82213000D02*
X147490000Y-83287000D01*
X147530000Y-82380000D02*
X147530000Y-83120000D01*
X147570000Y-82750000D02*
G75*
G02*
X143330000Y-82750000I-2120000J0D01*
G01*
X143330000Y-82750000D02*
G75*
G02*
X147570000Y-82750000I2120000J0D01*
G01*
%TO.C,R3*%
X147580000Y-115880000D02*
X147580000Y-112040000D01*
X149420000Y-115880000D02*
X149420000Y-112040000D01*
%TO.C,R1*%
X141280000Y-115880000D02*
X141280000Y-112040000D01*
X143120000Y-115880000D02*
X143120000Y-112040000D01*
%TO.C,U8*%
X124080000Y-118360000D02*
X164920000Y-118360000D01*
X164920000Y-126140000D01*
X124080000Y-126140000D01*
X124080000Y-118360000D01*
%TO.C,U11*%
D10*
X105000000Y-110500000D02*
X120000000Y-110500000D01*
X120000000Y-122500000D01*
X105000000Y-122500000D01*
X105000000Y-110500000D01*
X108300000Y-112300000D02*
G75*
G02*
X105300000Y-112300000I-1500000J0D01*
G01*
X105300000Y-112300000D02*
G75*
G02*
X108300000Y-112300000I1500000J0D01*
G01*
X119700000Y-112300000D02*
G75*
G02*
X116700000Y-112300000I-1500000J0D01*
G01*
X116700000Y-112300000D02*
G75*
G02*
X119700000Y-112300000I1500000J0D01*
G01*
D12*
%TO.C,U10*%
X154870000Y-107520000D02*
X154870000Y-102330000D01*
X157630000Y-102330000D02*
X154870000Y-102330000D01*
X157630000Y-107520000D02*
X154870000Y-107520000D01*
X157630000Y-107520000D02*
X157630000Y-102330000D01*
X157630000Y-108790000D02*
X157630000Y-110170000D01*
X157630000Y-110170000D02*
X156250000Y-110170000D01*
%TO.C,C1*%
X152457600Y-97555000D02*
X152857600Y-97555000D01*
X152657600Y-97355000D02*
X152657600Y-97755000D01*
X154727401Y-96670000D02*
X154727401Y-97910000D01*
X154727401Y-99590000D02*
X154727401Y-100830000D01*
X154767401Y-96670000D02*
X154767401Y-97910000D01*
X154767401Y-99590000D02*
X154767401Y-100830000D01*
X154807401Y-96672000D02*
X154807401Y-97910000D01*
X154807401Y-99590000D02*
X154807401Y-100828000D01*
X154847401Y-96673000D02*
X154847401Y-97910000D01*
X154847401Y-99590000D02*
X154847401Y-100827000D01*
X154887401Y-96676000D02*
X154887401Y-97910000D01*
X154887401Y-99590000D02*
X154887401Y-100824000D01*
X154927401Y-96679000D02*
X154927401Y-97910000D01*
X154927401Y-99590000D02*
X154927401Y-100821000D01*
X154967401Y-96684000D02*
X154967401Y-97910000D01*
X154967401Y-99590000D02*
X154967401Y-100816000D01*
X155007401Y-96689000D02*
X155007401Y-97910000D01*
X155007401Y-99590000D02*
X155007401Y-100811000D01*
X155047401Y-96694000D02*
X155047401Y-97910000D01*
X155047401Y-99590000D02*
X155047401Y-100806000D01*
X155087401Y-96701000D02*
X155087401Y-97910000D01*
X155087401Y-99590000D02*
X155087401Y-100799000D01*
X155127401Y-96708000D02*
X155127401Y-97910000D01*
X155127401Y-99590000D02*
X155127401Y-100792000D01*
X155167401Y-96716000D02*
X155167401Y-97910000D01*
X155167401Y-99590000D02*
X155167401Y-100784000D01*
X155207401Y-96725000D02*
X155207401Y-97910000D01*
X155207401Y-99590000D02*
X155207401Y-100775000D01*
X155247401Y-96735000D02*
X155247401Y-97910000D01*
X155247401Y-99590000D02*
X155247401Y-100765000D01*
X155287401Y-96745000D02*
X155287401Y-97910000D01*
X155287401Y-99590000D02*
X155287401Y-100755000D01*
X155327401Y-96757000D02*
X155327401Y-97910000D01*
X155327401Y-99590000D02*
X155327401Y-100743000D01*
X155367401Y-96769000D02*
X155367401Y-97910000D01*
X155367401Y-99590000D02*
X155367401Y-100731000D01*
X155407401Y-96782000D02*
X155407401Y-97910000D01*
X155407401Y-99590000D02*
X155407401Y-100718000D01*
X155447401Y-96796000D02*
X155447401Y-97910000D01*
X155447401Y-99590000D02*
X155447401Y-100704000D01*
X155487401Y-96811000D02*
X155487401Y-97910000D01*
X155487401Y-99590000D02*
X155487401Y-100689000D01*
X155527401Y-96827000D02*
X155527401Y-97910000D01*
X155527401Y-99590000D02*
X155527401Y-100673000D01*
X155567401Y-96844000D02*
X155567401Y-97910000D01*
X155567401Y-99590000D02*
X155567401Y-100656000D01*
X155607401Y-96861000D02*
X155607401Y-97910000D01*
X155607401Y-99590000D02*
X155607401Y-100639000D01*
X155647401Y-96880000D02*
X155647401Y-97910000D01*
X155647401Y-99590000D02*
X155647401Y-100620000D01*
X155687401Y-96900000D02*
X155687401Y-97910000D01*
X155687401Y-99590000D02*
X155687401Y-100600000D01*
X155727401Y-96921000D02*
X155727401Y-97910000D01*
X155727401Y-99590000D02*
X155727401Y-100579000D01*
X155767401Y-96943000D02*
X155767401Y-97910000D01*
X155767401Y-99590000D02*
X155767401Y-100557000D01*
X155807401Y-96966000D02*
X155807401Y-97910000D01*
X155807401Y-99590000D02*
X155807401Y-100534000D01*
X155847401Y-96990000D02*
X155847401Y-97910000D01*
X155847401Y-99590000D02*
X155847401Y-100510000D01*
X155887401Y-97016000D02*
X155887401Y-97910000D01*
X155887401Y-99590000D02*
X155887401Y-100484000D01*
X155927401Y-97042000D02*
X155927401Y-97910000D01*
X155927401Y-99590000D02*
X155927401Y-100458000D01*
X155967401Y-97070000D02*
X155967401Y-97910000D01*
X155967401Y-99590000D02*
X155967401Y-100430000D01*
X156007401Y-97100000D02*
X156007401Y-97910000D01*
X156007401Y-99590000D02*
X156007401Y-100400000D01*
X156047401Y-97131000D02*
X156047401Y-97910000D01*
X156047401Y-99590000D02*
X156047401Y-100369000D01*
X156087401Y-97164000D02*
X156087401Y-97910000D01*
X156087401Y-99590000D02*
X156087401Y-100336000D01*
X156127401Y-97198000D02*
X156127401Y-97910000D01*
X156127401Y-99590000D02*
X156127401Y-100302000D01*
X156167401Y-97234000D02*
X156167401Y-97910000D01*
X156167401Y-99590000D02*
X156167401Y-100266000D01*
X156207401Y-97272000D02*
X156207401Y-97910000D01*
X156207401Y-99590000D02*
X156207401Y-100228000D01*
X156247401Y-97312000D02*
X156247401Y-97910000D01*
X156247401Y-99590000D02*
X156247401Y-100188000D01*
X156287401Y-97354000D02*
X156287401Y-97910000D01*
X156287401Y-99590000D02*
X156287401Y-100146000D01*
X156327401Y-97399000D02*
X156327401Y-100101000D01*
X156367401Y-97447000D02*
X156367401Y-100053000D01*
X156407401Y-97497000D02*
X156407401Y-100003000D01*
X156447401Y-97551000D02*
X156447401Y-99949000D01*
X156487401Y-97608000D02*
X156487401Y-99892000D01*
X156527401Y-97670000D02*
X156527401Y-99830000D01*
X156567401Y-97737000D02*
X156567401Y-99763000D01*
X156607401Y-97810000D02*
X156607401Y-99690000D01*
X156647401Y-97891000D02*
X156647401Y-99609000D01*
X156687401Y-97982000D02*
X156687401Y-99518000D01*
X156727401Y-98087000D02*
X156727401Y-99413000D01*
X156767401Y-98213000D02*
X156767401Y-99287000D01*
X156807401Y-98380000D02*
X156807401Y-99120000D01*
X156847401Y-98750000D02*
G75*
G02*
X152607401Y-98750000I-2120000J0D01*
G01*
X152607401Y-98750000D02*
G75*
G02*
X156847401Y-98750000I2120000J0D01*
G01*
%TO.C,U7*%
X142940000Y-85600000D02*
X147560000Y-85600000D01*
X142940000Y-88860000D02*
X144320000Y-88860000D01*
X142940000Y-92560000D02*
X144320000Y-92560000D01*
X142940000Y-95820000D02*
X142940000Y-85600000D01*
X144320000Y-95820000D02*
X144320000Y-85600000D01*
X147560000Y-85600000D02*
X147560000Y-95820000D01*
X147560000Y-95820000D02*
X142940000Y-95820000D01*
%TO.C,C3*%
X143180199Y-97555000D02*
X143580199Y-97555000D01*
X143380199Y-97355000D02*
X143380199Y-97755000D01*
X145450000Y-96670000D02*
X145450000Y-97910000D01*
X145450000Y-99590000D02*
X145450000Y-100830000D01*
X145490000Y-96670000D02*
X145490000Y-97910000D01*
X145490000Y-99590000D02*
X145490000Y-100830000D01*
X145530000Y-96672000D02*
X145530000Y-97910000D01*
X145530000Y-99590000D02*
X145530000Y-100828000D01*
X145570000Y-96673000D02*
X145570000Y-97910000D01*
X145570000Y-99590000D02*
X145570000Y-100827000D01*
X145610000Y-96676000D02*
X145610000Y-97910000D01*
X145610000Y-99590000D02*
X145610000Y-100824000D01*
X145650000Y-96679000D02*
X145650000Y-97910000D01*
X145650000Y-99590000D02*
X145650000Y-100821000D01*
X145690000Y-96684000D02*
X145690000Y-97910000D01*
X145690000Y-99590000D02*
X145690000Y-100816000D01*
X145730000Y-96689000D02*
X145730000Y-97910000D01*
X145730000Y-99590000D02*
X145730000Y-100811000D01*
X145770000Y-96694000D02*
X145770000Y-97910000D01*
X145770000Y-99590000D02*
X145770000Y-100806000D01*
X145810000Y-96701000D02*
X145810000Y-97910000D01*
X145810000Y-99590000D02*
X145810000Y-100799000D01*
X145850000Y-96708000D02*
X145850000Y-97910000D01*
X145850000Y-99590000D02*
X145850000Y-100792000D01*
X145890000Y-96716000D02*
X145890000Y-97910000D01*
X145890000Y-99590000D02*
X145890000Y-100784000D01*
X145930000Y-96725000D02*
X145930000Y-97910000D01*
X145930000Y-99590000D02*
X145930000Y-100775000D01*
X145970000Y-96735000D02*
X145970000Y-97910000D01*
X145970000Y-99590000D02*
X145970000Y-100765000D01*
X146010000Y-96745000D02*
X146010000Y-97910000D01*
X146010000Y-99590000D02*
X146010000Y-100755000D01*
X146050000Y-96757000D02*
X146050000Y-97910000D01*
X146050000Y-99590000D02*
X146050000Y-100743000D01*
X146090000Y-96769000D02*
X146090000Y-97910000D01*
X146090000Y-99590000D02*
X146090000Y-100731000D01*
X146130000Y-96782000D02*
X146130000Y-97910000D01*
X146130000Y-99590000D02*
X146130000Y-100718000D01*
X146170000Y-96796000D02*
X146170000Y-97910000D01*
X146170000Y-99590000D02*
X146170000Y-100704000D01*
X146210000Y-96811000D02*
X146210000Y-97910000D01*
X146210000Y-99590000D02*
X146210000Y-100689000D01*
X146250000Y-96827000D02*
X146250000Y-97910000D01*
X146250000Y-99590000D02*
X146250000Y-100673000D01*
X146290000Y-96844000D02*
X146290000Y-97910000D01*
X146290000Y-99590000D02*
X146290000Y-100656000D01*
X146330000Y-96861000D02*
X146330000Y-97910000D01*
X146330000Y-99590000D02*
X146330000Y-100639000D01*
X146370000Y-96880000D02*
X146370000Y-97910000D01*
X146370000Y-99590000D02*
X146370000Y-100620000D01*
X146410000Y-96900000D02*
X146410000Y-97910000D01*
X146410000Y-99590000D02*
X146410000Y-100600000D01*
X146450000Y-96921000D02*
X146450000Y-97910000D01*
X146450000Y-99590000D02*
X146450000Y-100579000D01*
X146490000Y-96943000D02*
X146490000Y-97910000D01*
X146490000Y-99590000D02*
X146490000Y-100557000D01*
X146530000Y-96966000D02*
X146530000Y-97910000D01*
X146530000Y-99590000D02*
X146530000Y-100534000D01*
X146570000Y-96990000D02*
X146570000Y-97910000D01*
X146570000Y-99590000D02*
X146570000Y-100510000D01*
X146610000Y-97016000D02*
X146610000Y-97910000D01*
X146610000Y-99590000D02*
X146610000Y-100484000D01*
X146650000Y-97042000D02*
X146650000Y-97910000D01*
X146650000Y-99590000D02*
X146650000Y-100458000D01*
X146690000Y-97070000D02*
X146690000Y-97910000D01*
X146690000Y-99590000D02*
X146690000Y-100430000D01*
X146730000Y-97100000D02*
X146730000Y-97910000D01*
X146730000Y-99590000D02*
X146730000Y-100400000D01*
X146770000Y-97131000D02*
X146770000Y-97910000D01*
X146770000Y-99590000D02*
X146770000Y-100369000D01*
X146810000Y-97164000D02*
X146810000Y-97910000D01*
X146810000Y-99590000D02*
X146810000Y-100336000D01*
X146850000Y-97198000D02*
X146850000Y-97910000D01*
X146850000Y-99590000D02*
X146850000Y-100302000D01*
X146890000Y-97234000D02*
X146890000Y-97910000D01*
X146890000Y-99590000D02*
X146890000Y-100266000D01*
X146930000Y-97272000D02*
X146930000Y-97910000D01*
X146930000Y-99590000D02*
X146930000Y-100228000D01*
X146970000Y-97312000D02*
X146970000Y-97910000D01*
X146970000Y-99590000D02*
X146970000Y-100188000D01*
X147010000Y-97354000D02*
X147010000Y-97910000D01*
X147010000Y-99590000D02*
X147010000Y-100146000D01*
X147050000Y-97399000D02*
X147050000Y-100101000D01*
X147090000Y-97447000D02*
X147090000Y-100053000D01*
X147130000Y-97497000D02*
X147130000Y-100003000D01*
X147170000Y-97551000D02*
X147170000Y-99949000D01*
X147210000Y-97608000D02*
X147210000Y-99892000D01*
X147250000Y-97670000D02*
X147250000Y-99830000D01*
X147290000Y-97737000D02*
X147290000Y-99763000D01*
X147330000Y-97810000D02*
X147330000Y-99690000D01*
X147370000Y-97891000D02*
X147370000Y-99609000D01*
X147410000Y-97982000D02*
X147410000Y-99518000D01*
X147450000Y-98087000D02*
X147450000Y-99413000D01*
X147490000Y-98213000D02*
X147490000Y-99287000D01*
X147530000Y-98380000D02*
X147530000Y-99120000D01*
X147570000Y-98750000D02*
G75*
G02*
X143330000Y-98750000I-2120000J0D01*
G01*
X143330000Y-98750000D02*
G75*
G02*
X147570000Y-98750000I2120000J0D01*
G01*
%TO.C,C2*%
X152680199Y-81555000D02*
X153080199Y-81555000D01*
X152880199Y-81355000D02*
X152880199Y-81755000D01*
X154950000Y-80670000D02*
X154950000Y-81910000D01*
X154950000Y-83590000D02*
X154950000Y-84830000D01*
X154990000Y-80670000D02*
X154990000Y-81910000D01*
X154990000Y-83590000D02*
X154990000Y-84830000D01*
X155030000Y-80672000D02*
X155030000Y-81910000D01*
X155030000Y-83590000D02*
X155030000Y-84828000D01*
X155070000Y-80673000D02*
X155070000Y-81910000D01*
X155070000Y-83590000D02*
X155070000Y-84827000D01*
X155110000Y-80676000D02*
X155110000Y-81910000D01*
X155110000Y-83590000D02*
X155110000Y-84824000D01*
X155150000Y-80679000D02*
X155150000Y-81910000D01*
X155150000Y-83590000D02*
X155150000Y-84821000D01*
X155190000Y-80684000D02*
X155190000Y-81910000D01*
X155190000Y-83590000D02*
X155190000Y-84816000D01*
X155230000Y-80689000D02*
X155230000Y-81910000D01*
X155230000Y-83590000D02*
X155230000Y-84811000D01*
X155270000Y-80694000D02*
X155270000Y-81910000D01*
X155270000Y-83590000D02*
X155270000Y-84806000D01*
X155310000Y-80701000D02*
X155310000Y-81910000D01*
X155310000Y-83590000D02*
X155310000Y-84799000D01*
X155350000Y-80708000D02*
X155350000Y-81910000D01*
X155350000Y-83590000D02*
X155350000Y-84792000D01*
X155390000Y-80716000D02*
X155390000Y-81910000D01*
X155390000Y-83590000D02*
X155390000Y-84784000D01*
X155430000Y-80725000D02*
X155430000Y-81910000D01*
X155430000Y-83590000D02*
X155430000Y-84775000D01*
X155470000Y-80735000D02*
X155470000Y-81910000D01*
X155470000Y-83590000D02*
X155470000Y-84765000D01*
X155510000Y-80745000D02*
X155510000Y-81910000D01*
X155510000Y-83590000D02*
X155510000Y-84755000D01*
X155550000Y-80757000D02*
X155550000Y-81910000D01*
X155550000Y-83590000D02*
X155550000Y-84743000D01*
X155590000Y-80769000D02*
X155590000Y-81910000D01*
X155590000Y-83590000D02*
X155590000Y-84731000D01*
X155630000Y-80782000D02*
X155630000Y-81910000D01*
X155630000Y-83590000D02*
X155630000Y-84718000D01*
X155670000Y-80796000D02*
X155670000Y-81910000D01*
X155670000Y-83590000D02*
X155670000Y-84704000D01*
X155710000Y-80811000D02*
X155710000Y-81910000D01*
X155710000Y-83590000D02*
X155710000Y-84689000D01*
X155750000Y-80827000D02*
X155750000Y-81910000D01*
X155750000Y-83590000D02*
X155750000Y-84673000D01*
X155790000Y-80844000D02*
X155790000Y-81910000D01*
X155790000Y-83590000D02*
X155790000Y-84656000D01*
X155830000Y-80861000D02*
X155830000Y-81910000D01*
X155830000Y-83590000D02*
X155830000Y-84639000D01*
X155870000Y-80880000D02*
X155870000Y-81910000D01*
X155870000Y-83590000D02*
X155870000Y-84620000D01*
X155910000Y-80900000D02*
X155910000Y-81910000D01*
X155910000Y-83590000D02*
X155910000Y-84600000D01*
X155950000Y-80921000D02*
X155950000Y-81910000D01*
X155950000Y-83590000D02*
X155950000Y-84579000D01*
X155990000Y-80943000D02*
X155990000Y-81910000D01*
X155990000Y-83590000D02*
X155990000Y-84557000D01*
X156030000Y-80966000D02*
X156030000Y-81910000D01*
X156030000Y-83590000D02*
X156030000Y-84534000D01*
X156070000Y-80990000D02*
X156070000Y-81910000D01*
X156070000Y-83590000D02*
X156070000Y-84510000D01*
X156110000Y-81016000D02*
X156110000Y-81910000D01*
X156110000Y-83590000D02*
X156110000Y-84484000D01*
X156150000Y-81042000D02*
X156150000Y-81910000D01*
X156150000Y-83590000D02*
X156150000Y-84458000D01*
X156190000Y-81070000D02*
X156190000Y-81910000D01*
X156190000Y-83590000D02*
X156190000Y-84430000D01*
X156230000Y-81100000D02*
X156230000Y-81910000D01*
X156230000Y-83590000D02*
X156230000Y-84400000D01*
X156270000Y-81131000D02*
X156270000Y-81910000D01*
X156270000Y-83590000D02*
X156270000Y-84369000D01*
X156310000Y-81164000D02*
X156310000Y-81910000D01*
X156310000Y-83590000D02*
X156310000Y-84336000D01*
X156350000Y-81198000D02*
X156350000Y-81910000D01*
X156350000Y-83590000D02*
X156350000Y-84302000D01*
X156390000Y-81234000D02*
X156390000Y-81910000D01*
X156390000Y-83590000D02*
X156390000Y-84266000D01*
X156430000Y-81272000D02*
X156430000Y-81910000D01*
X156430000Y-83590000D02*
X156430000Y-84228000D01*
X156470000Y-81312000D02*
X156470000Y-81910000D01*
X156470000Y-83590000D02*
X156470000Y-84188000D01*
X156510000Y-81354000D02*
X156510000Y-81910000D01*
X156510000Y-83590000D02*
X156510000Y-84146000D01*
X156550000Y-81399000D02*
X156550000Y-84101000D01*
X156590000Y-81447000D02*
X156590000Y-84053000D01*
X156630000Y-81497000D02*
X156630000Y-84003000D01*
X156670000Y-81551000D02*
X156670000Y-83949000D01*
X156710000Y-81608000D02*
X156710000Y-83892000D01*
X156750000Y-81670000D02*
X156750000Y-83830000D01*
X156790000Y-81737000D02*
X156790000Y-83763000D01*
X156830000Y-81810000D02*
X156830000Y-83690000D01*
X156870000Y-81891000D02*
X156870000Y-83609000D01*
X156910000Y-81982000D02*
X156910000Y-83518000D01*
X156950000Y-82087000D02*
X156950000Y-83413000D01*
X156990000Y-82213000D02*
X156990000Y-83287000D01*
X157030000Y-82380000D02*
X157030000Y-83120000D01*
X157070000Y-82750000D02*
G75*
G02*
X152830000Y-82750000I-2120000J0D01*
G01*
X152830000Y-82750000D02*
G75*
G02*
X157070000Y-82750000I2120000J0D01*
G01*
%TO.C,R2*%
X144430000Y-115880000D02*
X144430000Y-112040000D01*
X146270000Y-115880000D02*
X146270000Y-112040000D01*
%TO.C,M1*%
X177320000Y-88480000D02*
X177320000Y-83290000D01*
X180080000Y-83290000D02*
X177320000Y-83290000D01*
X180080000Y-88480000D02*
X177320000Y-88480000D01*
X180080000Y-88480000D02*
X180080000Y-83290000D01*
X180080000Y-89750000D02*
X180080000Y-91130000D01*
X180080000Y-91130000D02*
X178700000Y-91130000D01*
%TO.C,U5*%
X120920000Y-82690000D02*
X120920000Y-90310000D01*
X120920000Y-83960000D02*
X131080000Y-83960000D01*
X120920000Y-90310000D02*
X131080000Y-90310000D01*
X131080000Y-82690000D02*
X120920000Y-82690000D01*
X131080000Y-90310000D02*
X131080000Y-82690000D01*
%TO.C,U1*%
D10*
X166560000Y-126000000D02*
X217560000Y-126000000D01*
X217560000Y-97500000D01*
X166560000Y-97500000D01*
X166560000Y-126000000D01*
X212960000Y-116050000D02*
X217560000Y-116050000D01*
X217560000Y-107050000D01*
X212960000Y-107050000D01*
X212960000Y-116050000D01*
D12*
%TO.C,M3*%
X168140000Y-88480000D02*
X168140000Y-83290000D01*
X170900000Y-83290000D02*
X168140000Y-83290000D01*
X170900000Y-88480000D02*
X168140000Y-88480000D01*
X170900000Y-88480000D02*
X170900000Y-83290000D01*
X170900000Y-89750000D02*
X170900000Y-91130000D01*
X170900000Y-91130000D02*
X169520000Y-91130000D01*
%TO.C,U9*%
D10*
X84200000Y-127130000D02*
X99200000Y-127130000D01*
X99200000Y-107130000D01*
X84200000Y-107130000D01*
X84200000Y-127130000D01*
X96700000Y-127130000D02*
X99200000Y-127130000D01*
X99200000Y-107130000D01*
X96700000Y-107130000D01*
X96700000Y-127130000D01*
X87600000Y-108930000D02*
G75*
G02*
X84600000Y-108930000I-1500000J0D01*
G01*
X84600000Y-108930000D02*
G75*
G02*
X87600000Y-108930000I1500000J0D01*
G01*
X87600000Y-125330000D02*
G75*
G02*
X84600000Y-125330000I-1500000J0D01*
G01*
X84600000Y-125330000D02*
G75*
G02*
X87600000Y-125330000I1500000J0D01*
G01*
D12*
%TO.C,U3*%
X199320000Y-83330000D02*
X200700000Y-83330000D01*
X199320000Y-84710000D02*
X199320000Y-83330000D01*
X199320000Y-85980000D02*
X199320000Y-91170000D01*
X199320000Y-85980000D02*
X202080000Y-85980000D01*
X199320000Y-91170000D02*
X202080000Y-91170000D01*
X202080000Y-85980000D02*
X202080000Y-91170000D01*
D13*
%TO.C,G\u002A\u002A\u002A*%
G36*
X107133631Y-83915596D02*
G01*
X107140496Y-83960834D01*
X107142516Y-84012350D01*
X107139630Y-84073112D01*
X107132090Y-84114305D01*
X107123504Y-84126422D01*
X107113377Y-84109105D01*
X107106511Y-84063866D01*
X107104492Y-84012350D01*
X107107378Y-83951589D01*
X107114918Y-83910395D01*
X107123504Y-83898278D01*
X107133631Y-83915596D01*
G37*
G36*
X107133631Y-84409907D02*
G01*
X107140496Y-84455146D01*
X107142516Y-84506662D01*
X107139630Y-84567423D01*
X107132090Y-84608617D01*
X107123504Y-84620734D01*
X107113377Y-84603416D01*
X107106511Y-84558178D01*
X107104492Y-84506662D01*
X107107378Y-84445900D01*
X107114918Y-84404706D01*
X107123504Y-84392590D01*
X107133631Y-84409907D01*
G37*
G36*
X106496528Y-84914738D02*
G01*
X106427304Y-84983618D01*
X106377608Y-85029664D01*
X106340614Y-85057447D01*
X106309491Y-85071539D01*
X106277412Y-85076512D01*
X106254126Y-85077021D01*
X106197111Y-85071783D01*
X106173901Y-85056598D01*
X106173506Y-85053256D01*
X106182256Y-85026078D01*
X106204897Y-84975481D01*
X106236946Y-84911335D01*
X106244801Y-84896407D01*
X106315495Y-84763323D01*
X106486603Y-84757890D01*
X106657710Y-84752456D01*
X106496528Y-84914738D01*
G37*
G36*
X106284033Y-83443091D02*
G01*
X106316391Y-83449460D01*
X106348117Y-83465699D01*
X106386470Y-83496410D01*
X106438705Y-83546194D01*
X106491775Y-83599237D01*
X106553144Y-83661657D01*
X106603214Y-83713976D01*
X106636675Y-83750550D01*
X106648245Y-83765592D01*
X106630726Y-83768648D01*
X106583845Y-83769096D01*
X106516170Y-83766957D01*
X106481890Y-83765195D01*
X106315495Y-83755689D01*
X106233861Y-83598840D01*
X106152227Y-83441991D01*
X106243787Y-83441991D01*
X106284033Y-83443091D01*
G37*
G36*
X105891242Y-84322662D02*
G01*
X105899714Y-84345114D01*
X105904511Y-84390037D01*
X105906512Y-84463568D01*
X105906737Y-84516168D01*
X105905863Y-84607328D01*
X105902656Y-84666630D01*
X105896238Y-84700212D01*
X105885734Y-84714213D01*
X105878219Y-84715793D01*
X105865196Y-84709673D01*
X105856725Y-84687221D01*
X105851927Y-84642298D01*
X105849927Y-84568767D01*
X105849701Y-84516168D01*
X105850576Y-84425008D01*
X105853783Y-84365705D01*
X105860201Y-84332123D01*
X105870705Y-84318122D01*
X105878219Y-84316542D01*
X105891242Y-84322662D01*
G37*
G36*
X105890984Y-83809192D02*
G01*
X105899389Y-83831131D01*
X105904256Y-83875061D01*
X105906407Y-83947010D01*
X105906737Y-84012350D01*
X105905923Y-84105960D01*
X105902931Y-84167597D01*
X105896941Y-84203288D01*
X105887129Y-84219058D01*
X105878219Y-84221482D01*
X105865454Y-84215508D01*
X105857049Y-84193570D01*
X105852182Y-84149639D01*
X105850032Y-84077691D01*
X105849701Y-84012350D01*
X105850516Y-83918740D01*
X105853508Y-83857103D01*
X105859498Y-83821413D01*
X105869309Y-83805642D01*
X105878219Y-83803219D01*
X105890984Y-83809192D01*
G37*
G36*
X108765308Y-86611245D02*
G01*
X108672445Y-86777033D01*
X108595943Y-86912428D01*
X108533944Y-87020413D01*
X108484591Y-87103973D01*
X108446028Y-87166090D01*
X108416396Y-87209748D01*
X108393841Y-87237930D01*
X108376504Y-87253620D01*
X108362529Y-87259801D01*
X108361546Y-87259967D01*
X108329827Y-87258705D01*
X108321577Y-87250462D01*
X108328511Y-87228921D01*
X108347707Y-87177603D01*
X108377052Y-87101936D01*
X108414435Y-87007344D01*
X108457744Y-86899255D01*
X108471925Y-86864147D01*
X108621953Y-86493413D01*
X108729753Y-86487667D01*
X108837553Y-86481921D01*
X108765308Y-86611245D01*
G37*
G36*
X107161528Y-84738774D02*
G01*
X107313805Y-84741277D01*
X107432744Y-84744554D01*
X107523031Y-84748926D01*
X107589347Y-84754715D01*
X107636378Y-84762240D01*
X107668808Y-84771822D01*
X107673615Y-84773862D01*
X107738921Y-84803125D01*
X107217328Y-85011169D01*
X106695734Y-85219214D01*
X106505615Y-85224924D01*
X106409452Y-85225884D01*
X106313731Y-85223604D01*
X106233845Y-85218566D01*
X106207795Y-85215616D01*
X106100095Y-85200599D01*
X106127601Y-85148316D01*
X106148144Y-85117262D01*
X106175526Y-85101690D01*
X106222328Y-85096421D01*
X106254689Y-85096033D01*
X106354270Y-85096033D01*
X106534508Y-84914491D01*
X106714746Y-84732949D01*
X107161528Y-84738774D01*
G37*
G36*
X108362349Y-81259044D02*
G01*
X108380887Y-81269136D01*
X108406315Y-81296895D01*
X108440770Y-81345554D01*
X108486386Y-81418349D01*
X108545300Y-81518513D01*
X108617441Y-81645359D01*
X108831442Y-82025599D01*
X108780729Y-82037608D01*
X108735135Y-82048488D01*
X108699412Y-82054103D01*
X108670354Y-82050572D01*
X108644757Y-82034014D01*
X108619413Y-82000549D01*
X108591117Y-81946297D01*
X108556662Y-81867378D01*
X108512844Y-81759910D01*
X108476296Y-81669124D01*
X108430880Y-81555781D01*
X108390715Y-81454216D01*
X108357862Y-81369746D01*
X108334380Y-81307689D01*
X108322328Y-81273364D01*
X108321169Y-81268550D01*
X108336991Y-81258635D01*
X108362349Y-81259044D01*
G37*
G36*
X107720958Y-81264341D02*
G01*
X107740775Y-81277271D01*
X107741301Y-81278540D01*
X107745912Y-81302277D01*
X107754759Y-81356962D01*
X107766872Y-81435878D01*
X107781279Y-81532307D01*
X107797012Y-81639531D01*
X107813101Y-81750832D01*
X107828574Y-81859493D01*
X107842463Y-81958796D01*
X107853796Y-82042023D01*
X107861605Y-82102457D01*
X107864918Y-82133380D01*
X107864968Y-82134918D01*
X107847183Y-82140422D01*
X107798725Y-82144940D01*
X107726940Y-82148010D01*
X107639174Y-82149176D01*
X107636827Y-82149177D01*
X107408683Y-82149177D01*
X107411715Y-82039858D01*
X107413936Y-81983887D01*
X107418139Y-81899002D01*
X107423840Y-81794230D01*
X107430552Y-81678601D01*
X107435480Y-81597829D01*
X107456213Y-81265120D01*
X107594325Y-81259528D01*
X107673854Y-81258648D01*
X107720958Y-81264341D01*
G37*
G36*
X107724894Y-86370947D02*
G01*
X107797159Y-86373975D01*
X107846277Y-86378462D01*
X107864905Y-86383947D01*
X107864916Y-86384094D01*
X107862255Y-86411074D01*
X107854990Y-86468345D01*
X107844087Y-86549196D01*
X107830513Y-86646916D01*
X107815236Y-86754791D01*
X107799220Y-86866110D01*
X107783433Y-86974161D01*
X107768842Y-87072231D01*
X107756412Y-87153610D01*
X107747112Y-87211583D01*
X107741906Y-87239440D01*
X107741591Y-87240472D01*
X107723335Y-87253982D01*
X107678094Y-87260182D01*
X107600752Y-87259734D01*
X107594325Y-87259484D01*
X107456213Y-87253892D01*
X107434058Y-86892665D01*
X107426913Y-86773315D01*
X107420548Y-86661597D01*
X107415376Y-86565201D01*
X107411811Y-86491818D01*
X107410293Y-86450636D01*
X107408683Y-86369835D01*
X107636827Y-86369835D01*
X107724894Y-86370947D01*
G37*
G36*
X107958340Y-82762313D02*
G01*
X107979407Y-82908763D01*
X107999125Y-83045553D01*
X108016735Y-83167449D01*
X108031482Y-83269219D01*
X108042606Y-83345627D01*
X108049351Y-83391441D01*
X108050527Y-83399214D01*
X108060066Y-83461003D01*
X107696351Y-83461003D01*
X107332636Y-83461003D01*
X107335272Y-83342178D01*
X107337229Y-83290988D01*
X107341374Y-83208368D01*
X107347337Y-83100826D01*
X107354746Y-82974868D01*
X107363229Y-82837003D01*
X107371351Y-82710030D01*
X107380231Y-82574614D01*
X107388367Y-82452239D01*
X107395422Y-82347849D01*
X107401057Y-82266388D01*
X107404934Y-82212800D01*
X107406717Y-82192029D01*
X107406739Y-82191954D01*
X107425315Y-82190137D01*
X107474572Y-82188640D01*
X107547164Y-82187613D01*
X107635750Y-82187202D01*
X107642189Y-82187201D01*
X107875694Y-82187201D01*
X107958340Y-82762313D01*
G37*
G36*
X105824422Y-84332914D02*
G01*
X105830689Y-84353303D01*
X105816106Y-84384785D01*
X105778406Y-84397984D01*
X105726124Y-84405905D01*
X105778406Y-84408753D01*
X105817222Y-84417750D01*
X105830170Y-84445907D01*
X105830689Y-84459132D01*
X105829090Y-84482620D01*
X105819142Y-84496726D01*
X105793124Y-84503840D01*
X105743312Y-84506355D01*
X105677200Y-84506662D01*
X105600970Y-84505786D01*
X105555632Y-84502085D01*
X105534071Y-84493952D01*
X105529176Y-84479779D01*
X105530027Y-84473391D01*
X105549076Y-84448365D01*
X105598375Y-84432395D01*
X105621728Y-84428716D01*
X105707112Y-84417313D01*
X105616805Y-84414457D01*
X105564136Y-84409339D01*
X105531593Y-84399525D01*
X105526498Y-84393326D01*
X105543140Y-84378251D01*
X105585957Y-84358899D01*
X105625008Y-84345796D01*
X105723160Y-84321729D01*
X105789427Y-84317428D01*
X105824422Y-84332914D01*
G37*
G36*
X105826302Y-84620734D02*
G01*
X105823097Y-84674963D01*
X105814901Y-84709381D01*
X105808484Y-84715793D01*
X105782193Y-84711821D01*
X105729902Y-84701378D01*
X105662632Y-84686671D01*
X105658582Y-84685752D01*
X105581996Y-84663716D01*
X105536173Y-84640358D01*
X105523366Y-84617557D01*
X105529765Y-84611756D01*
X105607520Y-84611756D01*
X105616543Y-84615105D01*
X105668701Y-84618528D01*
X105711603Y-84615364D01*
X105724797Y-84611008D01*
X105704248Y-84608014D01*
X105669088Y-84607159D01*
X105624000Y-84608367D01*
X105607520Y-84611756D01*
X105529765Y-84611756D01*
X105545826Y-84597197D01*
X105550263Y-84595301D01*
X105564273Y-84586711D01*
X105550263Y-84584211D01*
X105529147Y-84567404D01*
X105526498Y-84554192D01*
X105533728Y-84539468D01*
X105559940Y-84530675D01*
X105611913Y-84526522D01*
X105669088Y-84525770D01*
X105676400Y-84525674D01*
X105826302Y-84525674D01*
X105826302Y-84620734D01*
G37*
G36*
X107819755Y-85058255D02*
G01*
X107912574Y-85059300D01*
X107977271Y-85061600D01*
X108018794Y-85065613D01*
X108042094Y-85071796D01*
X108052120Y-85080606D01*
X108053882Y-85091280D01*
X108050909Y-85117653D01*
X108043047Y-85176886D01*
X108030964Y-85264223D01*
X108015328Y-85374907D01*
X107996811Y-85504184D01*
X107976080Y-85647297D01*
X107963575Y-85732934D01*
X107874477Y-86341317D01*
X107642831Y-86346645D01*
X107411186Y-86351974D01*
X107401008Y-86270598D01*
X107397579Y-86232775D01*
X107392508Y-86163249D01*
X107386165Y-86068285D01*
X107378915Y-85954151D01*
X107371127Y-85827114D01*
X107363168Y-85693441D01*
X107355406Y-85559398D01*
X107348208Y-85431253D01*
X107341942Y-85315272D01*
X107336975Y-85217723D01*
X107333675Y-85144871D01*
X107332408Y-85102985D01*
X107332408Y-85100786D01*
X107332636Y-85058009D01*
X107693863Y-85058009D01*
X107819755Y-85058255D01*
G37*
G36*
X105820249Y-83820312D02*
G01*
X105826763Y-83864017D01*
X105827776Y-83898278D01*
X105827039Y-83993338D01*
X105676769Y-83993338D01*
X105598379Y-83991821D01*
X105551572Y-83986505D01*
X105529998Y-83976244D01*
X105526498Y-83966214D01*
X105542258Y-83939060D01*
X105559769Y-83930396D01*
X105583200Y-83923170D01*
X105569699Y-83920191D01*
X105559769Y-83919496D01*
X105538177Y-83908313D01*
X105626532Y-83908313D01*
X105635555Y-83911662D01*
X105687713Y-83915085D01*
X105730615Y-83911921D01*
X105743809Y-83907565D01*
X105723260Y-83904571D01*
X105688100Y-83903716D01*
X105643012Y-83904924D01*
X105626532Y-83908313D01*
X105538177Y-83908313D01*
X105531541Y-83904876D01*
X105526498Y-83890296D01*
X105545381Y-83869580D01*
X105601556Y-83847908D01*
X105658582Y-83833260D01*
X105688100Y-83826794D01*
X105726576Y-83818365D01*
X105780420Y-83807618D01*
X105808982Y-83803231D01*
X105809589Y-83803219D01*
X105820249Y-83820312D01*
G37*
G36*
X108703245Y-82076677D02*
G01*
X108719346Y-82079584D01*
X108735162Y-82087024D01*
X108752755Y-82102222D01*
X108774187Y-82128403D01*
X108801519Y-82168791D01*
X108836813Y-82226613D01*
X108882131Y-82305092D01*
X108939533Y-82407454D01*
X109011082Y-82536924D01*
X109094184Y-82688240D01*
X109169937Y-82826795D01*
X109239301Y-82954506D01*
X109300278Y-83067631D01*
X109350872Y-83162431D01*
X109389087Y-83235165D01*
X109412927Y-83282091D01*
X109420395Y-83299470D01*
X109420393Y-83299471D01*
X109399987Y-83303788D01*
X109351436Y-83310077D01*
X109284482Y-83317106D01*
X109271269Y-83318351D01*
X109128091Y-83331606D01*
X108886276Y-82715086D01*
X108829779Y-82570657D01*
X108777966Y-82437458D01*
X108732421Y-82319622D01*
X108694731Y-82221281D01*
X108666480Y-82146568D01*
X108649253Y-82099615D01*
X108644462Y-82084643D01*
X108660882Y-82076679D01*
X108700659Y-82076429D01*
X108703245Y-82076677D01*
G37*
G36*
X109802780Y-83373921D02*
G01*
X110117786Y-83414286D01*
X110441841Y-83487410D01*
X110776804Y-83593841D01*
X111124531Y-83734129D01*
X111308277Y-83819321D01*
X111394228Y-83860421D01*
X111465093Y-83894469D01*
X111518884Y-83922126D01*
X111553616Y-83944055D01*
X111567303Y-83960918D01*
X111557959Y-83973376D01*
X111523597Y-83982093D01*
X111462233Y-83987729D01*
X111371879Y-83990947D01*
X111250549Y-83992409D01*
X111096259Y-83992777D01*
X110907021Y-83992714D01*
X110788062Y-83992734D01*
X109956288Y-83993338D01*
X109956288Y-83936302D01*
X109956288Y-83879266D01*
X109652097Y-83879266D01*
X109549479Y-83878426D01*
X109461761Y-83876102D01*
X109395277Y-83872593D01*
X109356365Y-83868196D01*
X109348859Y-83865007D01*
X109358412Y-83844452D01*
X109384084Y-83797362D01*
X109422447Y-83729820D01*
X109470075Y-83647908D01*
X109494789Y-83606002D01*
X109639765Y-83361256D01*
X109802780Y-83373921D01*
G37*
G36*
X105407258Y-82512626D02*
G01*
X105498251Y-82515873D01*
X105596089Y-82521878D01*
X105654298Y-82526885D01*
X105772592Y-82538922D01*
X106162593Y-82900150D01*
X106552593Y-83261377D01*
X106472068Y-83265904D01*
X106344811Y-83274226D01*
X106238926Y-83283509D01*
X106159220Y-83293222D01*
X106110505Y-83302832D01*
X106099816Y-83307079D01*
X106093194Y-83323865D01*
X106101430Y-83360462D01*
X106125998Y-83421370D01*
X106163292Y-83500688D01*
X106250484Y-83679641D01*
X106138697Y-83690727D01*
X106057934Y-83704966D01*
X105976301Y-83728942D01*
X105939437Y-83744158D01*
X105834495Y-83778092D01*
X105772461Y-83780602D01*
X105692957Y-83774701D01*
X105481007Y-83384955D01*
X105415861Y-83265322D01*
X105352304Y-83148906D01*
X105294094Y-83042564D01*
X105244983Y-82953150D01*
X105208728Y-82887519D01*
X105198537Y-82869231D01*
X105128016Y-82743252D01*
X105203264Y-82626828D01*
X105278513Y-82510404D01*
X105407258Y-82512626D01*
G37*
G36*
X105754040Y-84012887D02*
G01*
X105799217Y-84016073D01*
X105821880Y-84024269D01*
X105829783Y-84039838D01*
X105830689Y-84058676D01*
X105823576Y-84092245D01*
X105794974Y-84108245D01*
X105768900Y-84112669D01*
X105707112Y-84120337D01*
X105768900Y-84123380D01*
X105813182Y-84131108D01*
X105829699Y-84152483D01*
X105830689Y-84164446D01*
X105821019Y-84192958D01*
X105785851Y-84202313D01*
X105777104Y-84202470D01*
X105727620Y-84197379D01*
X105666875Y-84184356D01*
X105606042Y-84166778D01*
X105556292Y-84148021D01*
X105528797Y-84131463D01*
X105526498Y-84126727D01*
X105543553Y-84115334D01*
X105586939Y-84105702D01*
X105616805Y-84102373D01*
X105707112Y-84095252D01*
X105616805Y-84091825D01*
X105561307Y-84087297D01*
X105534371Y-84076369D01*
X105526593Y-84054724D01*
X105526498Y-84050374D01*
X105529673Y-84031429D01*
X105544298Y-84020075D01*
X105578022Y-84014399D01*
X105638492Y-84012490D01*
X105678594Y-84012350D01*
X105754040Y-84012887D01*
G37*
G36*
X109394293Y-85214820D02*
G01*
X109422060Y-85219244D01*
X109423953Y-85221135D01*
X109415169Y-85240569D01*
X109390453Y-85288677D01*
X109352263Y-85360849D01*
X109303053Y-85452477D01*
X109245281Y-85558950D01*
X109193063Y-85654426D01*
X109092667Y-85837446D01*
X109008961Y-85989964D01*
X108940224Y-86114748D01*
X108884732Y-86214564D01*
X108840765Y-86292180D01*
X108806598Y-86350363D01*
X108780511Y-86391879D01*
X108760780Y-86419496D01*
X108745684Y-86435981D01*
X108733500Y-86444100D01*
X108722506Y-86446621D01*
X108710979Y-86446311D01*
X108700427Y-86445883D01*
X108660971Y-86441682D01*
X108644868Y-86431624D01*
X108651691Y-86410857D01*
X108670736Y-86359443D01*
X108700202Y-86282077D01*
X108738283Y-86183456D01*
X108783179Y-86068275D01*
X108833084Y-85941230D01*
X108836504Y-85932560D01*
X108889405Y-85798270D01*
X108939986Y-85669546D01*
X108985878Y-85552438D01*
X109024714Y-85453000D01*
X109054124Y-85377284D01*
X109070857Y-85333683D01*
X109113982Y-85219611D01*
X109268967Y-85214089D01*
X109340297Y-85212967D01*
X109394293Y-85214820D01*
G37*
G36*
X113153071Y-84073167D02*
G01*
X113255988Y-84083058D01*
X113365311Y-84097334D01*
X113468100Y-84114215D01*
X113551416Y-84131924D01*
X113578070Y-84139361D01*
X113651963Y-84166026D01*
X113721083Y-84196979D01*
X113776684Y-84227629D01*
X113810026Y-84253382D01*
X113815719Y-84264199D01*
X113798954Y-84282405D01*
X113754509Y-84307766D01*
X113691161Y-84336632D01*
X113617686Y-84365354D01*
X113542863Y-84390283D01*
X113475466Y-84407767D01*
X113466006Y-84409622D01*
X113394340Y-84420543D01*
X113301538Y-84431510D01*
X113204438Y-84440598D01*
X113176534Y-84442703D01*
X113093505Y-84448087D01*
X113041268Y-84449381D01*
X113012713Y-84445546D01*
X113000730Y-84435548D01*
X112998210Y-84418349D01*
X112998204Y-84416714D01*
X113016410Y-84378462D01*
X113055240Y-84354566D01*
X113093820Y-84332756D01*
X113109687Y-84300932D01*
X113112276Y-84259506D01*
X113107621Y-84209259D01*
X113087460Y-84181035D01*
X113055240Y-84164446D01*
X113011801Y-84135501D01*
X112998204Y-84105104D01*
X113006003Y-84080948D01*
X113035786Y-84070800D01*
X113069499Y-84069440D01*
X113153071Y-84073167D01*
G37*
G36*
X106552306Y-83290546D02*
G01*
X106597656Y-83293656D01*
X106643245Y-83300966D01*
X106695224Y-83314215D01*
X106759746Y-83335141D01*
X106842962Y-83365484D01*
X106951023Y-83406984D01*
X107044850Y-83443645D01*
X107170237Y-83492747D01*
X107293780Y-83541066D01*
X107407555Y-83585510D01*
X107503641Y-83622982D01*
X107574112Y-83650389D01*
X107586092Y-83655032D01*
X107651620Y-83682600D01*
X107698488Y-83706617D01*
X107719523Y-83723215D01*
X107719175Y-83726841D01*
X107680524Y-83746539D01*
X107612236Y-83761911D01*
X107512464Y-83773133D01*
X107379363Y-83780384D01*
X107211086Y-83783841D01*
X107122813Y-83784207D01*
X106720697Y-83784207D01*
X106529237Y-83603593D01*
X106452339Y-83531580D01*
X106396547Y-83481791D01*
X106355524Y-83450133D01*
X106322932Y-83432512D01*
X106292433Y-83424833D01*
X106257691Y-83423003D01*
X106249637Y-83422979D01*
X106173424Y-83414627D01*
X106129519Y-83388785D01*
X106115869Y-83345837D01*
X106124500Y-83326798D01*
X106155191Y-83313766D01*
X106215144Y-83304045D01*
X106232730Y-83302110D01*
X106312796Y-83295931D01*
X106409700Y-83291538D01*
X106501045Y-83289895D01*
X106552306Y-83290546D01*
G37*
G36*
X110788062Y-84526810D02*
G01*
X110997683Y-84526888D01*
X111171216Y-84527014D01*
X111310591Y-84527877D01*
X111417738Y-84530165D01*
X111494588Y-84534566D01*
X111543070Y-84541770D01*
X111565116Y-84552463D01*
X111562655Y-84567335D01*
X111537618Y-84587074D01*
X111491935Y-84612368D01*
X111427536Y-84643907D01*
X111346352Y-84682377D01*
X111294115Y-84707283D01*
X111118129Y-84787002D01*
X110926369Y-84865597D01*
X110729997Y-84938969D01*
X110540173Y-85003019D01*
X110368058Y-85053649D01*
X110312011Y-85067940D01*
X110222320Y-85087173D01*
X110119966Y-85105131D01*
X110012007Y-85121042D01*
X109905502Y-85134135D01*
X109807507Y-85143639D01*
X109725082Y-85148783D01*
X109665285Y-85148795D01*
X109635173Y-85142904D01*
X109634105Y-85142002D01*
X109618618Y-85119730D01*
X109589300Y-85072637D01*
X109550329Y-85007897D01*
X109505887Y-84932687D01*
X109460153Y-84854181D01*
X109417308Y-84779555D01*
X109381531Y-84715986D01*
X109357004Y-84670647D01*
X109347905Y-84650717D01*
X109365856Y-84647013D01*
X109415466Y-84643842D01*
X109490374Y-84641436D01*
X109584214Y-84640023D01*
X109652097Y-84639745D01*
X109956288Y-84639745D01*
X109956288Y-84582761D01*
X109956288Y-84525777D01*
X110788062Y-84526810D01*
G37*
G36*
X105866956Y-84747504D02*
G01*
X105931007Y-84772896D01*
X105934779Y-84775068D01*
X106007844Y-84804491D01*
X106103125Y-84822966D01*
X106125986Y-84825201D01*
X106188694Y-84831259D01*
X106232997Y-84837497D01*
X106248953Y-84842354D01*
X106240959Y-84861312D01*
X106219391Y-84906675D01*
X106187867Y-84970936D01*
X106162001Y-85022769D01*
X106125440Y-85100214D01*
X106100628Y-85162348D01*
X106090131Y-85202243D01*
X106091710Y-85212563D01*
X106116303Y-85220263D01*
X106170695Y-85228730D01*
X106246706Y-85236909D01*
X106331164Y-85243430D01*
X106553956Y-85257635D01*
X106163955Y-85618862D01*
X106046255Y-85727962D01*
X105951915Y-85814327D01*
X105876004Y-85880628D01*
X105813588Y-85929534D01*
X105759736Y-85963715D01*
X105709516Y-85985842D01*
X105657996Y-85998584D01*
X105600244Y-86004611D01*
X105531328Y-86006593D01*
X105446610Y-86007199D01*
X105281169Y-86008608D01*
X105226033Y-85927807D01*
X105197627Y-85887045D01*
X105175789Y-85853524D01*
X105161722Y-85822821D01*
X105156627Y-85790516D01*
X105161708Y-85752188D01*
X105178164Y-85703418D01*
X105207200Y-85639784D01*
X105250017Y-85556865D01*
X105307817Y-85450241D01*
X105381802Y-85315491D01*
X105403102Y-85276647D01*
X105472458Y-85150585D01*
X105536739Y-85034781D01*
X105593469Y-84933615D01*
X105640173Y-84851463D01*
X105674376Y-84792705D01*
X105693602Y-84761718D01*
X105696005Y-84758570D01*
X105736320Y-84739434D01*
X105797683Y-84736048D01*
X105866956Y-84747504D01*
G37*
G36*
X108344560Y-81103244D02*
G01*
X108468157Y-81104161D01*
X108580111Y-81105925D01*
X108674904Y-81108569D01*
X108747017Y-81112124D01*
X108784398Y-81115608D01*
X108844797Y-81128071D01*
X108870794Y-81142861D01*
X108865817Y-81158459D01*
X108833294Y-81173346D01*
X108776651Y-81186005D01*
X108699317Y-81194915D01*
X108604719Y-81198559D01*
X108597159Y-81198578D01*
X108518025Y-81200483D01*
X108454245Y-81205602D01*
X108414785Y-81213039D01*
X108406812Y-81217590D01*
X108381207Y-81231094D01*
X108337114Y-81236602D01*
X108295310Y-81242865D01*
X108288630Y-81260367D01*
X108297566Y-81283106D01*
X108318700Y-81337036D01*
X108350382Y-81417935D01*
X108390958Y-81521582D01*
X108438776Y-81643757D01*
X108492183Y-81780238D01*
X108539831Y-81902021D01*
X108603304Y-82064213D01*
X108668435Y-82230559D01*
X108732388Y-82393820D01*
X108792325Y-82546754D01*
X108845409Y-82682122D01*
X108888803Y-82792683D01*
X108904883Y-82833608D01*
X108948102Y-82943784D01*
X108989342Y-83049339D01*
X109025385Y-83142000D01*
X109053009Y-83213494D01*
X109065839Y-83247118D01*
X109103481Y-83346931D01*
X109329137Y-83346931D01*
X109419200Y-83348407D01*
X109493872Y-83352435D01*
X109545489Y-83358419D01*
X109566201Y-83365390D01*
X109561065Y-83387336D01*
X109539485Y-83435982D01*
X109504436Y-83505335D01*
X109458891Y-83589405D01*
X109426961Y-83645816D01*
X109276312Y-83907784D01*
X109597288Y-83912986D01*
X109918264Y-83918188D01*
X109918264Y-83962733D01*
X109918264Y-84007277D01*
X111244350Y-84019654D01*
X111471836Y-84021913D01*
X111665579Y-84024065D01*
X111692935Y-84024369D01*
X111714896Y-84024639D01*
X111903940Y-84026966D01*
X112101147Y-84029645D01*
X112280848Y-84032349D01*
X112439338Y-84035020D01*
X112572910Y-84037602D01*
X112677859Y-84040037D01*
X112750478Y-84042267D01*
X112774814Y-84043359D01*
X112979192Y-84054687D01*
X112979192Y-84259451D01*
X112979192Y-84464215D01*
X112784320Y-84475815D01*
X112732352Y-84477944D01*
X112646017Y-84480295D01*
X112528972Y-84482814D01*
X112384872Y-84485443D01*
X112217375Y-84488125D01*
X112030135Y-84490804D01*
X111826809Y-84493423D01*
X111611054Y-84495926D01*
X111386525Y-84498257D01*
X111253856Y-84499505D01*
X109918264Y-84511596D01*
X109918264Y-84556659D01*
X109918264Y-84601722D01*
X109604567Y-84601722D01*
X109493813Y-84602744D01*
X109402112Y-84605611D01*
X109334761Y-84610025D01*
X109297061Y-84615687D01*
X109290869Y-84619415D01*
X109299824Y-84641337D01*
X109324499Y-84690004D01*
X109361609Y-84759227D01*
X109407872Y-84842816D01*
X109433459Y-84888151D01*
X109483052Y-84976497D01*
X109525147Y-85053451D01*
X109556462Y-85112860D01*
X109573718Y-85148573D01*
X109576049Y-85155637D01*
X109558247Y-85161904D01*
X109509670Y-85167071D01*
X109437566Y-85170630D01*
X109349177Y-85172072D01*
X109341493Y-85172081D01*
X109106938Y-85172081D01*
X108702392Y-86203481D01*
X108628540Y-86391767D01*
X108558723Y-86569766D01*
X108494195Y-86734278D01*
X108436212Y-86882103D01*
X108386029Y-87010040D01*
X108344901Y-87114889D01*
X108314084Y-87193450D01*
X108294833Y-87242523D01*
X108288506Y-87258645D01*
X108296747Y-87276838D01*
X108337114Y-87282410D01*
X108381775Y-87288073D01*
X108406812Y-87301422D01*
X108429839Y-87309721D01*
X108481913Y-87316174D01*
X108554068Y-87319885D01*
X108597159Y-87320434D01*
X108691392Y-87323661D01*
X108769883Y-87332329D01*
X108828895Y-87344923D01*
X108864693Y-87359927D01*
X108873541Y-87375823D01*
X108851702Y-87391096D01*
X108801311Y-87403291D01*
X108757154Y-87407497D01*
X108684795Y-87410803D01*
X108589729Y-87413242D01*
X108477450Y-87414843D01*
X108353451Y-87415639D01*
X108223227Y-87415661D01*
X108092271Y-87414939D01*
X107966079Y-87413505D01*
X107850144Y-87411390D01*
X107749960Y-87408624D01*
X107671021Y-87405240D01*
X107618822Y-87401267D01*
X107598857Y-87396738D01*
X107598803Y-87396482D01*
X107582090Y-87383916D01*
X107540994Y-87377634D01*
X107532261Y-87377470D01*
X107487262Y-87373919D01*
X107468840Y-87357939D01*
X107465719Y-87329940D01*
X107467340Y-87306367D01*
X107477375Y-87292252D01*
X107503581Y-87285171D01*
X107553716Y-87282699D01*
X107617815Y-87282410D01*
X107688444Y-87280362D01*
X107741631Y-87274918D01*
X107768382Y-87267131D01*
X107769911Y-87264613D01*
X107772576Y-87242296D01*
X107780174Y-87186474D01*
X107792108Y-87101257D01*
X107807779Y-86990762D01*
X107826591Y-86859099D01*
X107847947Y-86710383D01*
X107871248Y-86548727D01*
X107895899Y-86378244D01*
X107921301Y-86203048D01*
X107946858Y-86027251D01*
X107971972Y-85854967D01*
X107996045Y-85690310D01*
X108018481Y-85537392D01*
X108038682Y-85400327D01*
X108056051Y-85283227D01*
X108069991Y-85190208D01*
X108079904Y-85125380D01*
X108085193Y-85092859D01*
X108085498Y-85091280D01*
X108096136Y-85038997D01*
X107712801Y-85038997D01*
X107577507Y-85038489D01*
X107476418Y-85036804D01*
X107405728Y-85033701D01*
X107361629Y-85028939D01*
X107340315Y-85022278D01*
X107337168Y-85015232D01*
X107356348Y-85000567D01*
X107403976Y-84975050D01*
X107473144Y-84941825D01*
X107556946Y-84904037D01*
X107648474Y-84864832D01*
X107740822Y-84827352D01*
X107798158Y-84805353D01*
X107791338Y-84796369D01*
X107755817Y-84779270D01*
X107699080Y-84757613D01*
X107693592Y-84755701D01*
X107617175Y-84733856D01*
X107527955Y-84717603D01*
X107421745Y-84706755D01*
X107294356Y-84701121D01*
X107141600Y-84700512D01*
X106959288Y-84704739D01*
X106752770Y-84713162D01*
X106612408Y-84719945D01*
X106505106Y-84725808D01*
X106425933Y-84731399D01*
X106369959Y-84737362D01*
X106332252Y-84744345D01*
X106307881Y-84752995D01*
X106291915Y-84763956D01*
X106281821Y-84774897D01*
X106257570Y-84798249D01*
X106226825Y-84808737D01*
X106177322Y-84809034D01*
X106139231Y-84805969D01*
X106068522Y-84796032D01*
X106005460Y-84781516D01*
X105978032Y-84771795D01*
X105925749Y-84747714D01*
X105925749Y-84503974D01*
X107085480Y-84503974D01*
X107086575Y-84573780D01*
X107091669Y-84614644D01*
X107103476Y-84635627D01*
X107124710Y-84645789D01*
X107128257Y-84646774D01*
X107179016Y-84658651D01*
X107210991Y-84657310D01*
X107228516Y-84636816D01*
X107235928Y-84591237D01*
X107237561Y-84514639D01*
X107237576Y-84497156D01*
X107236393Y-84413715D01*
X107230222Y-84362833D01*
X107215124Y-84339057D01*
X107187162Y-84336936D01*
X107142399Y-84351019D01*
X107134247Y-84354095D01*
X107108499Y-84366589D01*
X107093878Y-84385872D01*
X107087259Y-84421545D01*
X107085519Y-84483209D01*
X107085480Y-84503974D01*
X105925749Y-84503974D01*
X105925749Y-84261440D01*
X110545659Y-84261440D01*
X110559660Y-84295523D01*
X110593565Y-84332423D01*
X110595671Y-84334110D01*
X110648381Y-84365579D01*
X110712019Y-84391148D01*
X110720768Y-84393667D01*
X110816084Y-84414176D01*
X110938729Y-84432902D01*
X111078014Y-84448726D01*
X111223252Y-84460531D01*
X111363752Y-84467198D01*
X111433576Y-84468267D01*
X111665579Y-84468638D01*
X111685378Y-84397343D01*
X111699035Y-84329697D01*
X111705154Y-84262873D01*
X111705158Y-84262340D01*
X111714896Y-84262340D01*
X111714896Y-84465786D01*
X111762426Y-84458610D01*
X111807580Y-84452806D01*
X111873461Y-84445467D01*
X111922525Y-84440476D01*
X112022076Y-84422586D01*
X112120116Y-84390951D01*
X112202855Y-84350672D01*
X112241784Y-84322375D01*
X112270727Y-84278341D01*
X112265145Y-84233363D01*
X112228410Y-84189631D01*
X112163891Y-84149332D01*
X112074959Y-84114657D01*
X111964984Y-84087795D01*
X111857486Y-84072742D01*
X111714896Y-84058894D01*
X111714896Y-84262340D01*
X111705158Y-84262340D01*
X111705178Y-84259506D01*
X111699682Y-84193819D01*
X111686355Y-84125265D01*
X111685378Y-84121669D01*
X111665579Y-84050374D01*
X111405058Y-84050486D01*
X111258908Y-84054011D01*
X111108759Y-84063757D01*
X110964175Y-84078664D01*
X110834717Y-84097671D01*
X110729948Y-84119717D01*
X110697755Y-84128938D01*
X110630091Y-84159846D01*
X110577193Y-84201365D01*
X110548367Y-84245387D01*
X110545659Y-84261440D01*
X105925749Y-84261440D01*
X105925749Y-84258241D01*
X105925749Y-84015038D01*
X107085480Y-84015038D01*
X107086484Y-84084763D01*
X107091580Y-84126077D01*
X107103891Y-84148583D01*
X107126543Y-84161882D01*
X107134247Y-84164917D01*
X107181785Y-84180904D01*
X107187162Y-84181007D01*
X107211947Y-84181481D01*
X107228673Y-84161196D01*
X107235899Y-84114598D01*
X107237562Y-84036236D01*
X107237576Y-84021856D01*
X107236521Y-83939064D01*
X107230465Y-83888356D01*
X107215074Y-83863798D01*
X107186011Y-83859457D01*
X107138942Y-83869398D01*
X107128257Y-83872237D01*
X107105616Y-83881666D01*
X107092751Y-83900754D01*
X107086948Y-83938561D01*
X107085491Y-84004147D01*
X107085480Y-84015038D01*
X105925749Y-84015038D01*
X105925749Y-83768769D01*
X106014690Y-83738464D01*
X106115443Y-83713101D01*
X106199855Y-83709771D01*
X106262008Y-83728287D01*
X106283929Y-83746932D01*
X106297071Y-83759915D01*
X106316125Y-83770132D01*
X106346173Y-83778264D01*
X106392297Y-83784990D01*
X106459578Y-83790990D01*
X106553099Y-83796944D01*
X106677941Y-83803530D01*
X106724252Y-83805829D01*
X106953411Y-83815308D01*
X107148267Y-83819285D01*
X107186011Y-83818902D01*
X107312161Y-83817621D01*
X107448435Y-83810172D01*
X107560429Y-83796798D01*
X107651484Y-83777356D01*
X107691663Y-83764803D01*
X107813040Y-83721956D01*
X107572838Y-83624987D01*
X107485102Y-83587901D01*
X107411728Y-83553709D01*
X107359183Y-83525668D01*
X107333934Y-83507036D01*
X107332636Y-83504016D01*
X107341240Y-83495462D01*
X107369626Y-83489056D01*
X107421651Y-83484554D01*
X107501171Y-83481714D01*
X107612044Y-83480294D01*
X107714386Y-83480015D01*
X108096136Y-83480015D01*
X108085498Y-83427732D01*
X108080824Y-83399505D01*
X108071452Y-83338461D01*
X108057979Y-83248715D01*
X108041003Y-83134380D01*
X108021121Y-82999568D01*
X107998929Y-82848393D01*
X107975027Y-82684968D01*
X107950009Y-82513407D01*
X107924475Y-82337822D01*
X107899021Y-82162328D01*
X107874245Y-81991037D01*
X107850744Y-81828063D01*
X107829114Y-81677518D01*
X107809954Y-81543517D01*
X107793861Y-81430171D01*
X107781431Y-81341596D01*
X107773263Y-81281904D01*
X107769953Y-81255207D01*
X107769911Y-81254399D01*
X107752405Y-81246135D01*
X107705882Y-81239911D01*
X107639337Y-81236781D01*
X107617815Y-81236602D01*
X107542382Y-81236095D01*
X107497214Y-81232960D01*
X107474553Y-81224770D01*
X107466642Y-81209103D01*
X107465719Y-81189072D01*
X107470691Y-81156929D01*
X107493063Y-81143771D01*
X107532261Y-81141542D01*
X107576243Y-81136767D01*
X107598228Y-81125025D01*
X107598803Y-81122530D01*
X107616893Y-81117831D01*
X107667485Y-81113722D01*
X107745061Y-81110234D01*
X107844102Y-81107400D01*
X107959091Y-81105251D01*
X108084509Y-81103821D01*
X108214838Y-81103141D01*
X108344560Y-81103244D01*
G37*
%TO.C,U12*%
D10*
X98700000Y-96210000D02*
X95700000Y-96210000D01*
X95700000Y-85710000D01*
X98700000Y-85710000D01*
X98700000Y-96210000D01*
X98700000Y-102710000D02*
X68700000Y-102710000D01*
X68700000Y-79710000D01*
X98700000Y-79710000D01*
X98700000Y-102710000D01*
X72000000Y-81510000D02*
G75*
G02*
X69000000Y-81510000I-1500000J0D01*
G01*
X69000000Y-81510000D02*
G75*
G02*
X72000000Y-81510000I1500000J0D01*
G01*
X72000000Y-100910000D02*
G75*
G02*
X69000000Y-100910000I-1500000J0D01*
G01*
X69000000Y-100910000D02*
G75*
G02*
X72000000Y-100910000I1500000J0D01*
G01*
X98400000Y-81510000D02*
G75*
G02*
X95400000Y-81510000I-1500000J0D01*
G01*
X95400000Y-81510000D02*
G75*
G02*
X98400000Y-81510000I1500000J0D01*
G01*
X98400000Y-100910000D02*
G75*
G02*
X95400000Y-100910000I-1500000J0D01*
G01*
X95400000Y-100910000D02*
G75*
G02*
X98400000Y-100910000I1500000J0D01*
G01*
%TD*%
M02*
